<?xml version="1.0" encoding="utf-8"?>
<!-- Generator: Adobe Illustrator 23.0.1, SVG Export Plug-In . SVG Version: 6.00 Build 0)  -->
<svg version="1.1" id="Layer_1" xmlns="http://www.w3.org/2000/svg" xmlns:xlink="http://www.w3.org/1999/xlink" x="0px" y="0px"
	 viewBox="0 0 512 512" style="enable-background:new 0 0 512 512;" xml:space="preserve">
<style type="text/css">
	.st0{fill:#FFFFFF;}
	.st1{font-family:'FuturaBT-Heavy';}
	.st2{font-size:101.5073px;}
	.st3{fill-rule:evenodd;clip-rule:evenodd;fill:#FFFFFF;}
</style>
<text transform="matrix(1 3.299967e-04 -3.300000e-04 1 71.9802 466.9364)" class="st0 st1 st2">PayTack</text>
<g>
	<g>
		<path class="st3" d="M283.22,105.45c0-0.12,0.03-0.24,0.04-0.36l-17.96-6.42c-0.23,0.85-0.73,1.58-1.4,2.12l16.45,29.83
			c0.28-0.18,0.58-0.34,0.9-0.44l5.45-20.49C284.72,109.29,283.22,107.55,283.22,105.45z M355.97,219.96
			c-8.95-8.15-23.17-35.84-23.17-35.84c-4.68-7.61-1.08-13.74-1.08-13.74c1.92-6.15,2.96-11.86,2.96-11.86
			c-1.15-33.19-15.9-60.35-15.9-60.35C266.9,15.44,152.81,52.64,152.81,52.64c-30.83,13.19-13.2,8.62-13.2,8.62
			c66.86-21.03,109.12,9.16,109.12,9.16c6.17,5.16-4.04,2.16-4.04,2.16c-96.89-25.19-120.17,8.08-120.17,8.08
			c-22.82,23.76,3.77,57.12,3.77,57.12c9.43,5.46,3.77-4.04,3.77-4.04C98,51.7,219.36,86.86,219.36,86.86
			c69.52,32.44,19.94,125.83,19.94,125.83c-46.46,122.4,14.28,158.16,14.28,158.16c-18.77-31.26-3.23-51.19-3.23-51.19
			c19.5-22.24,53.62-5.66,53.62-5.66c25.54,5.58,22.36-21.82,22.36-21.82c-0.59-8.23,8.08-12.66,8.08-12.66
			c10.78-3.38,1.08-15.9,1.08-15.9c16.64,1.19,6.47-16.44,6.47-16.44c-3.59-6.48,1.08-8.35,1.08-8.35
			c3.78-0.62,12.12-4.31,12.12-4.31C362.52,230.35,355.97,219.96,355.97,219.96z M333.61,228.58c-2.22,0-4.03-1.69-4.26-3.85
			l-27.18-10.22c-0.99,1.57-2.63,2.68-4.54,2.95l5.18,27.02c3.93,0.1,7.1,3.31,7.1,7.27c0,1.47-0.44,2.84-1.19,3.99l16.33,9.6
			c0.58-1.33,1.91-2.26,3.45-2.26c2.08,0,3.77,1.69,3.77,3.77s-1.69,3.77-3.77,3.77s-3.77-1.69-3.77-3.77c0-0.3,0.04-0.58,0.11-0.86
			l-16.49-9.74c-1.33,1.69-3.39,2.78-5.71,2.78c-1.74,0-3.33-0.61-4.58-1.63l-8.82,12.97c2.77,0.84,4.78,3.41,4.78,6.44
			c0,1.8-0.71,3.43-1.86,4.64l8.62,13.87c0.69-0.46,1.51-0.73,2.39-0.73c2.38,0,4.31,1.93,4.31,4.31c0,2.38-1.93,4.31-4.31,4.31
			s-4.31-1.93-4.31-4.31c0-1.18,0.47-2.24,1.24-3.02l-9.16-13.43c-1.06,0.69-2.31,1.09-3.67,1.09c-1.91,0-3.62-0.8-4.85-2.07
			l-19.6,13.37c0.62,0.63,1.01,1.48,1.01,2.44c0,1.93-1.57,3.5-3.5,3.5c-1.3,0-2.41-0.71-3.02-1.76l-16.59,6.79
			c0.64,0.95,1.02,2.09,1.02,3.32c0,3.27-2.65,5.93-5.93,5.93c-3.27,0-5.93-2.65-5.93-5.93c0-3.27,2.65-5.93,5.93-5.93
			c1.38,0,2.65,0.48,3.65,1.27l17.39-6.88c-0.01-0.11-0.03-0.21-0.03-0.32c0-1.77,1.31-3.21,3.01-3.45l2.18-31.68
			c-0.54-0.14-1.02-0.43-1.39-0.82l-16.63,11.48c0.1,0.23,0.16,0.49,0.16,0.76c0,1.04-0.84,1.89-1.89,1.89s-1.89-0.84-1.89-1.89
			c0-1.04,0.84-1.89,1.89-1.89c0.53,0,1.01,0.22,1.35,0.57l16.42-11.79c-0.16-0.36-0.25-0.75-0.25-1.17c0-1.64,1.33-2.96,2.96-2.96
			c1.64,0,3.23,1.06,3.23,2.69c0,1.23-0.91,2.44-2.06,2.96l-3.32,31.82c0.62,0.05,1.19,0.27,1.68,0.6L282,281.01
			c-0.92-1.15-1.47-2.61-1.47-4.2c0-3.72,3.02-6.74,6.74-6.74c0.34,0,0.68,0.03,1.01,0.08l8.69-13.84
			c-1.01-1.25-1.61-2.83-1.61-4.56c0-1.26,0.32-2.45,0.89-3.49l-18.56-8.42c-1.6,3.37-5.02,5.71-9,5.71c-5.51,0-9.97-4.46-9.97-9.97
			c0-5.37,4.25-9.74,9.57-9.95l2.62-27.17c-0.65-0.19-1.24-0.53-1.74-0.97l-8.53,14.95c0.95,0.63,1.58,1.7,1.58,2.92
			c0,1.93-1.57,3.5-3.5,3.5s-3.5-1.57-3.5-3.5s1.57-3.5,3.5-3.5c0.42,0,0.82,0.09,1.19,0.22l8.67-15.21
			c-0.61-0.77-0.97-1.74-0.97-2.8c0-2.42,1.88-4.38,4.26-4.55l-6.01-34.27c-1.43-0.07-2.56-1.24-2.56-2.68
			c0-1.49,1.21-2.69,2.69-2.69c1.49,0,2.69,1.21,2.69,2.69c0,1.2-0.79,2.2-1.87,2.55l5.61,34.38c2.42,0.12,4.35,2.11,4.35,4.56
			c0,2.15-1.49,3.94-3.49,4.43l-2.64,27.28c4.57,0.91,8.01,4.94,8.01,9.77c0,0.91-0.13,1.79-0.36,2.62l18.54,9.17
			c1.2-1.59,3.02-2.66,5.11-2.86l-6.26-27.08c-3.08-0.49-5.44-3.16-5.44-6.38c0-3.57,2.9-6.47,6.47-6.47c0.6,0,1.17,0.09,1.72,0.24
			l9.81-15.64c-2.39-1.41-3.99-3.99-3.99-6.96c0-1.48,0.4-2.86,1.1-4.05l-9.5-8.01c-1.05,0.96-2.45,1.55-3.99,1.55
			c-3.27,0-5.93-2.65-5.93-5.93s2.65-5.93,5.93-5.93c0.65,0,1.27,0.11,1.85,0.3l10.46-16.67c-2.24-1.67-3.69-4.33-3.69-7.33
			c0-0.31,0.02-0.61,0.05-0.91l-14.34-1.37c-0.08,2.02-1.72,3.63-3.76,3.63c-2.08,0-3.77-1.69-3.77-3.77c0-0.97,0.38-1.84,0.98-2.51
			l-17.61-29.62c-0.2,0.03-0.41,0.06-0.62,0.06c-2.23,0-4.04-1.81-4.04-4.04c0-2.23,1.81-4.04,4.04-4.04c0.06,0,0.12,0.02,0.18,0.02
			l11.32-14.12c-0.6-0.48-1.05-1.14-1.3-1.89l-40.98,4.67c-0.24,1.08-1.21,1.89-2.36,1.89c-1.34,0-2.42-1.09-2.42-2.42
			c0-0.13,0.02-0.26,0.04-0.38l-18.72-6.47c-0.24,0.85-1.01,1.47-1.93,1.47c-1.12,0-2.02-0.9-2.02-2.02c0-1.12,0.9-2.02,2.02-2.02
			c1.12,0,2.02,0.9,2.02,2.02c0,0,0,0,0,0.01l19.3,5.7c0.44-0.44,1.05-0.72,1.72-0.72c1.02,0,1.88,0.63,2.24,1.51l40.97-3.58
			c-0.07-0.29-0.1-0.59-0.1-0.89c0-0.77,0.23-1.48,0.6-2.09l-23.37-14.11c-0.79,1-2,1.65-3.36,1.65c-2.01,0-3.68-1.38-4.16-3.24
			l-35.72-9.51c0,0.03,0.01,0.06,0.01,0.09c0,1.64-1.33,2.96-2.96,2.96c-1.64,0-2.96-1.33-2.96-2.96c0-1.64,1.33-2.96,2.96-2.96
			c1.46,0,2.66,1.05,2.91,2.44l35.66,8.5c0.2-2.2,2.02-3.93,4.27-3.93c2.38,0,4.31,1.93,4.31,4.31c0,0.56-0.12,1.09-0.31,1.59
			l23.56,14.22c0.71-0.61,1.62-0.99,2.62-0.99c2.23,0,4.04,1.81,4.04,4.04c0,0.64-0.16,1.23-0.42,1.77l17.81,8.86
			c0.51-0.88,1.46-1.47,2.55-1.47c1.64,0,2.96,1.33,2.96,2.96c0,1.07-0.57,2-1.42,2.52l10.63,12.95c0.33-0.07,0.67-0.11,1.03-0.11
			c2.68,0,4.85,2.17,4.85,4.85c0,2.25-1.54,4.13-3.62,4.67l-1.7,14c3.85,1.09,6.67,4.61,6.67,8.81c0,5.06-4.1,9.16-9.16,9.16
			c-1.33,0-2.59-0.29-3.73-0.8l-11.25,16.05c1.86,1,3.13,2.96,3.13,5.23c0,0.98-0.24,1.91-0.67,2.72l9.11,8.43
			c1.48-1.71,3.66-2.79,6.1-2.79c4.46,0,8.08,3.62,8.08,8.08s-3.62,8.08-8.08,8.08c-0.7,0-1.38-0.1-2.03-0.27l-10.41,15.39
			c1.96,1.11,3.29,3.21,3.29,5.63c0,0.5-0.06,0.99-0.17,1.46l26.37,11.17c0.28-2.11,2.07-3.74,4.25-3.74c2.38,0,4.31,1.93,4.31,4.31
			S335.99,228.58,333.61,228.58z M311.38,127.18l1.11-13.65c-2.63-0.05-4.75-2.2-4.75-4.84c0-1.91,1.11-3.54,2.71-4.33l-9.93-13.14
			c-0.35,0.14-0.73,0.23-1.13,0.23c-1.64,0-2.96-1.33-2.96-2.96c0-0.31,0.06-0.6,0.15-0.89l-18.44-8.27
			c-0.72,0.66-1.67,1.08-2.73,1.08c-0.77,0-1.48-0.23-2.09-0.6l-9.92,14.35c1.21,0.7,2.04,1.99,2.04,3.49
			c0,0.07-0.01,0.14-0.01,0.21l17.98,6.43c0.51-1.81,2.16-3.14,4.13-3.14c2.38,0,4.31,1.93,4.31,4.31c0,1.79-1.09,3.33-2.65,3.98
			l-5.52,20.77c0.74,0.26,1.37,0.74,1.82,1.37l15.25,2.41c0.98-4,4.58-6.98,8.89-6.98C310.23,127,310.81,127.07,311.38,127.18z"/>
	</g>
</g>
</svg>
