<svg xmlns="http://www.w3.org/2000/svg" width="25.589" height="30" viewBox="0 0 25.589 30">
    <defs>
        <style>
            .cls-1{fill:#fff}
        </style>
    </defs>
    <g id="android" transform="translate(-37.134)">
        <g id="Group_1489" data-name="Group 1489" transform="translate(37.134)">
            <path id="Path_23424" d="M39.153 164.715h-.083a1.941 1.941 0 0 0-1.936 1.936v8.429a1.94 1.94 0 0 0 1.936 1.937h.085a1.942 1.942 0 0 0 1.936-1.937v-8.43a1.944 1.944 0 0 0-1.938-1.935z" class="cls-1" data-name="Path 23424" transform="translate(-37.134 -155.426)"/>
            <path id="Path_23425" d="M113.085 182.835a1.686 1.686 0 0 0 1.57 1.777h1.677v4.553a1.839 1.839 0 0 0 1.708 1.939h.073a1.839 1.839 0 0 0 1.71-1.939v-4.553h2.344v4.553a1.841 1.841 0 0 0 1.71 1.939h.072a1.838 1.838 0 0 0 1.709-1.939v-4.553h1.679a1.686 1.686 0 0 0 1.568-1.777v-13.31h-15.82z" class="cls-1" data-name="Path 23425" transform="translate(-108.202 -161.104)"/>
            <path id="Path_23426" d="M124.072 2.828L125.405.5a.347.347 0 0 0-.083-.444.262.262 0 0 0-.392.094l-1.382 2.412a8.154 8.154 0 0 0-6.839 0l-1.38-2.415a.264.264 0 0 0-.394-.094.347.347 0 0 0-.083.444l1.335 2.331a7.719 7.719 0 0 0-4.029 6.74c0 .178.01.352.023.526h15.9c.013-.173.022-.348.022-.526a7.721 7.721 0 0 0-4.031-6.74zM116.443 7a.819.819 0 0 1-.765-.865.771.771 0 1 1 1.531 0 .819.819 0 0 1-.766.865zm7.371 0a.819.819 0 0 1-.765-.865.77.77 0 1 1 1.529 0 .817.817 0 0 1-.765.865z" class="cls-1" data-name="Path 23426" transform="translate(-107.333)"/>
            <path id="Path_23427" d="M408.488 164.715h-.08a1.944 1.944 0 0 0-1.939 1.936v8.429a1.943 1.943 0 0 0 1.939 1.937h.082a1.941 1.941 0 0 0 1.936-1.937v-8.43a1.943 1.943 0 0 0-1.938-1.935z" class="cls-1" data-name="Path 23427" transform="translate(-384.837 -155.426)"/>
        </g>
    </g>
</svg>
