<svg xmlns="http://www.w3.org/2000/svg" width="116.232" height="111.691" viewBox="0 0 116.232 111.691">
    <defs>
        <style>
            .cls-1,.cls-2{fill:#fff}.cls-1{opacity:.15}
        </style>
    </defs>
    <g id="cardless_checkin" transform="translate(-275.885 -1430)">
        <path id="Path_261" d="M33.865 0C15.089 0-8.759 53.092 3.237 69.633S68.424 83 77.376 61.219 52.641 0 33.865 0z" class="cls-1" data-name="Path 261" transform="rotate(-142 434.437 712.65)"/>
        <g id="face_id" data-name="face id" transform="translate(330 1453)">
            <path id="Path_22051" d="M107.262 305.469v-1.02c0-.1 0-.214.008-.321a3.224 3.224 0 0 0-.343-1.843 5.205 5.205 0 0 0-2.43-1.8c-.207-.1-.393-.186-.561-.275-1.15-.621-2.3-1.235-3.433-1.883a13.6 13.6 0 0 0-4.233-1.677 15.1 15.1 0 0 1-4.52-2.114v-1.6c.151-.144.293-.288.461-.431a10.54 10.54 0 0 0 .816-.77 1.035 1.035 0 1 0-1.5-1.429 8.385 8.385 0 0 1-.657.621 16.789 16.789 0 0 0-2.816 3.19c-1.068 1.479-1.562 2.08-2.972 2.08h-3.23c-1.41 0-1.9-.6-2.972-2.081a16.833 16.833 0 0 0-2.819-3.193 8.267 8.267 0 0 1-.654-.621 1.035 1.035 0 1 0-1.5 1.428 10.45 10.45 0 0 0 .813.767c.17.144.31.289.464.434v1.6a15.171 15.171 0 0 1-4.52 2.112 13.588 13.588 0 0 0-4.232 1.677 146.609 146.609 0 0 1-3.434 1.883c-.168.089-.359.179-.561.275a5.2 5.2 0 0 0-2.429 1.8 3.22 3.22 0 0 0-.344 1.844c0 .1.009.214.008.323v1.018a3.187 3.187 0 0 0 3.2 3.16h41.183a3.187 3.187 0 0 0 3.2-3.155zm-45.519-.006v-1c0-.136 0-.274-.009-.414a1.586 1.586 0 0 1 .063-.725 4.132 4.132 0 0 1 1.522-.971c.238-.112.462-.218.658-.323a132.456 132.456 0 0 0 3.484-1.911 11.628 11.628 0 0 1 3.592-1.441c.188-.035.379-.083.571-.135-.131 2.223.069 5.6 2 8.007H62.876a1.114 1.114 0 0 1-1.133-1.087zm28 1.09H76.781c-3.416-1.848-3.259-6.7-3-8.84.509-.246.988-.5 1.41-.748v1.306a1.035 1.035 0 1 0 2.071 0V295.4c1.071 1.485 2.111 2.867 4.594 2.867h3.23c2.485 0 3.52-1.382 4.6-2.867v2.867a1.035 1.035 0 1 0 2.071 0v-1.306c.423.244.9.5 1.41.748.254 2.138.414 6.992-3 8.84zm15.456-2.5c-.005.137-.01.275-.009.414v1a1.114 1.114 0 0 1-1.133 1.085H93.316c1.926-2.408 2.126-5.784 2-8.007.191.053.383.1.571.136a11.635 11.635 0 0 1 3.593 1.441c1.149.657 2.316 1.285 3.483 1.911.2.1.42.207.658.323a4.126 4.126 0 0 1 1.523.972 1.6 1.6 0 0 1 .062.723zm0 0" class="cls-2" data-name="Path 22051" transform="translate(-52.409 -254.789)"/>
            <path id="Path_22052" d="M68.914 86.055c.227-1.367.556-4.616-1.3-5.23a2.8 2.8 0 0 0-1.635-.033c0-.6-.006-1.218-.029-1.855 0-.26-.01-.541-.023-.843l-.03-.566c-.36-6.985-7.675-9.112-11.534-9.263h-1.658c-3.819.149-11.134 2.278-11.492 9.264l-.032.621c-.011.272-.021.533-.02.768a55.293 55.293 0 0 0-.031 1.874 2.762 2.762 0 0 0-1.619.03c-1.872.614-1.553 3.862-1.321 5.28a6.852 6.852 0 0 0 3.786 4.324l-.027.614H26.637a1.035 1.035 0 0 0 0 2.071h53.834a1.035 1.035 0 0 0 0-2.071H65.156c-.007-.207-.017-.408-.027-.614a6.81 6.81 0 0 0 3.784-4.371zm-2.033-.4a4.518 4.518 0 0 1-1.724 2.326c.054-.42.134-.828.227-1.3a25.749 25.749 0 0 0 .509-3.6 1.5 1.5 0 0 1 .963-.322 7.1 7.1 0 0 1 .025 2.899zm-26.654.058a7.053 7.053 0 0 1 .03-2.954 1.511 1.511 0 0 1 .958.322 25.749 25.749 0 0 0 .509 3.6c.093.465.173.876.227 1.3a4.609 4.609 0 0 1-1.724-2.267zm3.8 5.325l.025-.551.02-.679a.88.88 0 0 0 0-.112l.02-.677a12.781 12.781 0 0 0-.337-2.738 23.47 23.47 0 0 1-.5-3.786 39.722 39.722 0 0 1-.019-3.559c0-.227.009-.463.018-.731l.032-.573c.35-6.841 9.131-7.285 9.464-7.3h1.574c.092 0 9.153.436 9.5 7.3l.031.557c.009.256.019.51.02.782.045 1.267.038 2.42-.02 3.52a23.5 23.5 0 0 1-.5 3.788 12.752 12.752 0 0 0-.337 2.738l.02.677a.88.88 0 0 0 0 .112l.02.679.025.551zm0 0" class="cls-2" data-name="Path 22052" transform="translate(-22.496 -59.983)"/>
            <path id="Path_22053" d="M1.036 9.318a1.035 1.035 0 0 0 1.035-1.036V5.176A3.106 3.106 0 0 1 5.177 2.07h3.105a1.035 1.035 0 1 0 0-2.07H5.177A5.182 5.182 0 0 0 0 5.176v3.106a1.035 1.035 0 0 0 1.036 1.036zm0 0" class="cls-2" data-name="Path 22053"/>
            <path id="Path_22054" d="M8.282 442.447H5.176a3.106 3.106 0 0 1-3.106-3.106v-3.106a1.035 1.035 0 1 0-2.071 0v3.106a5.182 5.182 0 0 0 5.177 5.177h3.106a1.035 1.035 0 1 0 0-2.07zm0 0" class="cls-2" data-name="Path 22054" transform="translate(0 -382.4)"/>
            <path id="Path_22055" d="M443.481 435.2a1.035 1.035 0 0 0-1.035 1.035v3.106a3.106 3.106 0 0 1-3.106 3.106h-3.106a1.035 1.035 0 1 0 0 2.071h3.106a5.182 5.182 0 0 0 5.177-5.177v-3.106a1.035 1.035 0 0 0-1.036-1.035zm0 0" class="cls-2" data-name="Path 22055" transform="translate(-382.4 -382.4)"/>
            <path id="Path_22056" d="M439.34 0h-3.106a1.035 1.035 0 1 0 0 2.071h3.106a3.106 3.106 0 0 1 3.106 3.106v3.105a1.035 1.035 0 1 0 2.07 0V5.177A5.182 5.182 0 0 0 439.34 0zm0 0" class="cls-2" data-name="Path 22056" transform="translate(-382.4)"/>
            <path id="Path_22057" d="M36.2 38.274V36.2h2.071a1.035 1.035 0 1 0 0-2.071H36.2a2.07 2.07 0 0 0-2.067 2.071v2.071a1.035 1.035 0 1 0 2.071 0zm0 0" class="cls-2" data-name="Path 22057" transform="translate(-29.992 -29.992)"/>
            <path id="Path_22058" d="M38.274 438.305H36.2v-2.071a1.035 1.035 0 1 0-2.071 0v2.071a2.07 2.07 0 0 0 2.071 2.07h2.071a1.035 1.035 0 1 0 0-2.07zm0 0" class="cls-2" data-name="Path 22058" transform="translate(-29.992 -382.4)"/>
            <path id="Path_22059" d="M438.305 436.234v2.066h-2.071a1.035 1.035 0 1 0 0 2.07h2.071a2.07 2.07 0 0 0 2.07-2.07v-2.071a1.035 1.035 0 1 0-2.07 0zm0 0" class="cls-2" data-name="Path 22059" transform="translate(-382.4 -382.4)"/>
            <path id="Path_22060" d="M439.34 39.309a1.035 1.035 0 0 0 1.036-1.035V36.2a2.071 2.071 0 0 0-2.071-2.071h-2.07a1.035 1.035 0 1 0 0 2.071h2.07v2.071a1.035 1.035 0 0 0 1.035 1.038zm0 0" class="cls-2" data-name="Path 22060" transform="translate(-382.4 -29.992)"/>
        </g>
    </g>
</svg>
