<?xml version="1.0" encoding="utf-8"?>
<!-- Generator: Adobe Illustrator 22.1.0, SVG Export Plug-In . SVG Version: 6.00 Build 0)  -->
<svg version="1.1" xmlns="http://www.w3.org/2000/svg" xmlns:xlink="http://www.w3.org/1999/xlink" x="0px" y="0px"
	 viewBox="0 0 570.6 500" style="enable-background:new 0 0 570.6 500;" xml:space="preserve">
<style type="text/css">
	.st0{fill:#EBBDBA;}
	.st1{fill:#EBEBEB;}
	.st2{fill:#F5F5F5;}
	.st3{fill:#E0E0E0;}
	.st4{fill:#FFFFFF;}
	.st5{fill:#263238;}
	.st6{fill:#E8505B;}
	.st7{opacity:0.2;enable-background:new    ;}
	.st8{fill:#455A64;}
	.st9{display:none;}
	.st10{display:inline;}
	.st11{fill:#FFBE9D;}
	.st12{opacity:0.2;}
	.st13{fill:#EB996E;}
	.st14{opacity:0.3;enable-background:new    ;}
	.st15{display:inline;fill:#EBBDBA;}
	.st16{display:inline;fill:#27325A;}
</style>
<g id="Layer_1">
	<g id="Background_Simple">
		<g>
			<g>
				<path class="st0" d="M316.3,172.1c25.5-2,32-4.6,57.3-8.2c31.7-4.5,47.5-8.5,78.9-2.5s62.3,24.6,74.5,54.2
					c15.3,37.2-3.6,81.7-34.7,107.1c-31.1,25.5-71.8,35.7-111.4,42.9c-34.4,6.2-69.3,10.6-104.2,8.8c-34.9-1.8-69.9-10.1-100-27.9
					c-37.5-22.1-65.3-57.6-86.7-95.5c-15.5-27.5-28.4-57.4-29.7-88.9s10.6-64.9,36.3-83.2c32.4-23,78.8-16.5,112,5.3
					c29.9,19.7,40.8,32.9,58.2,59.9c6.8,10.5,16.4,19,27.9,23.9C301.2,170.9,308.6,172.7,316.3,172.1z"/>
			</g>
		</g>
	</g>
	<g id="Background_Complete">
		<g>
			<g>
				<path class="st1" d="M426.6,370.4c-0.3,0.9,10,40,10,40l7.1-1.5l-9.7-38.5H426.6z"/>
			</g>
			<g>
				<polygon class="st2" points="481.3,364.8 467.2,410.4 475.4,410.4 488.9,368 				"/>
			</g>
			<g>
				<polygon class="st1" points="494.2,357.7 478,410.4 486.3,410.4 501.9,360.9 				"/>
			</g>
			<g>
				<polygon class="st3" points="431.6,407.1 439.8,435.7 481.3,435.7 488.9,407.1 				"/>
			</g>
			<g>
				<g>
					<path class="st3" d="M453,407.1c0,0,0-0.1-0.1-0.3c-0.1-0.2-0.1-0.5-0.2-0.9c-0.2-0.8-0.5-1.9-0.8-3.4c-0.7-3-1.6-7.2-2.8-12.5
						c-2.4-10.6-5.6-25.2-9.3-41.5l0.3,0.2c-1.2,0-2.4,0-3.7,0c-1.2,0-2.5,0-3.6,0l0.3-0.3c3.7,16.3,7,31,9.4,41.6
						c1.2,5.3,2.1,9.5,2.8,12.5c0.3,1.4,0.5,2.6,0.7,3.4c0.1,0.4,0.1,0.7,0.2,0.9c0,0.2,0.1,0.3,0,0.3c0,0,0-0.1-0.1-0.3
						c-0.1-0.2-0.1-0.5-0.2-0.9c-0.2-0.8-0.5-1.9-0.8-3.4c-0.7-3-1.7-7.2-2.9-12.5c-2.4-10.6-5.8-25.2-9.5-41.5l-0.1-0.3h0.3
						c1.1,0,2.4,0,3.6,0c1.3,0,2.5,0,3.7,0h0.2v0.2c3.6,16.3,6.8,31,9.2,41.6c1.1,5.3,2.1,9.5,2.7,12.5c0.3,1.4,0.5,2.6,0.7,3.4
						c0.1,0.4,0.1,0.7,0.2,0.9C453,407,453,407.1,453,407.1z"/>
				</g>
			</g>
		</g>
		<g>
			<g>
				<g>
					<rect x="117.4" y="74.8" class="st2" width="70.2" height="48.9"/>
				</g>
				<g>
					<rect x="117.4" y="74.8" class="st3" width="70.2" height="6.1"/>
				</g>
				<g>
					<path class="st4" d="M121.2,78c0,0.4-0.3,0.8-0.7,0.8s-0.7-0.3-0.7-0.8c0-0.4,0.3-0.8,0.7-0.8S121.2,77.6,121.2,78z"/>
				</g>
				<g>
					<path class="st4" d="M124.2,78c0,0.4-0.3,0.8-0.7,0.8s-0.7-0.3-0.7-0.8c0-0.4,0.3-0.8,0.7-0.8C123.9,77.2,124.2,77.6,124.2,78z
						"/>
				</g>
				<g>
					<path class="st4" d="M127.2,78c0,0.4-0.3,0.8-0.7,0.8s-0.7-0.3-0.7-0.8c0-0.4,0.3-0.8,0.7-0.8C126.9,77.2,127.2,77.6,127.2,78z
						"/>
				</g>
			</g>
			<rect x="124.1" y="86.9" class="st3" width="10" height="24"/>
			<rect x="139.5" y="86.9" class="st1" width="10" height="24"/>
			<rect x="155" y="86.9" class="st4" width="10" height="24"/>
			<rect x="170.4" y="87.1" class="st1" width="10" height="24"/>
			<rect x="122.9" y="113.5" class="st1" width="60.7" height="5.5"/>
			<polygon class="st3" points="175.3,117.2 176.6,123.8 177.7,121.9 180,125.2 181.1,124.5 178.8,121.2 180.9,120.9 			"/>
		</g>
		<g>
			<g>
				<rect x="52.6" y="140.6" class="st2" width="122.9" height="85.6"/>
			</g>
			<g>
				<rect x="52.6" y="140.6" class="st3" width="122.9" height="10.7"/>
			</g>
			<g>
				<path class="st4" d="M59.3,146.2c0,0.7-0.6,1.3-1.3,1.3s-1.3-0.6-1.3-1.3s0.6-1.3,1.3-1.3S59.3,145.5,59.3,146.2z"/>
			</g>
			<g>
				<path class="st4" d="M64.5,146.2c0,0.7-0.6,1.3-1.3,1.3s-1.3-0.6-1.3-1.3s0.6-1.3,1.3-1.3S64.5,145.5,64.5,146.2z"/>
			</g>
			<g>
				<path class="st4" d="M69.7,146.2c0,0.7-0.6,1.3-1.3,1.3s-1.3-0.6-1.3-1.3s0.6-1.3,1.3-1.3S69.7,145.5,69.7,146.2z"/>
			</g>
		</g>
		<g>
			<polygon class="st3" points="496,175.7 496,199.3 534.3,200.3 533.7,176.4 			"/>
			<polygon class="st1" points="496,175.7 496,173.4 533.7,173.9 533.7,177.2 			"/>
			<polygon class="st1" points="499.4,181.7 499.8,186.5 504.9,186.5 505.1,181.9 			"/>
			<polygon class="st2" points="507,184.9 506.7,182.9 518.1,183.7 517.8,185.7 			"/>
			<polygon class="st1" points="524.3,182.5 525.2,187.5 531.1,187.2 530.7,182.9 			"/>
			<polygon class="st1" points="499.5,189.6 499.9,194.4 505,194.4 505.1,189.8 			"/>
			<polygon class="st2" points="507,192.5 506.8,190.8 515.1,191.6 514.9,193.3 			"/>
			<polygon class="st1" points="524.4,190.5 525.3,195.4 531.1,195.1 530.8,190.8 			"/>
		</g>
	</g>
	<g id="Floor">
		<g>
			<g>
				<path class="st5" d="M568.9,434.9c0,0.1-126.5,0.3-282.6,0.3S3.7,435.1,3.7,434.9s126.5-0.3,282.6-0.3S568.9,434.7,568.9,434.9z
					"/>
			</g>
		</g>
	</g>
	<g id="Plant">
		<g>
			<g>
				<g>
					<g>
						<g>
							<path class="st6" d="M62.7,241.8c-6.6,0.6-10,8.4-9.8,15c0.1,6.6,2.4,13.2,1.3,19.6c-1.4,8.2-8.2,14.8-9.4,23.1
								c-1.5,9.7,4.9,18.9,6.3,28.6c0.7,4.7,0.2,9.7,1.7,14.3c2.5,7.7,10.8,13.1,18.8,12.2s14.9-8,15.6-16.1
								c0.6-7.5-3.6-14.9-2.5-22.4c0.8-5.5,4.4-10.6,4-16.1c-0.4-6.6-6.2-11.7-7.9-18.1s0.8-13.2,0.4-19.8
								C80.6,250.3,74.6,241.6,62.7,241.8"/>
							<path class="st7" d="M62.7,241.8c-6.6,0.6-10,8.4-9.8,15c0.1,6.6,2.4,13.2,1.3,19.6c-1.4,8.2-8.2,14.8-9.4,23.1
								c-1.5,9.7,4.9,18.9,6.3,28.6c0.7,4.7,0.2,9.7,1.7,14.3c2.5,7.7,10.8,13.1,18.8,12.2s14.9-8,15.6-16.1
								c0.6-7.5-3.6-14.9-2.5-22.4c0.8-5.5,4.4-10.6,4-16.1c-0.4-6.6-6.2-11.7-7.9-18.1s0.8-13.2,0.4-19.8
								C80.6,250.3,74.6,241.6,62.7,241.8"/>
						</g>
						<g>
							<g>
								<path class="st6" d="M25.9,296.9c-1.8,10.9,2.2,24,7.2,33.9c5,9.8,13.3,17.9,23.1,22.8c1.1,0.6,2.5,1,3.5,0.3
									c0.8-0.6,1-1.7,1.1-2.7c0.8-11.5-2.2-23.3-8.4-33C46.1,308.5,36.7,300.9,25.9,296.9"/>
							</g>
						</g>
						<g>
							<g>
								<g>
									<path class="st5" d="M68.5,377.3c0,0-0.1-0.2-0.3-0.6c-0.2-0.5-0.4-1.1-0.7-1.8c-0.6-1.6-1.4-3.9-2.5-6.8
										c-2.1-5.7-5.4-13.4-9.5-21.7c-4.2-8.3-8.4-15.5-11.7-20.6c-1.6-2.6-3-4.6-3.9-6c-0.4-0.7-0.8-1.2-1.1-1.6
										c-0.2-0.4-0.4-0.6-0.3-0.6c0,0,0.2,0.2,0.4,0.5c0.3,0.4,0.7,0.9,1.2,1.6c1,1.4,2.4,3.4,4.1,5.9c3.4,5.1,7.7,12.3,11.9,20.6
										c4.2,8.3,7.3,16.1,9.4,21.9c1,2.9,1.8,5.2,2.3,6.8c0.2,0.8,0.4,1.4,0.6,1.9C68.5,377.1,68.6,377.3,68.5,377.3z"/>
								</g>
							</g>
						</g>
						<g>
							<g>
								<g>
									<path class="st5" d="M68.2,272.6c0,0,0,0.4,0.1,1.1c0,0.7,0,1.8,0,3c0,2.7,0,6.5,0,11.1c0,9.4,0,22.4,0.1,36.7
										c0.1,14.3,0.2,27.3,0.4,36.7c0.1,4.7,0.1,8.4,0.1,11.1c0,1.3,0,2.3,0,3s0,1.1,0,1.1s-0.1-0.4-0.1-1.1s-0.1-1.8-0.1-3
										c-0.1-2.7-0.2-6.5-0.3-11.1c-0.2-9.4-0.5-22.4-0.6-36.7c-0.1-14.3,0-27.3,0.1-36.7c0.1-4.7,0.2-8.4,0.2-11.1
										c0-1.3,0.1-2.3,0.1-3C68.2,272.9,68.2,272.6,68.2,272.6z"/>
								</g>
							</g>
						</g>
					</g>
				</g>
				<g>
					<polygon class="st8" points="52.6,362.1 55.9,434.1 78.9,434.1 81.5,365.4 					"/>
				</g>
			</g>
			<g>
				<g>
					<path class="st5" d="M80.8,380c0,0-0.4,0.2-1,0.4c-0.7,0.2-1.7,0.4-3,0.6c-1.3,0.1-2.8,0.2-4.5,0.1s-3.5-0.5-5.4-1
						s-3.6-1-5.3-1.2c-1.6-0.2-3.1-0.2-4.4,0c-2.5,0.4-3.7,1.5-3.8,1.4c0,0,0.3-0.3,0.9-0.7c0.6-0.4,1.6-0.8,2.8-1.1
						c1.3-0.3,2.8-0.3,4.5-0.1c1.7,0.2,3.5,0.7,5.3,1.2c3.7,1.1,7.2,1.3,9.7,1C79.2,380.3,80.7,379.9,80.8,380z"/>
				</g>
			</g>
			<g>
				<g>
					<path class="st5" d="M80.2,387.9c0,0-0.3-0.3-0.8-0.7c-0.6-0.4-1.5-0.9-2.8-1.1s-2.8,0-4.4,0.5c-1.6,0.5-3.3,1.3-5.3,1.8
						c-3.9,1-7.7,0.1-10-1c-1.2-0.6-2.1-1.1-2.6-1.6c-0.6-0.5-0.8-0.7-0.8-0.8c0.1-0.1,1.3,1,3.6,2s6,1.8,9.7,0.8
						c1.9-0.5,3.6-1.3,5.3-1.8c1.6-0.5,3.3-0.7,4.6-0.4c1.3,0.2,2.3,0.8,2.8,1.3c0.3,0.2,0.5,0.5,0.6,0.6
						C80.1,387.8,80.2,387.8,80.2,387.9z"/>
				</g>
			</g>
			<g>
				<g>
					<path class="st5" d="M80.4,397.7c0,0-0.1,0.1-0.3,0.1c-0.2,0.1-0.4,0.1-0.8,0.2c-0.7,0.1-1.8,0-2.9-0.4
						c-1.2-0.4-2.5-1.2-3.9-1.9c-1.5-0.7-3.1-1.3-5-1.8c-3.7-0.9-7.1-0.8-9.6-0.4c-2.4,0.3-3.9,0.9-3.9,0.8c0,0,0.3-0.2,1-0.4
						c0.7-0.2,1.6-0.5,2.9-0.7c2.5-0.5,6-0.6,9.7,0.3c1.9,0.4,3.6,1.1,5.1,1.9s2.7,1.5,3.9,2c1.1,0.5,2.1,0.6,2.8,0.6
						C80.1,397.7,80.4,397.6,80.4,397.7z"/>
				</g>
			</g>
			<g>
				<g>
					<path class="st5" d="M54.5,404.3c0,0,0.4,0.1,1,0.1c0.7,0,1.6-0.1,2.7-0.7c1.1-0.5,2.2-1.5,3.5-2.4c0.7-0.5,1.4-1,2.2-1.3
						c0.8-0.3,1.8-0.6,2.7-0.6c1.9-0.1,3.7,0.2,5.3,0.5s3,0.6,4.2,0.8c1.2,0.2,2.2,0.1,2.9,0.1c0.7-0.1,1.1-0.1,1.1-0.1
						s-0.4,0.1-1,0.3c-0.7,0.1-1.7,0.2-2.9,0.1s-2.7-0.4-4.3-0.7c-1.6-0.3-3.4-0.6-5.2-0.5c-0.9,0.1-1.8,0.3-2.6,0.6
						c-0.8,0.3-1.5,0.8-2.2,1.2c-1.3,0.9-2.5,1.9-3.6,2.4s-2.2,0.6-2.9,0.5C55,404.6,54.8,404.5,54.5,404.3
						C54.6,404.3,54.5,404.3,54.5,404.3z"/>
				</g>
			</g>
			<g>
				<g>
					<path class="st5" d="M80.1,410.5c0,0.1-1.2-0.9-3.6-0.9c-2.3-0.1-5.4,1.2-9,1.3c-3.6,0.2-6.9-0.2-9.1-0.8
						c-1.1-0.3-2-0.6-2.7-0.8c-0.6-0.2-0.9-0.4-0.9-0.4c0-0.1,1.4,0.4,3.7,0.9s5.5,0.9,9,0.7c1.8-0.1,3.4-0.4,4.9-0.7
						c1.5-0.3,2.9-0.6,4.1-0.5c1.2,0,2.1,0.4,2.7,0.7C79.9,410.2,80.1,410.5,80.1,410.5z"/>
				</g>
			</g>
		</g>
	</g>
	<g id="Windows">
		<g>
			<g>
				<g>
					<g>
						<rect x="215.4" y="62" class="st4" width="259.4" height="165.5"/>
					</g>
					<g>
						<g>
							<path class="st5" d="M474.8,227.5c0-1.7-0.1-64.4-0.2-165.5l0.2,0.2c-70.8,0-161.2,0-259.4,0.1l0,0l0.3-0.3
								c0,58.7,0,114.7,0,165.5l-0.2-0.2C367.8,227.4,472.6,227.5,474.8,227.5c-2.2,0-107,0.1-259.4,0.2h-0.2v-0.2
								c0-50.9,0-106.8,0-165.5v-0.3h0.3l0,0c98.2,0,188.6,0,259.4,0.1h0.2V62C474.9,163.1,474.8,225.8,474.8,227.5z"/>
						</g>
					</g>
				</g>
				<g>
					<polygon class="st6" points="215.4,66.7 215.2,75.2 474.5,75.6 474.8,66.7 					"/>
				</g>
				<g>
					<g>
						<polygon class="st5" points="457.9,101.2 457,154.9 498.5,156.1 499.7,101.7 						"/>
					</g>
					<g>
						<polygon class="st8" points="458.1,106.2 488.4,106.4 488.1,103.7 499.6,104.2 499.7,101.7 457.9,101.2 						"/>
					</g>
					<g>
						<polygon class="st6" points="459.7,103.7 459.7,105.1 467.3,105.1 466.9,103.7 						"/>
					</g>
					<g>
						<polygon class="st6" points="469.1,103.7 469.1,105.1 476.7,105.2 476.3,103.7 						"/>
					</g>
					<g>
						<polygon class="st6" points="478.7,103.9 478.7,105.3 486.3,105.3 485.9,103.9 						"/>
					</g>
					<g>
						<polygon class="st8" points="460.4,108.7 460.1,135.9 485.8,136.8 485,109.5 						"/>
					</g>
					<g>
						<g>
							<path class="st6" d="M484.9,111.2c0,0-0.3,0.4-0.9,1.2c-0.6,0.8-1.4,2-2.3,3.5c-0.5,0.8-1,1.6-1.7,2.5
								c-0.6,0.9-1.2,1.9-1.7,3s-1,2.3-1.6,3.5s-1.3,2.5-2.4,3.6l-0.3,0.3l-0.2-0.4c-0.9-1.8-1.7-3.8-2.3-5.9c-0.5-1.7-0.8-3.4-1-5
								l0.5,0.2c-2.1,2.1-3.3,4.8-4.5,7.1c-0.6,1.2-1.1,2.3-1.7,3.3c-0.6,1-1.1,1.9-1.6,2.7c-1,1.6-1.7,2.9-2.3,3.9
								c-0.6,0.9-0.9,1.4-0.9,1.4s0.2-0.5,0.7-1.5c0.6-1,1.3-2.3,2.2-4c0.5-0.8,1-1.8,1.5-2.8c0.5-1,1.1-2.1,1.6-3.3
								c1.1-2.3,2.3-5,4.6-7.3l0.5-0.5l0.1,0.7c0.1,1.6,0.5,3.3,1,4.9c0.6,2.1,1.4,4,2.2,5.8l-0.5-0.1c1-1,1.7-2.2,2.3-3.4
								c0.6-1.2,1.1-2.4,1.6-3.5s1.1-2.2,1.8-3c0.6-0.9,1.2-1.7,1.7-2.4c1-1.5,1.9-2.7,2.5-3.4C484.5,111.5,484.9,111.2,484.9,111.2
								z"/>
						</g>
					</g>
					<g>
						
							<rect x="487" y="111.1" transform="matrix(8.117769e-03 -1 1 8.117769e-03 371.8949 600.4331)" class="st8" width="3.3" height="3.3"/>
					</g>
					<g>
						<polygon class="st6" points="491.1,111.7 491.3,113.2 497.6,113.1 497.5,112.1 						"/>
					</g>
					<g>
						
							<rect x="487.5" y="116" transform="matrix(8.147943e-03 -1 1 8.147943e-03 367.4763 605.7906)" class="st8" width="3.3" height="3.3"/>
					</g>
					<g>
						<polygon class="st6" points="491.6,116.6 491.7,118.1 498.1,118.1 498,117 						"/>
					</g>
					<g>
						
							<rect x="487.3" y="121.7" transform="matrix(8.148189e-03 -1 1 8.148189e-03 361.578 611.2438)" class="st8" width="3.3" height="3.3"/>
					</g>
					<g>
						<polygon class="st6" points="491.4,122.3 491.6,123.8 497.9,123.8 497.8,122.7 						"/>
					</g>
					<g>
						<polygon class="st8" points="460.8,138.7 491.7,139.3 491.6,142.1 460.6,140.9 						"/>
					</g>
					<g>
						<polygon class="st6" points="491.7,139.3 495.4,139.3 495.3,142.1 491.6,142.1 						"/>
					</g>
					<g>
						<polygon class="st8" points="461.2,143.8 495.5,144.4 495.5,147.5 461.1,146 						"/>
					</g>
					<g>
						<polygon class="st6" points="477.6,144 481.3,144.1 481.2,146.8 477.5,146.8 						"/>
					</g>
					<g>
						<polygon class="st8" points="461.7,148.7 492.7,149.3 492.6,152.1 461.5,151 						"/>
					</g>
					<g>
						<polygon class="st6" points="492.7,149.3 496.3,149.3 496.2,152.1 492.6,152.1 						"/>
					</g>
				</g>
				<g class="st9">
					<g class="st10">
						<g>
							<polygon class="st5" points="199.1,64 205,63.7 205.5,147.3 200,146.5 							"/>
						</g>
					</g>
					<g class="st10">
						<polygon class="st6" points="200.2,67 200.8,71 202.9,70.8 203.2,66.5 						"/>
					</g>
					<g class="st10">
						<polygon class="st6" points="201,108.3 201.5,112.3 203.7,112.1 204,107.8 						"/>
					</g>
					<g class="st10">
						<polygon class="st6" points="200.4,73.6 203.8,73.4 204.1,77.7 200.5,77.7 						"/>
					</g>
					<g class="st10">
						<polygon class="st6" points="200.7,87.2 203.6,87.1 203.9,91.8 200.8,91.7 						"/>
					</g>
					<g class="st10">
						<polygon class="st6" points="200.9,94 203.8,93.9 204.1,98.6 201,98.4 						"/>
					</g>
					<g class="st10">
						<polygon class="st6" points="201.1,101 204,100.9 204.3,105.6 201.2,105.4 						"/>
					</g>
					<g class="st10">
						<polygon class="st6" points="201.3,116.2 204.2,116.1 204.5,120.8 201.4,120.6 						"/>
					</g>
					<g class="st10">
						<polygon class="st6" points="200.6,80.2 204,80.6 204.2,85 200.9,85 						"/>
					</g>
				</g>
				<g>
					<rect x="215.4" y="62" class="st5" width="259.4" height="4.7"/>
				</g>
				<g>
					<path class="st6" d="M220.2,64.1c0,0.5-0.3,1-0.9,1c-0.5,0-1-0.3-1-0.9c0-0.5,0.3-1,0.9-1C219.7,63.2,220.2,63.6,220.2,64.1z"
						/>
				</g>
				<g>
					<path class="st6" d="M224,64.2c0,0.5-0.3,1-0.9,1c-0.5,0-1-0.3-1-0.9c0-0.5,0.3-1,0.9-1C223.5,63.3,223.9,63.7,224,64.2z"/>
				</g>
				<g>
					<path class="st6" d="M227.7,64.2c0,0.5-0.3,1-0.9,1c-0.5,0-1-0.3-1-0.9c0-0.5,0.3-1,0.9-1C227.2,63.3,227.7,63.7,227.7,64.2z"
						/>
				</g>
				<g>
					<polygon class="st8" points="232.1,63.5 232.3,65.3 244.8,65.3 244.4,63.6 					"/>
				</g>
				<g>
					<polygon class="st8" points="247.4,63.8 247.6,65.5 256.3,65.4 256,63.6 					"/>
				</g>
				<g>
					<polygon class="st8" points="260.7,64 260.9,65.8 269.6,65.8 269.3,64.1 					"/>
				</g>
			</g>
			<g>
				<g>
					<g>
						<g>
							<polygon class="st4" points="254.7,96 260.6,237.1 434.7,238.1 432.9,100 							"/>
						</g>
						<g>
							<g>
								<path class="st8" d="M254.7,96c0,0,0.3,0,0.8,0c0.6,0,1.4,0,2.5,0c2.2,0,5.4,0.1,9.6,0.2c8.4,0.2,20.8,0.4,36.4,0.8
									c31.3,0.7,75.9,1.6,128.8,2.8h0.2v0.2c0.6,41.2,1.2,88.1,1.9,137.7c0,0.2,0,0.3,0,0.5v0.3h-0.3
									c-64.4-0.4-124.3-0.8-174.1-1.1h-0.2v-0.2c-1.7-42.6-3.2-77.9-4.2-102.6c-0.5-12.3-0.9-22-1.1-28.5
									c-0.1-3.3-0.2-5.8-0.3-7.5C254.7,96.8,254.7,96,254.7,96s0.1,0.9,0.1,2.6c0.1,1.7,0.2,4.2,0.3,7.5
									c0.3,6.6,0.7,16.3,1.2,28.6c1.1,24.6,2.6,59.9,4.4,102.4l-0.2-0.2c49.8,0.3,109.7,0.6,174.1,1l-0.3,0.3c0-0.2,0-0.3,0-0.5
									c-0.7-49.6-1.3-96.5-1.8-137.7l0.2,0.2c-52.8-1.2-97.3-2.3-128.6-3c-15.7-0.4-28-0.7-36.5-0.9c-4.2-0.1-7.5-0.2-9.7-0.2
									c-1.1,0-1.9-0.1-2.5-0.1C255,96,254.7,96,254.7,96z"/>
							</g>
						</g>
					</g>
					<g>
						<polygon class="st5" points="254.6,94.6 254.8,100 432.9,100 432.9,95.3 						"/>
					</g>
					<g>
						<g>
							<polygon class="st3" points="406.5,113 407.6,121.6 425,121.7 424.2,113.7 							"/>
						</g>
						<g>
							<polygon class="st8" points="406.5,115.1 424.2,115.8 424.2,113.7 406.5,113 							"/>
						</g>
						<g>
							<g>
								
									<rect x="410.5" y="116.5" transform="matrix(0.9999 -1.634188e-02 1.634188e-02 0.9999 -1.871 6.7455)" class="st6" width="2.7" height="2.7"/>
							</g>
							<g>
								
									<rect x="410.1" y="117" transform="matrix(0.9999 -1.634127e-02 1.634127e-02 0.9999 -1.8791 6.7388)" class="st5" width="2.7" height="2.7"/>
							</g>
							<g>
								
									<rect x="409.2" y="117.7" transform="matrix(0.9999 -1.634182e-02 1.634182e-02 0.9999 -1.8908 6.7244)" class="st6" width="2.7" height="2.7"/>
							</g>
						</g>
						<g>
							<polygon class="st5" points="415.8,117.7 415.7,119.1 423.4,118.9 423.3,118 							"/>
						</g>
					</g>
					<g>
						<g>
							<polygon class="st3" points="406.6,123.1 407.8,131.7 425.2,131.8 424.4,123.8 							"/>
						</g>
						<g>
							<polygon class="st8" points="406.7,125.1 424.4,125.9 424.4,123.8 406.6,123.1 							"/>
						</g>
						<g>
							<g>
								
									<rect x="410.7" y="126.6" transform="matrix(0.9999 -1.634182e-02 1.634182e-02 0.9999 -2.036 6.7501)" class="st6" width="2.7" height="2.7"/>
							</g>
							<g>
								
									<rect x="410.3" y="127" transform="matrix(0.9999 -1.634127e-02 1.634127e-02 0.9999 -2.0425 6.7433)" class="st5" width="2.7" height="2.7"/>
							</g>
							<g>
								
									<rect x="409.4" y="127.8" transform="matrix(0.9999 -1.630468e-02 1.630468e-02 0.9999 -2.0512 6.7137)" class="st6" width="2.7" height="2.7"/>
							</g>
						</g>
						<g>
							<polygon class="st5" points="415.9,127.8 415.8,129.2 423.5,129 423.4,128.1 							"/>
						</g>
					</g>
					<g>
						<g>
							
								<rect x="272.7" y="138.6" transform="matrix(1 -4.237111e-03 4.237111e-03 1 -0.5937 1.1658)" class="st8" width="4.2" height="4.2"/>
						</g>
						<g>
							
								<rect x="416.3" y="139.7" transform="matrix(1 -4.237010e-03 4.237010e-03 1 -0.5971 1.7742)" class="st8" width="4.2" height="4.2"/>
						</g>
						<g>
							
								<rect x="415.8" y="202.8" transform="matrix(1 -4.260711e-03 4.260711e-03 1 -0.8692 1.7826)" class="st8" width="4.2" height="4.2"/>
						</g>
						<g>
							
								<rect x="275.3" y="198.1" transform="matrix(1 -4.261016e-03 4.261016e-03 1 -0.8505 1.184)" class="st8" width="4.2" height="4.2"/>
						</g>
						<g>
							
								<rect x="346.6" y="140.3" transform="matrix(1 -4.233226e-03 4.233226e-03 1 -0.5969 1.4744)" class="st8" width="2.8" height="2.8"/>
						</g>
						<g>
							
								<rect x="274" y="170.6" transform="matrix(1 -4.230618e-03 4.230618e-03 1 -0.7252 1.1667)" class="st8" width="2.8" height="2.8"/>
						</g>
						<g>
							
								<rect x="416.9" y="168.2" transform="matrix(1 -4.232919e-03 4.232919e-03 1 -0.7143 1.7723)" class="st8" width="2.8" height="2.8"/>
						</g>
						<g>
							
								<rect x="345" y="201.2" transform="matrix(1 -4.233226e-03 4.233226e-03 1 -0.8546 1.4683)" class="st8" width="2.8" height="2.8"/>
						</g>
						<g>
							<g>
								<path class="st8" d="M418.4,141.8c0,0-0.3,0-0.7,0c-0.5,0-1.2,0-2.1,0c-1.8,0-4.6,0-8.1,0c-7,0-17.2-0.1-30-0.2
									c-25.5-0.2-61.5-0.6-103.2-1l0.6-0.6c0.7,18.7,1.4,39,2.1,60c0,0.2,0,0.4,0,0.6l-0.6-0.6c54.9,1.5,104.6,2.8,141,3.7
									l-0.5,0.4c0.4-19.2,0.7-34.8,0.9-45.6c0.1-5.4,0.2-9.6,0.3-12.5c0-1.4,0.1-2.5,0.1-3.3c0-0.4,0-0.6,0-0.8
									C418.4,141.9,418.4,141.8,418.4,141.8s0,0.3,0,1.1c0,0.7,0,1.8,0,3.2c0,2.8,0,7-0.1,12.4c-0.1,10.8-0.3,26.5-0.5,45.8v0.5
									h-0.5c-36.4-0.9-86.2-2.1-141-3.4h-0.6v-0.6c0-0.2,0-0.4,0-0.6c-0.7-21-1.4-41.3-2-60v-0.6h0.6c41.9,0.6,78,1.2,103.6,1.5
									c12.7,0.2,22.9,0.4,29.9,0.5c3.4,0.1,6.1,0.1,7.9,0.2c0.9,0,1.6,0,2,0.1C418.2,141.7,418.4,141.8,418.4,141.8z"/>
							</g>
						</g>
						<g>
							<polygon class="st5" points="420.1,209.3 422.5,220 424.2,216.3 428.4,215.7 							"/>
						</g>
					</g>
					<g>
						<rect x="380.7" y="215.6" class="st6" width="5.7" height="5.7"/>
					</g>
					<g>
						<rect x="388.8" y="215.6" class="st3" width="5.7" height="5.7"/>
					</g>
					<g>
						<rect x="396.8" y="215.6" class="st8" width="5.7" height="5.7"/>
					</g>
					<g>
						<rect x="404.9" y="215.6" class="st5" width="5.7" height="5.7"/>
					</g>
				</g>
				<g>
					<polygon class="st6" points="413.8,199.3 283.8,195.5 281.7,144.2 413.8,145.9 					"/>
				</g>
				<g>
					<polygon class="st3" points="314.7,179.6 287.3,179.1 286.4,156.7 314.7,157.1 					"/>
				</g>
			</g>
		</g>
		<g>
			<g>
				<polygon class="st8" points="448.5,212.4 452.1,255.4 487.5,256 484.8,214.8 				"/>
			</g>
			<g>
				<polygon class="st5" points="448.2,210.6 448.7,214.9 484.9,216.3 484.7,212 				"/>
			</g>
			<g>
				<polygon class="st5" points="457.5,222.9 459.3,246.6 479.7,247.6 478.6,223 				"/>
			</g>
			<g>
				<g>
					<path class="st3" d="M477.4,242.1c0,0.1-1.7,0.2-4.4,0.3s-6.5,0.1-10.7,0.1h-0.4v-0.4c0-0.5-0.1-0.9-0.1-1.4
						c-0.4-4.6-0.7-8.7-0.9-11.7s-0.2-4.8-0.1-4.9c0.1,0,0.4,1.8,0.8,4.8c0.4,3,0.8,7.1,1.2,11.7c0,0.5,0.1,1,0.1,1.4l-0.5-0.4
						c4.2,0,8,0.1,10.7,0.2C475.8,241.9,477.4,242,477.4,242.1z"/>
				</g>
			</g>
			<g>
				<g>
					<g>
						<path class="st6" d="M461.2,243.4c0.2,0.2,0.1,0.6-0.2,1s-0.7,0.6-0.9,0.4c-0.2-0.2-0.1-0.6,0.2-1S461,243.2,461.2,243.4z"/>
					</g>
				</g>
				<g>
					<g>
						<path class="st6" d="M466.3,236.9c0.2,0.2-0.2,1-0.9,1.9s-1.4,1.5-1.6,1.3c-0.2-0.2,0.2-1,0.9-1.9
							C465.4,237.4,466.1,236.8,466.3,236.9z"/>
					</g>
				</g>
				<g>
					<g>
						<path class="st6" d="M471.4,230.4c0.2,0.2-0.2,1-0.9,1.9s-1.4,1.5-1.6,1.3c-0.2-0.2,0.2-1,0.9-1.9
							C470.5,230.9,471.2,230.3,471.4,230.4z"/>
					</g>
				</g>
				<g>
					<g>
						<path class="st6" d="M475,225.8c0.2,0.2,0.1,0.6-0.2,1s-0.7,0.6-0.9,0.4c-0.2-0.2-0.1-0.6,0.2-1S474.8,225.6,475,225.8z"/>
					</g>
				</g>
			</g>
			<g>
				<polygon class="st6" points="451,217.1 451.2,219 459.2,219.1 459.5,217.1 				"/>
			</g>
		</g>
		<g>
			<g>
				<polygon class="st3" points="446,82 447.2,90.7 464.6,90.7 463.8,82.7 				"/>
			</g>
			<g>
				<polygon class="st8" points="446.1,84.1 463.8,84.8 463.8,82.7 446,82 				"/>
			</g>
			<g>
				<g>
					
						<rect x="450.1" y="85.5" transform="matrix(0.9999 -1.634127e-02 1.634127e-02 0.9999 -1.359 7.3882)" class="st6" width="2.7" height="2.7"/>
				</g>
				<g>
					
						<rect x="449.7" y="86" transform="matrix(0.9999 -1.634127e-02 1.634127e-02 0.9999 -1.3672 7.3818)" class="st5" width="2.7" height="2.7"/>
				</g>
				<g>
					
						<rect x="448.8" y="86.7" transform="matrix(0.9999 -1.634127e-02 1.634127e-02 0.9999 -1.3788 7.3671)" class="st6" width="2.7" height="2.7"/>
				</g>
			</g>
			<g>
				<polygon class="st5" points="455.3,86.7 455.2,88.1 462.9,87.9 462.8,87 				"/>
			</g>
		</g>
	</g>
	<g id="Character">
		<g>
			<g>
				<g>
					<g>
						<path class="st6" d="M212.9,299.8v-5c0,0-0.2-6.3,8.3-6.9s38.3-0.1,38.3-0.1s8.8-0.2,8.8,5.4c0,3.4,0,6.7,0,6.7L212.9,299.8z"
							/>
						<path class="st7" d="M212.9,299.8v-5c0,0-0.2-6.3,8.3-6.9s38.3-0.1,38.3-0.1s8.8-0.2,8.8,5.4c0,3.4,0,6.7,0,6.7L212.9,299.8z"
							/>
					</g>
					<g>
						<path class="st5" d="M212.9,299.8c0,0,25.9,1.6,27.2,6.7h4.8c0,0,3.2-5.3,23.5-6.5L212.9,299.8z"/>
					</g>
				</g>
				<g>
					<path class="st5" d="M221.8,434.6h40.5l-15.4-10.2l-0.2-58.9h7.5V364h-7.5l-0.1-16.6l-1.4-3.9l-0.2-43.4h-4.7
						c-0.2,0.9,0,43.3,0,43.3l-1.4,3.8V364h-12.3v1.6h12.3v58.9L221.8,434.6z"/>
				</g>
			</g>
			<g>
				<g>
					<path class="st5" d="M236.4,211.9c-3.7,3.1-8.8,4.4-13.5,3.7c-4.7-0.8-9.1-3.6-11.7-7.7c-1.5-2.4-2.5-5.4-2.1-8.2
						c0.4-2.9,2.3-5.6,5.1-6.4c1.1-0.3,2.3-0.4,3.4-0.7s2.2-0.9,2.6-2c0.5-1.3-0.2-2.9,0-4.3c0.4-2.3,3.1-3.4,4.6-5.2
						c1.9-2.5,1.3-6,0.6-9.1l2.1-1.8L236.4,211.9z"/>
				</g>
				<g>
					<path class="st11" d="M266.4,216.3c0,0,17.6,24.1,18.5,24.7c3,1.9,33.6,13.7,33.6,13.7l-1.7,10.6c0,0-39-11.1-41.3-12.7
						c-2.3-1.6-18.2-25.7-18.2-25.7L266.4,216.3z"/>
				</g>
				<g>
					<g>
						<g>
							<g>
								<path class="st6" d="M208,229.3l1.5-19.6c2.5-13.8,20.1-12.6,20.1-12.6l15.2-0.2c0,0,10.5,0.3,16.6,8.9
									c4.9,7,10.2,14.3,10.2,14.3l-11.3,11.4l-4-6.9c0,0,2.2,2.4,1.8,6.6c-0.5,5.3-4.3,6.3-4.3,6.3l1.7,35.5l-47.9-0.4l7.9-18.3
									l-1.6-25.6L208,229.3z"/>
							</g>
						</g>
					</g>
					<g>
						<g>
							<g>
								<g>
									<path class="st6" d="M226.6,229.5c0.4-0.1,0.9,0.5,1.1,1.3c0.2,0.7,0.2,1.5-0.2,1.7c-0.4,0.2-1-0.3-1.3-1.2
										C225.9,230.4,226.1,229.6,226.6,229.5z"/>
								</g>
							</g>
							<g>
								<g>
									<path class="st6" d="M228,210.5c0.4,0.1,0.7,1.4,0.5,3.1c-0.1,1.7-0.6,3-1,3s-0.7-1.4-0.5-3.1
										C227.1,211.8,227.6,210.5,228,210.5z"/>
								</g>
							</g>
							<g>
								<g>
									<path class="st6" d="M225.2,224c-0.4,0-0.7-0.5-0.5-1.1c0.3-0.5,0.9-0.6,1.2-0.3c0.3,0.3,0.4,0.7,0.3,1
										C226,223.8,225.7,224,225.2,224z"/>
								</g>
							</g>
							<g>
								<g>
									<path class="st6" d="M237.6,212.1c0.4,0.1,0.6,0.9,0.4,1.8c-0.2,0.9-0.7,1.6-1.1,1.5s-0.6-0.9-0.4-1.8
										C236.6,212.7,237.1,212,237.6,212.1z"/>
								</g>
							</g>
							<g>
								<g>
									<path class="st6" d="M250.9,213.6c0.1,0.4-0.6,0.9-1.6,0.8c-1-0.1-1.6-0.6-1.5-1.1c0.1-0.4,0.8-0.6,1.6-0.5
										C250.2,212.9,250.9,213.1,250.9,213.6z"/>
								</g>
							</g>
							<g>
								<g>
									<path class="st6" d="M253.3,211.5c-0.3,0.3-1.2,0.1-2.1-0.6c-0.9-0.7-1.4-1.5-1.2-1.9c0.3-0.3,1.2-0.1,2.1,0.6
										C253,210.4,253.5,211.2,253.3,211.5z"/>
								</g>
							</g>
							<g>
								<g>
									<path class="st6" d="M255.5,210c-0.4,0-0.8-1.1-0.4-2.3c0.3-1.3,1.2-2,1.5-1.8c0.4,0.2,0.2,1.2,0,2.2
										C256.3,209.1,256,210,255.5,210z"/>
								</g>
							</g>
							<g>
								<g>
									<path class="st6" d="M260.4,208.9c0.3,0.3,0,1.1-0.7,1.9c-0.7,0.8-1.5,1.1-1.8,0.9c-0.3-0.3,0-1.1,0.7-1.9
										C259.3,209,260.1,208.6,260.4,208.9z"/>
								</g>
							</g>
							<g>
								<g>
									<path class="st6" d="M258.1,215.2c-0.1,0.4-1,0.6-2.1,0.4c-1.1-0.2-1.9-0.7-1.8-1.1c0.1-0.4,1-0.6,2.1-0.4
										S258.2,214.8,258.1,215.2z"/>
								</g>
							</g>
							<g>
								<g>
									<path class="st6" d="M245.7,214.2c-0.1,0.4-0.9,0.6-1.9,0.4c-0.9-0.2-1.6-0.7-1.5-1.1c0.1-0.4,0.9-0.6,1.9-0.4
										S245.8,213.8,245.7,214.2z"/>
								</g>
							</g>
							<g>
								<g>
									<path class="st6" d="M247.5,210.2c-0.2,0.4-1,0.3-1.8-0.1c-0.8-0.5-1.2-1.1-1-1.5s1-0.3,1.8,0.1
										C247.3,209.2,247.7,209.9,247.5,210.2z"/>
								</g>
							</g>
							<g>
								<g>
									<path class="st6" d="M253.2,207.2c-0.4,0.2-1.1-0.4-1.3-1.4c-0.2-1,0.1-1.9,0.6-1.8c0.4,0,0.8,0.7,1,1.5
										C253.6,206.2,253.6,207,253.2,207.2z"/>
								</g>
							</g>
							<g>
								<g>
									<path class="st6" d="M259.9,205.1c0.4,0.2,0.5,0.8,0.2,1.3s-0.8,0.8-1.2,0.6c-0.4-0.2-0.5-0.8-0.2-1.3
										C259,205.2,259.6,204.9,259.9,205.1z"/>
								</g>
							</g>
							<g>
								<g>
									<path class="st6" d="M263.9,211.1c0.1,0.4-0.3,0.9-0.8,1c-0.6,0.2-1.1-0.1-1.2-0.5s0.3-0.9,0.8-1
										C263.2,210.4,263.8,210.7,263.9,211.1z"/>
								</g>
							</g>
							<g>
								<g>
									<path class="st6" d="M245.5,203.3c0.2-0.4,1.3-0.1,2.2,0.9c0.9,1,1.1,2.1,0.7,2.3s-1.1-0.4-1.8-1.2
										C245.8,204.4,245.3,203.6,245.5,203.3z"/>
								</g>
							</g>
							<g>
								<g>
									<path class="st6" d="M255.4,201.2c0.4,0,0.8,0.5,0.8,1.2s-0.3,1.2-0.8,1.2c-0.4,0-0.8-0.5-0.8-1.2
										C254.6,201.8,254.9,201.2,255.4,201.2z"/>
								</g>
							</g>
							<g>
								<g>
									<path class="st6" d="M238.7,209.4c0.1-0.4,1.1-0.4,2.2-0.1c1.1,0.4,1.8,1,1.7,1.4c-0.1,0.4-1.1,0.4-2.2,0.1
										C239.3,210.4,238.5,209.8,238.7,209.4z"/>
								</g>
							</g>
							<g>
								<g>
									<path class="st6" d="M243.1,205.9c-0.3,0.3-0.9,0.2-1.4-0.3s-0.6-1.1-0.3-1.4c0.3-0.3,0.9-0.2,1.4,0.3
										S243.4,205.6,243.1,205.9z"/>
								</g>
							</g>
							<g>
								<g>
									<path class="st6" d="M250.1,199.5c0.4,0,0.8,0.6,0.9,1.4c0.1,0.8-0.2,1.5-0.7,1.5c-0.4,0-0.8-0.6-0.9-1.4
										C249.4,200.2,249.7,199.6,250.1,199.5z"/>
								</g>
							</g>
							<g>
								<g>
									<path class="st6" d="M231.6,208.9c0.4,0.2,0.4,1.1,0.1,2c-0.4,1-1,1.6-1.4,1.5c-0.4-0.2-0.4-1.1-0.1-2
										C230.6,209.4,231.2,208.8,231.6,208.9z"/>
								</g>
							</g>
							<g>
								<g>
									<path class="st6" d="M234.4,208.6c0.4-0.1,0.9,0.6,1.1,1.6s0,1.8-0.4,1.9c-0.4,0.1-0.9-0.6-1.1-1.6
										C233.8,209.6,234,208.7,234.4,208.6z"/>
								</g>
							</g>
							<g>
								<g>
									<path class="st6" d="M240.5,207.2c0,0.4-0.8,0.7-1.8,0.7c-1-0.1-1.8-0.4-1.8-0.9c0-0.4,0.8-0.7,1.8-0.7
										C239.7,206.4,240.5,206.7,240.5,207.2z"/>
								</g>
							</g>
							<g>
								<g>
									<path class="st6" d="M229.1,206.7c0.1,0.4-0.5,0.9-1.3,1.1c-0.8,0.2-1.5,0-1.6-0.4s0.5-0.9,1.3-1.1
										C228.3,206.1,229,206.3,229.1,206.7z"/>
								</g>
							</g>
							<g>
								<g>
									<path class="st6" d="M234.4,205.1c0.2,0.4-0.3,0.9-0.9,1.2c-0.7,0.3-1.3,0.1-1.5-0.3c-0.2-0.4,0.3-0.9,0.9-1.2
										C233.6,204.6,234.3,204.7,234.4,205.1z"/>
								</g>
							</g>
							<g>
								<g>
									<path class="st6" d="M229.7,203.7c0,0.4-1.1,0.9-2.6,0.8c-1.5-0.1-2.6-0.8-2.5-1.2s1.3-0.5,2.6-0.4
										C228.5,203,229.6,203.3,229.7,203.7z"/>
								</g>
							</g>
							<g>
								<g>
									<path class="st6" d="M232.2,201.7c-0.2,0.4-1.4,0.2-2.7-0.3c-1.3-0.6-2.3-1.4-2.1-1.8c0.2-0.4,1.4-0.2,2.7,0.3
										C231.5,200.5,232.4,201.3,232.2,201.7z"/>
								</g>
							</g>
							<g>
								<g>
									<path class="st6" d="M246.6,199.7c0.2,0.4-0.3,1-0.9,1.4c-0.7,0.4-1.4,0.6-1.7,0.3c-0.3-0.3,0-1.1,0.8-1.6
										C245.6,199.3,246.5,199.3,246.6,199.7z"/>
								</g>
							</g>
							<g>
								<g>
									<path class="st6" d="M224.4,200.6c-0.2,0.4-0.8,0.5-1.4,0.3s-1-0.8-0.8-1.2s0.8-0.5,1.4-0.3
										C224.2,199.7,224.6,200.2,224.4,200.6z"/>
								</g>
							</g>
							<g>
								<g>
									<path class="st6" d="M246,244.3c0,0.4-1,0.8-2.3,0.9c-1.3,0-2.3-0.3-2.4-0.7c0-0.4,1-0.8,2.3-0.9
										C244.9,243.6,246,243.9,246,244.3z"/>
								</g>
							</g>
							<g>
								<g>
									<path class="st6" d="M248.3,241.6c-0.3,0.3-1.1,0-1.8-0.7c-0.7-0.7-1-1.5-0.7-1.8s1.1,0,1.8,0.7
										C248.3,240.5,248.6,241.3,248.3,241.6z"/>
								</g>
							</g>
							<g>
								<g>
									<path class="st6" d="M250.6,240.2c-0.4,0.1-0.9-0.8-0.9-1.9c0.1-1.2,0.7-1.9,1.1-1.8c0.4,0.1,0.5,1,0.4,1.9
										C251.2,239.3,251,240.1,250.6,240.2z"/>
								</g>
							</g>
							<g>
								<g>
									<path class="st6" d="M252.5,242.2c0.3,0.3,0.1,1-0.4,1.5s-1.1,0.8-1.5,0.6c-0.3-0.3-0.2-1,0.3-1.6
										C251.4,242.1,252.2,241.9,252.5,242.2z"/>
								</g>
							</g>
							<g>
								<g>
									<path class="st6" d="M251.5,248.9c-0.4,0-0.8-0.7-0.6-1.4c0.1-0.8,0.7-1.3,1.1-1.1c0.4,0.1,0.6,0.8,0.5,1.4
										C252.3,248.4,251.9,248.9,251.5,248.9z"/>
								</g>
							</g>
							<g>
								<g>
									<path class="st6" d="M247.7,246.4c0.3,0.3,0.4,0.7,0.3,0.9s-0.5,0.3-0.9,0.2s-0.7-0.5-0.5-1
										C246.9,246.1,247.4,246.1,247.7,246.4z"/>
								</g>
							</g>
							<g>
								<g>
									<path class="st6" d="M254.2,234.9c0.4,0.1,0.4,1.1-0.1,2.1s-1.4,1.5-1.7,1.2c-0.3-0.3-0.1-1.1,0.4-2
										C253.2,235.3,253.8,234.7,254.2,234.9z"/>
								</g>
							</g>
							<g>
								<g>
									<path class="st6" d="M251,234.4c0,0.4-0.8,0.8-1.9,0.9c-1.1,0.1-2-0.2-2-0.7c0-0.4,0.8-0.8,1.9-0.9
										C250.1,233.7,251,234,251,234.4z"/>
								</g>
							</g>
							<g>
								<g>
									<path class="st6" d="M244,241.4c-0.3,0.3-0.9,0.1-1.3-0.4s-0.4-1.1-0.1-1.4c0.3-0.3,0.9-0.1,1.3,0.4S244.4,241.1,244,241.4
										z"/>
								</g>
							</g>
							<g>
								<g>
									<path class="st6" d="M237.7,244.7c-0.3,0.3-1.3-0.2-1.9-1.3c-0.7-1.1-0.6-2.2-0.2-2.3s1,0.6,1.5,1.5
										C237.6,243.6,238,244.4,237.7,244.7z"/>
								</g>
							</g>
							<g>
								<g>
									<path class="st6" d="M234.4,244.7c-0.1,0.4-0.7,0.6-1.4,0.4c-0.7-0.2-1.1-0.7-1-1.1c0.1-0.4,0.7-0.6,1.4-0.4
										S234.5,244.2,234.4,244.7z"/>
								</g>
							</g>
							<g>
								<g>
									<path class="st6" d="M212.4,268.1c-0.4-0.1-0.6-1.1-0.5-2.3c0.2-1.2,0.7-2.1,1.1-2s0.6,1.1,0.5,2.3
										C213.4,267.2,212.9,268.1,212.4,268.1z"/>
								</g>
							</g>
							<g>
								<g>
									<path class="st6" d="M218.3,267.4c-0.4,0.2-1.2-0.7-1.8-2c-0.6-1.3-0.8-2.5-0.4-2.7s1.2,0.7,1.8,2
										C218.6,266,218.7,267.2,218.3,267.4z"/>
								</g>
							</g>
							<g>
								<g>
									<path class="st6" d="M223.5,263.8c-0.3,0.3-1.4-0.2-2.5-1c-1.2-0.8-2-1.7-1.8-2.1s1.4-0.1,2.7,0.8
										C223.1,262.4,223.8,263.4,223.5,263.8z"/>
								</g>
							</g>
							<g>
								<g>
									<path class="st6" d="M215.6,257.7c0.4,0.2,0.5,0.9,0.1,1.7c-0.3,0.8-0.9,1.3-1.3,1.2c-0.4-0.2-0.5-0.9-0.1-1.7
										C214.6,258,215.2,257.5,215.6,257.7z"/>
								</g>
							</g>
							<g>
								<g>
									<path class="st6" d="M223.7,268.3c-0.3,0.3-1.1-0.1-1.6-0.9c-0.6-0.7-0.7-1.5-0.4-1.8c0.3-0.3,1.1,0.1,1.6,0.9
										C223.9,267.3,224.1,268.1,223.7,268.3z"/>
								</g>
							</g>
							<g>
								<g>
									<path class="st6" d="M215.1,269.9c-0.4,0.1-0.9-0.4-0.9-1.1c-0.1-0.7,0.2-1.3,0.6-1.3c0.4-0.1,0.9,0.4,0.9,1.1
										C215.8,269.3,215.6,269.9,215.1,269.9z"/>
								</g>
							</g>
							<g>
								<g>
									<path class="st6" d="M231.7,262.1c-0.1,0.4-1.5,0.5-3.1,0.2s-2.8-0.9-2.8-1.4c0.1-0.4,1.4-0.5,3.1-0.2
										C230.6,261,231.8,261.6,231.7,262.1z"/>
								</g>
							</g>
							<g>
								<g>
									<path class="st6" d="M230.7,268.2c-0.3,0.3-1.4-0.1-2.5-1.1c-1.1-0.9-1.8-1.9-1.5-2.3c0.3-0.3,1.4,0.1,2.5,1.1
										C230.3,266.9,231,267.9,230.7,268.2z"/>
								</g>
							</g>
							<g>
								<g>
									<path class="st6" d="M236.3,266.5c-0.1,0.4-1.1,0.5-2.1,0.2s-1.8-0.9-1.6-1.3c0.1-0.4,1.1-0.5,2.1-0.2
										S236.5,266.1,236.3,266.5z"/>
								</g>
							</g>
							<g>
								<g>
									<path class="st6" d="M240.8,267.5c0,0.4-0.6,0.8-1.3,1.2c-0.7,0.3-1.4,0.5-1.7,0.2c-0.3-0.3,0.1-1.2,1.1-1.6
										C239.8,266.8,240.8,267.1,240.8,267.5z"/>
								</g>
							</g>
							<g>
								<g>
									<path class="st6" d="M239.4,263.8c-0.2,0.4-1,0.3-1.8-0.1c-0.8-0.5-1.3-1.1-1.1-1.5c0.2-0.4,1-0.3,1.8,0.1
										C239.1,262.7,239.6,263.4,239.4,263.8z"/>
								</g>
							</g>
							<g>
								<g>
									<path class="st6" d="M243.9,263.3c0.2,0.4,0,0.9-0.3,1.3s-0.7,0.8-1.1,0.8s-0.7-0.9-0.1-1.6
										C242.9,263,243.8,262.9,243.9,263.3z"/>
								</g>
							</g>
							<g>
								<g>
									<path class="st6" d="M248.6,266.8c0,0.4-0.8,0.8-1.8,0.8s-1.9-0.3-1.9-0.7c0-0.4,0.8-0.8,1.8-0.8
										C247.7,266,248.6,266.4,248.6,266.8z"/>
								</g>
							</g>
							<g>
								<g>
									<path class="st6" d="M249.3,264.3c-0.2,0.4-1,0.4-1.8,0.1c-0.8-0.4-1.4-1-1.2-1.4c0.2-0.4,1-0.4,1.8-0.1
										C248.9,263.3,249.4,263.9,249.3,264.3z"/>
								</g>
							</g>
							<g>
								<g>
									<path class="st6" d="M252.4,265.5c-0.4-0.1-0.7-0.7-0.4-1.4c0.3-0.7,0.9-1,1.2-0.8c0.4,0.2,0.4,0.8,0.2,1.3
										C253.3,265.2,252.9,265.6,252.4,265.5z"/>
								</g>
							</g>
							<g>
								<g>
									<path class="st6" d="M227.2,224.7c0.4-0.2,1.2,0.3,1.8,1.3c0.6,0.9,0.8,1.9,0.5,2.1c-0.4,0.2-1.2-0.3-1.8-1.3
										C227,225.9,226.8,225,227.2,224.7z"/>
								</g>
							</g>
							<g>
								<g>
									<path class="st6" d="M233.7,223.3c0.4,0.2,0.1,1.4-0.7,2.5c-0.7,1.2-1.6,1.9-2,1.7s-0.1-1.4,0.7-2.5
										C232.5,223.8,233.4,223.1,233.7,223.3z"/>
								</g>
							</g>
							<g>
								<g>
									<path class="st6" d="M237.4,227.7c0.2,0.4-0.6,1.1-1.6,1.4c-1.1,0.4-2,0.4-2.2,0s0.6-1.1,1.6-1.4
										C236.2,227.3,237.2,227.3,237.4,227.7z"/>
								</g>
							</g>
							<g>
								<g>
									<path class="st6" d="M236.4,234.7c-0.3,0.3-1.2,0.1-2-0.7s-1.2-1.7-0.8-2c0.3-0.3,1.1,0.1,1.9,0.8
										C236.2,233.6,236.6,234.4,236.4,234.7z"/>
								</g>
							</g>
							<g>
								<g>
									<path class="st6" d="M230.6,237.5c-0.4,0.1-1-1-0.9-2.4c0.1-1.5,0.8-2.5,1.2-2.3c0.4,0.1,0.4,1.2,0.3,2.4
										C231.2,236.4,231,237.4,230.6,237.5z"/>
								</g>
							</g>
							<g>
								<g>
									<path class="st6" d="M232.4,230.8c-0.1,0.4-0.8,0.6-1.5,0.4c-0.7-0.2-1.2-0.7-1.1-1.1c0.1-0.4,0.8-0.6,1.5-0.4
										C232,229.8,232.5,230.3,232.4,230.8z"/>
								</g>
							</g>
							<g>
								<g>
									<path class="st6" d="M238.4,222.7c0.3,0.2,0,1.3-1,2.2s-2.1,1.1-2.3,0.8c-0.2-0.4,0.4-1.2,1.3-1.9
										C237.2,223,238.1,222.5,238.4,222.7z"/>
								</g>
							</g>
							<g>
								<g>
									<path class="st6" d="M229.7,220.1c0.4-0.1,0.9,0.7,1,1.7s-0.4,1.8-0.8,1.8c-0.4-0.1-0.7-0.8-0.7-1.7
										C229.1,221,229.3,220.2,229.7,220.1z"/>
								</g>
							</g>
							<g>
								<g>
									<path class="st6" d="M235.4,217.3c0.4,0.1,0.5,1.1,0.1,2.2c-0.4,1.1-1.2,1.7-1.6,1.5s-0.3-1.1,0.1-2.1
										C234.5,218,235,217.2,235.4,217.3z"/>
								</g>
							</g>
							<g>
								<g>
									<path class="st6" d="M242.7,226.9c0,0.4-0.6,0.8-1.4,0.9c-0.8,0.1-1.5-0.2-1.5-0.6c0-0.4,0.6-0.8,1.4-0.9
										C241.9,226.2,242.6,226.5,242.7,226.9z"/>
								</g>
							</g>
							<g>
								<g>
									<path class="st6" d="M240.4,232.5c-0.2,0.4-1,0.5-2,0.2c-0.9-0.3-1.6-0.9-1.5-1.3c0.1-0.4,1-0.5,2-0.2
										S240.6,232.1,240.4,232.5z"/>
								</g>
							</g>
							<g>
								<g>
									<path class="st6" d="M234.4,238.8c-0.4,0.2-1.1-0.3-1.4-1.3s0-1.8,0.4-1.8s0.8,0.6,1.1,1.4
										C234.8,237.9,234.8,238.6,234.4,238.8z"/>
								</g>
							</g>
							<g>
								<g>
									<path class="st6" d="M230.4,242.6c-0.4,0-0.8-0.6-0.9-1.3c0-0.7,0.3-1.4,0.7-1.4c0.4,0,0.8,0.6,0.9,1.3
										C231.2,241.9,230.9,242.6,230.4,242.6z"/>
								</g>
							</g>
							<g>
								<g>
									<path class="st6" d="M240.3,240.7c-0.4,0.2-1.1-0.5-1.7-1.4s-0.9-1.8-0.6-2.1s1.2,0.2,1.9,1.2
										C240.6,239.4,240.7,240.5,240.3,240.7z"/>
								</g>
							</g>
							<g>
								<g>
									<path class="st6" d="M244.9,237c-0.2,0.4-1.2,0.2-2.3-0.2c-1.1-0.4-1.9-1-1.8-1.4s1.2-0.5,2.4,0
										C244.4,235.8,245.1,236.6,244.9,237z"/>
								</g>
							</g>
							<g>
								<g>
									<path class="st6" d="M245.2,232.4c-0.3,0.3-0.9,0.1-1.4-0.1c-0.5-0.3-0.9-0.6-0.9-1.1c0-0.4,0.8-0.7,1.6-0.3
										C245.4,231.4,245.5,232.2,245.2,232.4z"/>
								</g>
							</g>
							<g>
								<g>
									<path class="st6" d="M232.3,213.6c0.4,0.1,0.6,1.1,0.5,2.2c-0.1,1.2-0.5,2.1-0.9,2.1s-0.8-1-0.6-2.2
										C231.3,214.4,231.8,213.5,232.3,213.6z"/>
								</g>
							</g>
							<g>
								<g>
									<path class="st6" d="M241.2,217c0.3,0.3,0,1.2-0.8,2c-0.7,0.8-1.6,1.3-1.9,1s0-1.2,0.8-2C240,217.1,240.9,216.7,241.2,217z
										"/>
								</g>
							</g>
							<g>
								<g>
									<path class="st6" d="M242.6,219.1c0.3-0.3,0.8-0.2,1,0.1s0.1,0.8-0.2,1c-0.3,0.3-0.8,0.2-1-0.1
										C242.1,219.8,242.2,219.4,242.6,219.1z"/>
								</g>
							</g>
							<g>
								<g>
									<path class="st6" d="M218.6,216.1c-0.1,0.4-1.2,0.4-2.4-0.1c-1.2-0.5-1.9-1.4-1.7-1.7c0.2-0.4,1.2-0.2,2.3,0.3
										C217.9,215,218.7,215.7,218.6,216.1z"/>
								</g>
							</g>
							<g>
								<g>
									<path class="st6" d="M213.7,224.6c-0.4,0.2-1-0.4-1.2-1.4c-0.2-0.9,0-1.8,0.4-1.8c0.4-0.1,0.9,0.6,1.1,1.4
										C214.2,223.6,214.1,224.4,213.7,224.6z"/>
								</g>
							</g>
							<g>
								<g>
									<path class="st6" d="M219.9,220.9c-0.3,0.3-1.1-0.1-1.8-0.8c-0.6-0.7-0.9-1.6-0.6-1.8c0.3-0.3,1.1,0.1,1.8,0.8
										C219.9,219.7,220.2,220.6,219.9,220.9z"/>
								</g>
							</g>
							<g>
								<g>
									<path class="st6" d="M217,208c0.3,0.3-0.3,1.4-1.2,2.4c-1,1-2.1,1.6-2.4,1.3s0.3-1.4,1.2-2.4
										C215.6,208.2,216.7,207.7,217,208z"/>
								</g>
							</g>
							<g>
								<g>
									<path class="st6" d="M212.4,206.1c0.4,0.1,0.5,1.1,0.1,2c-0.3,1-1,1.7-1.4,1.5c-0.4-0.1-0.5-1.1-0.1-2
										C211.3,206.6,212,206,212.4,206.1z"/>
								</g>
							</g>
							<g>
								<g>
									<path class="st6" d="M212.5,213.6c0.2,0.4-0.1,1-0.7,1.6s-1.2,1-1.6,0.7c-0.4-0.2-0.2-1.1,0.5-1.8
										C211.4,213.4,212.3,213.2,212.5,213.6z"/>
								</g>
							</g>
							<g>
								<g>
									<path class="st6" d="M210.8,212.5c-0.4,0.2-0.9-0.2-0.9-0.8s0.5-1,0.9-0.9s0.7,0.5,0.7,0.8
										C211.4,212,211.2,212.4,210.8,212.5z"/>
								</g>
							</g>
							<g>
								<g>
									<path class="st6" d="M219.4,211.5c0.1,0.4-0.7,0.9-1.6,1c-1,0.1-1.8-0.1-1.8-0.5c-0.1-0.4,0.7-0.9,1.6-1
										S219.4,211.1,219.4,211.5z"/>
								</g>
							</g>
							<g>
								<g>
									<path class="st6" d="M216.2,204.2c0.4,0.3,0.2,1.1-0.4,2c-0.6,0.8-1.4,1.3-1.7,1.1c-0.4-0.3-0.2-1.1,0.4-2
										C215.1,204.4,215.8,203.9,216.2,204.2z"/>
								</g>
							</g>
							<g>
								<g>
									<path class="st6" d="M219,226.2c-0.3,0.3-1.3-0.2-1.8-1.3c-0.6-1.1-0.4-2.1,0-2.2c0.4-0.1,0.9,0.6,1.4,1.5
										C219,225,219.3,225.9,219,226.2z"/>
								</g>
							</g>
							<g>
								<g>
									<path class="st6" d="M210.1,227.7c-0.4,0-0.8-0.6-0.8-1.5c0.1-0.9,0.6-1.5,1-1.3c0.4,0.1,0.6,0.8,0.6,1.5
										C210.8,227.1,210.6,227.7,210.1,227.7z"/>
								</g>
							</g>
							<g>
								<g>
									<path class="st6" d="M215.9,227.6c-0.1,0.4-0.9,0.5-1.8,0.3c-0.9-0.3-1.4-0.8-1.3-1.2s0.9-0.5,1.8-0.3
										C215.5,226.7,216.1,227.2,215.9,227.6z"/>
								</g>
							</g>
							<g>
								<g>
									<path class="st6" d="M223.3,225.6c-0.3,0.3-1.1-0.1-1.8-0.8c-0.7-0.8-1-1.6-0.6-1.9c0.3-0.3,1.1,0.1,1.8,0.8
										C223.4,224.4,223.6,225.3,223.3,225.6z"/>
								</g>
							</g>
							<g>
								<g>
									<path class="st6" d="M225,213.8c0,0.4-0.9,0.8-2.1,0.9c-1.2,0.1-2.2-0.2-2.2-0.7c0-0.4,0.9-0.8,2.1-0.9
										C224,213,225,213.3,225,213.8z"/>
								</g>
							</g>
							<g>
								<g>
									<path class="st6" d="M222.7,206.2c0.2,0.4-0.4,1.1-1.4,1.7c-1,0.5-1.9,0.7-2.1,0.3s0.4-1.1,1.4-1.7
										C221.6,206,222.5,205.8,222.7,206.2z"/>
								</g>
							</g>
							<g>
								<g>
									<path class="st6" d="M214.1,202.2c0.4,0.2,0.5,0.8,0.2,1.3s-0.8,0.8-1.2,0.6c-0.4-0.2-0.5-0.8-0.2-1.3
										C213.2,202.3,213.7,202,214.1,202.2z"/>
								</g>
							</g>
							<g>
								<g>
									<path class="st6" d="M221.1,202.1c0.3,0.3,0,1.1-0.7,1.9c-0.7,0.7-1.5,1.1-1.8,0.8s0-1.1,0.7-1.9
										C220,202.1,220.8,201.8,221.1,202.1z"/>
								</g>
							</g>
							<g>
								<g>
									<path class="st6" d="M225.5,209.9c0.1,0.4-0.6,0.9-1.6,1.1c-0.9,0.2-1.8,0-1.9-0.4s0.6-0.9,1.6-1.1
										C224.6,209.2,225.5,209.4,225.5,209.9z"/>
								</g>
							</g>
							<g>
								<g>
									<path class="st6" d="M226.1,220.2c-0.2,0.4-1.2,0.1-2.1-0.4s-1.6-1.2-1.4-1.6c0.2-0.4,1.2-0.3,2.2,0.2
										C225.8,219,226.4,219.8,226.1,220.2z"/>
								</g>
							</g>
							<g>
								<g>
									<path class="st6" d="M251.9,227.5c-0.1,0.4-1.2,0.4-2.4,0.1c-1.2-0.4-2.1-1-2-1.4s1.2-0.4,2.4-0.1
										C251.1,226.5,252,227.1,251.9,227.5z"/>
								</g>
							</g>
							<g>
								<g>
									<path class="st6" d="M252.3,231.7c-0.3,0.3-1.1,0.1-1.7-0.5c-0.7-0.6-1-1.3-0.7-1.6s1-0.1,1.7,0.5
										C252.2,230.6,252.5,231.3,252.3,231.7z"/>
								</g>
							</g>
							<g>
								<g>
									<path class="st6" d="M252.9,222.2c0.1,0.4-0.8,1.2-2.1,1.7c-1.3,0.5-2.5,0.6-2.6,0.2c-0.2-0.4,0.7-1.1,2.1-1.7
										C251.6,221.9,252.8,221.8,252.9,222.2z"/>
								</g>
							</g>
							<g>
								<g>
									<path class="st6" d="M254.6,225c0,0.4-0.6,0.8-1.4,0.8s-1.4-0.3-1.4-0.7s0.6-0.8,1.4-0.8C254,224.2,254.6,224.5,254.6,225z
										"/>
								</g>
							</g>
							<g>
								<g>
									<path class="st6" d="M256.6,230.5c-0.4,0.2-1-0.3-1.6-0.8s-1.2-0.9-1.2-1.4c0-0.2,0.3-0.4,0.7-0.4c0.4,0,0.9,0.1,1.4,0.5
										s0.8,0.8,0.9,1.2C256.9,230.1,256.8,230.4,256.6,230.5z"/>
								</g>
							</g>
							<g>
								<g>
									<path class="st6" d="M256.7,234.6c-0.3,0.3-1.1-0.2-1.8-1c-0.6-0.8-0.9-1.7-0.5-1.9c0.3-0.3,1.1,0.2,1.8,1
										C256.8,233.4,257,234.3,256.7,234.6z"/>
								</g>
							</g>
							<g>
								<g>
									<path class="st6" d="M240.9,222.7c0.2-0.4,1.4-0.1,2.7,0.6c1.3,0.7,2.1,1.6,1.9,2s-1.4,0.1-2.7-0.6
										C241.5,224,240.7,223.1,240.9,222.7z"/>
								</g>
							</g>
							<g>
								<g>
									<path class="st6" d="M245.9,216.5c0.4,0,0.8,1.2,0.9,2.7s-0.2,2.8-0.6,2.8s-0.8-1.2-0.9-2.7
										C245.2,217.7,245.5,216.5,245.9,216.5z"/>
								</g>
							</g>
							<g>
								<g>
									<path class="st6" d="M252.4,217.6c0.3,0.3-0.3,1.2-1.2,2c-0.9,0.7-1.9,1.1-2.2,0.7c-0.3-0.3,0.3-1.2,1.2-2
										C251.1,217.6,252.1,217.2,252.4,217.6z"/>
								</g>
							</g>
							<g>
								<g>
									<path class="st6" d="M258.7,218.9c0.1,0.4-0.8,1-2,1.3s-2.3,0.2-2.4-0.2s0.8-1,2-1.3S258.6,218.5,258.7,218.9z"/>
								</g>
							</g>
							<g>
								<g>
									<path class="st6" d="M260.4,224c-0.1,0.4-1.1,0.5-2.1,0.2s-1.8-0.9-1.7-1.3c0.1-0.4,1.1-0.5,2.1-0.2
										C259.8,223,260.5,223.6,260.4,224z"/>
								</g>
							</g>
							<g>
								<g>
									<path class="st6" d="M264.5,220c0.1,0.4-0.6,0.9-1.5,1s-1.7-0.1-1.7-0.5c-0.1-0.4,0.6-0.9,1.5-1
										C263.7,219.3,264.4,219.6,264.5,220z"/>
								</g>
							</g>
							<g>
								<g>
									<path class="st6" d="M262.1,225.8c0.2,0.4-0.3,1-1.2,1.2c-0.8,0.2-1.6-0.1-1.6-0.6c0-0.4,0.5-0.8,1.2-1
										C261.3,225.3,262,225.4,262.1,225.8z"/>
								</g>
							</g>
							<g>
								<g>
									<path class="st6" d="M264.2,225.1c-0.4,0.1-0.9-0.4-1-1.2c0-0.8,0.5-1.3,0.9-1.2s0.7,0.6,0.7,1.2
										C264.9,224.4,264.7,224.9,264.2,225.1z"/>
								</g>
							</g>
							<g>
								<g>
									<path class="st6" d="M261.5,213.9c0.4,0.1,0.6,1,0.4,2.1s-0.7,1.9-1.1,1.8c-0.4-0.1-0.6-1-0.4-2.1
										C260.5,214.6,261,213.8,261.5,213.9z"/>
								</g>
							</g>
							<g>
								<g>
									<path class="st6" d="M265.2,217c-0.4,0-0.7-0.7-0.6-1.4c0.1-0.8,0.5-1.3,0.9-1.3s0.7,0.7,0.6,1.4
										C266.1,216.5,265.7,217.1,265.2,217z"/>
								</g>
							</g>
							<g>
								<g>
									<path class="st6" d="M267.9,221.1c-0.4,0.1-0.9-0.6-1-1.5s0.2-1.6,0.6-1.7c0.4-0.1,0.9,0.6,1,1.5
										C268.6,220.4,268.3,221.1,267.9,221.1z"/>
								</g>
							</g>
							<g>
								<g>
									<path class="st6" d="M210.5,223.4c-0.4,0-0.8-1.4-0.8-3.1c0.1-1.7,0.5-3,1-3c0.4,0,0.7,1.4,0.6,3
										C211.2,222,210.9,223.3,210.5,223.4z"/>
								</g>
							</g>
							<g>
								<g>
									<path class="st6" d="M215.4,220.9c-0.4,0.2-1.3-0.6-2.1-1.8c-0.8-1.2-1.1-2.4-0.8-2.6c0.4-0.2,1.3,0.6,2.1,1.8
										C215.4,219.5,215.8,220.6,215.4,220.9z"/>
								</g>
							</g>
							<g>
								<g>
									<path class="st6" d="M248.2,232.5c-0.4,0.2-1.3-0.7-2.1-2.1c-0.8-1.4-1.1-2.7-0.7-2.9s1.3,0.7,2.1,2.1
										C248.3,231,248.6,232.2,248.2,232.5z"/>
								</g>
							</g>
						</g>
						<g class="st12">
							<g>
								<g>
									<path class="st4" d="M226.6,229.5c0.4-0.1,0.9,0.5,1.1,1.3c0.2,0.7,0.2,1.5-0.2,1.7c-0.4,0.2-1-0.3-1.3-1.2
										C225.9,230.4,226.1,229.6,226.6,229.5z"/>
								</g>
							</g>
							<g>
								<g>
									<path class="st4" d="M228,210.5c0.4,0.1,0.7,1.4,0.5,3.1c-0.1,1.7-0.6,3-1,3s-0.7-1.4-0.5-3.1
										C227.1,211.8,227.6,210.5,228,210.5z"/>
								</g>
							</g>
							<g>
								<g>
									<path class="st4" d="M225.2,224c-0.4,0-0.7-0.5-0.5-1.1c0.3-0.5,0.9-0.6,1.2-0.3c0.3,0.3,0.4,0.7,0.3,1
										C226,223.8,225.7,224,225.2,224z"/>
								</g>
							</g>
							<g>
								<g>
									<path class="st4" d="M237.6,212.1c0.4,0.1,0.6,0.9,0.4,1.8c-0.2,0.9-0.7,1.6-1.1,1.5s-0.6-0.9-0.4-1.8
										C236.6,212.7,237.1,212,237.6,212.1z"/>
								</g>
							</g>
							<g>
								<g>
									<path class="st4" d="M250.9,213.6c0.1,0.4-0.6,0.9-1.6,0.8c-1-0.1-1.6-0.6-1.5-1.1c0.1-0.4,0.8-0.6,1.6-0.5
										C250.2,212.9,250.9,213.1,250.9,213.6z"/>
								</g>
							</g>
							<g>
								<g>
									<path class="st4" d="M253.3,211.5c-0.3,0.3-1.2,0.1-2.1-0.6c-0.9-0.7-1.4-1.5-1.2-1.9c0.3-0.3,1.2-0.1,2.1,0.6
										C253,210.4,253.5,211.2,253.3,211.5z"/>
								</g>
							</g>
							<g>
								<g>
									<path class="st4" d="M255.5,210c-0.4,0-0.8-1.1-0.4-2.3c0.3-1.3,1.2-2,1.5-1.8c0.4,0.2,0.2,1.2,0,2.2
										C256.3,209.1,256,210,255.5,210z"/>
								</g>
							</g>
							<g>
								<g>
									<path class="st4" d="M260.4,208.9c0.3,0.3,0,1.1-0.7,1.9c-0.7,0.8-1.5,1.1-1.8,0.9c-0.3-0.3,0-1.1,0.7-1.9
										C259.3,209,260.1,208.6,260.4,208.9z"/>
								</g>
							</g>
							<g>
								<g>
									<path class="st4" d="M258.1,215.2c-0.1,0.4-1,0.6-2.1,0.4c-1.1-0.2-1.9-0.7-1.8-1.1c0.1-0.4,1-0.6,2.1-0.4
										S258.2,214.8,258.1,215.2z"/>
								</g>
							</g>
							<g>
								<g>
									<path class="st4" d="M245.7,214.2c-0.1,0.4-0.9,0.6-1.9,0.4c-0.9-0.2-1.6-0.7-1.5-1.1c0.1-0.4,0.9-0.6,1.9-0.4
										S245.8,213.8,245.7,214.2z"/>
								</g>
							</g>
							<g>
								<g>
									<path class="st4" d="M247.5,210.2c-0.2,0.4-1,0.3-1.8-0.1c-0.8-0.5-1.2-1.1-1-1.5s1-0.3,1.8,0.1
										C247.3,209.2,247.7,209.9,247.5,210.2z"/>
								</g>
							</g>
							<g>
								<g>
									<path class="st4" d="M253.2,207.2c-0.4,0.2-1.1-0.4-1.3-1.4c-0.2-1,0.1-1.9,0.6-1.8c0.4,0,0.8,0.7,1,1.5
										C253.6,206.2,253.6,207,253.2,207.2z"/>
								</g>
							</g>
							<g>
								<g>
									<path class="st4" d="M259.9,205.1c0.4,0.2,0.5,0.8,0.2,1.3s-0.8,0.8-1.2,0.6c-0.4-0.2-0.5-0.8-0.2-1.3
										C259,205.2,259.6,204.9,259.9,205.1z"/>
								</g>
							</g>
							<g>
								<g>
									<path class="st4" d="M263.9,211.1c0.1,0.4-0.3,0.9-0.8,1c-0.6,0.2-1.1-0.1-1.2-0.5s0.3-0.9,0.8-1
										C263.2,210.4,263.8,210.7,263.9,211.1z"/>
								</g>
							</g>
							<g>
								<g>
									<path class="st4" d="M245.5,203.3c0.2-0.4,1.3-0.1,2.2,0.9c0.9,1,1.1,2.1,0.7,2.3s-1.1-0.4-1.8-1.2
										C245.8,204.4,245.3,203.6,245.5,203.3z"/>
								</g>
							</g>
							<g>
								<g>
									<path class="st4" d="M255.4,201.2c0.4,0,0.8,0.5,0.8,1.2s-0.3,1.2-0.8,1.2c-0.4,0-0.8-0.5-0.8-1.2
										C254.6,201.8,254.9,201.2,255.4,201.2z"/>
								</g>
							</g>
							<g>
								<g>
									<path class="st4" d="M238.7,209.4c0.1-0.4,1.1-0.4,2.2-0.1c1.1,0.4,1.8,1,1.7,1.4c-0.1,0.4-1.1,0.4-2.2,0.1
										C239.3,210.4,238.5,209.8,238.7,209.4z"/>
								</g>
							</g>
							<g>
								<g>
									<path class="st4" d="M243.1,205.9c-0.3,0.3-0.9,0.2-1.4-0.3s-0.6-1.1-0.3-1.4c0.3-0.3,0.9-0.2,1.4,0.3
										S243.4,205.6,243.1,205.9z"/>
								</g>
							</g>
							<g>
								<g>
									<path class="st4" d="M250.1,199.5c0.4,0,0.8,0.6,0.9,1.4c0.1,0.8-0.2,1.5-0.7,1.5c-0.4,0-0.8-0.6-0.9-1.4
										C249.4,200.2,249.7,199.6,250.1,199.5z"/>
								</g>
							</g>
							<g>
								<g>
									<path class="st4" d="M231.6,208.9c0.4,0.2,0.4,1.1,0.1,2c-0.4,1-1,1.6-1.4,1.5c-0.4-0.2-0.4-1.1-0.1-2
										C230.6,209.4,231.2,208.8,231.6,208.9z"/>
								</g>
							</g>
							<g>
								<g>
									<path class="st4" d="M234.4,208.6c0.4-0.1,0.9,0.6,1.1,1.6s0,1.8-0.4,1.9c-0.4,0.1-0.9-0.6-1.1-1.6
										C233.8,209.6,234,208.7,234.4,208.6z"/>
								</g>
							</g>
							<g>
								<g>
									<path class="st4" d="M240.5,207.2c0,0.4-0.8,0.7-1.8,0.7c-1-0.1-1.8-0.4-1.8-0.9c0-0.4,0.8-0.7,1.8-0.7
										C239.7,206.4,240.5,206.7,240.5,207.2z"/>
								</g>
							</g>
							<g>
								<g>
									<path class="st4" d="M229.1,206.7c0.1,0.4-0.5,0.9-1.3,1.1c-0.8,0.2-1.5,0-1.6-0.4s0.5-0.9,1.3-1.1
										C228.3,206.1,229,206.3,229.1,206.7z"/>
								</g>
							</g>
							<g>
								<g>
									<path class="st4" d="M234.4,205.1c0.2,0.4-0.3,0.9-0.9,1.2c-0.7,0.3-1.3,0.1-1.5-0.3c-0.2-0.4,0.3-0.9,0.9-1.2
										C233.6,204.6,234.3,204.7,234.4,205.1z"/>
								</g>
							</g>
							<g>
								<g>
									<path class="st4" d="M229.7,203.7c0,0.4-1.1,0.9-2.6,0.8c-1.5-0.1-2.6-0.8-2.5-1.2s1.3-0.5,2.6-0.4
										C228.5,203,229.6,203.3,229.7,203.7z"/>
								</g>
							</g>
							<g>
								<g>
									<path class="st4" d="M232.2,201.7c-0.2,0.4-1.4,0.2-2.7-0.3c-1.3-0.6-2.3-1.4-2.1-1.8c0.2-0.4,1.4-0.2,2.7,0.3
										C231.5,200.5,232.4,201.3,232.2,201.7z"/>
								</g>
							</g>
							<g>
								<g>
									<path class="st4" d="M246.6,199.7c0.2,0.4-0.3,1-0.9,1.4c-0.7,0.4-1.4,0.6-1.7,0.3c-0.3-0.3,0-1.1,0.8-1.6
										C245.6,199.3,246.5,199.3,246.6,199.7z"/>
								</g>
							</g>
							<g>
								<g>
									<path class="st4" d="M224.4,200.6c-0.2,0.4-0.8,0.5-1.4,0.3s-1-0.8-0.8-1.2s0.8-0.5,1.4-0.3
										C224.2,199.7,224.6,200.2,224.4,200.6z"/>
								</g>
							</g>
							<g>
								<g>
									<path class="st4" d="M246,244.3c0,0.4-1,0.8-2.3,0.9c-1.3,0-2.3-0.3-2.4-0.7c0-0.4,1-0.8,2.3-0.9
										C244.9,243.6,246,243.9,246,244.3z"/>
								</g>
							</g>
							<g>
								<g>
									<path class="st4" d="M248.3,241.6c-0.3,0.3-1.1,0-1.8-0.7c-0.7-0.7-1-1.5-0.7-1.8s1.1,0,1.8,0.7
										C248.3,240.5,248.6,241.3,248.3,241.6z"/>
								</g>
							</g>
							<g>
								<g>
									<path class="st4" d="M250.6,240.2c-0.4,0.1-0.9-0.8-0.9-1.9c0.1-1.2,0.7-1.9,1.1-1.8c0.4,0.1,0.5,1,0.4,1.9
										C251.2,239.3,251,240.1,250.6,240.2z"/>
								</g>
							</g>
							<g>
								<g>
									<path class="st4" d="M252.5,242.2c0.3,0.3,0.1,1-0.4,1.5s-1.1,0.8-1.5,0.6c-0.3-0.3-0.2-1,0.3-1.6
										C251.4,242.1,252.2,241.9,252.5,242.2z"/>
								</g>
							</g>
							<g>
								<g>
									<path class="st4" d="M251.5,248.9c-0.4,0-0.8-0.7-0.6-1.4c0.1-0.8,0.7-1.3,1.1-1.1c0.4,0.1,0.6,0.8,0.5,1.4
										C252.3,248.4,251.9,248.9,251.5,248.9z"/>
								</g>
							</g>
							<g>
								<g>
									<path class="st4" d="M247.7,246.4c0.3,0.3,0.4,0.7,0.3,0.9s-0.5,0.3-0.9,0.2s-0.7-0.5-0.5-1
										C246.9,246.1,247.4,246.1,247.7,246.4z"/>
								</g>
							</g>
							<g>
								<g>
									<path class="st4" d="M254.2,234.9c0.4,0.1,0.4,1.1-0.1,2.1s-1.4,1.5-1.7,1.2c-0.3-0.3-0.1-1.1,0.4-2
										C253.2,235.3,253.8,234.7,254.2,234.9z"/>
								</g>
							</g>
							<g>
								<g>
									<path class="st4" d="M251,234.4c0,0.4-0.8,0.8-1.9,0.9c-1.1,0.1-2-0.2-2-0.7c0-0.4,0.8-0.8,1.9-0.9
										C250.1,233.7,251,234,251,234.4z"/>
								</g>
							</g>
							<g>
								<g>
									<path class="st4" d="M244,241.4c-0.3,0.3-0.9,0.1-1.3-0.4s-0.4-1.1-0.1-1.4c0.3-0.3,0.9-0.1,1.3,0.4S244.4,241.1,244,241.4
										z"/>
								</g>
							</g>
							<g>
								<g>
									<path class="st4" d="M237.7,244.7c-0.3,0.3-1.3-0.2-1.9-1.3c-0.7-1.1-0.6-2.2-0.2-2.3s1,0.6,1.5,1.5
										C237.6,243.6,238,244.4,237.7,244.7z"/>
								</g>
							</g>
							<g>
								<g>
									<path class="st4" d="M234.4,244.7c-0.1,0.4-0.7,0.6-1.4,0.4c-0.7-0.2-1.1-0.7-1-1.1c0.1-0.4,0.7-0.6,1.4-0.4
										S234.5,244.2,234.4,244.7z"/>
								</g>
							</g>
							<g>
								<g>
									<path class="st4" d="M212.4,268.1c-0.4-0.1-0.6-1.1-0.5-2.3c0.2-1.2,0.7-2.1,1.1-2s0.6,1.1,0.5,2.3
										C213.4,267.2,212.9,268.1,212.4,268.1z"/>
								</g>
							</g>
							<g>
								<g>
									<path class="st4" d="M218.3,267.4c-0.4,0.2-1.2-0.7-1.8-2c-0.6-1.3-0.8-2.5-0.4-2.7s1.2,0.7,1.8,2
										C218.6,266,218.7,267.2,218.3,267.4z"/>
								</g>
							</g>
							<g>
								<g>
									<path class="st4" d="M223.5,263.8c-0.3,0.3-1.4-0.2-2.5-1c-1.2-0.8-2-1.7-1.8-2.1s1.4-0.1,2.7,0.8
										C223.1,262.4,223.8,263.4,223.5,263.8z"/>
								</g>
							</g>
							<g>
								<g>
									<path class="st4" d="M215.6,257.7c0.4,0.2,0.5,0.9,0.1,1.7c-0.3,0.8-0.9,1.3-1.3,1.2c-0.4-0.2-0.5-0.9-0.1-1.7
										C214.6,258,215.2,257.5,215.6,257.7z"/>
								</g>
							</g>
							<g>
								<g>
									<path class="st4" d="M223.7,268.3c-0.3,0.3-1.1-0.1-1.6-0.9c-0.6-0.7-0.7-1.5-0.4-1.8c0.3-0.3,1.1,0.1,1.6,0.9
										C223.9,267.3,224.1,268.1,223.7,268.3z"/>
								</g>
							</g>
							<g>
								<g>
									<path class="st4" d="M215.1,269.9c-0.4,0.1-0.9-0.4-0.9-1.1c-0.1-0.7,0.2-1.3,0.6-1.3c0.4-0.1,0.9,0.4,0.9,1.1
										C215.8,269.3,215.6,269.9,215.1,269.9z"/>
								</g>
							</g>
							<g>
								<g>
									<path class="st4" d="M231.7,262.1c-0.1,0.4-1.5,0.5-3.1,0.2s-2.8-0.9-2.8-1.4c0.1-0.4,1.4-0.5,3.1-0.2
										C230.6,261,231.8,261.6,231.7,262.1z"/>
								</g>
							</g>
							<g>
								<g>
									<path class="st4" d="M230.7,268.2c-0.3,0.3-1.4-0.1-2.5-1.1c-1.1-0.9-1.8-1.9-1.5-2.3c0.3-0.3,1.4,0.1,2.5,1.1
										C230.3,266.9,231,267.9,230.7,268.2z"/>
								</g>
							</g>
							<g>
								<g>
									<path class="st4" d="M236.3,266.5c-0.1,0.4-1.1,0.5-2.1,0.2s-1.8-0.9-1.6-1.3c0.1-0.4,1.1-0.5,2.1-0.2
										S236.5,266.1,236.3,266.5z"/>
								</g>
							</g>
							<g>
								<g>
									<path class="st4" d="M240.8,267.5c0,0.4-0.6,0.8-1.3,1.2c-0.7,0.3-1.4,0.5-1.7,0.2c-0.3-0.3,0.1-1.2,1.1-1.6
										C239.8,266.8,240.8,267.1,240.8,267.5z"/>
								</g>
							</g>
							<g>
								<g>
									<path class="st4" d="M239.4,263.8c-0.2,0.4-1,0.3-1.8-0.1c-0.8-0.5-1.3-1.1-1.1-1.5c0.2-0.4,1-0.3,1.8,0.1
										C239.1,262.7,239.6,263.4,239.4,263.8z"/>
								</g>
							</g>
							<g>
								<g>
									<path class="st4" d="M243.9,263.3c0.2,0.4,0,0.9-0.3,1.3s-0.7,0.8-1.1,0.8s-0.7-0.9-0.1-1.6
										C242.9,263,243.8,262.9,243.9,263.3z"/>
								</g>
							</g>
							<g>
								<g>
									<path class="st4" d="M248.6,266.8c0,0.4-0.8,0.8-1.8,0.8s-1.9-0.3-1.9-0.7c0-0.4,0.8-0.8,1.8-0.8
										C247.7,266,248.6,266.4,248.6,266.8z"/>
								</g>
							</g>
							<g>
								<g>
									<path class="st4" d="M249.3,264.3c-0.2,0.4-1,0.4-1.8,0.1c-0.8-0.4-1.4-1-1.2-1.4c0.2-0.4,1-0.4,1.8-0.1
										C248.9,263.3,249.4,263.9,249.3,264.3z"/>
								</g>
							</g>
							<g>
								<g>
									<path class="st4" d="M252.4,265.5c-0.4-0.1-0.7-0.7-0.4-1.4c0.3-0.7,0.9-1,1.2-0.8c0.4,0.2,0.4,0.8,0.2,1.3
										C253.3,265.2,252.9,265.6,252.4,265.5z"/>
								</g>
							</g>
							<g>
								<g>
									<path class="st4" d="M227.2,224.7c0.4-0.2,1.2,0.3,1.8,1.3c0.6,0.9,0.8,1.9,0.5,2.1c-0.4,0.2-1.2-0.3-1.8-1.3
										C227,225.9,226.8,225,227.2,224.7z"/>
								</g>
							</g>
							<g>
								<g>
									<path class="st4" d="M233.7,223.3c0.4,0.2,0.1,1.4-0.7,2.5c-0.7,1.2-1.6,1.9-2,1.7s-0.1-1.4,0.7-2.5
										C232.5,223.8,233.4,223.1,233.7,223.3z"/>
								</g>
							</g>
							<g>
								<g>
									<path class="st4" d="M237.4,227.7c0.2,0.4-0.6,1.1-1.6,1.4c-1.1,0.4-2,0.4-2.2,0s0.6-1.1,1.6-1.4
										C236.2,227.3,237.2,227.3,237.4,227.7z"/>
								</g>
							</g>
							<g>
								<g>
									<path class="st4" d="M236.4,234.7c-0.3,0.3-1.2,0.1-2-0.7s-1.2-1.7-0.8-2c0.3-0.3,1.1,0.1,1.9,0.8
										C236.2,233.6,236.6,234.4,236.4,234.7z"/>
								</g>
							</g>
							<g>
								<g>
									<path class="st4" d="M230.6,237.5c-0.4,0.1-1-1-0.9-2.4c0.1-1.5,0.8-2.5,1.2-2.3c0.4,0.1,0.4,1.2,0.3,2.4
										C231.2,236.4,231,237.4,230.6,237.5z"/>
								</g>
							</g>
							<g>
								<g>
									<path class="st4" d="M232.4,230.8c-0.1,0.4-0.8,0.6-1.5,0.4c-0.7-0.2-1.2-0.7-1.1-1.1c0.1-0.4,0.8-0.6,1.5-0.4
										C232,229.8,232.5,230.3,232.4,230.8z"/>
								</g>
							</g>
							<g>
								<g>
									<path class="st4" d="M238.4,222.7c0.3,0.2,0,1.3-1,2.2s-2.1,1.1-2.3,0.8c-0.2-0.4,0.4-1.2,1.3-1.9
										C237.2,223,238.1,222.5,238.4,222.7z"/>
								</g>
							</g>
							<g>
								<g>
									<path class="st4" d="M229.7,220.1c0.4-0.1,0.9,0.7,1,1.7s-0.4,1.8-0.8,1.8c-0.4-0.1-0.7-0.8-0.7-1.7
										C229.1,221,229.3,220.2,229.7,220.1z"/>
								</g>
							</g>
							<g>
								<g>
									<path class="st4" d="M235.4,217.3c0.4,0.1,0.5,1.1,0.1,2.2c-0.4,1.1-1.2,1.7-1.6,1.5s-0.3-1.1,0.1-2.1
										C234.5,218,235,217.2,235.4,217.3z"/>
								</g>
							</g>
							<g>
								<g>
									<path class="st4" d="M242.7,226.9c0,0.4-0.6,0.8-1.4,0.9c-0.8,0.1-1.5-0.2-1.5-0.6c0-0.4,0.6-0.8,1.4-0.9
										C241.9,226.2,242.6,226.5,242.7,226.9z"/>
								</g>
							</g>
							<g>
								<g>
									<path class="st4" d="M240.4,232.5c-0.2,0.4-1,0.5-2,0.2c-0.9-0.3-1.6-0.9-1.5-1.3c0.1-0.4,1-0.5,2-0.2
										S240.6,232.1,240.4,232.5z"/>
								</g>
							</g>
							<g>
								<g>
									<path class="st4" d="M234.4,238.8c-0.4,0.2-1.1-0.3-1.4-1.3s0-1.8,0.4-1.8s0.8,0.6,1.1,1.4
										C234.8,237.9,234.8,238.6,234.4,238.8z"/>
								</g>
							</g>
							<g>
								<g>
									<path class="st4" d="M230.4,242.6c-0.4,0-0.8-0.6-0.9-1.3c0-0.7,0.3-1.4,0.7-1.4c0.4,0,0.8,0.6,0.9,1.3
										C231.2,241.9,230.9,242.6,230.4,242.6z"/>
								</g>
							</g>
							<g>
								<g>
									<path class="st4" d="M240.3,240.7c-0.4,0.2-1.1-0.5-1.7-1.4s-0.9-1.8-0.6-2.1s1.2,0.2,1.9,1.2
										C240.6,239.4,240.7,240.5,240.3,240.7z"/>
								</g>
							</g>
							<g>
								<g>
									<path class="st4" d="M244.9,237c-0.2,0.4-1.2,0.2-2.3-0.2c-1.1-0.4-1.9-1-1.8-1.4s1.2-0.5,2.4,0
										C244.4,235.8,245.1,236.6,244.9,237z"/>
								</g>
							</g>
							<g>
								<g>
									<path class="st4" d="M245.2,232.4c-0.3,0.3-0.9,0.1-1.4-0.1c-0.5-0.3-0.9-0.6-0.9-1.1c0-0.4,0.8-0.7,1.6-0.3
										C245.4,231.4,245.5,232.2,245.2,232.4z"/>
								</g>
							</g>
							<g>
								<g>
									<path class="st4" d="M232.3,213.6c0.4,0.1,0.6,1.1,0.5,2.2c-0.1,1.2-0.5,2.1-0.9,2.1s-0.8-1-0.6-2.2
										C231.3,214.4,231.8,213.5,232.3,213.6z"/>
								</g>
							</g>
							<g>
								<g>
									<path class="st4" d="M241.2,217c0.3,0.3,0,1.2-0.8,2c-0.7,0.8-1.6,1.3-1.9,1s0-1.2,0.8-2C240,217.1,240.9,216.7,241.2,217z
										"/>
								</g>
							</g>
							<g>
								<g>
									<path class="st4" d="M242.6,219.1c0.3-0.3,0.8-0.2,1,0.1s0.1,0.8-0.2,1c-0.3,0.3-0.8,0.2-1-0.1
										C242.1,219.8,242.2,219.4,242.6,219.1z"/>
								</g>
							</g>
							<g>
								<g>
									<path class="st4" d="M218.6,216.1c-0.1,0.4-1.2,0.4-2.4-0.1c-1.2-0.5-1.9-1.4-1.7-1.7c0.2-0.4,1.2-0.2,2.3,0.3
										C217.9,215,218.7,215.7,218.6,216.1z"/>
								</g>
							</g>
							<g>
								<g>
									<path class="st4" d="M213.7,224.6c-0.4,0.2-1-0.4-1.2-1.4c-0.2-0.9,0-1.8,0.4-1.8c0.4-0.1,0.9,0.6,1.1,1.4
										C214.2,223.6,214.1,224.4,213.7,224.6z"/>
								</g>
							</g>
							<g>
								<g>
									<path class="st4" d="M219.9,220.9c-0.3,0.3-1.1-0.1-1.8-0.8c-0.6-0.7-0.9-1.6-0.6-1.8c0.3-0.3,1.1,0.1,1.8,0.8
										C219.9,219.7,220.2,220.6,219.9,220.9z"/>
								</g>
							</g>
							<g>
								<g>
									<path class="st4" d="M217,208c0.3,0.3-0.3,1.4-1.2,2.4c-1,1-2.1,1.6-2.4,1.3s0.3-1.4,1.2-2.4
										C215.6,208.2,216.7,207.7,217,208z"/>
								</g>
							</g>
							<g>
								<g>
									<path class="st4" d="M212.4,206.1c0.4,0.1,0.5,1.1,0.1,2c-0.3,1-1,1.7-1.4,1.5c-0.4-0.1-0.5-1.1-0.1-2
										C211.3,206.6,212,206,212.4,206.1z"/>
								</g>
							</g>
							<g>
								<g>
									<path class="st4" d="M212.5,213.6c0.2,0.4-0.1,1-0.7,1.6s-1.2,1-1.6,0.7c-0.4-0.2-0.2-1.1,0.5-1.8
										C211.4,213.4,212.3,213.2,212.5,213.6z"/>
								</g>
							</g>
							<g>
								<g>
									<path class="st4" d="M210.8,212.5c-0.4,0.2-0.9-0.2-0.9-0.8s0.5-1,0.9-0.9s0.7,0.5,0.7,0.8
										C211.4,212,211.2,212.4,210.8,212.5z"/>
								</g>
							</g>
							<g>
								<g>
									<path class="st4" d="M219.4,211.5c0.1,0.4-0.7,0.9-1.6,1c-1,0.1-1.8-0.1-1.8-0.5c-0.1-0.4,0.7-0.9,1.6-1
										S219.4,211.1,219.4,211.5z"/>
								</g>
							</g>
							<g>
								<g>
									<path class="st4" d="M216.2,204.2c0.4,0.3,0.2,1.1-0.4,2c-0.6,0.8-1.4,1.3-1.7,1.1c-0.4-0.3-0.2-1.1,0.4-2
										C215.1,204.4,215.8,203.9,216.2,204.2z"/>
								</g>
							</g>
							<g>
								<g>
									<path class="st4" d="M219,226.2c-0.3,0.3-1.3-0.2-1.8-1.3c-0.6-1.1-0.4-2.1,0-2.2c0.4-0.1,0.9,0.6,1.4,1.5
										C219,225,219.3,225.9,219,226.2z"/>
								</g>
							</g>
							<g>
								<g>
									<path class="st4" d="M210.1,227.7c-0.4,0-0.8-0.6-0.8-1.5c0.1-0.9,0.6-1.5,1-1.3c0.4,0.1,0.6,0.8,0.6,1.5
										C210.8,227.1,210.6,227.7,210.1,227.7z"/>
								</g>
							</g>
							<g>
								<g>
									<path class="st4" d="M215.9,227.6c-0.1,0.4-0.9,0.5-1.8,0.3c-0.9-0.3-1.4-0.8-1.3-1.2s0.9-0.5,1.8-0.3
										C215.5,226.7,216.1,227.2,215.9,227.6z"/>
								</g>
							</g>
							<g>
								<g>
									<path class="st4" d="M223.3,225.6c-0.3,0.3-1.1-0.1-1.8-0.8c-0.7-0.8-1-1.6-0.6-1.9c0.3-0.3,1.1,0.1,1.8,0.8
										C223.4,224.4,223.6,225.3,223.3,225.6z"/>
								</g>
							</g>
							<g>
								<g>
									<path class="st4" d="M225,213.8c0,0.4-0.9,0.8-2.1,0.9c-1.2,0.1-2.2-0.2-2.2-0.7c0-0.4,0.9-0.8,2.1-0.9
										C224,213,225,213.3,225,213.8z"/>
								</g>
							</g>
							<g>
								<g>
									<path class="st4" d="M222.7,206.2c0.2,0.4-0.4,1.1-1.4,1.7c-1,0.5-1.9,0.7-2.1,0.3s0.4-1.1,1.4-1.7
										C221.6,206,222.5,205.8,222.7,206.2z"/>
								</g>
							</g>
							<g>
								<g>
									<path class="st4" d="M214.1,202.2c0.4,0.2,0.5,0.8,0.2,1.3s-0.8,0.8-1.2,0.6c-0.4-0.2-0.5-0.8-0.2-1.3
										C213.2,202.3,213.7,202,214.1,202.2z"/>
								</g>
							</g>
							<g>
								<g>
									<path class="st4" d="M221.1,202.1c0.3,0.3,0,1.1-0.7,1.9c-0.7,0.7-1.5,1.1-1.8,0.8s0-1.1,0.7-1.9
										C220,202.1,220.8,201.8,221.1,202.1z"/>
								</g>
							</g>
							<g>
								<g>
									<path class="st4" d="M225.5,209.9c0.1,0.4-0.6,0.9-1.6,1.1c-0.9,0.2-1.8,0-1.9-0.4s0.6-0.9,1.6-1.1
										C224.6,209.2,225.5,209.4,225.5,209.9z"/>
								</g>
							</g>
							<g>
								<g>
									<path class="st4" d="M226.1,220.2c-0.2,0.4-1.2,0.1-2.1-0.4s-1.6-1.2-1.4-1.6c0.2-0.4,1.2-0.3,2.2,0.2
										C225.8,219,226.4,219.8,226.1,220.2z"/>
								</g>
							</g>
							<g>
								<g>
									<path class="st4" d="M251.9,227.5c-0.1,0.4-1.2,0.4-2.4,0.1c-1.2-0.4-2.1-1-2-1.4s1.2-0.4,2.4-0.1
										C251.1,226.5,252,227.1,251.9,227.5z"/>
								</g>
							</g>
							<g>
								<g>
									<path class="st4" d="M252.3,231.7c-0.3,0.3-1.1,0.1-1.7-0.5c-0.7-0.6-1-1.3-0.7-1.6s1-0.1,1.7,0.5
										C252.2,230.6,252.5,231.3,252.3,231.7z"/>
								</g>
							</g>
							<g>
								<g>
									<path class="st4" d="M252.9,222.2c0.1,0.4-0.8,1.2-2.1,1.7c-1.3,0.5-2.5,0.6-2.6,0.2c-0.2-0.4,0.7-1.1,2.1-1.7
										C251.6,221.9,252.8,221.8,252.9,222.2z"/>
								</g>
							</g>
							<g>
								<g>
									<path class="st4" d="M254.6,225c0,0.4-0.6,0.8-1.4,0.8s-1.4-0.3-1.4-0.7s0.6-0.8,1.4-0.8C254,224.2,254.6,224.5,254.6,225z
										"/>
								</g>
							</g>
							<g>
								<g>
									<path class="st4" d="M256.6,230.5c-0.4,0.2-1-0.3-1.6-0.8s-1.2-0.9-1.2-1.4c0-0.2,0.3-0.4,0.7-0.4c0.4,0,0.9,0.1,1.4,0.5
										s0.8,0.8,0.9,1.2C256.9,230.1,256.8,230.4,256.6,230.5z"/>
								</g>
							</g>
							<g>
								<g>
									<path class="st4" d="M256.7,234.6c-0.3,0.3-1.1-0.2-1.8-1c-0.6-0.8-0.9-1.7-0.5-1.9c0.3-0.3,1.1,0.2,1.8,1
										C256.8,233.4,257,234.3,256.7,234.6z"/>
								</g>
							</g>
							<g>
								<g>
									<path class="st4" d="M240.9,222.7c0.2-0.4,1.4-0.1,2.7,0.6c1.3,0.7,2.1,1.6,1.9,2s-1.4,0.1-2.7-0.6
										C241.5,224,240.7,223.1,240.9,222.7z"/>
								</g>
							</g>
							<g>
								<g>
									<path class="st4" d="M245.9,216.5c0.4,0,0.8,1.2,0.9,2.7s-0.2,2.8-0.6,2.8s-0.8-1.2-0.9-2.7
										C245.2,217.7,245.5,216.5,245.9,216.5z"/>
								</g>
							</g>
							<g>
								<g>
									<path class="st4" d="M252.4,217.6c0.3,0.3-0.3,1.2-1.2,2c-0.9,0.7-1.9,1.1-2.2,0.7c-0.3-0.3,0.3-1.2,1.2-2
										C251.1,217.6,252.1,217.2,252.4,217.6z"/>
								</g>
							</g>
							<g>
								<g>
									<path class="st4" d="M258.7,218.9c0.1,0.4-0.8,1-2,1.3s-2.3,0.2-2.4-0.2s0.8-1,2-1.3S258.6,218.5,258.7,218.9z"/>
								</g>
							</g>
							<g>
								<g>
									<path class="st4" d="M260.4,224c-0.1,0.4-1.1,0.5-2.1,0.2s-1.8-0.9-1.7-1.3c0.1-0.4,1.1-0.5,2.1-0.2
										C259.8,223,260.5,223.6,260.4,224z"/>
								</g>
							</g>
							<g>
								<g>
									<path class="st4" d="M264.5,220c0.1,0.4-0.6,0.9-1.5,1s-1.7-0.1-1.7-0.5c-0.1-0.4,0.6-0.9,1.5-1
										C263.7,219.3,264.4,219.6,264.5,220z"/>
								</g>
							</g>
							<g>
								<g>
									<path class="st4" d="M262.1,225.8c0.2,0.4-0.3,1-1.2,1.2c-0.8,0.2-1.6-0.1-1.6-0.6c0-0.4,0.5-0.8,1.2-1
										C261.3,225.3,262,225.4,262.1,225.8z"/>
								</g>
							</g>
							<g>
								<g>
									<path class="st4" d="M264.2,225.1c-0.4,0.1-0.9-0.4-1-1.2c0-0.8,0.5-1.3,0.9-1.2s0.7,0.6,0.7,1.2
										C264.9,224.4,264.7,224.9,264.2,225.1z"/>
								</g>
							</g>
							<g>
								<g>
									<path class="st4" d="M261.5,213.9c0.4,0.1,0.6,1,0.4,2.1s-0.7,1.9-1.1,1.8c-0.4-0.1-0.6-1-0.4-2.1
										C260.5,214.6,261,213.8,261.5,213.9z"/>
								</g>
							</g>
							<g>
								<g>
									<path class="st4" d="M265.2,217c-0.4,0-0.7-0.7-0.6-1.4c0.1-0.8,0.5-1.3,0.9-1.3s0.7,0.7,0.6,1.4
										C266.1,216.5,265.7,217.1,265.2,217z"/>
								</g>
							</g>
							<g>
								<g>
									<path class="st4" d="M267.9,221.1c-0.4,0.1-0.9-0.6-1-1.5s0.2-1.6,0.6-1.7c0.4-0.1,0.9,0.6,1,1.5
										C268.6,220.4,268.3,221.1,267.9,221.1z"/>
								</g>
							</g>
							<g>
								<g>
									<path class="st4" d="M210.5,223.4c-0.4,0-0.8-1.4-0.8-3.1c0.1-1.7,0.5-3,1-3c0.4,0,0.7,1.4,0.6,3
										C211.2,222,210.9,223.3,210.5,223.4z"/>
								</g>
							</g>
							<g>
								<g>
									<path class="st4" d="M215.4,220.9c-0.4,0.2-1.3-0.6-2.1-1.8c-0.8-1.2-1.1-2.4-0.8-2.6c0.4-0.2,1.3,0.6,2.1,1.8
										C215.4,219.5,215.8,220.6,215.4,220.9z"/>
								</g>
							</g>
							<g>
								<g>
									<path class="st4" d="M248.2,232.5c-0.4,0.2-1.3-0.7-2.1-2.1c-0.8-1.4-1.1-2.7-0.7-2.9s1.3,0.7,2.1,2.1
										C248.3,231,248.6,232.2,248.2,232.5z"/>
								</g>
							</g>
						</g>
					</g>
					<g>
						<g>
							<path class="st5" d="M225.2,211c0.1,0,0.2,3.8,0.3,8.5c0.1,4.7,0,8.5,0,8.5c-0.1,0-0.2-3.8-0.3-8.5
								C225.1,214.8,225.2,211,225.2,211z"/>
						</g>
					</g>
					<g>
						<g>
							<path class="st5" d="M226.4,214.1c0.1,0-0.2,0.7-0.4,1.5c-0.2,0.8-0.4,1.5-0.5,1.5s-0.1-0.7,0.2-1.6
								C225.9,214.7,226.3,214,226.4,214.1z"/>
						</g>
					</g>
					<g>
						<g>
							<path class="st5" d="M244.5,197.2c0,0,0,0.1,0.1,0.3s0.1,0.4,0.1,0.8c0.1,0.7,0.1,1.7-0.3,2.8c-0.4,1.2-1.1,2.5-2.3,3.5
								c-1.2,1.1-3,1.7-4.9,1.7c-1.9-0.1-3.6-0.8-4.8-1.9c-1.2-1.1-1.8-2.5-2.1-3.7c-0.3-1.2-0.2-2.2-0.1-2.8
								c0.1-0.3,0.1-0.6,0.2-0.8s0.1-0.3,0.1-0.3c0.1,0-0.5,1.5,0.1,3.8c0.3,1.1,1,2.4,2.1,3.5s2.8,1.7,4.6,1.8
								c1.8,0,3.5-0.6,4.7-1.6s1.9-2.3,2.3-3.4C245,198.7,244.4,197.2,244.5,197.2z"/>
						</g>
					</g>
					<g>
						<g>
							<path class="st5" d="M253.1,217.1c0,0,0.3,0.4,0.7,1.2c0.5,1,1,1.9,1.5,3c0.5,1,1,2,1.5,3c0.4,0.8,0.6,1.2,0.6,1.3
								c0,0-0.3-0.4-0.8-1.2c-0.4-0.7-1-1.8-1.6-2.9c-0.6-1.2-1.1-2.2-1.4-3C253.3,217.6,253.1,217.1,253.1,217.1z"/>
						</g>
					</g>
				</g>
				<g>
					<g>
						<g>
							<g>
								<g>
									<g>
										<path class="st6" d="M284.8,428.9l-1.6-9.1l-17,2.9l2.2,13.3l1.1-0.1c4.7-0.5,24-3.1,27-4.6
											C299.8,429.6,284.8,428.9,284.8,428.9z"/>
									</g>
								</g>
							</g>
							<g>
								<g>
									<g>
										<path class="st6" d="M274.6,434.8c-0.5-1.4-1.5-2.6-2.8-3.2c-1.3-0.7-2.8-0.9-4.2-0.5l0.8,4.7L274.6,434.8z"/>
									</g>
								</g>
							</g>
						</g>
						<g>
							<g>
								<g>
									<path class="st6" d="M292.2,429.5c0,0,5.3,0.6,4.8,1.5s-19.9,4.3-28.5,5v-0.4l22.6-3.7
										C291.1,431.9,291.2,429.7,292.2,429.5z"/>
								</g>
							</g>
						</g>
						<g>
							<g>
								<g>
									<g>
										<path class="st5" d="M268.2,435.7c0,0,0.1,0,0.3,0c0.3,0,0.5-0.1,0.8-0.1c0.8-0.1,1.9-0.2,3.1-0.4
											c2.6-0.4,6.2-0.9,10.2-1.6s7.6-1.4,10.2-1.9c1.2-0.3,2.2-0.5,3.1-0.7c0.3-0.1,0.6-0.1,0.8-0.2c0.2,0,0.3-0.1,0.3-0.1
											s-0.1,0-0.3,0c-0.3,0-0.5,0.1-0.8,0.2c-0.8,0.2-1.9,0.4-3.1,0.6c-2.6,0.5-6.2,1.2-10.2,1.9c-4,0.7-7.6,1.2-10.2,1.6
											c-1.2,0.2-2.3,0.3-3.1,0.5c-0.3,0-0.6,0.1-0.8,0.1S268.2,435.7,268.2,435.7z"/>
									</g>
								</g>
							</g>
						</g>
						<g>
							<g>
								<g>
									<g>
										<path class="st5" d="M291.1,432.2c0.1,0,0-0.7,0.3-1.6c0.3-0.8,0.9-1.3,0.8-1.4c0,0-0.7,0.4-1,1.3
											C290.9,431.4,291.1,432.2,291.1,432.2z"/>
									</g>
								</g>
							</g>
						</g>
						<g>
							<g>
								<g>
									<g>
										<path class="st5" d="M285.7,430.5c0.1,0,0.2-0.3,0.4-0.7c0.2-0.4,0.3-0.8,0.2-0.8c-0.1,0-0.2,0.3-0.4,0.7
											C285.7,430.1,285.6,430.5,285.7,430.5z"/>
									</g>
								</g>
							</g>
						</g>
						<g>
							<g>
								<g>
									<g>
										<path class="st5" d="M284.2,430c0,0,0.3-0.2,0.5-0.5s0.4-0.6,0.4-0.6s-0.3,0.2-0.5,0.5C284.3,429.7,284.1,430,284.2,430z"
											/>
									</g>
								</g>
							</g>
						</g>
						<g>
							<g>
								<g>
									<g>
										<path class="st5" d="M283,428.6c0,0.1,0.4,0,0.9,0c0.5-0.1,0.9-0.2,0.9-0.2c0-0.1-0.4,0-0.9,0S283,428.5,283,428.6z"/>
									</g>
								</g>
							</g>
						</g>
						<g>
							<g>
								<g>
									<g>
										<path class="st5" d="M282.5,427.5c0,0.1,0.5,0.2,1,0.1c0.6-0.1,1-0.3,1-0.3c0-0.1-0.5,0.1-1,0.1
											C283,427.5,282.5,427.4,282.5,427.5z"/>
									</g>
								</g>
							</g>
						</g>
						<g>
							<g>
								<g>
									<g>
										<path class="st5" d="M286,428.9c0,0,0.4,0,1.1-0.2c0.3-0.1,0.7-0.2,1.1-0.5c0.2-0.1,0.4-0.2,0.6-0.4
											c0.1-0.1,0.2-0.2,0.2-0.4c0-0.2-0.1-0.3-0.2-0.4c-1.1-0.4-2.1,0.4-2.4,1c-0.2,0.3-0.2,0.6-0.2,0.8c0,0.2,0,0.3,0,0.3
											s0-0.4,0.3-1c0.2-0.3,0.4-0.6,0.8-0.8c0.4-0.2,0.9-0.3,1.3-0.1c0.2,0.1,0.2,0.3,0,0.5c-0.2,0.1-0.4,0.3-0.6,0.4
											c-0.4,0.2-0.8,0.4-1.1,0.5C286.4,428.8,286,428.9,286,428.9z"/>
									</g>
								</g>
							</g>
						</g>
						<g>
							<g>
								<g>
									<g>
										<path class="st5" d="M286.3,428.9c0,0,0.1-0.3,0-0.8c-0.1-0.2-0.2-0.5-0.4-0.7c-0.2-0.2-0.5-0.5-1-0.4
											c-0.2,0.1-0.3,0.4-0.2,0.6c0.1,0.2,0.2,0.3,0.3,0.5c0.2,0.2,0.4,0.4,0.6,0.6C285.9,428.9,286.2,429,286.3,428.9
											c-0.1,0-0.3-0.2-0.7-0.5c-0.2-0.1-0.4-0.3-0.6-0.6c-0.2-0.2-0.4-0.6-0.1-0.7s0.6,0.2,0.8,0.3c0.2,0.2,0.4,0.4,0.4,0.7
											C286.3,428.6,286.2,428.9,286.3,428.9z"/>
									</g>
								</g>
							</g>
						</g>
						<g>
							<g>
								<g>
									<g>
										<path class="st5" d="M267.7,431c0,0,0.5-0.1,1.3-0.2c0.8,0,1.9,0.1,2.9,0.7s1.7,1.4,2.1,2.1s0.5,1.2,0.5,1.2
											s0-0.1-0.1-0.3c-0.1-0.2-0.2-0.5-0.3-0.9c-0.4-0.7-1.1-1.6-2.2-2.2s-2.2-0.7-3-0.6c-0.4,0-0.7,0.1-0.9,0.2
											C267.8,430.9,267.7,430.9,267.7,431z"/>
									</g>
								</g>
							</g>
						</g>
						<g>
							<g>
								<g>
									<g>
										<path class="st5" d="M268.3,423.6c-0.1,0,0.1,1.6,0.5,3.5c0.3,1.9,0.6,3.5,0.7,3.5s-0.1-1.6-0.5-3.5
											C268.6,425.1,268.3,423.6,268.3,423.6z"/>
									</g>
								</g>
							</g>
						</g>
						<g>
							<g>
								<g>
									<g>
										<path class="st5" d="M276.5,432.8c0,0.1,1.1,0,2.5-0.2s2.5-0.6,2.4-0.6c0-0.1-1.1,0.2-2.5,0.4
											C277.6,432.6,276.5,432.7,276.5,432.8z"/>
									</g>
								</g>
							</g>
						</g>
						<g>
							<g>
								<g>
									<g>
										<path class="st5" d="M273.1,433.4c0,0,0.1,0.2,0.3,0.5c0.2,0.2,0.3,0.4,0.3,0.4c0.1,0,0-0.3-0.1-0.6
											C273.4,433.4,273.2,433.3,273.1,433.4z"/>
									</g>
								</g>
							</g>
						</g>
						<g>
							<g>
								<g>
									<g>
										<path class="st5" d="M271.6,432c0,0,0.1,0.2,0.3,0.4c0.2,0.1,0.4,0.2,0.4,0.2s-0.1-0.2-0.3-0.4
											C271.8,432.1,271.6,432,271.6,432z"/>
									</g>
								</g>
							</g>
						</g>
						<g>
							<g>
								<g>
									<g>
										<path class="st5" d="M269.7,431.6c0,0.1,0.2,0,0.5,0.1c0.3,0,0.5,0.1,0.5,0.1s-0.1-0.3-0.5-0.3
											C269.9,431.4,269.7,431.6,269.7,431.6z"/>
									</g>
								</g>
							</g>
						</g>
						<g>
							<g>
								<g>
									<g>
										<path class="st5" d="M268.4,431.5c0,0.1,0.1,0.1,0.3,0.2c0.2,0,0.3,0,0.3,0c0-0.1-0.1-0.1-0.3-0.2
											S268.4,431.4,268.4,431.5z"/>
									</g>
								</g>
							</g>
						</g>
					</g>
				</g>
				<g>
					<g>
						<path class="st8" d="M267.2,273.7c0,0,54.6,9.2,50.3,25.6c-4.3,16.3-36.6,56-36.6,56l-20.4-12.9c0,0,30.2-37.5,29.1-38.8
							c-1.2-1.2-42.5-10.2-42.5-10.2l-9.2-23.7L267.2,273.7z"/>
					</g>
					<g>
						<g>
							<g>
								<path class="st5" d="M253.2,290.2c0,0.1-0.4,0.2-0.8,0.1s-0.7-0.3-0.7-0.4s0.4-0.2,0.8-0.1
									C252.9,289.8,253.2,290,253.2,290.2z"/>
							</g>
						</g>
						<g>
							<g>
								<path class="st5" d="M258.9,291.3c0,0.1-0.7,0.1-1.5,0c-0.8-0.2-1.4-0.4-1.4-0.5s0.7-0.1,1.5,0S258.9,291.2,258.9,291.3z"/>
							</g>
						</g>
						<g>
							<g>
								<path class="st5" d="M264.6,292.5c0,0.1-0.7,0.1-1.5-0.1s-1.4-0.4-1.4-0.6c0-0.1,0.7-0.1,1.5,0.1
									C264,292.1,264.6,292.4,264.6,292.5z"/>
							</g>
						</g>
						<g>
							<g>
								<path class="st5" d="M270.3,293.9c0,0.1-0.7,0.1-1.5-0.1s-1.4-0.5-1.4-0.6s0.7-0.1,1.5,0.1S270.3,293.7,270.3,293.9z"/>
							</g>
						</g>
						<g>
							<g>
								<path class="st5" d="M275.9,295.3c0,0.1-0.7,0.1-1.5-0.1s-1.4-0.5-1.3-0.6c0-0.1,0.7-0.1,1.5,0.1S276,295.2,275.9,295.3z"/>
							</g>
						</g>
						<g>
							<g>
								<path class="st5" d="M281.6,296.8c0,0.1-0.7,0.1-1.5-0.1s-1.4-0.5-1.3-0.6c0-0.1,0.7-0.1,1.5,0.1
									C281,296.4,281.6,296.7,281.6,296.8z"/>
							</g>
						</g>
						<g>
							<g>
								<path class="st5" d="M287.2,298.5c0,0.1-0.7,0.1-1.5-0.2c-0.8-0.2-1.4-0.5-1.3-0.7c0-0.1,0.7-0.1,1.5,0.2
									C286.6,298,287.2,298.3,287.2,298.5z"/>
							</g>
						</g>
						<g>
							<g>
								<path class="st5" d="M292.8,300.2c0,0.1-0.7,0.1-1.5-0.2c-0.8-0.2-1.4-0.5-1.3-0.7c0-0.1,0.7-0.1,1.5,0.2
									C292.2,299.8,292.8,300.1,292.8,300.2z"/>
							</g>
						</g>
						<g>
							<g>
								<path class="st5" d="M294.2,304.5c-0.1-0.1,0.2-0.7,0.6-1.3c0.4-0.7,0.2-1.2,0.3-1.3c0.1,0,0.2,0.1,0.3,0.4
									c0.1,0.3,0.1,0.7-0.1,1.1C294.8,304.1,294.3,304.5,294.2,304.5z"/>
							</g>
						</g>
						<g>
							<g>
								<path class="st5" d="M290.8,309.2c-0.1-0.1,0.2-0.7,0.7-1.3c0.5-0.6,1-1.1,1.1-1s-0.2,0.7-0.7,1.3
									C291.3,308.8,290.9,309.3,290.8,309.2z"/>
							</g>
						</g>
						<g>
							<g>
								<path class="st5" d="M287.3,313.9c-0.1-0.1,0.2-0.7,0.7-1.3c0.5-0.6,1-1.1,1.1-1s-0.2,0.7-0.7,1.3
									C287.9,313.5,287.4,314,287.3,313.9z"/>
							</g>
						</g>
						<g>
							<g>
								<path class="st5" d="M283.8,318.6c-0.1-0.1,0.2-0.7,0.7-1.3c0.5-0.6,1-1.1,1.1-1s-0.2,0.7-0.7,1.3
									C284.4,318.2,283.9,318.7,283.8,318.6z"/>
							</g>
						</g>
						<g>
							<g>
								<path class="st5" d="M280.4,323.3c-0.1-0.1,0.2-0.7,0.7-1.3c0.5-0.6,1-1.1,1.1-1s-0.2,0.7-0.7,1.3
									C281,322.9,280.5,323.4,280.4,323.3z"/>
							</g>
						</g>
						<g>
							<g>
								<path class="st5" d="M276.9,328c-0.1-0.1,0.2-0.7,0.7-1.3c0.5-0.6,1-1.1,1.1-1s-0.2,0.7-0.7,1.3
									C277.5,327.6,277,328.1,276.9,328z"/>
							</g>
						</g>
						<g>
							<g>
								<path class="st5" d="M273.5,332.7c-0.1-0.1,0.2-0.7,0.7-1.3c0.5-0.6,1-1.1,1.1-1s-0.2,0.7-0.7,1.3
									C274.1,332.3,273.6,332.8,273.5,332.7z"/>
							</g>
						</g>
						<g>
							<g>
								<path class="st5" d="M270,337.4c-0.1-0.1,0.2-0.7,0.7-1.3c0.5-0.6,1-1.1,1.1-1s-0.2,0.7-0.7,1.3
									C270.6,337,270.1,337.5,270,337.4z"/>
							</g>
						</g>
						<g>
							<g>
								<path class="st5" d="M267.4,340.9c-0.1-0.1,0-0.4,0.2-0.8c0.2-0.3,0.5-0.5,0.7-0.4c0.1,0.1,0,0.4-0.2,0.8
									C267.8,340.8,267.5,341,267.4,340.9z"/>
							</g>
						</g>
					</g>
					<g>
						<g>
							<path class="st5" d="M296.5,301.3c0.1,0.1-1.5,0.8-3.5,1.5s-3.6,1.1-3.6,1s1.5-0.8,3.5-1.5
								C294.8,301.6,296.4,301.1,296.5,301.3z"/>
						</g>
					</g>
					<g>
						<g>
							<path class="st5" d="M297.2,303.1c0,0.1-1.8,0.5-4,0.7s-4.1,0.1-4.1-0.1c0-0.1,1.8-0.3,4-0.5
								C295.3,303.2,297.1,303,297.2,303.1z"/>
						</g>
					</g>
					<g>
						<path class="st5" d="M281.2,356.7l-12.3-8c0,0-1-10.2-3.3-12.8l19.6,15.7L281.2,356.7z"/>
					</g>
				</g>
				<g>
					<g>
						<path class="st8" d="M209.3,272c0,0-3.4,10.7,7.5,26.8l36.4,56.3l8.2,73.2l27-2.4l-9.1-81.1L240.9,273L209.3,272z"/>
					</g>
					<g>
						<g>
							<g>
								<path class="st5" d="M212.1,274c-0.1,0-0.3-0.3-0.3-0.8c0-0.4,0.1-0.8,0.3-0.7c0.1,0,0.3,0.4,0.3,0.8
									C212.4,273.7,212.2,274,212.1,274z"/>
							</g>
						</g>
						<g>
							<g>
								<path class="st5" d="M213,280c-0.1,0-0.4-0.6-0.6-1.4s-0.2-1.5-0.1-1.5s0.4,0.6,0.6,1.4C213.2,279.3,213.2,280,213,280z"/>
							</g>
						</g>
						<g>
							<g>
								<path class="st5" d="M215,285.7c-0.1,0.1-0.5-0.5-0.8-1.3s-0.4-1.5-0.3-1.5s0.5,0.5,0.8,1.3S215.1,285.6,215,285.7z"/>
							</g>
						</g>
						<g>
							<g>
								<path class="st5" d="M217.7,291.1c-0.1,0.1-0.6-0.5-1-1.2s-0.6-1.4-0.5-1.5s0.5,0.5,0.9,1.2
									C217.6,290.4,217.8,291,217.7,291.1z"/>
							</g>
						</g>
						<g>
							<g>
								<path class="st5" d="M220.8,296.2c-0.1,0.1-0.6-0.4-1-1.1s-0.7-1.3-0.6-1.4s0.6,0.4,1,1.1
									C220.7,295.5,221,296.1,220.8,296.2z"/>
							</g>
						</g>
						<g>
							<g>
								<path class="st5" d="M224.1,301.3c-0.1,0.1-0.6-0.4-1-1.1c-0.5-0.7-0.7-1.3-0.6-1.4s0.6,0.4,1,1.1
									C224,300.5,224.3,301.2,224.1,301.3z"/>
							</g>
						</g>
						<g>
							<g>
								<path class="st5" d="M227.5,306.3c-0.1,0.1-0.6-0.4-1.1-1.1s-0.7-1.3-0.6-1.4s0.6,0.4,1.1,1.1
									C227.3,305.6,227.6,306.2,227.5,306.3z"/>
							</g>
						</g>
						<g>
							<g>
								<path class="st5" d="M230.9,311.3c-0.1,0.1-0.6-0.4-1.1-1.1s-0.8-1.3-0.6-1.4c0.1-0.1,0.6,0.4,1.1,1.1
									C230.7,310.6,231,311.2,230.9,311.3z"/>
							</g>
						</g>
						<g>
							<g>
								<path class="st5" d="M234.3,316.3c-0.1,0.1-0.6-0.4-1.1-1.1s-0.8-1.3-0.6-1.4c0.1-0.1,0.6,0.4,1.1,1.1
									C234.1,315.6,234.4,316.2,234.3,316.3z"/>
							</g>
						</g>
						<g>
							<g>
								<path class="st5" d="M237.7,321.2c-0.1,0.1-0.6-0.4-1.1-1.1s-0.8-1.3-0.6-1.4c0.1-0.1,0.6,0.4,1.1,1.1
									C237.5,320.5,237.8,321.2,237.7,321.2z"/>
							</g>
						</g>
						<g>
							<g>
								<path class="st5" d="M241.1,326.2c-0.1,0.1-0.6-0.4-1.1-1.1s-0.8-1.3-0.6-1.4c0.1-0.1,0.6,0.4,1.1,1.1
									C240.9,325.5,241.2,326.1,241.1,326.2z"/>
							</g>
						</g>
						<g>
							<g>
								<path class="st5" d="M244.5,331.2c-0.1,0.1-0.6-0.4-1.1-1.1s-0.8-1.3-0.6-1.4c0.1-0.1,0.6,0.4,1.1,1.1
									C244.3,330.5,244.6,331.1,244.5,331.2z"/>
							</g>
						</g>
						<g>
							<g>
								<path class="st5" d="M247.9,336.2c-0.1,0.1-0.6-0.4-1.1-1.1s-0.8-1.3-0.6-1.4c0.1-0.1,0.6,0.4,1.1,1.1
									C247.7,335.5,248,336.1,247.9,336.2z"/>
							</g>
						</g>
						<g>
							<g>
								<path class="st5" d="M251.3,341.2c-0.1,0.1-0.6-0.4-1.1-1.1s-0.7-1.3-0.6-1.4s0.6,0.4,1.1,1.1
									C251.1,340.5,251.4,341.1,251.3,341.2z"/>
							</g>
						</g>
						<g>
							<g>
								<path class="st5" d="M254.6,346.2c-0.1,0.1-0.6-0.4-1-1.1c-0.5-0.7-0.7-1.3-0.6-1.4s0.6,0.4,1,1.1
									C254.4,345.5,254.7,346.1,254.6,346.2z"/>
							</g>
						</g>
						<g>
							<g>
								<path class="st5" d="M257.6,351.4c-0.1,0-0.5-0.5-0.9-1.2s-0.7-1.4-0.5-1.4c0.1-0.1,0.6,0.4,1,1.2
									C257.6,350.7,257.8,351.4,257.6,351.4z"/>
							</g>
						</g>
						<g>
							<g>
								<path class="st5" d="M258.3,357.4c-0.1,0-0.3-0.6-0.4-1.5c-0.1-0.8-0.1-1.5,0.1-1.5c0.1,0,0.3,0.6,0.4,1.5
									C258.5,356.7,258.5,357.4,258.3,357.4z"/>
							</g>
						</g>
						<g>
							<g>
								<path class="st5" d="M259,363.4c-0.1,0-0.3-0.6-0.4-1.5c-0.1-0.8,0-1.5,0.1-1.5s0.3,0.6,0.4,1.5
									C259.2,362.7,259.1,363.4,259,363.4z"/>
							</g>
						</g>
						<g>
							<g>
								<path class="st5" d="M259.6,369.4c-0.1,0-0.3-0.6-0.4-1.5c-0.1-0.8,0-1.5,0.1-1.5s0.3,0.6,0.4,1.5
									C259.8,368.7,259.8,369.4,259.6,369.4z"/>
							</g>
						</g>
						<g>
							<g>
								<path class="st5" d="M260.2,375.4c-0.1,0-0.3-0.6-0.4-1.5c-0.1-0.8,0-1.5,0.1-1.5s0.3,0.6,0.4,1.5
									C260.4,374.7,260.4,375.4,260.2,375.4z"/>
							</g>
						</g>
						<g>
							<g>
								<path class="st5" d="M260.9,381.4c-0.1,0-0.3-0.6-0.4-1.5c-0.1-0.8,0-1.5,0.1-1.5s0.3,0.6,0.4,1.5
									C261.1,380.7,261,381.4,260.9,381.4z"/>
							</g>
						</g>
						<g>
							<g>
								<path class="st5" d="M261.5,387.4c-0.1,0-0.3-0.6-0.4-1.5c-0.1-0.8,0-1.5,0.1-1.5s0.3,0.6,0.4,1.5
									C261.7,386.7,261.6,387.4,261.5,387.4z"/>
							</g>
						</g>
						<g>
							<g>
								<path class="st5" d="M262.1,393.4c-0.1,0-0.3-0.6-0.4-1.5c-0.1-0.8,0-1.5,0.1-1.5s0.3,0.6,0.4,1.5
									C262.3,392.7,262.2,393.4,262.1,393.4z"/>
							</g>
						</g>
						<g>
							<g>
								<path class="st5" d="M262.7,399.4c-0.1,0-0.3-0.6-0.4-1.5c-0.1-0.8,0-1.5,0.1-1.5s0.3,0.6,0.4,1.5
									C262.9,398.7,262.8,399.4,262.7,399.4z"/>
							</g>
						</g>
						<g>
							<g>
								<path class="st5" d="M263.3,405.4c-0.1,0-0.3-0.6-0.4-1.5c-0.1-0.8,0-1.5,0.1-1.5s0.3,0.6,0.4,1.5
									C263.5,404.7,263.4,405.4,263.3,405.4z"/>
							</g>
						</g>
						<g>
							<g>
								<path class="st5" d="M263.9,411.4c-0.1,0-0.3-0.6-0.4-1.5c-0.1-0.8,0-1.5,0.1-1.5s0.3,0.6,0.4,1.5
									C264.1,410.7,264.1,411.4,263.9,411.4z"/>
							</g>
						</g>
						<g>
							<g>
								<path class="st5" d="M264.5,417.4c-0.1,0-0.3-0.6-0.4-1.5c-0.1-0.8,0-1.5,0.1-1.5s0.3,0.6,0.4,1.5
									C264.7,416.7,264.7,417.4,264.5,417.4z"/>
							</g>
						</g>
						<g>
							<g>
								<path class="st5" d="M265.1,423.4c-0.1,0-0.3-0.6-0.4-1.5c-0.1-0.8,0-1.5,0.1-1.5s0.3,0.6,0.4,1.5
									C265.3,422.7,265.3,423.4,265.1,423.4z"/>
							</g>
						</g>
						<g>
							<g>
								<path class="st5" d="M265.6,427.9c-0.1,0-0.3-0.3-0.3-0.7c0-0.4,0-0.8,0.2-0.8c0.1,0,0.3,0.3,0.3,0.7
									C265.8,427.6,265.7,427.9,265.6,427.9z"/>
							</g>
						</g>
					</g>
					<g>
						<g>
							<path class="st5" d="M280.2,353.6c-0.1,0-0.2-1.5-0.6-3.8s-1.1-5.5-2.4-8.9s-3-6.2-4.2-8.2s-2-3.3-2-3.3s0.3,0.3,0.7,0.8
								c0.4,0.5,1,1.3,1.6,2.3c1.3,2,3.1,4.8,4.4,8.2c1.3,3.4,2,6.7,2.3,9c0.1,1.2,0.2,2.1,0.3,2.8
								C280.3,353.2,280.3,353.6,280.2,353.6z"/>
						</g>
					</g>
					<g>
						<polygon class="st5" points="259.9,424.5 260.7,429.2 289.2,426 288.4,420.3 						"/>
					</g>
					<g>
						<g>
							<path class="st5" d="M244.6,269.9c0,0,0,0.7-0.1,1.9c-0.1,1.2-0.2,2.9-0.4,5v-0.1c0.6,1.9,1.6,4.2,2.8,6.5
								c1.7,3.4,3.4,6.5,4.5,8.8c0.6,1.1,1,2.1,1.2,2.7c0.3,0.7,0.4,1,0.4,1s-0.2-0.3-0.6-1s-0.8-1.6-1.4-2.6
								c-1.2-2.2-2.9-5.3-4.6-8.7c-1.2-2.3-2.2-4.6-2.8-6.6l0,0l0,0c0.2-2,0.4-3.7,0.6-4.9C244.5,270.6,244.6,269.9,244.6,269.9z"/>
						</g>
					</g>
				</g>
				<g>
					<g>
						<g>
							<path class="st11" d="M279.4,258.7c-0.1-2.2-5.5-4-7.7-4.6l0,0L271,254c-0.1,0-0.2-0.1-0.2-0.1l0,0l-41.3-8.8l-4.6-16.1H210
								c0.4,0.7,3.4,27.3,11.5,29.2c8,1.9,42.4,4.7,42.4,4.7s1.1,0.1,2.6,0.3c0,0,0,0,0,0.1c0,1.4,1.5,1.5,3.1,1.6
								c4,0.2,5.1-1.5,5.1-1.5l0,0c1.2-0.9,2.2-2.7,2.2-2.7s0.9,2.7,1.3,4.3c0.5,2.3,1.4,2,1.4,2S279.5,260.3,279.4,258.7z"/>
						</g>
						<g>
							<g>
								<path class="st13" d="M272.5,263.7c0,0.1-1.4,0.1-3.1,0s-3.1-0.4-3.1-0.5s1.4-0.1,3.1,0
									C271.1,263.3,272.5,263.5,272.5,263.7z"/>
							</g>
						</g>
						<g>
							<g>
								<path class="st13" d="M273.7,261.8c0,0,0.1-0.1,0.4,0c0.2,0,0.6,0.2,0.8,0.6c0.2,0.4,0.1,0.8-0.1,1s-0.4,0.2-0.4,0.1
									c0,0,0.1-0.1,0.2-0.3c0.1-0.2,0.2-0.4,0-0.7C274.3,261.9,273.7,261.9,273.7,261.8z"/>
							</g>
						</g>
						<g>
							<g>
								<path class="st13" d="M275.3,259.9c0-0.1,0.7-0.1,0.9,0.6c0.3,0.7-0.2,1.2-0.3,1.1c-0.1,0,0.2-0.5,0-1
									S275.3,260,275.3,259.9z"/>
							</g>
						</g>
					</g>
					<g>
						<path class="st8" d="M272.5,254.4l4-7.2c0.6-0.1,0.9,0,1,0.4l-3.9,7.2L272.5,254.4z"/>
					</g>
					<g>
						<polygon class="st8" points="267.9,263.1 266.3,266.1 266.3,267.7 267.9,266.6 269.7,263.4 						"/>
					</g>
				</g>
				<g>
					<g>
						<g>
							<path class="st5" d="M217.2,168.5c0,0-0.3-0.2-0.6-0.8c-0.3-0.6-0.6-1.5-0.5-2.6c0-1.1,0.5-2.5,1.3-3.8
								c0.8-1.2,2.1-2.5,3.7-3.1c1.6-0.7,3.5-0.6,4.8,0.1c1.4,0.7,2.3,1.9,2.5,3.1c0.3,1.1,0,2.1-0.2,2.7c-0.3,0.6-0.6,0.8-0.6,0.8
								s0.2-0.3,0.4-0.9c0.2-0.6,0.4-1.5,0.1-2.5s-1.1-2.1-2.4-2.7c-1.3-0.6-2.9-0.7-4.4-0.1c-1.5,0.6-2.7,1.7-3.5,2.9
								s-1.2,2.4-1.3,3.5c-0.1,1.1,0.1,2,0.4,2.5C217,168.2,217.2,168.5,217.2,168.5z"/>
						</g>
					</g>
					<g>
						<g>
							<path class="st11" d="M244.5,199.3c0.1-4.1,0.2-8.3,0.2-8.3s4.9-0.7,6-7.4c1.1-6.5,0.3-21.5,0.3-21.5l0,0
								c-7-3.3-15.3-1.6-20.4,4.2l0,0l-0.1,32.9c0,3.8,3,6.9,6.9,7l0,0C241.3,206.3,244.5,203.2,244.5,199.3z"/>
						</g>
						<g>
							<g>
								<path class="st5" d="M249.4,173.1c0,0.5-0.4,0.8-0.8,0.8s-0.8-0.4-0.8-0.8c0-0.5,0.4-0.8,0.8-0.9
									C249,172.3,249.4,172.6,249.4,173.1z"/>
							</g>
							<g>
								<g>
									<path class="st5" d="M250.7,172.2c-0.1,0.1-0.7-0.4-1.6-0.4s-1.5,0.4-1.6,0.3c0-0.1,0.1-0.3,0.3-0.5
										c0.3-0.2,0.8-0.4,1.3-0.4s1,0.3,1.3,0.5C250.7,171.9,250.8,172.1,250.7,172.2z"/>
								</g>
							</g>
						</g>
						<g>
							<g>
								<path class="st5" d="M239.9,173.1c0,0.5-0.4,0.8-0.8,0.8s-0.8-0.4-0.8-0.8c0-0.5,0.4-0.8,0.8-0.9
									C239.5,172.3,239.8,172.6,239.9,173.1z"/>
							</g>
							<g>
								<g>
									<path class="st5" d="M241,172.3c-0.1,0.1-0.7-0.4-1.6-0.4s-1.5,0.4-1.6,0.3c0-0.1,0.1-0.3,0.3-0.5c0.3-0.2,0.8-0.4,1.3-0.4
										s1,0.3,1.3,0.5C241,172.1,241.1,172.3,241,172.3z"/>
								</g>
							</g>
						</g>
						<g>
							<g>
								<path class="st5" d="M244.3,179.9c0-0.1,0.5-0.1,1.4-0.2c0.2,0,0.4-0.1,0.5-0.2c0.1-0.2,0-0.4-0.1-0.7
									c-0.2-0.6-0.4-1.2-0.6-1.9c-0.9-2.6-1.5-4.8-1.4-4.8s0.9,2.1,1.8,4.7c0.2,0.7,0.4,1.3,0.6,1.9c0.1,0.3,0.2,0.6,0.1,0.9
									c-0.1,0.2-0.2,0.3-0.4,0.3c-0.1,0-0.3,0-0.4,0C244.9,180,244.3,179.9,244.3,179.9z"/>
							</g>
						</g>
						<g>
							<path class="st13" d="M244.7,191c0,0-4.3,0.1-8.5-2.8c0,0,2,4.8,8.4,4.4L244.7,191z"/>
						</g>
						<g>
							<path class="st13" d="M244,182.2c-0.1-0.6-0.5-1-1-1.3c-0.4-0.1-0.8-0.2-1.1,0c-0.3,0.2-0.6,0.6-0.5,1s0.5,0.7,0.9,0.8
								s0.9,0,1.3-0.1c0.1,0,0.2-0.1,0.3-0.1C244,182.5,244,182.4,244,182.2"/>
						</g>
						<g>
							<g>
								<path class="st5" d="M241.8,179.9c0.1,0,0.1,1,0.9,1.8s1.8,0.7,1.8,0.8s-0.2,0.2-0.7,0.2c-0.4,0-1-0.2-1.5-0.6
									c-0.5-0.5-0.7-1.1-0.7-1.5C241.6,180.1,241.8,179.8,241.8,179.9z"/>
							</g>
						</g>
					</g>
					<g>
						<path class="st5" d="M234.4,161.6c2.2,3.9,8.2,8.2,12.6,9.3c-0.5-0.8-3.1-2.9-3.6-3.7c1.9,1.8,4.7,4.3,7.4,4.5
							c0.3,0,0.7,0,0.9-0.1c0.4-0.2,0.4-0.7,0.5-1.1c0.2-1.8,0.2-4.9,0-6.7s-0.8-3.6-2.1-4.9c-1.6-1.6-4.1-2.1-6.3-2.2
							c-1.9-0.1-3.9-0.1-5.7,0.6c-1.8,0.7-3.3,2.2-3.7,4.1"/>
					</g>
					<g>
						<path class="st5" d="M235.9,162.4c0,0,1.9,7.7-3,12.8c0,0-0.7,7.2-4.1,10.7c0,0-1.8-8.8-1.9-12.3c-0.1-3.4-1.6-16,9.7-14.5
							L235.9,162.4z"/>
					</g>
					<g>
						<path class="st5" d="M228.2,167.9c0.9-2,0.5-4.5-1-6.2c-1.4-1.7-3.7-2.5-5.9-2.3c-2.2,0.2-4.2,1.4-5.6,3.1
							c-1.1,1.3-1.9,3-1.8,4.7c0.1,2.3,1.7,4.4,3.8,5.4c2.1,0.9,4.6,0.8,6.7-0.2c2.1-0.9,3.8-2.6,5.1-4.6"/>
					</g>
					<g>
						<polygon class="st6" points="220.4,162.4 217.2,156.1 217.2,154.9 218.3,155.5 221.6,161.9 						"/>
					</g>
					<g>
						<path class="st6" d="M222.7,161.9c0-0.1,0-7.6,0-7.6s0.1-0.6,0.7-0.5s0.6,0.6,0.6,0.6v7.7L222.7,161.9z"/>
						<path class="st14" d="M222.7,161.9c0-0.1,0-7.6,0-7.6s0.1-0.6,0.7-0.5s0.6,0.6,0.6,0.6v7.7L222.7,161.9z"/>
					</g>
					<g>
						<polygon class="st6" points="223,161.9 223,154.2 223.5,154.2 223.5,161.9 						"/>
					</g>
					<g>
						<path class="st8" d="M222.7,154.3h1.3c0,0-0.1-0.6-0.6-0.6C222.9,153.7,222.8,154,222.7,154.3z"/>
					</g>
					<g>
						<path class="st8" d="M217.2,156.1c0,0,0.2,0.1,0.4,0c0.2-0.1,0.2-0.3,0.2-0.3s0.3,0.1,0.5,0c0.1-0.1,0-0.3,0-0.3l-0.8-0.4
							l-0.3,0.2L217.2,156.1L217.2,156.1z"/>
					</g>
					<g>
						<g>
							<path class="st5" d="M227.1,164.3c0,0,0.3,0.4,0.5,1.2s0.4,2,0.1,3.5s-1.2,3.1-2.8,4.3c-1.6,1.2-3.9,1.9-6.1,1.2
								c-1.1-0.3-2.1-0.8-2.9-1.6c-0.8-0.7-1.4-1.6-1.7-2.6c-0.7-1.9-0.5-3.8,0.1-5.1c0.6-1.4,1.5-2.2,2.1-2.8c0.6-0.5,1-0.8,1-0.7
								c0,0-0.3,0.3-0.9,0.9c-0.6,0.6-1.4,1.5-1.9,2.8c-0.6,1.3-0.7,3.1,0,4.8s2.3,3.3,4.4,3.8c2.1,0.6,4.2,0,5.7-1.1s2.4-2.7,2.7-4
								c0.3-1.4,0.2-2.6,0.1-3.4C227.2,164.7,227.1,164.3,227.1,164.3z"/>
						</g>
					</g>
					<g>
						<g>
							<path class="st5" d="M242.2,167.6c0.1,0-0.2,0.6-1.1,0.9c-0.4,0.1-1,0.1-1.6-0.1c-0.6-0.2-1.1-0.6-1.6-1
								c-1-0.9-1.7-1.9-2-2.7s-0.4-1.3-0.4-1.3c0.1-0.1,0.8,2,2.7,3.7c0.9,0.9,2,1.3,2.8,1.2C241.9,168,242.2,167.5,242.2,167.6z"/>
						</g>
					</g>
					<g>
						<path class="st11" d="M233,175.1c-0.7-0.2-1.4-0.2-2,0.1c-0.7,0.2-1.2,0.7-1.5,1.3s-0.3,1.4-0.1,2c0.2,0.7,0.6,1.2,1.1,1.7
							c0.3,0.4,0.7,0.7,1.2,0.9s1,0.1,1.4-0.2"/>
					</g>
					<g>
						<g>
							<path class="st13" d="M232.6,179.2c0.1,0-0.2,0.4-0.8,0.2c-0.3-0.1-0.6-0.4-0.7-0.7c-0.2-0.3-0.3-0.7-0.3-1.1
								c0-0.4,0.1-0.9,0.3-1.2c0.2-0.3,0.6-0.5,0.9-0.5c0.6,0,0.8,0.5,0.8,0.5c-0.1,0.1-0.3-0.2-0.7-0.1c-0.4,0.1-0.8,0.6-0.7,1.3
								c0.1,0.7,0.3,1.3,0.7,1.5C232.2,179.3,232.5,179.1,232.6,179.2z"/>
						</g>
					</g>
					<g>
						<g>
							<path class="st6" d="M230.3,180.5c0.1,0-0.3,0.4-0.3,1.1c0,0.3,0.1,0.8,0.4,1.1s0.8,0.5,1.3,0.4s0.8-0.5,0.9-0.9
								s0-0.8-0.2-1.2c-0.4-0.6-0.8-0.9-0.8-0.9c0-0.1,0.6,0,1.1,0.7c0.2,0.3,0.4,0.9,0.3,1.4c-0.1,0.6-0.6,1.2-1.3,1.3
								c-0.7,0.2-1.4-0.1-1.7-0.6c-0.4-0.4-0.5-1-0.4-1.4C229.8,180.7,230.3,180.4,230.3,180.5z"/>
						</g>
					</g>
					<g>
						<g>
							<path class="st5" d="M226.3,169.8c-0.1,0.1-0.7-1.4-0.3-3.3c0.4-1.9,1.5-3,1.6-2.9s-0.7,1.3-1.1,3
								C226.1,168.4,226.5,169.8,226.3,169.8z"/>
						</g>
					</g>
				</g>
			</g>
			<g>
				<g>
					<polygon class="st8" points="242.8,269.8 243.9,268.7 271.6,268.7 272.5,269.9 					"/>
				</g>
				<g>
					<g>
						<g>
							<polygon class="st5" points="142.6,272.4 177.8,434.3 182,434.3 146.3,272.4 							"/>
						</g>
						<g>
							<polyline class="st5" points="178.8,272.4 142.6,434.3 146.2,434.3 182,272.4 178.8,272.4 							"/>
						</g>
						<g>
							<polygon class="st5" points="149.4,412.8 174.8,412.8 174.8,409.5 150.5,409.5 							"/>
						</g>
					</g>
					<g>
						<g>
							<polygon class="st5" points="351.9,272.4 387.1,434.7 391.2,434.7 355.5,272.4 							"/>
						</g>
						<g>
							<polyline class="st5" points="388,272.4 351.9,434.7 355.4,434.7 391.2,272.4 388,272.4 							"/>
						</g>
						<g>
							<polygon class="st5" points="358.7,413.2 384,413.2 384,409.9 359.7,409.9 							"/>
						</g>
					</g>
					<g>
						<g>
							<g>
								<g>
									<polygon class="st5" points="354.5,227.6 340.1,269.8 274.7,269.8 275.2,267.6 301.7,266.8 313.8,227.6 									"/>
								</g>
							</g>
							<g>
								<g>
									<path class="st4" d="M325.6,247.4c-0.4,1.7,0.3,3.4,1.7,3.8c1.3,0.4,2.8-0.7,3.2-2.5c0.4-1.7-0.3-3.4-1.7-3.8
										C327.4,244.6,326,245.7,325.6,247.4z"/>
								</g>
							</g>
						</g>
						<g>
							<g>
								<polygon class="st4" points="328.4,256.5 329.8,260 343.2,253.6 341.9,250.1 								"/>
							</g>
							<g>
								<polygon class="st8" points="329.5,256.8 330.4,258.7 342.2,253.2 341.5,250.8 								"/>
							</g>
						</g>
						<g>
							<g>
								<path class="st4" d="M342.3,237.1c0,2.3-1.9,4.2-4.2,4.2c-2.3,0-4.2-1.9-4.2-4.2s1.9-4.2,4.2-4.2
									C340.4,232.8,342.3,234.7,342.3,237.1z"/>
							</g>
							<g>
								<path class="st6" d="M337.4,233.7c-1.5,0.4-2.6,1.9-2.6,3.4s1.2,3,2.7,3.4c0.7,0.2,1.4,0.2,2.1-0.1c0.6-0.3,1.1-0.9,1.4-1.5
									c0.4-0.9,0.6-1.9,0.4-2.8c-0.2-1-1-1.9-2-2.3c-1-0.4-2.1-0.2-3,0.4"/>
							</g>
						</g>
						<g>
							<g>
								<polygon class="st4" points="313.5,255.1 317.6,253.3 320.4,255.5 318.3,260.5 313.1,258.4 								"/>
							</g>
							<g>
								<polygon class="st6" points="313.8,255.5 317.4,253.8 319.8,255.7 318,259.9 313.6,258.2 								"/>
							</g>
						</g>
					</g>
					<g>
						<rect x="122.8" y="269.8" class="st5" width="285.6" height="2.8"/>
					</g>
					<g>
						<g>
							<g>
								<path class="st6" d="M372.8,249.9c-3.1-3.2-5-7.6-5.2-12.1c-0.1-2.2,0.2-4.5,1.7-6.1c1.9-2,5.5-2.1,7.4-0.1c2,2,2,5.2,1.5,8
									c-0.7,4.1-2.8,7.2-5.2,10.6"/>
							</g>
							<g>
								<path class="st6" d="M377.4,249.9c0.8-3.3,2.7-6.2,5.4-8.2c1.3-0.9,2.9-1.7,4.5-1.4c2,0.3,3.5,2.6,3.1,4.6
									c-0.4,2.1-2.4,3.4-4.4,4.2c-2.9,1.2-5.6,1.1-8.8,1.1"/>
							</g>
							<g>
								<g>
									<path class="st5" d="M372.8,259c-0.1,0-0.2-4.2-0.1-9.4s0.3-9.4,0.5-9.4c0.1,0,0.2,4.2,0.1,9.4S373,259,372.8,259z"/>
								</g>
							</g>
							<g>
								<g>
									<path class="st5" d="M386.5,244.3c0,0.1-0.7,0.6-1.9,1.4c-1.2,0.8-2.9,1.9-4.8,3s-3.7,2-5,2.7c-1.3,0.6-2.1,1-2.2,0.9
										c0-0.1,0.7-0.5,2-1.3c1.4-0.8,3.1-1.8,4.9-2.8c1.8-1.1,3.5-2,4.9-2.8C385.7,244.7,386.5,244.3,386.5,244.3z"/>
								</g>
							</g>
							<g>
								<polyline class="st8" points="363.8,257.5 382.8,258.4 380.9,269.9 365.7,269.9 363.8,257.5 								"/>
							</g>
						</g>
						<g>
							<g>
								<path class="st5" d="M373.1,255.1c0,0.1-1.8-0.2-3.9-1.1c-2.1-0.9-3.6-1.9-3.6-2c0.1-0.1,1.7,0.7,3.8,1.5
									C371.4,254.3,373.1,254.9,373.1,255.1z"/>
							</g>
						</g>
					</g>
				</g>
			</g>
		</g>
	</g>
</g>
<g id="Layer_2" class="st9">
	<rect x="630.6" y="-337.4" class="st15" width="53.7" height="39.5"/>
	<rect x="630.7" y="-384.2" class="st16" width="53.7" height="39.5"/>
	<g id="Layer_7" class="st10">
		
			<image style="overflow:visible;enable-background:new    ;" width="1040" height="640" xlink:href="../../../../Desktop/Screenshot 2020-03-05 at 09.35.04.png"  transform="matrix(0.6322 0 0 0.6322 -46.3477 -426.3567)">
		</image>
	</g>
</g>
</svg>
