<svg xmlns="http://www.w3.org/2000/svg" width="30.91" height="45.216" viewBox="0 0 30.91 45.216">
    <defs>
        <style>
            .cls-1,.cls-2{fill:#3b5efa;fill-rule:evenodd}.cls-2{fill:#0ee5c7}
        </style>
    </defs>
    <g id="facialrecog" transform="translate(-80.999)">
        <path id="Path_23391" d="M144.633 308.168h-.984v-.984a1.325 1.325 0 0 0-2.649 0v2.309a1.325 1.325 0 0 0 1.325 1.325h2.308a1.325 1.325 0 0 0 0-2.649z" class="cls-1" data-name="Path 23391" transform="translate(-54.702 -278.848)"/>
        <path id="Path_23392" d="M142.325 64.958a1.325 1.325 0 0 0 1.325-1.325v-.984h.984a1.325 1.325 0 1 0 0-2.649h-2.308A1.325 1.325 0 0 0 141 61.325v2.309a1.325 1.325 0 0 0 1.325 1.324z" class="cls-1" data-name="Path 23392" transform="translate(-54.702 -54.701)"/>
        <path id="Path_23393" d="M163.776 125.355a1.325 1.325 0 0 0-1.325-1.325 1.03 1.03 0 0 1-.73-.3 1.228 1.228 0 0 1-.3-1.038 7.028 7.028 0 0 0 2.267-4.387h1.6a1.325 1.325 0 0 0 0-2.649h-1.549a6.484 6.484 0 0 0-1.876-4.713 6.606 6.606 0 0 0-9.27-.029 6.53 6.53 0 0 0-1.93 4.743h-1.9a1.325 1.325 0 1 0 0 2.649h1.927a6.922 6.922 0 0 0 2.292 4.623 1.038 1.038 0 0 1-1.034 1.106 1.325 1.325 0 0 0 0 2.649 3.689 3.689 0 0 0 3.366-2.188 3.636 3.636 0 0 0 3.74-.09 3.69 3.69 0 0 0 3.4 2.278 1.325 1.325 0 0 0 1.322-1.329zm-2.979-6.3c-.409 1.047-2.543 3.266-3.677 3.266a5.679 5.679 0 0 1-2.263-1.259 4.233 4.233 0 0 1-1.512-2.762h7.664a4.085 4.085 0 0 1-.209.755zm-7.49-3.4a3.922 3.922 0 0 1 6.678-2.85 3.862 3.862 0 0 1 1.1 2.85z" class="cls-2" data-name="Path 23393" transform="translate(-60.566 -99.396)"/>
        <path id="Path_23394" d="M318.493 60h-2.309a1.325 1.325 0 0 0 0 2.649h.984v.984a1.325 1.325 0 1 0 2.649 0v-2.308A1.325 1.325 0 0 0 318.493 60z" class="cls-1" data-name="Path 23394" transform="translate(-213.208 -54.701)"/>
        <path id="Path_23395" d="M107.934 0H84.973A3.982 3.982 0 0 0 81 3.974v37.268a3.982 3.982 0 0 0 3.974 3.974h22.961a3.982 3.982 0 0 0 3.974-3.974V3.974A3.982 3.982 0 0 0 107.934 0zm1.325 41.242a1.332 1.332 0 0 1-1.325 1.325H84.973a1.332 1.332 0 0 1-1.325-1.325v-3.974h25.611v3.974zm0-6.623H83.648V3.974a1.332 1.332 0 0 1 1.325-1.325h22.961a1.332 1.332 0 0 1 1.325 1.325z" class="cls-1" data-name="Path 23395"/>
        <path id="Path_23396" d="M318.493 305.859a1.325 1.325 0 0 0-1.325 1.325v.984h-.984a1.325 1.325 0 0 0 0 2.649h2.309a1.325 1.325 0 0 0 1.325-1.325v-2.309a1.325 1.325 0 0 0-1.325-1.324z" class="cls-1" data-name="Path 23396" transform="translate(-213.208 -278.848)"/>
        <path id="Path_23397" d="M242.325 439.649a1.325 1.325 0 1 0-1.325-1.324 1.327 1.327 0 0 0 1.325 1.324z" class="cls-1" data-name="Path 23397" transform="translate(-145.871 -398.407)"/>
    </g>
</svg>
