<svg xmlns="http://www.w3.org/2000/svg" width="826.205" height="694.081" viewBox="0 0 826.205 694.081">
    <defs>
        <style>
            .cls-1,.cls-19{fill:#eaeaed}.cls-2{opacity:.53;fill:url(#linear-gradient)}.cls-3{fill:#274bec}.cls-4{fill:#40a4e1}.cls-5{fill:#3b5efa}.cls-17,.cls-6{fill:#32324c}.cls-6{opacity:.1}.cls-7{fill:#ffaf82}.cls-8{fill:#f88968}.cls-9{fill:#00784e}.cls-10{fill:#050705}.cls-11{fill:#de9d01}.cls-12{fill:#bf8005}.cls-13{fill:#fff}.cls-14{fill:#2c2c2c}.cls-15{fill:#009762}.cls-16{fill:#e2e2e2}.cls-18{fill:#00132b}.cls-19{mix-blend-mode:multiply;isolation:isolate}.cls-20,.cls-21,.cls-22{fill:none;stroke:#fff}.cls-20,.cls-22{stroke-linecap:round;stroke-linejoin:round}.cls-20{stroke-width:.601px}.cls-21{stroke-miterlimit:10;stroke-width:.204px}.cls-22{stroke-dasharray:4 4}.cls-23{fill:#67a2d8}.cls-24{fill:#eb80b2}.cls-25{fill:#e0376b}.cls-26{fill:#ffa378}
        </style>
        <linearGradient id="linear-gradient" x1=".509" x2=".521" y1=".917" y2="-.349" gradientUnits="objectBoundingBox">
            <stop offset="0" stop-color="#fff" stop-opacity="0"/>
            <stop offset="1" stop-color="#f5ead4"/>
        </linearGradient>
    </defs>
    <g id="Illustration" transform="translate(-1023.91 -343.273)">
        <ellipse id="Ellipse_20" cx="30.712" cy="30.712" class="cls-1" data-name="Ellipse 20" rx="30.712" ry="30.712" transform="translate(1105.96 671.579)"/>
        <path id="Path_253" d="M-502.983-6078.141L-630.6-5922.629-525.7-5862l94.538-172.4z" class="cls-2" data-name="Path 253" transform="rotate(83.98 -3183.307 -1675.917)"/>
        <g id="Group_179" data-name="Group 179" transform="translate(1323.805 5966.908)">
            <path id="Path_244" d="M42.187.115C14.01-1.764 8.118 19.735 14.145 33.722c8.54 19.815 20.354 19.47-2.931 43.961-17.185 18.069-15.414 46.525 10.84 54.689 36.7 11.416 6.052 34.439 2.528 52.628-7.273 37.565 19.989 39.763 64.9 46.757 46.113 7.182 75.481-8.786 98.331-42.523 16.874-24.907 24.407-50.241 6.581-67.234-25.6-24.4-51.432 2.579-46.351-28.4 3.042-18.543-3.836-50.074-42.759-43.61S82.769 2.825 42.187.115z" class="cls-3" data-name="Path 244" transform="rotate(8 37405.792 -290.075)"/>
            <path id="Path_245" d="M105.419 222.061l-1.8-9.822-3.6-19.648c-1.434-6.5-3.187-12.93-4.77-19.4l-2.43-9.688c-.876-3.213-1.984-6.356-2.966-9.536-2.054-6.334-3.98-12.72-6.143-19.014a425.617 425.617 0 0 0-34.269-72.075C35.645 40.133 19.858 18.391.482 0L0 .551q3.331 3.7 6.393 7.642c2.14 2.524 4.154 5.157 6.153 7.79 2.05 2.593 3.962 5.291 5.842 8.015 1.861 2.731 3.868 5.339 5.588 8.171 3.614 5.516 7.359 10.916 10.622 16.646 1.67 2.832 3.416 5.61 5.132 8.406l4.763 8.627 4.737 8.62 4.394 8.8 4.4 8.79c1.474 2.923 2.647 5.994 3.991 8.986 1.275 3.017 2.658 5.983 4 8.971l2.018 4.477c.637 1.507 1.181 3.053 1.778 4.581l7.012 18.352c2.187 6.175 4.14 12.433 6.222 18.649 1 3.118 2.123 6.2 3.013 9.359.83 3.173 1.641 6.349 2.536 9.5 1.709 6.335 3.6 12.629 5.172 19.011 1.308 6.436 2.735 12.854 4.187 19.275l2.162 9.648" class="cls-4" data-name="Path 245" transform="rotate(8 37113.123 22.753)"/>
            <path id="Path_246" d="M54.11 7.691a48.762 48.762 0 0 0-13.028-5.27c-2.224-.666-4.5-1.01-6.766-1.46C32.042.6 29.742.4 27.453.147a71.43 71.43 0 0 0-13.9.42A40.655 40.655 0 0 0 0 4.638l.062.482A139.663 139.663 0 0 1 27.1 5.008a261.572 261.572 0 0 1 26.92 3.161z" class="cls-4" data-name="Path 246" transform="rotate(8 36521.918 -92.416)"/>
            <path id="Path_247" d="M44.338 11.038a35.958 35.958 0 0 0-10.021-6.346 51.52 51.52 0 0 0-5.4-2.09c-1.84-.58-3.716-1.018-5.588-1.5A54.056 54.056 0 0 0 11.731.02 30.912 30.912 0 0 0 0 2.378v.489A115.833 115.833 0 0 1 22.318 5.88a218.006 218.006 0 0 1 21.864 5.62z" class="cls-4" data-name="Path 247" transform="rotate(8 36865.66 -134.48)"/>
            <path id="Path_248" d="M.786 27.287a38.214 38.214 0 0 0 2.824-7.3 121.208 121.208 0 0 0 1.728-6.671c.141-1.112.489-2.119.706-3.169L6.4 8.584a12.86 12.86 0 0 0 .409-1.528A33.517 33.517 0 0 1 9.41.395L9.2 0a13.925 13.925 0 0 0-5.447 5.241A24.051 24.051 0 0 0 .982 12.3 45.818 45.818 0 0 0 .34 27.337z" class="cls-4" data-name="Path 248" transform="rotate(8 36688.943 502.056)"/>
            <path id="Path_249" d="M71.733 10.194a64.6 64.6 0 0 0-17.273-6.98c-2.948-.887-5.965-1.34-8.967-1.938C42.476.8 39.433.524 36.391.19a95.584 95.584 0 0 0-18.417.558A54.025 54.025 0 0 0 0 6.145l.083.641C11.977 5.388 24 5.717 35.932 6.641a348.29 348.29 0 0 1 35.678 4.187z" class="cls-4" data-name="Path 249" transform="rotate(8 36174.591 -62.782)"/>
            <path id="Path_251" d="M2.512 22.031a28.041 28.041 0 0 0 .814-5.979c.109-1.869.048-3.643.059-5.36-.1-1.72-.113-3.376-.113-5.005A21.389 21.389 0 0 1 3.939.254L3.718 0A10.471 10.471 0 0 0 .712 4.973 19.113 19.113 0 0 0 0 10.764a41.681 41.681 0 0 0 2.19 11.372z" class="cls-4" data-name="Path 251" transform="rotate(8 36980.108 313.122)"/>
            <path id="Path_250" d="M1.074 43.293C4.3 37.668 5.685 30.8 7.108 24.547a83.459 83.459 0 0 1 6.265-18.359q1.125-2.3 2.409-4.527c.456-.789.9-2.224-.268-1.427A11.842 11.842 0 0 0 13.75 2.1c-1.007 1.123-2.065 2.245-2.97 3.455a81.055 81.055 0 0 0-5.472 8.075C.172 22.562-.737 33.275.484 43.358z" class="cls-4" data-name="Path 250" transform="rotate(8 36437.495 701.003)"/>
        </g>
        <g id="Group_180" data-name="Group 180" transform="translate(1023.91 757.736)">
            <path id="Path_244-2" d="M25.7 142.17c-17.164 1.146-20.754-11.954-17.082-20.476 5.2-12.073 12.4-11.863-1.786-26.785-10.471-11.01-9.39-28.348 6.6-33.322C35.8 54.631 17.125 40.6 14.978 29.52 10.547 6.631 27.157 5.292 54.523 1.031c28.1-4.376 45.991 5.354 59.913 25.91 10.281 15.176 14.871 30.612 4.01 40.966-15.6 14.867-31.338-1.571-28.242 17.305 1.854 11.3-2.337 30.51-26.053 26.571S50.432 140.52 25.7 142.17z" class="cls-5" data-name="Path 244" transform="rotate(172 66.71 75.437)"/>
            <path id="Path_245-2" d="M64.232.492l-1.1 5.985-2.2 11.972C60.065 22.41 59 26.327 58.033 30.27l-1.481 5.9c-.534 1.957-1.209 3.873-1.807 5.81-1.251 3.86-2.425 7.75-3.743 11.585a259.33 259.33 0 0 1-20.878 43.918C21.719 111.342 12.1 124.589.293 135.795L0 135.459q2.029-2.254 3.9-4.656c1.3-1.538 2.531-3.142 3.749-4.747 1.249-1.58 2.414-3.224 3.56-4.883s2.357-3.253 3.405-4.979c2.2-3.361 4.484-6.651 6.472-10.142 1.018-1.726 2.081-3.418 3.127-5.122l2.9-5.257L30 90.422l2.677-5.362 2.677-5.36c.9-1.781 1.613-3.652 2.432-5.475.777-1.838 1.62-3.646 2.434-5.466l1.229-2.728c.388-.918.719-1.86 1.083-2.792l4.272-11.182C48.138 48.3 49.328 44.486 50.6 40.7c.607-1.9 1.293-3.78 1.836-5.7.506-1.933 1-3.868 1.545-5.791 1.042-3.86 2.2-7.695 3.151-11.583.8-3.921 1.666-7.832 2.551-11.744L61 0" class="cls-4" data-name="Path 245" transform="rotate(172 53.157 84.684)"/>
            <path id="Path_246-2" d="M32.969.291A29.71 29.71 0 0 1 25.031 3.5c-1.355.406-2.741.616-4.122.889-1.386.221-2.787.344-4.182.5a43.522 43.522 0 0 1-8.467-.257A24.771 24.771 0 0 1 0 2.152l.038-.293a85.1 85.1 0 0 0 16.476.068A159.376 159.376 0 0 0 32.914 0z" class="cls-4" data-name="Path 246" transform="rotate(172 53.49 44.465)"/>
            <path id="Path_247-2" d="M27.015.283a21.909 21.909 0 0 1-6.106 3.866 31.391 31.391 0 0 1-3.293 1.273c-1.121.353-2.264.62-3.4.914A32.936 32.936 0 0 1 7.147 7 18.835 18.835 0 0 1 0 5.559v-.3a70.577 70.577 0 0 0 13.6-1.834A132.832 132.832 0 0 0 26.92 0z" class="cls-4" data-name="Path 247" transform="rotate(172 55.353 30.834)"/>
            <path id="Path_248-2" d="M.479.031A23.284 23.284 0 0 1 2.2 4.48c.4 1.412.759 2.763 1.053 4.065.086.678.3 1.291.43 1.931l.216.951a7.835 7.835 0 0 1 .249.931 20.422 20.422 0 0 0 1.585 4.058l-.128.241a8.485 8.485 0 0 1-3.319-3.193A14.654 14.654 0 0 1 .6 9.16 27.917 27.917 0 0 1 .207 0z" class="cls-4" data-name="Path 248" transform="rotate(172 28.57 43.188)"/>
            <path id="Path_249-2" d="M43.707.386a39.36 39.36 0 0 1-10.524 4.253c-1.8.541-3.634.816-5.464 1.181-1.838.291-3.692.459-5.546.662a58.239 58.239 0 0 1-11.221-.34A32.918 32.918 0 0 1 0 2.853l.051-.391a112.686 112.686 0 0 0 21.843.088A212.214 212.214 0 0 0 43.632 0z" class="cls-4" data-name="Path 249" transform="rotate(172 52.284 60.073)"/>
            <path id="Path_251-2" d="M1.53.064a17.085 17.085 0 0 1 .5 3.643c.067 1.139.029 2.22.036 3.266a47.985 47.985 0 0 0-.072 3.05 13.032 13.032 0 0 0 .406 3.31l-.135.154a6.38 6.38 0 0 1-1.831-3.03A11.646 11.646 0 0 1 0 6.929 25.4 25.4 0 0 1 1.334 0z" class="cls-4" data-name="Path 251" transform="rotate(172 36.508 29.198)"/>
            <path id="Path_250-2" d="M.654.04c1.966 3.427 2.81 7.609 3.677 11.422a50.852 50.852 0 0 0 3.817 11.186q.685 1.4 1.468 2.758c.278.481.547 1.355-.163.869a7.216 7.216 0 0 1-1.075-1.139c-.613-.684-1.258-1.368-1.809-2.105a49.387 49.387 0 0 1-3.334-4.919C.1 12.671-.449 6.144.295 0z" class="cls-4" data-name="Path 250" transform="rotate(172 20.434 58.782)"/>
        </g>
        <g id="Group_561" data-name="Group 561" transform="translate(927.636 341.75)">
            <ellipse id="Ellipse_44" cx="98.255" cy="14.907" class="cls-6" data-name="Ellipse 44" rx="98.255" ry="14.907" transform="translate(247.096 635.598)"/>
            <g id="Group_560" data-name="Group 560" transform="translate(248.979 67.25)">
                <g id="Group_559" data-name="Group 559">
                    <g id="Group_443" data-name="Group 443" transform="translate(111.002 112.057)">
                        <g id="Group_442" data-name="Group 442" transform="translate(55.563 160.715)">
                            <path id="Path_21899" d="M351.1 236.506a56.564 56.564 0 0 1 10.3 3.281c4.614 2.1 10.148 4.809 12.97 6.161 3.394 1.624.445 4.633-4.372 2.641s-5.927-2.424-5.927-2.424 16.156 12.1 18.894 16.786c2.5 4.276-6.743-1.953-14.674-6.68 0 0 13.573 14.4 12.736 17.658-1.1 4.277-17.489-13.215-17.489-13.215s10.169 14.7 8.243 15.666c-2.148 1.083-14.4-12.688-14.4-12.688s6.093 10.712 4.588 10.9c-2.98.371-20.3-19.329-20.885-31.308.01.002 7.095-6.784 10.016-6.778z" class="cls-7" data-name="Path 21899" transform="translate(-341.094 -236.506)"/>
                            <path id="Path_21900" d="M362.431 246.278s-5.444 7.761-14.155 9.072c0 0 8.509 2.702 14.155-9.072z" class="cls-8" data-name="Path 21900" transform="translate(-336.702 -230.53)"/>
                            <path id="Path_21901" d="M354.287 251.308s-10.259-4.174-6.327-13.125c0 0-7.67 8.646 6.327 13.125z" class="cls-8" data-name="Path 21901" transform="translate(-338.177 -235.48)"/>
                        </g>
                        <path id="Path_21902" d="M336.417 230.968c-7.818-67.261-23.033-94.186-23.033-94.186-13.766 56.316-3.02 86.937 1.607 101.625s47.189 67.624 47.189 67.624c3.286-4.126 7.686-7.123 11.9-8.09 0 0-13.484-23.777-18.261-32.682s-19.402-34.291-19.402-34.291z" class="cls-9" data-name="Path 21902" transform="translate(-306.617 -136.782)"/>
                    </g>
                    <g id="Group_519" data-name="Group 519" transform="translate(29.247 277.767)">
                        <g id="Group_477" data-name="Group 477" transform="translate(60.952 8.122)">
                            <g id="Group_444" data-name="Group 444">
                                <path id="Path_21903" d="M341.108 386.625l-10.8 130.45h-19.033c-4.4-50.839-11.508-95.38-3.5-130.45-8.069-39.534-14.066-129.269-14.066-129.269 14.522-6.648 37.81-12.711 37.81-12.711 7.726 43.877 9.589 141.98 9.589 141.98z" class="cls-10" data-name="Path 21903" transform="translate(-293.709 -244.645)"/>
                            </g>
                            <g id="Group_476" data-name="Group 476" transform="translate(12.787 251.708)">
                                <g id="Group_446" data-name="Group 446">
                                    <g id="Group_445" data-name="Group 445">
                                        <path id="Path_21904" d="M369.646 452.3h-62.237a5.767 5.767 0 0 1-5.749-6.206l2.529-32.688a36.462 36.462 0 0 1 6.216-2.053 6.3 6.3 0 0 0 4.616-4.185c.045-.155.085-.316.126-.475 1.429-6.29 10.5-8.292 12.174-2.143.218.794.406 1.566.567 2.309.04.184.081.372.114.55.269 1.322.463 2.538.6 3.6.006.023.006.045.011.068a34.989 34.989 0 0 1 .309 4.443q1.235 1.571 2.39 3.088c.395.5.772 1.007 1.151 1.5.817 1.064 1.612 2.1 2.395 3.094.361.469.72.92 1.081 1.367a76.766 76.766 0 0 0 2.567 3.059c.384.435.767.859 1.162 1.265 3.209 3.373 6.445 5.678 10.271 6.209 6.748.927 17.773 1.671 23.1 11.576a3.494 3.494 0 0 1 .269.629 3.839 3.839 0 0 1-3.662 4.993z" class="cls-11" data-name="Path 21904" transform="translate(-301.643 -400.831)"/>
                                    </g>
                                </g>
                                <g id="Group_448" data-name="Group 448" transform="translate(.053 46.477)">
                                    <g id="Group_447" data-name="Group 447">
                                        <path id="Path_21905" d="M369.626 434.663h-62.237a5.762 5.762 0 0 1-5.713-4.993h71.61a3.839 3.839 0 0 1-3.66 4.993z" class="cls-12" data-name="Path 21905" transform="translate(-301.676 -429.67)"/>
                                    </g>
                                </g>
                                <g id="Group_456" data-name="Group 456" transform="translate(21.819 17.781)">
                                    <g id="Group_451" data-name="Group 451" transform="translate(1.663)">
                                        <g id="Group_450" data-name="Group 450">
                                            <g id="Group_449" data-name="Group 449">
                                                <path id="Path_21906" d="M323.552 413.363c-.72 1.059-2.192 2.34-5.154 3.523q-.754.309-1.647.6l-.537-1.624c.588-.2 1.12-.39 1.6-.583 3.4-1.373 4.335-2.722 4.587-3.415.399.504.772 1.007 1.151 1.499z" class="cls-13" data-name="Path 21906" transform="translate(-316.214 -411.864)"/>
                                            </g>
                                        </g>
                                    </g>
                                    <g id="Group_455" data-name="Group 455" transform="translate(0 2.88)">
                                        <g id="Group_454" data-name="Group 454">
                                            <g id="Group_453" data-name="Group 453">
                                                <g id="Group_452" data-name="Group 452">
                                                    <circle id="Ellipse_45" cx="1.93" cy="1.93" r="1.93" class="cls-13" data-name="Ellipse 45"/>
                                                </g>
                                            </g>
                                        </g>
                                    </g>
                                </g>
                                <g id="Group_464" data-name="Group 464" transform="translate(26.18 22.374)">
                                    <g id="Group_459" data-name="Group 459" transform="translate(1.346)">
                                        <g id="Group_458" data-name="Group 458">
                                            <g id="Group_457" data-name="Group 457">
                                                <path id="Path_21907" d="M325.493 416.081a12.161 12.161 0 0 1-4.261 2.682c-.595.258-1.246.5-1.973.738l-.537-1.629a26.357 26.357 0 0 0 1.818-.67 9.762 9.762 0 0 0 3.871-2.487c.362.468.721.919 1.082 1.366z" class="cls-13" data-name="Path 21907" transform="translate(-318.723 -414.714)"/>
                                            </g>
                                        </g>
                                    </g>
                                    <g id="Group_463" data-name="Group 463" transform="translate(0 2.044)">
                                        <g id="Group_462" data-name="Group 462">
                                            <g id="Group_461" data-name="Group 461">
                                                <g id="Group_460" data-name="Group 460">
                                                    <path id="Path_21908" d="M321.748 417.913a1.93 1.93 0 1 1-1.931-1.931 1.93 1.93 0 0 1 1.931 1.931z" class="cls-13" data-name="Path 21908" transform="translate(-317.888 -415.982)"/>
                                                </g>
                                            </g>
                                        </g>
                                    </g>
                                </g>
                                <g id="Group_472" data-name="Group 472" transform="translate(30.04 26.8)">
                                    <g id="Group_467" data-name="Group 467" transform="translate(1.323)">
                                        <g id="Group_466" data-name="Group 466">
                                            <g id="Group_465" data-name="Group 465">
                                                <path id="Path_21909" d="M327.766 418.725a12.42 12.42 0 0 1-4.129 2.567c-.6.256-1.265.509-2 .749l-.532-1.631c.68-.222 1.286-.451 1.829-.68a10.61 10.61 0 0 0 3.671-2.271c.383.441.767.86 1.161 1.266z" class="cls-13" data-name="Path 21909" transform="translate(-321.104 -417.46)"/>
                                            </g>
                                        </g>
                                    </g>
                                    <g id="Group_471" data-name="Group 471" transform="translate(0 1.836)">
                                        <g id="Group_470" data-name="Group 470">
                                            <g id="Group_469" data-name="Group 469">
                                                <g id="Group_468" data-name="Group 468">
                                                    <path id="Path_21910" d="M324.143 420.528a1.93 1.93 0 1 1-1.931-1.929 1.93 1.93 0 0 1 1.931 1.929z" class="cls-13" data-name="Path 21910" transform="translate(-320.283 -418.599)"/>
                                                </g>
                                            </g>
                                        </g>
                                    </g>
                                </g>
                                <g id="Group_475" data-name="Group 475" transform="translate(21.411 6.579)">
                                    <g id="Group_474" data-name="Group 474">
                                        <g id="Group_473" data-name="Group 473">
                                            <path id="Path_21911" d="M320.476 408.517a43.651 43.651 0 0 0-5.547.314l.035-3.117a14.009 14.009 0 0 1 4.912-.8c.27 1.321.463 2.537.6 3.603z" class="cls-13" data-name="Path 21911" transform="translate(-314.929 -404.913)"/>
                                        </g>
                                    </g>
                                </g>
                            </g>
                        </g>
                        <g id="Group_518" data-name="Group 518">
                            <g id="Group_516" data-name="Group 516" transform="translate(0 14.506)">
                                <g id="Group_478" data-name="Group 478" transform="translate(4.078)">
                                    <path id="Path_21912" d="M305.048 254.933s-.492 51.787-7.84 129.269c-4.79 42.219-10.122 95.186-16.042 130.45h-19.058L259.42 384.2s-4.361-80.28 5.115-135.6z" class="cls-14" data-name="Path 21912" transform="translate(-258.418 -248.606)"/>
                                </g>
                                <g id="Group_515" data-name="Group 515" transform="translate(0 249.056)">
                                    <g id="Group_481" data-name="Group 481">
                                        <g id="Group_480" data-name="Group 480">
                                            <g id="Group_479" data-name="Group 479">
                                                <path id="Path_21913" d="M299.406 446.536c-.55 10.967-34.835 7.188-40.319 3.9-2.116-1.272-3-3.723-3.168-6.69-.269-4.732 1.288-10.785 2.637-15.528 2.193-7.726 1.892-7.584 3.417-12.864 0 0-.395-8.587 10.84-11.866s15.354 18.1 17.273 22.213c1.753 3.766 8.58 8.922 9.288 18.193a21.086 21.086 0 0 1 .032 2.642z" class="cls-11" data-name="Path 21913" transform="translate(-255.888 -403.146)"/>
                                            </g>
                                        </g>
                                    </g>
                                    <g id="Group_484" data-name="Group 484" transform="translate(9.924 13.724)">
                                        <g id="Group_483" data-name="Group 483">
                                            <g id="Group_482" data-name="Group 482">
                                                <path id="Path_21914" d="M262.945 417.085l-.9-1.378c.419-.272 10.334-6.63 18.96-2.846l-.661 1.507c-7.819-3.43-17.304 2.654-17.399 2.717z" class="cls-13" data-name="Path 21914" transform="translate(-262.046 -411.662)"/>
                                            </g>
                                        </g>
                                    </g>
                                    <g id="Group_487" data-name="Group 487" transform="translate(10.902 23.267)">
                                        <g id="Group_486" data-name="Group 486">
                                            <g id="Group_485" data-name="Group 485">
                                                <path id="Path_21915" d="M263.551 423.007l-.9-1.38c.417-.272 10.332-6.628 18.959-2.846l-.661 1.507c-7.821-3.43-17.303 2.657-17.398 2.719z" class="cls-13" data-name="Path 21915" transform="translate(-262.653 -417.583)"/>
                                            </g>
                                        </g>
                                    </g>
                                    <g id="Group_490" data-name="Group 490" transform="translate(10.414 18.496)">
                                        <g id="Group_489" data-name="Group 489">
                                            <g id="Group_488" data-name="Group 488">
                                                <path id="Path_21916" d="M263.248 420.046l-.9-1.38c.417-.271 10.332-6.628 18.959-2.844l-.661 1.505c-7.821-3.427-17.303 2.656-17.398 2.719z" class="cls-13" data-name="Path 21916" transform="translate(-262.35 -414.623)"/>
                                            </g>
                                        </g>
                                    </g>
                                    <g id="Group_493" data-name="Group 493" transform="translate(8.425 16.865)">
                                        <g id="Group_492" data-name="Group 492">
                                            <g id="Group_491" data-name="Group 491">
                                                <path id="Path_21917" d="M264.816 415.461a1.85 1.85 0 1 1-1.85-1.85 1.85 1.85 0 0 1 1.85 1.85z" class="cls-13" data-name="Path 21917" transform="translate(-261.116 -413.611)"/>
                                            </g>
                                        </g>
                                    </g>
                                    <g id="Group_496" data-name="Group 496" transform="translate(8.524 21.387)">
                                        <g id="Group_495" data-name="Group 495">
                                            <g id="Group_494" data-name="Group 494">
                                                <path id="Path_21918" d="M264.877 418.267a1.85 1.85 0 1 1-1.85-1.85 1.85 1.85 0 0 1 1.85 1.85z" class="cls-13" data-name="Path 21918" transform="translate(-261.177 -416.417)"/>
                                            </g>
                                        </g>
                                    </g>
                                    <g id="Group_499" data-name="Group 499" transform="translate(9.502 25.909)">
                                        <g id="Group_498" data-name="Group 498">
                                            <g id="Group_497" data-name="Group 497">
                                                <path id="Path_21919" d="M265.484 421.073a1.85 1.85 0 1 1-1.85-1.85 1.85 1.85 0 0 1 1.85 1.85z" class="cls-13" data-name="Path 21919" transform="translate(-261.784 -419.223)"/>
                                            </g>
                                        </g>
                                    </g>
                                    <g id="Group_502" data-name="Group 502" transform="translate(27.681 23.237)">
                                        <g id="Group_501" data-name="Group 501">
                                            <g id="Group_500" data-name="Group 500">
                                                <path id="Path_21920" d="M276.766 419.415a1.851 1.851 0 1 1-1.852-1.85 1.852 1.852 0 0 1 1.852 1.85z" class="cls-13" data-name="Path 21920" transform="translate(-273.064 -417.565)"/>
                                            </g>
                                        </g>
                                    </g>
                                    <g id="Group_505" data-name="Group 505" transform="translate(27.192 18.303)">
                                        <g id="Group_504" data-name="Group 504">
                                            <g id="Group_503" data-name="Group 503">
                                                <path id="Path_21921" d="M276.461 416.353a1.85 1.85 0 1 1-1.85-1.85 1.851 1.851 0 0 1 1.85 1.85z" class="cls-13" data-name="Path 21921" transform="translate(-272.761 -414.503)"/>
                                            </g>
                                        </g>
                                    </g>
                                    <g id="Group_508" data-name="Group 508" transform="translate(26.702 13.368)">
                                        <g id="Group_507" data-name="Group 507">
                                            <g id="Group_506" data-name="Group 506">
                                                <path id="Path_21922" d="M276.159 413.291a1.851 1.851 0 1 1-1.85-1.85 1.849 1.849 0 0 1 1.85 1.85z" class="cls-13" data-name="Path 21922" transform="translate(-272.457 -411.441)"/>
                                            </g>
                                        </g>
                                    </g>
                                    <g id="Group_511" data-name="Group 511" transform="translate(.031 40.599)">
                                        <g id="Group_510" data-name="Group 510">
                                            <g id="Group_509" data-name="Group 509">
                                                <path id="Path_21923" d="M299.394 431.129c-.55 10.967-34.835 7.188-40.319 3.9-2.116-1.272-3-3.723-3.168-6.69 3.6 2.056 9.952 4.617 19.433 4.786 11.629.209 20.018-2.143 24.021-4.638a21.08 21.08 0 0 1 .033 2.642z" class="cls-12" data-name="Path 21923" transform="translate(-255.907 -428.338)"/>
                                            </g>
                                        </g>
                                    </g>
                                    <g id="Group_514" data-name="Group 514" transform="translate(12.126 3.677)">
                                        <g id="Group_513" data-name="Group 513">
                                            <g id="Group_512" data-name="Group 512">
                                                <path id="Path_21924" d="M273.057 405.48a18.287 18.287 0 0 0-9.645 1.919l.5 3.471s6.214-1.828 10.327-1.552a8.147 8.147 0 0 0-1.182-3.838z" class="cls-13" data-name="Path 21924" transform="translate(-263.412 -405.428)"/>
                                            </g>
                                        </g>
                                    </g>
                                </g>
                            </g>
                            <g id="Group_517" data-name="Group 517" transform="translate(6.494)">
                                <path id="Path_21925" d="M266.308 240.543s-6.453 22.823-6.39 43.168c0 0 31.59 13.823 71.779-1.452a32.373 32.373 0 0 0 18.891-41.126c-.069-.2-.14-.393-.211-.59 0 0-51.391-2.11-84.069 0z" class="cls-14" data-name="Path 21925" transform="translate(-259.918 -239.605)"/>
                            </g>
                        </g>
                    </g>
                    <g id="Group_538" data-name="Group 538" transform="translate(21.073 104.504)">
                        <g id="Group_523" data-name="Group 523">
                            <g id="Group_522" data-name="Group 522">
                                <g id="Group_521" data-name="Group 521">
                                    <g id="Group_520" data-name="Group 520">
                                        <path id="Path_21926" d="M367.342 319.464a164.952 164.952 0 0 1-20.561 8.021q-2.845.894-5.74 1.673a126.868 126.868 0 0 1-31.226 4.546c-17.481.243-35.2-3.66-51.7-13.84l11.147-66.253-18.446-107.748 27.6-9.455 1.481-.508 2.719-.93 1.151-.395 2.329-.795 4.915-1.686L320.2 136l1.758.234 2.993.4 1.673.226 20.885 2.788z" class="cls-15" data-name="Path 21926" transform="translate(-250.816 -132.095)"/>
                                    </g>
                                </g>
                            </g>
                        </g>
                        <path id="Path_21927" d="M328.537 329.157a126.868 126.868 0 0 1-31.226 4.546q.7-4.455 1.156-9.22.235-2.371.395-4.807.331-4.782.448-9.8.058-2.371.064-4.791.019-4.794-.121-9.75-.073-2.376-.174-4.777-.208-4.808-.553-9.724-.162-2.371-.359-4.759-.384-4.82-.886-9.7c-.161-1.581-.33-3.172-.508-4.756q-.534-4.835-1.168-9.686c-.2-1.584-.417-3.175-.635-4.759q-.662-4.847-1.4-9.676-.365-2.386-.748-4.761-.774-4.873-1.615-9.684-.411-2.391-.838-4.765-.88-4.9-1.8-9.689-.457-2.391-.925-4.764a977.082 977.082 0 0 0-1.977-9.711q-.5-2.415-1.01-4.782-1.069-4.982-2.137-9.723-.541-2.432-1.091-4.791-1.158-5.055-2.293-9.753c-.39-1.637-.782-3.244-1.168-4.807a842.994 842.994 0 0 0-2.458-9.786q-.645-2.509-1.251-4.825a775.741 775.741 0 0 0-2.993-11.083l2.329-.795 4.915-1.686L307.7 136l1.758.234q.788 4.131 1.542 8.279c.287 1.568.564 3.135.843 4.707q.827 4.716 1.612 9.446.4 2.359.772 4.717.764 4.728 1.478 9.446.358 2.364.7 4.72.7 4.736 1.351 9.446c.222 1.581.435 3.162.648 4.74q.638 4.748 1.233 9.454.3 2.384.591 4.748.578 4.767 1.12 9.463.273 2.391.533 4.759.534 4.789 1.017 9.481c.164 1.6.33 3.188.482 4.769q.488 4.808.912 9.494.222 2.417.434 4.785.43 4.842.8 9.508c.134 1.62.261 3.217.382 4.8q.372 4.878.691 9.528c.116 1.629.221 3.231.326 4.812q.319 4.939.572 9.563c.1 1.637.179 3.249.261 4.825.169 3.349.313 6.554.43 9.594.069 1.663.126 3.283.177 4.848.113 3.47.192 6.688.24 9.636.026 1.721.044 3.349.044 4.878.014 3.301-.025 6.145-.112 8.477z" class="cls-13" data-name="Path 21927" transform="translate(-238.312 -132.095)"/>
                        <g id="Group_537" data-name="Group 537" transform="translate(35.942 12.417)">
                            <g id="Group_524" data-name="Group 524">
                                <path id="Path_21928" d="M310.707 144.507a199.566 199.566 0 0 1-25.412 1.476q-5.275 0-10.927-.213-.645-2.509-1.251-4.825a221.521 221.521 0 0 0 36.746-1.146c.288 1.569.565 3.136.844 4.708z" class="cls-16" data-name="Path 21928" transform="translate(-273.118 -139.8)"/>
                            </g>
                            <g id="Group_525" data-name="Group 525" transform="translate(3.708 14.153)">
                                <path id="Path_21929" d="M311.683 153.3a200.62 200.62 0 0 1-28.1 1.781q-3.421 0-6.993-.087c-.39-1.637-.782-3.244-1.168-4.807a212.721 212.721 0 0 0 35.492-1.6q.394 2.354.769 4.713z" class="cls-16" data-name="Path 21929" transform="translate(-275.419 -148.582)"/>
                            </g>
                            <g id="Group_526" data-name="Group 526" transform="translate(7.17 28.316)">
                                <path id="Path_21930" d="M312.55 162.09a201.208 201.208 0 0 1-30.644 2.089c-1.072 0-2.153 0-3.247-.016q-.541-2.432-1.091-4.791a205.617 205.617 0 0 0 34.28-2l.702 4.718z" class="cls-16" data-name="Path 21930" transform="translate(-277.567 -157.37)"/>
                            </g>
                            <g id="Group_527" data-name="Group 527" transform="translate(10.398 42.482)">
                                <path id="Path_21931" d="M313.323 170.9a202.718 202.718 0 0 1-32.743 2.392q-.5-2.415-1.01-4.782a198.2 198.2 0 0 0 33.105-2.35c.225 1.581.435 3.162.648 4.74z" class="cls-16" data-name="Path 21931" transform="translate(-279.57 -166.16)"/>
                            </g>
                            <g id="Group_528" data-name="Group 528" transform="translate(13.386 56.675)">
                                <path id="Path_21932" d="M314.014 179.715a197.474 197.474 0 0 1-31.665 2.666q-.457-2.391-.925-4.764a194.425 194.425 0 0 0 32-2.649q.298 2.383.59 4.747z" class="cls-16" data-name="Path 21932" transform="translate(-281.424 -174.967)"/>
                            </g>
                            <g id="Group_529" data-name="Group 529" transform="translate(16.113 70.886)">
                                <path id="Path_21933" d="M314.632 188.544a194.079 194.079 0 0 1-30.678 2.9q-.411-2.391-.838-4.765a189.4 189.4 0 0 0 30.983-2.891q.273 2.388.533 4.756z" class="cls-16" data-name="Path 21933" transform="translate(-283.116 -183.785)"/>
                            </g>
                            <g id="Group_530" data-name="Group 530" transform="translate(18.566 85.126)">
                                <path id="Path_21934" d="M315.2 197.39a191.7 191.7 0 0 1-29.814 3.093q-.365-2.386-.748-4.761a187.187 187.187 0 0 0 30.08-3.1c.165 1.598.331 3.187.482 4.768z" class="cls-16" data-name="Path 21934" transform="translate(-284.638 -192.621)"/>
                            </g>
                            <g id="Group_531" data-name="Group 531" transform="translate(20.715 99.389)">
                                <path id="Path_21935" d="M315.73 206.256a190.5 190.5 0 0 1-29.123 3.249c-.2-1.584-.417-3.175-.635-4.759a185.542 185.542 0 0 0 29.325-3.275q.222 2.417.433 4.785z" class="cls-16" data-name="Path 21935" transform="translate(-285.972 -201.471)"/>
                            </g>
                            <g id="Group_532" data-name="Group 532" transform="translate(22.519 113.682)">
                                <path id="Path_21936" d="M316.232 215.143a189.932 189.932 0 0 1-28.633 3.38c-.161-1.581-.33-3.172-.508-4.756a184.132 184.132 0 0 0 28.759-3.426c.134 1.619.261 3.216.382 4.802z" class="cls-16" data-name="Path 21936" transform="translate(-287.091 -210.34)"/>
                            </g>
                            <g id="Group_533" data-name="Group 533" transform="translate(23.913 128.012)">
                                <path id="Path_21937" d="M316.72 224.044a190.072 190.072 0 0 1-28.4 3.5q-.162-2.371-.359-4.759a184.315 184.315 0 0 0 28.438-3.554c.111 1.63.216 3.232.321 4.813z" class="cls-16" data-name="Path 21937" transform="translate(-287.956 -219.232)"/>
                            </g>
                            <g id="Group_534" data-name="Group 534" transform="translate(24.825 142.387)">
                                <path id="Path_21938" d="M317.207 232.977a192.647 192.647 0 0 1-28.507 3.613q-.073-2.376-.174-4.777a186.428 186.428 0 0 0 28.424-3.662c.092 1.638.175 3.249.257 4.826z" class="cls-16" data-name="Path 21938" transform="translate(-288.522 -228.152)"/>
                            </g>
                            <g id="Group_535" data-name="Group 535" transform="translate(25.055 156.806)">
                                <path id="Path_21939" d="M317.727 241.947a197.282 197.282 0 0 1-29.062 3.713q.058-2.371.064-4.791a188.793 188.793 0 0 0 28.82-3.77c.07 1.663.126 3.283.178 4.848z" class="cls-16" data-name="Path 21939" transform="translate(-288.665 -237.099)"/>
                            </g>
                            <g id="Group_536" data-name="Group 536" transform="translate(24.213 171.29)">
                                <path id="Path_21940" d="M318.33 250.964a204.372 204.372 0 0 1-30.188 3.8q.234-2.371.395-4.807a194.714 194.714 0 0 0 29.75-3.874c.026 1.724.043 3.352.043 4.881z" class="cls-16" data-name="Path 21940" transform="translate(-288.142 -246.086)"/>
                            </g>
                        </g>
                    </g>
                    <g id="Group_557" data-name="Group 557" transform="translate(46.162)">
                        <g id="Group_539" data-name="Group 539" transform="translate(69.717 25.979)">
                            <path id="Path_21941" d="M315.371 83.37s7.4 4.877 4.746 18.126-7.773 14.662-7.773 14.662-7.76-29.336 3.027-32.788z" class="cls-17" data-name="Path 21941" transform="translate(-309.643 -83.37)"/>
                        </g>
                        <g id="Group_540" data-name="Group 540" transform="translate(13.043 83.4)">
                            <path id="Path_21942" d="M302.862 123.485l-.938 16.754-.429 7.678c-9.649 7.138-25.341-2.688-25.341-2.688l-1.677-24.829c4.466-3.009 15.971-.5 22.886 1.413 3.259.903 5.499 1.672 5.499 1.672z" class="cls-7" data-name="Path 21942" transform="translate(-274.477 -119)"/>
                        </g>
                        <g id="Group_541" data-name="Group 541" transform="translate(19.668 86.211)">
                            <path id="Path_21943" d="M300.348 122.418l-.938 16.754c-11.333-2.619-20.822-18.322-20.822-18.322l16.261-.106c3.259.906 5.499 1.674 5.499 1.674z" class="cls-8" data-name="Path 21943" transform="translate(-278.588 -120.744)"/>
                        </g>
                        <g id="Group_542" data-name="Group 542">
                            <path id="Path_21944" d="M340.337 99.978s18.072-8.409 12.773-23.247-26.92-8.014-46.362-7.276c-31.308 1.191-41.115 17.476-40.32 34.435s.614 39.692 8.3 48.172 12.935-3.507 16.909-14.114 28.508-43.075 48.7-37.97z" class="cls-17" data-name="Path 21944" transform="translate(-266.384 -67.25)"/>
                        </g>
                        <g id="Group_543" data-name="Group 543" transform="translate(5.802 17.595)">
                            <path id="Path_21945" d="M339.769 107.728c-.011.572-.021 1.156-.037 1.744-.324 10.53-2.135 23.323-3.921 33.731a19.892 19.892 0 0 1-23.531 16.132c-13.228-2.672-29.539-6.725-36.98-11.616-2.263-1.484-3.7-3.048-3.985-4.674a109.838 109.838 0 0 1-1.2-14.606c-.525-17.075.72-38.378.72-38.378 15.9-19.747 60.208-12.042 66.954 2.4 1.54 3.311 2.075 8.792 1.98 15.267z" class="cls-7" data-name="Path 21945" transform="translate(-269.984 -78.168)"/>
                        </g>
                        <g id="Group_544" data-name="Group 544" transform="translate(44.904 52.672)">
                            <path id="Path_21946" d="M298.664 103.952c0 2.219-.99 4.018-2.21 4.018s-2.208-1.8-2.208-4.018.99-4.019 2.208-4.019 2.21 1.8 2.21 4.019z" class="cls-17" data-name="Path 21946" transform="translate(-294.247 -99.933)"/>
                        </g>
                        <g id="Group_545" data-name="Group 545" transform="translate(67.509 52.672)">
                            <path id="Path_21947" d="M312.69 103.952c0 2.219-.99 4.018-2.208 4.018s-2.21-1.8-2.21-4.018.99-4.019 2.21-4.019 2.208 1.8 2.208 4.019z" class="cls-17" data-name="Path 21947" transform="translate(-308.273 -99.933)"/>
                        </g>
                        <g id="Group_546" data-name="Group 546" transform="translate(3.766 10.946)">
                            <path id="Path_21948" d="M270.807 115.315s7.08-4.609 13.041 3.62h4.637s-.264-9.526 1.987-14.693 11.13-5.035 12.454-11.13c0 0 20.957 8.338 35.982 2.712s-30.019-30.667-51.748-18.479-19.722 21.755-16.353 37.97z" class="cls-17" data-name="Path 21948" transform="translate(-268.721 -74.042)"/>
                        </g>
                        <g id="Group_547" data-name="Group 547" transform="translate(37.541 45.23)">
                            <path id="Path_21949" d="M289.678 101.208s2.124-4.366 6.2-5.458a10.419 10.419 0 0 1 7.827.7 1.353 1.353 0 0 1 .609 1.663 1.358 1.358 0 0 1-1.849.759c-2.281-1.062-7.314-2.432-12.787 2.336z" class="cls-17" data-name="Path 21949" transform="translate(-289.678 -95.315)"/>
                        </g>
                        <g id="Group_548" data-name="Group 548" transform="translate(64.14 45.231)">
                            <path id="Path_21950" d="M317.63 97.24c-.011.572-.021 1.156-.037 1.744a10.854 10.854 0 0 0-9.476-.111 1.4 1.4 0 0 1-.577.126 1.361 1.361 0 0 1-.662-2.548 10.426 10.426 0 0 1 7.827-.7 8.243 8.243 0 0 1 2.925 1.489z" class="cls-17" data-name="Path 21950" transform="translate(-306.183 -95.316)"/>
                        </g>
                        <g id="Group_549" data-name="Group 549" transform="translate(5.931 67.866)">
                            <path id="Path_21951" d="M275.252 128.64c-2.263-1.484-3.7-3.048-3.985-4.674a109.849 109.849 0 0 1-1.2-14.606l11.7 8.039s.145 8.326-6.515 11.241z" class="cls-17" data-name="Path 21951" transform="translate(-270.064 -109.361)"/>
                        </g>
                        <g id="Group_553" data-name="Group 553" transform="translate(2.993 50.667)">
                            <g id="Group_550" data-name="Group 550">
                                <path id="Path_21952" d="M284.141 103.861s-7.1-8.6-13.041-3.62c-6.546 5.492-1.531 24.109 11.774 23.687z" class="cls-7" data-name="Path 21952" transform="translate(-268.241 -98.689)"/>
                            </g>
                            <g id="Group_551" data-name="Group 551" transform="translate(5.989 6.929)">
                                <path id="Path_21953" d="M280.929 117.262a1.17 1.17 0 0 1-1.162-1.038c-1.083-9.418-6.67-10.867-6.907-10.925a1.17 1.17 0 0 1 .519-2.282c.3.066 7.431 1.781 8.714 12.94a1.171 1.171 0 0 1-1.03 1.3 1.238 1.238 0 0 1-.134.005z" class="cls-8" data-name="Path 21953" transform="translate(-271.957 -102.988)"/>
                            </g>
                            <g id="Group_552" data-name="Group 552" transform="translate(6.318 11.308)">
                                <path id="Path_21954" d="M273.331 109.627a1.168 1.168 0 0 1-.877-1.94 6.641 6.641 0 0 1 6.255-1.81 1.171 1.171 0 1 1-.5 2.287 4.292 4.292 0 0 0-4.006 1.083 1.174 1.174 0 0 1-.872.38z" class="cls-8" data-name="Path 21954" transform="translate(-272.161 -105.706)"/>
                            </g>
                        </g>
                        <g id="Group_554" data-name="Group 554" transform="translate(43.734 71.331)">
                            <path id="Path_21955" d="M310.075 120.5a20.98 20.98 0 0 1-16.267-7.054 1.171 1.171 0 1 1 1.768-1.536c7.661 8.8 19.665 5.676 19.786 5.644a1.17 1.17 0 0 1 .617 2.258 24.021 24.021 0 0 1-5.904.688z" class="cls-8" data-name="Path 21955" transform="translate(-293.521 -111.511)"/>
                        </g>
                        <g id="Group_555" data-name="Group 555" transform="translate(45.942 80.03)">
                            <path id="Path_21956" d="M304.241 122.864a11.553 11.553 0 0 1-9.122-4.087 1.171 1.171 0 0 1 1.881-1.4c.135.179 3.13 4 9.336 2.964a1.171 1.171 0 1 1 .384 2.309 15.009 15.009 0 0 1-2.479.214z" class="cls-8" data-name="Path 21956" transform="translate(-294.891 -116.909)"/>
                        </g>
                        <g id="Group_556" data-name="Group 556" transform="translate(57.6 54.667)">
                            <path id="Path_21957" d="M304.491 116.112a1.171 1.171 0 0 1-.712-2.1l3.122-2.382-2.706-.7a1.171 1.171 0 0 1-.861-.949l-1.194-7.452a1.171 1.171 0 0 1 2.313-.369l1.072 6.695 4.295 1.114a1.172 1.172 0 0 1 .416 2.064l-5.035 3.842a1.163 1.163 0 0 1-.71.237z" class="cls-8" data-name="Path 21957" transform="translate(-302.125 -101.171)"/>
                        </g>
                    </g>
                    <g id="Group_558" data-name="Group 558" transform="translate(28.395 298.362)">
                        <path id="Path_21958" d="M267.986 252.385s5.2 1.665 6.765 4.7c0 0 0 19.249-9.7 27.645 0 0-4.765-11.581-9.7-22.675z" class="cls-7" data-name="Path 21958" transform="translate(-255.359 -252.385)"/>
                    </g>
                    <path id="Path_21959" d="M258.813 140.638s-19.358 60.515-21.073 91.637c0 0 0 58.212 28.395 98.123l12.627-9.67s-15.916-57.909-15.916-80.494c0 0 16.114-41.94 18.759-58.465-.005 0-10.835-41.131-22.792-41.131z" class="cls-15" data-name="Path 21959" transform="translate(-237.74 -22.366)"/>
                </g>
            </g>
        </g>
        <rect id="Rectangle_2990" width="16" height="424" class="cls-18" data-name="Rectangle 2990" rx="5" transform="translate(1460 574)"/>
        <rect id="Rectangle_2989" width="21" height="123" class="cls-18" data-name="Rectangle 2989" rx="5" transform="rotate(25.97 -383.772 3466.196)"/>
        <path id="Path_21995" d="M103.6 275.092c0 4.536-13.73 8.214-30.667 8.214s-30.667-3.678-30.667-8.214 13.73-8.218 30.667-8.218 30.667 3.678 30.667 8.218z" class="cls-19" data-name="Path 21995" transform="translate(1395.401 720.793)"/>
        <g id="Group_592" data-name="Group 592" transform="translate(1210 218)">
            <g id="Group_569" data-name="Group 569" transform="translate(324 309)">
                <g id="Group_567" data-name="Group 567">
                    <g id="Group_565" data-name="Group 565">
                        <path id="Path_21996" d="M104.515 91.324v37.226h35.228" class="cls-20" data-name="Path 21996" transform="translate(-104.515 27.173)"/>
                        <path id="Path_21997" d="M123.577 103.831V66.237H79.006" class="cls-20" data-name="Path 21997" transform="translate(32.142 -66.237)"/>
                        <path id="Path_21998" d="M141.31 66.237h-37.216v35.242" class="cls-20" data-name="Path 21998" transform="translate(-104.094 -66.237)"/>
                        <path id="Path_21999" d="M79.006 134.339h37.6v-44.57" class="cls-20" data-name="Path 21999" transform="translate(39.109 21.383)"/>
                    </g>
                    <g id="Group_566" data-name="Group 566" transform="translate(13.103 13.108)">
                        <path id="Path_22000" d="M102.994 89.876v30.953H132.3" class="cls-20" data-name="Path 22000" transform="translate(-102.994 8.674)"/>
                        <path id="Path_22001" d="M118.851 100.276V69.012h-37.07" class="cls-20" data-name="Path 22001" transform="translate(10.657 -69.012)"/>
                        <path id="Path_22002" d="M133.606 69.012h-30.962v29.3" class="cls-20" data-name="Path 22002" transform="translate(-102.644 -69.012)"/>
                        <path id="Path_22003" d="M81.781 125.647h31.26V88.582" class="cls-20" data-name="Path 22003" transform="translate(16.467 3.856)"/>
                    </g>
                </g>
                <g id="Group_568" data-name="Group 568" transform="translate(23.055 32.738)">
                    <path id="Path_22004" d="M105.113 77.263a4.1 4.1 0 1 0 4.1-4.1 4.1 4.1 0 0 0-4.1 4.1z" class="cls-13" data-name="Path 22004" transform="translate(-103.956 -73.168)"/>
                    <path id="Path_22005" d="M84.821 77.83a4.1 4.1 0 1 0 4.1-4.1 4.1 4.1 0 0 0-4.1 4.1z" class="cls-13" data-name="Path 22005" transform="translate(12.175 -71.057)"/>
                    <path id="Path_22006" d="M94.725 80.369a4.1 4.1 0 1 0 4.1-4.1 4.1 4.1 0 0 0-4.1 4.1z" class="cls-13" data-name="Path 22006" transform="translate(-44.505 -61.603)"/>
                    <path id="Path_22007" d="M83.3 85.432a4.1 4.1 0 1 0 4.1-4.1 4.091 4.091 0 0 0-4.1 4.1z" class="cls-13" data-name="Path 22007" transform="translate(20.907 -42.751)"/>
                    <path id="Path_22008" d="M95.3 97.148a4.093 4.093 0 1 0 4.09-4.1 4.093 4.093 0 0 0-4.09 4.1z" class="cls-13" data-name="Path 22008" transform="translate(-47.77 .854)"/>
                    <path id="Path_22009" d="M94.949 88.453a4.1 4.1 0 1 0 4.1-4.1 4.09 4.09 0 0 0-4.1 4.1z" class="cls-13" data-name="Path 22009" transform="translate(-45.792 -31.503)"/>
                    <path id="Path_22010" d="M105.357 85.849a4.1 4.1 0 1 0 4.1-4.091 4.1 4.1 0 0 0-4.1 4.091z" class="cls-13" data-name="Path 22010" transform="translate(-105.357 -41.184)"/>
                    <path id="Path_22011" d="M86.91 92.784a4.1 4.1 0 1 0 4.1-4.09 4.1 4.1 0 0 0-4.1 4.09z" class="cls-13" data-name="Path 22011" transform="translate(.228 -15.358)"/>
                    <path id="Path_22012" d="M102.065 93.3a4.1 4.1 0 1 0 4.091-4.091 4.1 4.1 0 0 0-4.091 4.091z" class="cls-13" data-name="Path 22012" transform="translate(-86.511 -13.455)"/>
                    <path id="Path_22013" d="M171.087 147.368l-39.615 20.573L99.5 149.78l-15.336-34.613.946-41.132h95.516l7.528 38.588z" class="cls-21" data-name="Path 22013" transform="translate(-79.855 -69.941)"/>
                    <path id="Path_22014" d="M159.363 104.268L122.2 85.61l-34.423 21.071" class="cls-21" data-name="Path 22014" transform="translate(-68.131 -26.841)"/>
                    <path id="Path_22015" d="M144.409 124.284l.249-35.576-49.066-14.673" class="cls-21" data-name="Path 22015" transform="translate(-90.337 -69.941)"/>
                    <path id="Path_22016" d="M84.537 102.546l49.292-25.635 52.216 24.12-53.286 15.153-48-11.725" class="cls-21" data-name="Path 22016" transform="translate(-79.508 -59.232)"/>
                    <path id="Path_22017" d="M120.89 143.183l-35.5-57.032 48.185-11.43" class="cls-21" data-name="Path 22017" transform="translate(-31.07 -67.385)"/>
                    <path id="Line_6" d="M0 59.168L34.328 0" class="cls-21" data-name="Line 6" transform="translate(19.993 18.767)"/>
                    <path id="Line_7" d="M0 41.049L1.633 0" class="cls-21" data-name="Line 7" transform="translate(51.617 56.951)"/>
                </g>
            </g>
            <g id="Group_591" data-name="Group 591" transform="translate(137.294 123.273)">
                <g id="Group_572" data-name="Group 572" transform="translate(0 64.005)">
                    <g id="Group_571" data-name="Group 571" transform="translate(5.594 5.594)">
                        <g id="Group_570" data-name="Group 570">
                            <path id="Line_8" d="M2.63 0H0" class="cls-22" data-name="Line 8" transform="translate(103.113)"/>
                            <path id="Line_9" d="M72.522 0H0" class="cls-22" data-name="Line 9" transform="translate(23.34)"/>
                            <path id="Path_22018" d="M97.5 109.61h-2.63l-1.651 2.05" class="cls-22" data-name="Path 22018" transform="translate(-77.78 -109.61)"/>
                            <path id="Line_10" d="M8 0L0 10" class="cls-22" data-name="Line 10" transform="translate(5.612 3.628)"/>
                            <path id="Line_11" d="M1.651 0L0 2.05" class="cls-22" data-name="Line 11" transform="translate(0 19.184)"/>
                        </g>
                    </g>
                    <path id="Path_22019" d="M84.811 114.019a5.595 5.595 0 1 1-5.593-5.593 5.592 5.592 0 0 1 5.593 5.593z" class="cls-13" data-name="Path 22019" transform="translate(33.049 -108.426)"/>
                    <path id="Path_22020" d="M107.39 118.515a5.593 5.593 0 1 1-5.593-5.593 5.589 5.589 0 0 1 5.593 5.593z" class="cls-13" data-name="Path 22020" transform="translate(-96.205 -91.685)"/>
                </g>
                <g id="Group_590" data-name="Group 590" transform="translate(130.433 2)">
                    <path id="Rectangle_2991" d="M0 0h198.01v133.664H0z" class="cls-13" data-name="Rectangle 2991"/>
                    <g id="Group_574" data-name="Group 574" transform="translate(38.125 75.529)">
                        <path id="Path_22021" d="M76.74 132.07c0 .449-15.847-14.411-15.847-14.411a21.38 21.38 0 0 1 15.847-7z" class="cls-23" data-name="Path 22021" transform="translate(-55.319 -110.654)"/>
                        <path id="Path_22022" d="M77.783 132.07H56.357v-21.416a21.428 21.428 0 0 1 21.426 21.416z" class="cls-11" data-name="Path 22022" transform="translate(-34.936 -110.654)"/>
                        <path id="Path_22023" d="M60.893 115.193h21.421v21.421a21.422 21.422 0 0 1-21.421-21.421z" class="cls-15" data-name="Path 22023" transform="translate(-60.893 -93.753)"/>
                        <path id="Path_22024" d="M82.314 126.548H60.893a21.337 21.337 0 0 1 5.574-14.411z" class="cls-18" data-name="Path 22024" transform="translate(-60.893 -105.132)"/>
                        <g id="Group_573" data-name="Group 573" transform="translate(21.421 21.435)">
                            <path id="Path_22025" d="M57.537 115.2c0-.444 15.852 14.416 15.852 14.416a21.375 21.375 0 0 1-15.852 7z" class="cls-24" data-name="Path 22025" transform="translate(-57.537 -115.192)"/>
                            <path id="Path_22026" d="M56.357 115.194h21.426a21.358 21.358 0 0 1-5.574 14.416z" class="cls-25" data-name="Path 22026" transform="translate(-56.357 -115.184)"/>
                        </g>
                    </g>
                    <g id="Group_575" data-name="Group 575" transform="translate(17.242 22.888)">
                        <path id="Rectangle_2992" d="M0 0h85.03v3.554H0z" class="cls-18" data-name="Rectangle 2992" transform="translate(0 11.474)"/>
                        <path id="Rectangle_2993" d="M0 0h85.03v3.554H0z" class="cls-18" data-name="Rectangle 2993"/>
                        <path id="Rectangle_2994" d="M0 0h85.03v3.556H0z" class="cls-18" data-name="Rectangle 2994" transform="translate(0 22.946)"/>
                        <path id="Rectangle_2995" d="M0 0h85.03v3.554H0z" class="cls-18" data-name="Rectangle 2995" transform="translate(0 34.42)"/>
                    </g>
                    <g id="Group_625" data-name="Group 625" transform="translate(39.326 -41.954)">
                        <g id="Group_595" data-name="Group 595" transform="translate(102.144 135.352)">
                            <g id="Group_593" data-name="Group 593">
                                <path id="Path_22027" d="M116.126 123.209l-.312 5.871-.39 7.356s-1.461 2.769-8.054 2.769-7.943-1.892-7.943-1.892l-.265-3.264-.887-10.84z" class="cls-7" data-name="Path 22027" transform="translate(-98.275 -123.209)"/>
                            </g>
                            <g id="Group_594" data-name="Group 594">
                                <path id="Path_22028" d="M116.126 123.209l-.312 5.871c-2.749 2.059-9.259 6.106-16.652 4.969l-.887-10.84z" class="cls-8" data-name="Path 22028" transform="translate(-98.275 -123.209)"/>
                            </g>
                        </g>
                        <g id="Group_603" data-name="Group 603" transform="translate(79.947 105.848)">
                            <g id="Group_597" data-name="Group 597">
                                <g id="Group_596" data-name="Group 596">
                                    <path id="Path_22029" d="M90.881 101.655s-5.049-4.94-9.083-1.716c-4.764 3.809.219 17.518 8.671 16.066z" class="cls-26" data-name="Path 22029" transform="translate(-79.947 -98.847)"/>
                                </g>
                            </g>
                            <g id="Group_602" data-name="Group 602" transform="translate(1.907 3.372)">
                                <g id="Group_599" data-name="Group 599">
                                    <g id="Group_598" data-name="Group 598">
                                        <path id="Path_22030" d="M87.6 112.007a.836.836 0 0 1-.8-.769c-.544-6.746-4.494-7.917-4.663-7.963a.836.836 0 0 1 .426-1.617c.216.056 5.259 1.453 5.9 9.445a.835.835 0 0 1-.765.9c-.032.004-.063.004-.098.004z" class="cls-8" data-name="Path 22030" transform="translate(-81.521 -101.632)"/>
                                    </g>
                                </g>
                                <g id="Group_601" data-name="Group 601" transform="translate(.551 4.225)">
                                    <g id="Group_600" data-name="Group 600">
                                        <path id="Path_22031" d="M82.783 107.832a.836.836 0 0 1-.578-1.411 4.743 4.743 0 0 1 4.508-1.137.836.836 0 0 1-.413 1.616 3.039 3.039 0 0 0-2.88.669.832.832 0 0 1-.637.263z" class="cls-8" data-name="Path 22031" transform="translate(-81.976 -105.12)"/>
                                    </g>
                                </g>
                            </g>
                        </g>
                        <g id="Group_611" data-name="Group 611" transform="translate(129.476 105.848)">
                            <g id="Group_605" data-name="Group 605">
                                <g id="Group_604" data-name="Group 604">
                                    <path id="Path_22032" d="M120.843 101.655s5.05-4.94 9.084-1.716c4.764 3.809-.219 17.518-8.671 16.066z" class="cls-26" data-name="Path 22032" transform="translate(-120.843 -98.847)"/>
                                </g>
                            </g>
                            <g id="Group_610" data-name="Group 610" transform="translate(2.082 3.372)">
                                <g id="Group_607" data-name="Group 607">
                                    <g id="Group_606" data-name="Group 606">
                                        <path id="Path_22033" d="M123.428 112.007a.836.836 0 0 0 .8-.769c.543-6.746 4.493-7.917 4.661-7.963a.836.836 0 0 0-.425-1.617c-.216.056-5.259 1.453-5.9 9.445a.837.837 0 0 0 .767.9.828.828 0 0 0 .097.004z" class="cls-8" data-name="Path 22033" transform="translate(-122.562 -101.632)"/>
                                    </g>
                                </g>
                                <g id="Group_609" data-name="Group 609" transform="translate(1.031 4.225)">
                                    <g id="Group_608" data-name="Group 608">
                                        <path id="Path_22034" d="M127.971 107.832a.836.836 0 0 0 .576-1.411 4.74 4.74 0 0 0-4.506-1.137.836.836 0 0 0 .415 1.619 3.039 3.039 0 0 1 2.88.669.832.832 0 0 0 .635.26z" class="cls-8" data-name="Path 22034" transform="translate(-123.413 -105.12)"/>
                                    </g>
                                </g>
                            </g>
                        </g>
                        <path id="Path_22035" d="M109.4 138.841c-17.449 0-22.837-20.726-24.443-35.9A23.945 23.945 0 0 1 108.41 76.46H109.674a23.963 23.963 0 0 1 23.519 26.025c-1.334 15.374-6.348 36.356-23.793 36.356z" class="cls-7" data-name="Path 22035" transform="translate(1.029 2.274)"/>
                        <path id="Path_22036" d="M132.153 67.581c8.853 6.055.844 17.863.844 17.863s8.814 8.629-.259 28.941l-1.616-.329c1.031-6.5.412-14.422 0-15.668-1.227-3.714-7.744-5.693-7.409-9.708 0 0-19.974 6.246-30.785.113 0 0-.853 5.145-3.815 8.39-2.478 2.715-1.067 12.17-.748 16.261l-1.659.163c-.983-4.167-3.385-11.672-3.643-13.883-.162-1.394-.756-6.921-1.01-10.873a19.466 19.466 0 0 1 1.964-10.045 13.155 13.155 0 0 1 3.734-4.666c5.803-4.321 36.372-12.05 44.402-6.559z" class="cls-17" data-name="Path 22036" transform="translate(.435)"/>
                        <g id="Group_613" data-name="Group 613" transform="translate(98.799 105.472)">
                            <g id="Group_612" data-name="Group 612">
                                <path id="Path_22037" d="M98.983 101.694c0 1.744-.776 3.159-1.734 3.159s-1.735-1.415-1.735-3.157.775-3.158 1.734-3.158 1.735 1.412 1.735 3.156z" class="cls-17" data-name="Path 22037" transform="translate(-95.513 -98.537)"/>
                            </g>
                        </g>
                        <g id="Group_615" data-name="Group 615" transform="translate(93.448 97.247)">
                            <g id="Group_614" data-name="Group 614">
                                <path id="Path_22038" d="M91.1 96.377s1.669-3.431 4.873-4.29a8.182 8.182 0 0 1 6.151.549 1.064 1.064 0 0 1 .481 1.307 1.068 1.068 0 0 1-1.453.6c-1.802-.843-5.758-1.914-10.052 1.834z" class="cls-17" data-name="Path 22038" transform="translate(-91.095 -91.745)"/>
                            </g>
                        </g>
                        <g id="Group_617" data-name="Group 617" transform="translate(119.281 105.472)">
                            <g id="Group_616" data-name="Group 616">
                                <path id="Path_22039" d="M112.425 101.694c0 1.744.775 3.159 1.733 3.159s1.735-1.415 1.737-3.157-.776-3.158-1.734-3.158-1.736 1.412-1.736 3.156z" class="cls-17" data-name="Path 22039" transform="translate(-112.425 -98.537)"/>
                            </g>
                        </g>
                        <g id="Group_619" data-name="Group 619" transform="translate(116.528 97.247)">
                            <g id="Group_618" data-name="Group 618">
                                <path id="Path_22040" d="M121.725 96.377s-1.669-3.431-4.875-4.29a8.182 8.182 0 0 0-6.151.549 1.063 1.063 0 0 0-.48 1.307 1.068 1.068 0 0 0 1.453.6c1.798-.843 5.753-1.914 10.053 1.834z" class="cls-17" data-name="Path 22040" transform="translate(-110.152 -91.745)"/>
                            </g>
                        </g>
                        <g id="Group_621" data-name="Group 621" transform="translate(109.641 107.552)">
                            <g id="Group_620" data-name="Group 620">
                                <path id="Path_22041" d="M105.3 112.035a.92.92 0 0 1-.394-1.7l2.626-1.622-2.061-.758a.92.92 0 0 1-.6-.808l-.355-5.92a.92.92 0 1 1 1.837-.11l.319 5.319 3.271 1.2a.92.92 0 0 1 .166 1.647l-4.239 2.617a.918.918 0 0 1-.57.135z" class="cls-8" data-name="Path 22041" transform="translate(-104.465 -100.254)"/>
                            </g>
                        </g>
                        <g id="Group_623" data-name="Group 623" transform="translate(101.72 124.364)">
                            <g id="Group_622" data-name="Group 622">
                                <path id="Path_22042" d="M110.565 118.036a16.031 16.031 0 0 1-12.227-2.221.914.914 0 1 1 1-1.528c7.647 5.014 15.984.11 16.067.059a.914.914 0 0 1 .942 1.567 19.557 19.557 0 0 1-5.782 2.123z" class="cls-8" data-name="Path 22042" transform="translate(-97.925 -114.136)"/>
                            </g>
                        </g>
                        <g id="Group_624" data-name="Group 624" transform="translate(105.862 129.716)">
                            <path id="Path_22043" d="M106.726 121.087a9.328 9.328 0 0 1-5.067-1.338.642.642 0 1 1 .656-1.1 8.789 8.789 0 0 0 8.614.017.642.642 0 0 1 .661 1.1 10.672 10.672 0 0 1-4.864 1.321z" class="cls-8" data-name="Path 22043" transform="translate(-101.345 -118.555)"/>
                        </g>
                    </g>
                </g>
            </g>
        </g>
    </g>
</svg>
