<svg xmlns="http://www.w3.org/2000/svg" width="24.516" height="30" viewBox="0 0 24.516 30">
    <defs>
        <style>
            .cls-1{fill:#fff}
        </style>
    </defs>
    <g id="ios" transform="translate(-27.875)">
        <path id="XMLID_229_" d="M29.14 76.235c-2.536 4.4-.924 11.08 1.881 15.13 1.4 2.025 2.817 3.842 4.759 3.842h.111a5.876 5.876 0 0 0 2.208-.589A6.048 6.048 0 0 1 40.715 94a5.688 5.688 0 0 1 2.49.6 5.276 5.276 0 0 0 2.386.572c2.187-.041 3.529-2 4.714-3.732a16.542 16.542 0 0 0 2.065-4.23l.008-.027a.246.246 0 0 0-.131-.3l-.018-.008a6.268 6.268 0 0 1-3.8-5.74 6.452 6.452 0 0 1 3.049-5.394l.024-.015a.246.246 0 0 0 .07-.345 7.1 7.1 0 0 0-5.581-3.031 4.872 4.872 0 0 0-.487-.024 9.729 9.729 0 0 0-3.5.875 5.63 5.63 0 0 1-1.678.5 5.49 5.49 0 0 1-1.736-.507 8.41 8.41 0 0 0-3.059-.777h-.078a7.5 7.5 0 0 0-6.313 3.818z" class="cls-1" transform="translate(0 -65.207)"/>
        <path id="XMLID_230_" d="M155.4 0a6.85 6.85 0 0 0-4.522 2.32 6.418 6.418 0 0 0-1.625 4.759.246.246 0 0 0 .225.213c.1.008.211.012.318.012a5.794 5.794 0 0 0 4.268-2.189 6.766 6.766 0 0 0 1.59-4.9A.247.247 0 0 0 155.4 0z" class="cls-1" transform="translate(-109.4)"/>
    </g>
</svg>
