<svg xmlns="http://www.w3.org/2000/svg" width="36" height="48.727" viewBox="0 0 36 48.727">
    <defs>
        <style>
            .cls-1{fill:#3b5efa;stroke:#3b5efa}.cls-2{fill:#0ee5c7;stroke:#0ee5c7}
        </style>
    </defs>
    <g id="location" transform="translate(.5 .5)">
        <path id="Path_23405" d="M17.5 0A17.52 17.52 0 0 0 0 17.5c0 9.4 16.2 29.1 16.887 29.939a.8.8 0 0 0 1.227 0C18.8 46.6 35 26.9 35 17.5A17.52 17.52 0 0 0 17.5 0zm0 45.667C14.507 41.931 1.591 25.35 1.591 17.5a15.909 15.909 0 1 1 31.818 0c0 7.85-12.916 24.431-15.909 28.167zm0 0" class="cls-1" data-name="Path 23405"/>
        <path id="Path_23406" d="M52.167 40a12.167 12.167 0 1 0 12.166 12.167A12.167 12.167 0 0 0 52.167 40zm0 22.9A10.735 10.735 0 1 1 62.9 52.167 10.735 10.735 0 0 1 52.167 62.9zm0 0" class="cls-2" data-name="Path 23406" transform="translate(-34.667 -34.667)"/>
        <path id="Path_23407" d="M88.5 86.581l-7.723-6.436a.644.644 0 0 0-.824 0l-7.723 6.436a.644.644 0 0 0 .412 1.139h1.931v5.792a.644.644 0 0 0 .644.644h3.829a.644.644 0 0 0 .644-.639l.028-3.866H81v3.861a.644.644 0 0 0 .644.644h3.866a.644.644 0 0 0 .644-.644V87.72h1.931a.644.644 0 0 0 .412-1.139zm-2.986-.149a.644.644 0 0 0-.644.644v5.792h-2.578v-3.861a.644.644 0 0 0-.644-.644h-2.574a.644.644 0 0 0-.644.637l-.03 3.868h-2.544v-5.792a.644.644 0 0 0-.644-.644h-.8l5.945-4.956 5.946 4.956zm0 0" class="cls-2" data-name="Path 23407" transform="translate(-62.861 -70.292)"/>
    </g>
</svg>
