<svg xmlns="http://www.w3.org/2000/svg" width="43.624" height="45.464" viewBox="0 0 43.624 45.464">
    <defs>
        <style>
            .cls-1{fill:#3b5efa}.cls-2{fill:#0ee5c7}
        </style>
    </defs>
    <g id="offer" transform="translate(-10.359 .002)">
        <g id="Group_1481" data-name="Group 1481" transform="translate(10.359 -.002)">
            <g id="Group_1480" data-name="Group 1480">
                <path id="Path_23398" d="M51.88 23.319a1.332 1.332 0 0 1 0-1.178l1.7-3.469a3.947 3.947 0 0 0-1.7-5.241l-3.411-1.81a1.332 1.332 0 0 1-.692-.953l-.667-3.8a3.947 3.947 0 0 0-4.458-3.239l-3.823.541A1.332 1.332 0 0 1 37.7 3.8l-2.774-2.681a3.946 3.946 0 0 0-5.511 0L26.641 3.8a1.333 1.333 0 0 1-1.12.364L21.7 3.627a3.946 3.946 0 0 0-4.458 3.239l-.667 3.8a1.333 1.333 0 0 1-.692.953l-3.411 1.81a3.947 3.947 0 0 0-1.7 5.241l1.7 3.469a1.332 1.332 0 0 1 0 1.178l-1.7 3.469a3.947 3.947 0 0 0 1.7 5.241l3.411 1.81a1.332 1.332 0 0 1 .692.953l.667 3.8a3.944 3.944 0 0 0 3.891 3.279 4.055 4.055 0 0 0 .568-.04l3.823-.541a1.332 1.332 0 0 1 1.12.364l2.775 2.684a3.947 3.947 0 0 0 5.511 0l2.77-2.68a1.334 1.334 0 0 1 1.12-.364l3.823.541a3.946 3.946 0 0 0 4.457-3.239l.667-3.8a1.333 1.333 0 0 1 .692-.953l3.411-1.81a3.947 3.947 0 0 0 1.7-5.241zm-1.236 6.393l-3.411 1.81a3.938 3.938 0 0 0-2.046 2.816l-.667 3.8a1.335 1.335 0 0 1-1.508 1.1l-3.823-.538a3.937 3.937 0 0 0-3.31 1.076l-2.779 2.68a1.335 1.335 0 0 1-1.864 0l-2.775-2.684a3.934 3.934 0 0 0-2.746-1.115 4.025 4.025 0 0 0-.564.04l-3.823.541a1.336 1.336 0 0 1-1.508-1.1l-.667-3.8a3.937 3.937 0 0 0-2.046-2.816l-3.407-1.81a1.335 1.335 0 0 1-.576-1.773l1.7-3.469a3.938 3.938 0 0 0 0-3.481l-1.7-3.469a1.335 1.335 0 0 1 .576-1.773l3.411-1.81a3.938 3.938 0 0 0 2.046-2.816l.667-3.8a1.335 1.335 0 0 1 1.508-1.1l3.823.541a3.938 3.938 0 0 0 3.31-1.076L31.239 3A1.335 1.335 0 0 1 33.1 3l2.775 2.684a3.937 3.937 0 0 0 3.31 1.076l3.823-.541a1.335 1.335 0 0 1 1.508 1.1l.667 3.8a3.937 3.937 0 0 0 2.046 2.816l3.411 1.81a1.335 1.335 0 0 1 .576 1.773l-1.7 3.469a3.938 3.938 0 0 0 0 3.481l1.7 3.469a1.335 1.335 0 0 1-.573 1.775z" class="cls-1" data-name="Path 23398" transform="translate(-10.359 .002)"/>
            </g>
        </g>
        <g id="Group_1483" data-name="Group 1483" transform="translate(22.207 12.766)">
            <g id="Group_1482" data-name="Group 1482">
                <path id="Path_23399" d="M163.335 144.175a1.311 1.311 0 0 0-1.854 0l-17.305 17.305a1.311 1.311 0 1 0 1.854 1.854l17.305-17.305a1.311 1.311 0 0 0 0-1.854z" class="cls-2" data-name="Path 23399" transform="translate(-143.792 -143.792)"/>
            </g>
        </g>
        <g id="Group_1485" data-name="Group 1485" transform="translate(22.119 10.93)">
            <g id="Group_1484" data-name="Group 1484">
                <path id="Path_23400" d="M147.609 123.116a4.807 4.807 0 1 0 4.807 4.807 4.813 4.813 0 0 0-4.807-4.807zm0 6.992a2.185 2.185 0 1 1 2.185-2.185 2.188 2.188 0 0 1-2.185 2.185z" class="cls-2" data-name="Path 23400" transform="translate(-142.802 -123.116)"/>
            </g>
        </g>
        <g id="Group_1487" data-name="Group 1487" transform="translate(32.608 24.915)">
            <g id="Group_1486" data-name="Group 1486">
                <path id="Path_23401" d="M265.729 280.61a4.807 4.807 0 1 0 4.807 4.807 4.813 4.813 0 0 0-4.807-4.807zm0 6.992a2.185 2.185 0 1 1 2.185-2.185 2.188 2.188 0 0 1-2.185 2.183z" class="cls-2" data-name="Path 23401" transform="translate(-260.922 -280.61)"/>
            </g>
        </g>
    </g>
</svg>
