<svg xmlns="http://www.w3.org/2000/svg" width="61.986" height="62" viewBox="0 0 61.986 62">
    <defs>
        <style>
            .cls-1{fill:#3b5efa}.cls-2{fill:#0ee5c7}
        </style>
    </defs>
    <g id="Page-1" transform="translate(-155.017 -136)">
        <g id="_033---Insurance" data-name="033---Insurance" transform="translate(155.017 136.001)">
            <path id="Shape" d="M47.363 6.65L31.425.084a1.124 1.124 0 0 0-.85 0L14.638 6.65a1 1 0 0 0-.638.916v15.7a10.825 10.825 0 0 0 4.845 8.908l11.015 7.477a2.044 2.044 0 0 0 2.28 0l11.015-7.476A10.825 10.825 0 0 0 48 23.267V7.566a1 1 0 0 0-.637-.916zm-1.488 16.617a8.855 8.855 0 0 1-3.963 7.286L31 37.96l-10.912-7.407a8.855 8.855 0 0 1-3.963-7.286V8.22L31 2.092 45.875 8.22z" class="cls-1" transform="translate(-.017 -.001)"/>
            <path id="Shape-2" d="M29.6 4.45l-11 4.816a1 1 0 0 0-.6.916v13.085a7 7 0 0 0 2.9 5.664l8.515 6.142a1 1 0 0 0 1.17 0l8.515-6.142a7 7 0 0 0 2.9-5.664V10.182a1 1 0 0 0-.6-.916l-11-4.816a1 1 0 0 0-.8 0zM40 10.835v12.432a5 5 0 0 1-2.07 4.042L30 33.029l-7.93-5.72A5 5 0 0 1 20 23.267V10.835l10-4.377z" class="cls-1" data-name="Shape" transform="translate(.982 -.001)"/>
            <path id="Shape-3" d="M8.285 33.2l-2.163-5.054a3.188 3.188 0 0 0-5.833 2.575l3.919 8.621a10.621 10.621 0 0 0 2.171 3.134l6.163 6.164A1.988 1.988 0 0 0 12 50v8a2 2 0 0 0 2 2h11a2 2 0 0 0 2-2v-8a2 2 0 0 0-2-2v-1.861a10.478 10.478 0 0 0-2.192-6.55 7.2 7.2 0 0 0-3.333-2.431 19.781 19.781 0 0 1-5.725-3.674 4.6 4.6 0 0 0-5.465-.284zM25 58H14v-8h11zm-3.753-17.162A8.485 8.485 0 0 1 23 46.139V48h-8.269l-6.938-6.938a8.649 8.649 0 0 1-1.765-2.547l-3.919-8.621a1.188 1.188 0 1 1 2.174-.96l2.237 5.217a11.8 11.8 0 0 0 2.522 3.725l4.568 4.569a1 1 0 1 0 1.414-1.414l-4.568-4.569a9.863 9.863 0 0 1-1.233-1.5 2.6 2.6 0 0 1 3.239.054 21.319 21.319 0 0 0 6.38 4.04 5.253 5.253 0 0 1 2.405 1.782z" class="cls-1" data-name="Shape" transform="translate(-.017 2)"/>
            <path id="Shape-4" d="M22 53h-1a1 1 0 0 0 0 2h1a1 1 0 0 0 0-2z" class="cls-1" data-name="Shape" transform="translate(.684 2)"/>
            <path id="Shape-5" d="M55.792 39.342l3.919-8.621a3.188 3.188 0 1 0-5.832-2.575l-2.158 5.035a4.612 4.612 0 0 0-5.471.3 19.781 19.781 0 0 1-5.725 3.674 7.2 7.2 0 0 0-3.333 2.431A10.478 10.478 0 0 0 35 46.139V48a2 2 0 0 0-2 2v8a2 2 0 0 0 2 2h11a2 2 0 0 0 2-2v-8a1.988 1.988 0 0 0-.542-1.36l6.163-6.164a10.62 10.62 0 0 0 2.171-3.134zM46 58H35v-8h11zm-.731-10H37v-1.861a8.485 8.485 0 0 1 1.753-5.3 5.257 5.257 0 0 1 2.4-1.783 21.31 21.31 0 0 0 6.381-4.04 2.6 2.6 0 0 1 3.245-.063 9.8 9.8 0 0 1-1.239 1.51l-4.568 4.569a1 1 0 0 0 1.414 1.414l4.568-4.569a11.8 11.8 0 0 0 2.522-3.725l2.237-5.218a1.189 1.189 0 1 1 2.174.961l-3.919 8.621a8.648 8.648 0 0 1-1.768 2.547z" class="cls-1" data-name="Shape" transform="translate(1.983 2)"/>
            <path id="Shape-6" d="M39 53h-1a1 1 0 0 0 0 2h1a1 1 0 0 0 0-2z" class="cls-1" data-name="Shape" transform="translate(1.281 2)"/>
            <path id="Shape-7" d="M24.6 21.2a1 1 0 0 0-1.2 1.6l4 3a1 1 0 0 0 .6.2 1.075 1.075 0 0 0 .169-.014 1 1 0 0 0 .663-.431l8-12a1 1 0 0 0-1.664-1.11l-7.414 11.121z" class="cls-2" data-name="Shape" transform="translate(.982 .521)"/>
        </g>
    </g>
</svg>
