<svg xmlns="http://www.w3.org/2000/svg" width="62" height="62" viewBox="0 0 62 62">
    <defs>
        <style>
            .cls-1{fill:#0ee5c7}.cls-2{fill:#3b5efa}
        </style>
    </defs>
    <g id="pollution">
        <path id="Path_22061" d="M173.406 295.846l2.363-5.672a1 1 0 0 0-.538-1.308 11.05 11.05 0 0 0-8.463 0 1 1 0 0 0-.538 1.308l2.363 5.672a3.991 3.991 0 0 0-1.452 2.175H161a1 1 0 0 0-1 1 10.95 10.95 0 0 0 4.131 8.584 1 1 0 0 0 .625.22 1.053 1.053 0 0 0 .11-.006 1 1 0 0 0 .671-.37l3.829-4.786a3.913 3.913 0 0 0 3.268 0l3.829 4.786a1 1 0 0 0 .671.37.929.929 0 0 0 .11.006 1 1 0 0 0 .625-.22 10.953 10.953 0 0 0 4.131-8.584 1 1 0 0 0-1-1h-6.142a3.989 3.989 0 0 0-1.452-2.175zm-4.924-5.467a9.054 9.054 0 0 1 5.035 0l-1.958 4.7a2.77 2.77 0 0 0-1.119 0zm-3.847 15a8.937 8.937 0 0 1-2.58-5.355h5.087a3.966 3.966 0 0 0 .668 1.387zm4.365-6.358a2 2 0 1 1 2 2 2 2 0 0 1-2-2zm8.365 6.355l-3.175-3.968a3.966 3.966 0 0 0 .668-1.387h5.087a8.937 8.937 0 0 1-2.58 5.355zm0 0" class="cls-1" data-name="Path 22061" transform="translate(-140 -252.021)"/>
        <path id="Path_22062" d="M126 12a6.013 6.013 0 0 0 1.912-.315 7.987 7.987 0 0 0 13.381 1.253 7 7 0 1 0-1.1-11.012 7.927 7.927 0 0 0-10.051-.252A6 6 0 1 0 126 12zm0-10a4.011 4.011 0 0 1 2.72 1.077 7.943 7.943 0 0 0-.968 1.532l1.812.849a5.994 5.994 0 0 1 9.388-1.966A6.942 6.942 0 0 0 138 7h2a5 5 0 1 1 1.711 3.766 1 1 0 0 0-1.523.249 5.992 5.992 0 0 1-10.516-.276A6.058 6.058 0 0 0 130.8 9.6l-1.6-1.2A4 4 0 1 1 126 2zm0 0" class="cls-2" data-name="Path 22062" transform="translate(-105)"/>
        <path id="Path_22063" d="M55 77.931a8 8 0 1 0-2 0V86h-6.581l-4.137-11.584A22 22 0 0 1 41.222 70H43v-2h-1.958c-.015-.328-.042-.654-.042-.984V66h2v-2h-2v-3a1 1 0 0 0-1-1H22a1 1 0 0 0-1 1v3h-2v2h2v1.016c0 .329-.027.656-.042.984H19v2h1.778a21.834 21.834 0 0 1-1.06 4.416L14.509 89H2V77.851A15.012 15.012 0 0 0 15 63 15.017 15.017 0 0 0 0 48v2a13.015 13.015 0 0 1 13 13A13.009 13.009 0 0 1 2 75.83v-7.416l6.707-6.707-1.414-1.414L4 63.586l-2.293-2.293-1.414 1.414L2.586 65 .293 67.293A1 1 0 0 0 0 68v23h13.8l-1.4 3.912A23.952 23.952 0 0 0 11 103a1 1 0 0 0 1 1h38a1.014 1.014 0 0 0 1-1.016 23.929 23.929 0 0 0-1.4-8.072L47.134 88H62v-2h-7zM48 70a6 6 0 1 1 7 5.91v-4.5l2.707-2.707-1.414-1.414-3 3A1 1 0 0 0 53 71v.586l-1.293-1.293-1.414 1.414L53 74.414v1.5A6.006 6.006 0 0 1 48 70zm-25-8h16v2H23zm0 5.016V66h16v1.016c0 .329.029.656.042.984H22.958c.013-.328.042-.654.042-.984zM48.978 102H13.022a21.921 21.921 0 0 1 1.26-6.416l7.32-20.5A23.927 23.927 0 0 0 22.793 70h16.415a23.853 23.853 0 0 0 1.192 5.087l7.32 20.5A22 22 0 0 1 48.978 102zm0 0" class="cls-2" data-name="Path 22063" transform="translate(0 -42)"/>
    </g>
</svg>
