<svg xmlns="http://www.w3.org/2000/svg" width="115.448" height="111.691" viewBox="0 0 115.448 111.691">
    <defs>
        <style>
            .cls-1{fill:#a3b4ef;opacity:.15}.cls-2{fill:#3b5efa}.cls-3{fill:#0ee5c7}
        </style>
    </defs>
    <g id="pollution" transform="translate(-1250.885 -1430)">
        <path id="Path_274" d="M33.865 0C15.089 0-8.759 53.092 3.237 69.633S68.424 83 77.376 61.219 52.641 0 33.865 0z" class="cls-1" data-name="Path 274" transform="rotate(-142 921.937 544.79)"/>
        <g id="pollution-2" data-name="pollution" transform="translate(1304 1455)">
            <g id="_1996730" data-name="1996730" transform="translate(-63.666 -23.185)">
                <path id="Path_23408" d="M128.007 98a18.719 18.719 0 0 0 6.216 14.719 9.169 9.169 0 0 1 3.152 6.752v3.921h2.346v-2.346h12.9V118.7h-4.691v-5.923a12.915 12.915 0 0 0 11.728-12.843 1.173 1.173 0 0 0-1.173-1.173 12.887 12.887 0 0 0-10.556 5.507v-4.4a10.568 10.568 0 0 0 9.383-10.486 1.173 1.173 0 0 0-1.173-1.173 10.559 10.559 0 0 0-9.383 5.742 10.559 10.559 0 0 0-9.383-5.742 1.173 1.173 0 0 0-1.173 1.173 10.568 10.568 0 0 0 9.383 10.486v4.4a12.887 12.887 0 0 0-10.556-5.507 1.173 1.173 0 0 0-1.173 1.173 12.915 12.915 0 0 0 11.728 12.843v5.923h-5.892a11.614 11.614 0 0 0-3.9-7.728 16.419 16.419 0 1 1 21.835.09 11.276 11.276 0 0 0-3.642 6.243l2.3.445a8.915 8.915 0 0 1 2.892-4.93A18.763 18.763 0 1 0 128.007 98zm29.233 3.182a10.575 10.575 0 0 1-9.24 9.237 10.575 10.575 0 0 1 9.236-9.236zm-2.371-10.53a8.228 8.228 0 0 1-6.84 6.84 8.228 8.228 0 0 1 6.84-6.84zm-16.223 0a8.228 8.228 0 0 1 6.84 6.84 8.228 8.228 0 0 1-6.84-6.84zm-2.371 10.53a10.575 10.575 0 0 1 9.236 9.236 10.575 10.575 0 0 1-9.236-9.235z" class="cls-2" data-name="Path 23408" transform="translate(-54.609 -54.616)"/>
                <path id="Path_23409" d="M152.173 361.171h-11.462a1.16 1.16 0 0 0-1.146 1.173v1.078l-.506-.414a13.178 13.178 0 0 0-15.83-.7l-7.733.039a4.55 4.55 0 0 0-3.627 1.823 4.778 4.778 0 0 0-.81 4.051l-8.337-4.036a4.62 4.62 0 0 0-3.866-.046 4.788 4.788 0 0 0-2.6 2.927 4.93 4.93 0 0 0 2.5 5.952l12.756 6.14a7.922 7.922 0 0 0 3.415.781h37.249a1.16 1.16 0 0 0 1.146-1.173v-16.42a1.16 1.16 0 0 0-1.149-1.175zm-39.689 15.863l-12.756-6.14a2.562 2.562 0 0 1-1.3-3.093 2.451 2.451 0 0 1 2.311-1.724 2.34 2.34 0 0 1 1.007.23l10.965 5.308a1.122 1.122 0 0 0 .491.112h9.28a1.173 1.173 0 0 0 0-2.346H115.5a2.346 2.346 0 0 1 0-4.691h8.023a1.128 1.128 0 0 0 .636-.2l.346-.236a10.928 10.928 0 0 1 13.127.583l1.938 1.586v11.165h-24.647a5.657 5.657 0 0 1-2.44-.557zm38.543.557h-9.169v-14.074h9.169z" class="cls-2" data-name="Path 23409" transform="translate(-27.319 -295.048)"/>
                <path id="Path_23410" d="M432 448h2.346v2.346H432z" class="cls-2" data-name="Path 23410" transform="translate(-315.383 -370.148)"/>
                <path id="Path_23411" d="M248 16h2.346v4.691H248z" class="cls-3" data-name="Path 23411" transform="translate(-157.614)"/>
                <path id="Path_23412" d="M0 0h2.346v4.692H0z" class="cls-3" data-name="Path 23412" transform="rotate(-22.514 86.658 -191.5)"/>
                <path id="Path_23413" d="M0 0h2.345v4.692H0z" class="cls-3" data-name="Path 23413" transform="rotate(-45 65.973 -73.665)"/>
                <path id="Path_23414" d="M0 0h2.345v4.692H0z" class="cls-3" data-name="Path 23414" transform="rotate(-45 126.56 -98.745)"/>
                <path id="Path_23415" d="M0 0h2.346v4.692H0z" class="cls-3" data-name="Path 23415" transform="rotate(-67.486 58.371 -32.127)"/>
                <path id="Path_23416" d="M0 0h2.346v4.692H0z" class="cls-3" data-name="Path 23416" transform="rotate(-67.486 95.998 -57.173)"/>
                <path id="Path_23417" d="M64 200h4.691v2.346H64z" class="cls-3" data-name="Path 23417" transform="translate(0 -157.612)"/>
                <path id="Path_23418" d="M416 200h4.691v2.346H416z" class="cls-3" data-name="Path 23418" transform="translate(-301.728 -157.612)"/>
                <path id="Path_23419" d="M0 0h4.692v2.346H0z" class="cls-3" data-name="Path 23419" transform="rotate(-22.514 166.086 -138.531)"/>
                <path id="Path_23420" d="M0 0h4.692v2.346H0z" class="cls-3" data-name="Path 23420" transform="rotate(-22.514 140.725 -264.621)"/>
                <path id="Path_23421" d="M0 0h4.692v2.345H0z" class="cls-3" data-name="Path 23421" transform="rotate(-45 110.816 -55.085)"/>
                <path id="Path_23422" d="M0 0h4.692v2.345H0z" class="cls-3" data-name="Path 23422" transform="rotate(-45 85.722 -115.666)"/>
                <path id="Path_23423" d="M0 0h4.692v2.346H0z" class="cls-3" data-name="Path 23423" transform="rotate(-67.486 66.11 -63.274)"/>
            </g>
        </g>
    </g>
</svg>
