<?xml version="1.0" encoding="utf-8"?>
<!-- Generator: Adobe Illustrator 22.1.0, SVG Export Plug-In . SVG Version: 6.00 Build 0)  -->
<svg version="1.1" id="Layer_1" xmlns="http://www.w3.org/2000/svg" xmlns:xlink="http://www.w3.org/1999/xlink" x="0px" y="0px"
	 viewBox="0 0 341.5 338.6" style="enable-background:new 0 0 341.5 338.6;" xml:space="preserve">
<style type="text/css">
	.st0{fill:#C1DBF2;}
	.st1{fill:#DCE9F7;}
	.st2{fill:#CDE0F3;}
	.st3{fill:#FFFFFF;}
	.st4{fill:#EAEAE6;}
	.st5{fill:#E7E9E3;}
	.st6{fill:#B3CEEB;}
	.st7{fill:#B8D3EE;}
	.st8{fill:#E3E2DC;}
	.st9{fill:#F5F6F5;}
	.st10{fill:#F0F1EE;}
	.st11{fill:#DEDED7;}
	.st12{fill:#F9F9FA;}
	.st13{fill:#E1E1D9;}
	.st14{fill:#331C38;}
	.st15{fill:#4F3F55;}
	.st16{fill:#3F2C44;}
	.st17{fill:#5A4A60;}
	.st18{fill:#05304B;}
	.st19{fill:#004268;}
	.st20{fill:#FDF1EF;}
	.st21{fill:#E8685B;}
	.st22{fill:#F8CFBE;}
	.st23{fill:#F4AD85;}
	.st24{fill:#E67170;}
	.st25{fill:#D84F50;}
	.st26{fill:#EF8871;}
	.st27{fill:#433D3D;}
	.st28{fill:#F4C6B3;}
	.st29{fill:#F3BBA2;}
	.st30{fill:url(#Path_23532_1_);}
	.st31{fill:none;stroke:#FFFFFF;stroke-linecap:round;stroke-linejoin:round;stroke-dasharray:4,4;}
	.st32{fill:#FFFFFF;stroke:#EBEBEB;stroke-width:0.5;}
	.st33{fill:#67A2D8;}
	.st34{fill:#DE9D01;}
	.st35{fill:#009762;}
	.st36{fill:#00132B;}
	.st37{fill:#EB80B2;}
	.st38{fill:#E0376B;}
	.st39{fill:#FFAF82;}
	.st40{fill:#F88968;}
	.st41{fill:#FFA378;}
	.st42{fill:#32324C;}
	.st43{fill:#575454;}
	.st44{fill:none;stroke:#707070;stroke-width:0.5;}
	.st45{opacity:0.1;fill:#32324C;enable-background:new    ;}
	.st46{fill:#00784E;}
	.st47{fill:#050705;}
	.st48{fill:#BF8005;}
	.st49{fill:#2C2C2C;}
	.st50{fill:#E2E2E2;}
	.st51{fill:none;stroke:#FFFFFF;stroke-width:0.601;stroke-linecap:round;stroke-linejoin:round;}
	.st52{fill:none;stroke:#FFFFFF;stroke-width:0.204;stroke-miterlimit:10;}
</style>
<g id="Step_3" transform="translate(-1410 -1296.582)">
	<g id="Counter_3" transform="translate(1410 1329.397)">
		<path id="Path_23428" class="st0" d="M249,234.2c26.3-0.1,47.6-21.4,47.7-47.7c-0.1-26.3-21.4-47.6-47.7-47.7
			c-11.1,0-20.1-9-20.2-20.2c0-11.1,9-20.1,20.2-20.2h2.4c11.6,0,20.9-9.4,21-21c0-11.6-9.4-20.9-21-21H244c-4.5,0-8.1-3.7-8.2-8.2
			c0-4.5,3.7-8.1,8.2-8.2h5.4c3.1,0,5.6-2.5,5.6-5.6c0-3.1-2.5-5.6-5.6-5.6h-36.4c-4.9,0-8.8-4-8.9-8.8c0-4.9,4-8.8,8.9-8.9H224
			c3.1,0,5.6-2.5,5.6-5.6c0-3.1-2.5-5.6-5.6-5.6H69.3C65.3,0,62,3.3,62,7.3c0,4.1,3.3,7.3,7.3,7.3h11.2c6.4,0,11.5,5.2,11.6,11.5
			c0,6.4-5.2,11.5-11.6,11.5H32.7c-4.1,0-7.3,3.3-7.3,7.3c0,4.1,3.3,7.3,7.3,7.3h7.1c5.9,0,10.6,4.8,10.7,10.6
			c0,5.9-4.8,10.6-10.7,10.6h-9.6c-15.1,0-27.3,12.3-27.4,27.4c0,15.1,12.3,27.3,27.4,27.4h3.1c14.5,0,26.3,11.8,26.3,26.3
			c0,14.5-11.8,26.3-26.3,26.3h-6.8C11.9,181.2,0,193,0,207.6c0,14.6,11.9,26.5,26.5,26.5L249,234.2z M50.5,14.7
			c-4.1,0-7.3-3.3-7.3-7.4c0-4.1,3.3-7.3,7.4-7.3c4.1,0,7.3,3.3,7.3,7.3C57.9,11.4,54.6,14.7,50.5,14.7z M265.2,40.2
			c-3.1,0-5.6-2.5-5.6-5.6s2.5-5.6,5.6-5.6s5.6,2.5,5.6,5.6l0,0C270.9,37.7,268.4,40.2,265.2,40.2C265.2,40.2,265.2,40.2,265.2,40.2
			L265.2,40.2z"/>
		<g id="Group_1502" transform="translate(126.105 46.3)">
			<path id="Path_23429" class="st1" d="M22.1,0H111c-0.2,0.7-0.3,1.4-0.3,2.1c0,4.5,3.7,8.1,8.2,8.2h7.4c11.6,0,20.9,9.4,21,21v0.2
				h-125c-8.7,0-15.7-7-15.7-15.7C6.4,7,13.4,0,22.1,0z"/>
			<path id="Path_23430" class="st2" d="M145.2,22.5H6.4v165.4h117.4c26.3-0.1,47.6-21.4,47.7-47.7c-0.1-26.3-21.4-47.6-47.7-47.7
				c-11.1,0-20.1-9-20.2-20.2c0-11.1,9-20.1,20.2-20.2h2.4c11.6,0,20.9-9.4,21-21C147.2,28.2,146.5,25.2,145.2,22.5L145.2,22.5z"/>
			<path id="Path_23431" class="st0" d="M146.6,35.9H17.7c-3.7,0-6.7,3.6-6.7,8v144.1h112.8c26.3-0.1,47.6-21.4,47.7-47.7
				c-0.1-26.3-21.4-47.6-47.7-47.7c-11.1,0-20.1-9-20.2-20.2c0-11.1,9-20.1,20.2-20.2h2.4C136,52.2,144.4,45.4,146.6,35.9
				L146.6,35.9z"/>
			<path id="Path_23432" class="st2" d="M104.8,65.7H11v13.6h93.9c-0.8-2.2-1.2-4.6-1.2-6.9C103.6,70.1,104,67.9,104.8,65.7
				L104.8,65.7z"/>
			<path id="Path_23433" class="st1" d="M4.4,60h103.5c-2.8,3.5-4.3,7.9-4.3,12.4c0,0.4,0,0.8,0,1.1H4.4c-2.4,0-4.4-2-4.4-4.4v-4.7
				C0,61.9,2,60,4.4,60L4.4,60z"/>
			<path id="Path_23434" class="st2" d="M169.6,127H11v13.6h160.5v-0.4C171.5,135.8,170.9,131.3,169.6,127L169.6,127z"/>
			<path id="Path_23435" class="st1" d="M4.4,121.3h163.1c1.9,4.3,3.1,8.9,3.6,13.6H4.4c-2.4,0-4.4-2-4.4-4.4v-4.7
				C0,123.3,2,121.3,4.4,121.3L4.4,121.3z"/>
			<path id="Path_23436" class="st3" d="M4.4,182.6h141.2c-6.7,3.5-14.2,5.3-21.8,5.3H0V187C0,184.6,2,182.6,4.4,182.6z"/>
			<path id="Path_23437" class="st1" d="M4.4,15.7h135.8c3.9,3.5,6.3,8.3,6.8,13.6H4.4c-2.4,0-4.4-2-4.4-4.4v-4.7
				C0,17.7,2,15.7,4.4,15.7L4.4,15.7z"/>
			<path id="Path_23438" class="st2" d="M134.8,12.3h-116c-3.1,0-5.7-2.9-5.7-6.4c0-1.3,0.4-2.6,1-3.7c-4.9,2.7-7.8,7.9-7.7,13.5
				h133.8C138.6,14.3,136.8,13.2,134.8,12.3L134.8,12.3z"/>
			<g id="Group_1493" transform="translate(14.882 80.585)">
				<path id="Rectangle_3114" class="st4" d="M2.5,6.5h17.7c1.4,0,2.5,1.1,2.5,2.5c0,0,0,0,0,0v29.2c0,1.4-1.1,2.5-2.5,2.5H2.5
					c-1.4,0-2.5-1.1-2.5-2.5V9C0,7.6,1.1,6.5,2.5,6.5z"/>
				<path id="Rectangle_3115" class="st5" d="M25.8,6.5h9C35.4,6.5,36,7,36,7.7v31.7c0,0.7-0.6,1.3-1.3,1.3h-9
					c-0.7,0-1.3-0.6-1.3-1.3c0,0,0,0,0,0V7.7C24.5,7,25,6.5,25.8,6.5z"/>
				<path id="Rectangle_3116" class="st6" d="M34.1,0h10.4C45.4,0,46,0.7,46,1.5v37.7c0,0.8-0.7,1.5-1.5,1.5H34.1
					c-0.8,0-1.5-0.7-1.5-1.5V1.5C32.6,0.7,33.3,0,34.1,0C34.1,0,34.1,0,34.1,0z"/>
				<path id="Rectangle_3117" class="st7" d="M30,24.8h18.6c1,0,1.8,0.8,1.8,1.8v12.3c0,1-0.8,1.8-1.8,1.8l0,0H30
					c-1,0-1.8-0.8-1.8-1.8V26.6C28.3,25.6,29,24.8,30,24.8C30,24.8,30,24.8,30,24.8z"/>
				<path id="Rectangle_3118" class="st7" d="M54.2,11.6h9c0.7,0,1.3,0.6,1.3,1.3v26.5c0,0.7-0.6,1.3-1.3,1.3h-9
					c-0.7,0-1.3-0.6-1.3-1.3V12.9C53,12.2,53.5,11.6,54.2,11.6z"/>
				<path id="Rectangle_3119" class="st8" d="M6,14.1h10.7c0.9,0,1.7,0.8,1.7,1.7v5.3c0,0.9-0.8,1.7-1.7,1.7l0,0H6
					c-0.9,0-1.7-0.8-1.7-1.7c0,0,0,0,0,0v-5.3C4.3,14.9,5.1,14.1,6,14.1C6,14.1,6,14.1,6,14.1z"/>
				<path id="Rectangle_3120" class="st8" d="M5.7,24.8H17c0.8,0,1.4,0.6,1.4,1.4c0,0.8-0.6,1.4-1.4,1.4l0,0H5.7
					c-0.8,0-1.4-0.6-1.4-1.4C4.3,25.4,4.9,24.8,5.7,24.8C5.7,24.8,5.7,24.8,5.7,24.8z"/>
				<path id="Rectangle_3121" class="st8" d="M5.7,30.2H17c0.8,0,1.4,0.6,1.4,1.4c0,0.8-0.6,1.4-1.4,1.4l0,0H5.7
					c-0.8,0-1.4-0.6-1.4-1.4C4.3,30.8,4.9,30.2,5.7,30.2C5.7,30.2,5.7,30.2,5.7,30.2z"/>
				<path id="Path_23439" class="st6" d="M58.7,23.3c1.6-0.3,3.1,0.8,3.4,2.4c0.3,1.6-0.8,3.1-2.4,3.4s-3.1-0.8-3.4-2.4
					c0-0.2,0-0.3,0-0.5C56.2,24.7,57.3,23.4,58.7,23.3z"/>
			</g>
			<g id="Group_1494" transform="translate(67.73 37.909)">
				<path id="Rectangle_3122" class="st1" d="M1,16.8h4.5c0.6,0,1,0.5,1,1c0,0,0,0,0,0V21c0,0.6-0.5,1-1,1H1c-0.6,0-1-0.5-1-1
					c0,0,0,0,0,0v-3.2C0,17.3,0.5,16.8,1,16.8z"/>
				<path id="Rectangle_3123" class="st7" d="M9.5,8.4h13.3c0.8,0,1.5,0.7,1.5,1.5v10.6c0,0.8-0.7,1.5-1.5,1.5H9.5
					C8.7,22,8,21.4,8,20.5V9.9C8,9.1,8.7,8.4,9.5,8.4z"/>
				<path id="Rectangle_3124" class="st6" d="M16.2,12.7h9c0.6,0,1,0.5,1,1V21c0,0.6-0.5,1-1,1h-9c-0.6,0-1-0.5-1-1v-7.2
					C15.2,13.2,15.7,12.7,16.2,12.7C16.2,12.7,16.2,12.7,16.2,12.7z"/>
				<path id="Rectangle_3125" class="st1" d="M23,0h7.7c0.6,0,1.1,0.5,1.1,1.1c0,0,0,0,0,0V21c0,0.6-0.5,1.1-1.1,1.1l0,0H23
					c-0.6,0-1.1-0.5-1.1-1.1c0,0,0,0,0,0V1.1C21.9,0.5,22.4,0,23,0C23,0,23,0,23,0z"/>
			</g>
			<g id="Group_1495" transform="translate(22.237 37.087)">
				<path id="Path_23440" class="st6" d="M15.2,7.6h0.5v-1h-0.2c-0.4,0-0.6-0.4-0.6-0.7c0-0.4,0.2-0.7,0.6-0.7h0.7V0.7
					c0-0.4,0.2-0.7,0.6-0.7c0.4,0,0.6,0.4,0.6,0.7v4.3h0.7c0.4,0,0.6,0.4,0.6,0.7c0,0.4-0.2,0.7-0.6,0.7H18v1h0.5
					c0.4,0,0.7,0.4,0.7,0.8V22c0,0.4-0.3,0.8-0.7,0.8h-3.3c-0.4,0-0.7-0.4-0.7-0.8V8.4C14.5,8,14.8,7.6,15.2,7.6L15.2,7.6z"/>
				<path id="Path_23441" class="st6" d="M9.9,9.2h0.5V8.3h-0.2c-0.3,0-0.6-0.3-0.6-0.7c0-0.3,0.2-0.6,0.6-0.7h0.6V3.1
					c0-0.3,0.2-0.6,0.6-0.7c0.3,0,0.6,0.3,0.6,0.7v3.9h0.6c0.3,0,0.6,0.3,0.6,0.7c0,0.3-0.2,0.6-0.6,0.7h-0.2v0.9h0.5
					c0.4,0,0.6,0.4,0.6,0.7v12.2c0,0.4-0.2,0.7-0.6,0.7h-3c-0.4,0-0.6-0.4-0.6-0.7V9.9C9.2,9.5,9.5,9.2,9.9,9.2L9.9,9.2z"/>
				<path id="Rectangle_3126" class="st1" d="M1.1,8.4h7.5c0.6,0,1.1,0.5,1.1,1.1c0,0,0,0,0,0v12.3c0,0.6-0.5,1.1-1.1,1.1l0,0H1.1
					c-0.6,0-1.1-0.5-1.1-1.1c0,0,0,0,0,0V9.5C0,8.9,0.5,8.4,1.1,8.4z"/>
				<path id="Rectangle_3127" class="st9" d="M2.5,11.7H7c0.4,0,0.7,0.3,0.7,0.7c0,0,0,0,0,0v2.2c0,0.4-0.3,0.7-0.7,0.7l0,0H2.5
					c-0.4,0-0.7-0.3-0.7-0.7v-2.2C1.8,12,2.1,11.7,2.5,11.7C2.5,11.7,2.5,11.7,2.5,11.7z"/>
				<path id="Rectangle_3128" class="st9" d="M2.4,16.2h4.8c0.3,0,0.6,0.3,0.6,0.6l0,0c0,0.3-0.3,0.6-0.6,0.6l0,0H2.4
					c-0.3,0-0.6-0.3-0.6-0.6c0,0,0,0,0,0C1.8,16.4,2.1,16.2,2.4,16.2C2.4,16.2,2.4,16.2,2.4,16.2z"/>
				<path id="Rectangle_3129" class="st9" d="M2.4,18.4h4.8c0.3,0,0.6,0.3,0.6,0.6l0,0c0,0.3-0.3,0.6-0.6,0.6l0,0H2.4
					c-0.3,0-0.6-0.3-0.6-0.6C1.8,18.7,2.1,18.4,2.4,18.4C2.4,18.4,2.4,18.4,2.4,18.4z"/>
				<path id="Rectangle_3130" class="st7" d="M11,14h4.6c0.4,0,0.7,0.3,0.7,0.7c0,0,0,0,0,0v7.6c0,0.4-0.3,0.7-0.7,0.7H11
					c-0.4,0-0.7-0.3-0.7-0.7v-7.6C10.4,14.3,10.7,14,11,14z"/>
				<path id="Rectangle_3131" class="st7" d="M22.3,1.2h15.5c1.2,0,2.2,1,2.2,2.2v17.3c0,1.2-1,2.2-2.2,2.2H22.3
					c-1.2,0-2.2-1-2.2-2.2V3.4C20,2.1,21,1.2,22.3,1.2z"/>
				<path id="Rectangle_3132" class="st1" d="M18.5,14H23c0.4,0,0.7,0.3,0.7,0.7v7.6c0,0.4-0.3,0.7-0.7,0.7h-4.6
					c-0.4,0-0.7-0.3-0.7-0.7v-7.6C17.8,14.3,18.1,14,18.5,14z"/>
			</g>
			<g id="Group_1496" transform="translate(102.719 46.285)">
				<path id="Path_23442" class="st6" d="M17.3,0H3C2.4,0,2,0.5,2,1v11.7c0,0.6,0.4,1,1,1h2.2c3.2-4.1,7.9-6.8,13.1-7.6V1
					C18.3,0.5,17.8,0,17.3,0C17.3,0,17.3,0,17.3,0L17.3,0z"/>
				<path id="Path_23443" class="st7" d="M10.4,4.4H0.7C0.3,4.4,0,4.7,0,5v8c0,0.4,0.3,0.7,0.7,0.7h4.5c1.6-2.1,3.6-3.8,5.9-5.1V5
					C11.1,4.7,10.8,4.4,10.4,4.4z"/>
				<path id="Path_23444" class="st10" d="M13.1,7.1H9.8c-0.2,0-0.3,0.1-0.3,0.3v2.2C10.8,8.7,12,8,13.4,7.5V7.4
					C13.4,7.2,13.2,7.1,13.1,7.1L13.1,7.1z"/>
			</g>
			<g id="Group_1497" transform="translate(135.955 40.956)">
				<path id="Path_23445" class="st4" d="M0.9,0h7.9C6.8,3.8,3.7,6.8,0,8.8V0.9C0,0.4,0.4,0,0.9,0z"/>
				<path id="Path_23446" class="st8" d="M3,4.3h2.8c-1,1.1-2.2,2.2-3.4,3.1V4.9C2.4,4.5,2.7,4.3,3,4.3z"/>
			</g>
			<g id="Group_1498" transform="translate(106.527 92.518)">
				<path id="Path_23447" class="st6" d="M24,4.7h0.9V3.1h-0.3c-0.6-0.1-1-0.6-1-1.2c0-0.6,0.4-1.1,1-1.2h1c1.4,0.2,2.7,0.5,4,0.9
					c0,0.1,0,0.2,0,0.3c0,0.6-0.4,1.1-1,1.2h-0.3v1.6h0.9c0.7,0.1,1.1,0.6,1.1,1.3v21.5c0,0.7-0.4,1.2-1.1,1.3H24
					c-0.7-0.1-1.1-0.6-1.1-1.3V6C22.9,5.3,23.3,4.7,24,4.7z"/>
				<path id="Path_23448" class="st11" d="M15.5,7.2h0.8V5.7h-0.3c-0.5-0.1-0.9-0.5-0.9-1c0-0.5,0.3-1,0.9-1h1V0h0.3
					c0.5,0,1,0,1.5,0v3.6h1c0.5,0.1,0.9,0.5,0.9,1c0,0.5-0.3,1-0.9,1h-0.3v1.4h0.8c0.6,0.1,1,0.6,1,1.2v19.2c0,0.6-0.4,1.1-1,1.2
					h-4.7c-0.6-0.1-1-0.6-1-1.2V8.4C14.5,7.8,15,7.3,15.5,7.2z"/>
				<path id="Rectangle_3133" class="st12" d="M1.7,6h11.7c0.9,0,1.7,0.7,1.7,1.7c0,0,0,0,0,0v19.4c0,0.9-0.7,1.7-1.7,1.7H1.7
					C0.7,28.8,0,28,0,27.1V7.7C0,6.7,0.7,6,1.7,6z"/>
				<path id="Rectangle_3134" class="st9" d="M4,11.1h7.1c0.6,0,1.1,0.5,1.1,1.1v3.5c0,0.6-0.5,1.1-1.1,1.1H4
					c-0.6,0-1.1-0.5-1.1-1.1v-3.5C2.9,11.6,3.4,11.1,4,11.1C4,11.1,4,11.1,4,11.1z"/>
				<path id="Rectangle_3135" class="st9" d="M3.8,18.2h7.5c0.5,0,0.9,0.4,0.9,0.9l0,0c0,0.5-0.4,0.9-0.9,0.9H3.8
					c-0.5,0-0.9-0.4-0.9-0.9l0,0C2.9,18.6,3.3,18.2,3.8,18.2z"/>
				<path id="Rectangle_3136" class="st9" d="M3.8,21.8h7.5c0.5,0,0.9,0.4,0.9,0.9v0c0,0.5-0.4,0.9-0.9,0.9H3.8
					c-0.5,0-0.9-0.4-0.9-0.9v0C2.9,22.2,3.3,21.8,3.8,21.8z"/>
				<path id="Rectangle_3137" class="st4" d="M17.4,14.8h7.2c0.6,0,1,0.5,1,1c0,0,0,0,0,0v11.9c0,0.6-0.5,1-1,1l0,0h-7.2
					c-0.6,0-1-0.5-1-1V15.8C16.4,15.2,16.8,14.8,17.4,14.8z"/>
				<path id="Path_23449" class="st0" d="M61,28.7c-0.1,0-0.2,0-0.3,0H33.8c-1.3,0-2.3-1-2.3-2.3V2.2C44.7,6.4,55.5,16.1,61,28.7z"
					/>
				<path id="Rectangle_3138" class="st0" d="M29.1,14.8h7.2c0.6,0,1,0.5,1,1v11.9c0,0.6-0.5,1-1,1h-7.2c-0.6,0-1-0.5-1-1V15.8
					C28,15.2,28.5,14.8,29.1,14.8z"/>
			</g>
			<g id="Group_1499" transform="translate(56.758 150.619)">
				<path id="Rectangle_3139" class="st4" d="M38.1,24.4h6.5c0.8,0,1.5,0.7,1.5,1.5c0,0,0,0,0,0v4.6c0,0.8-0.7,1.5-1.5,1.5l0,0h-6.5
					c-0.8,0-1.5-0.7-1.5-1.5c0,0,0,0,0,0v-4.6C36.7,25,37.3,24.4,38.1,24.4C38.1,24.4,38.1,24.4,38.1,24.4z"/>
				<path id="Rectangle_3140" class="st4" d="M13.1,12.1h19.2c1.2,0,2.2,1,2.2,2.2c0,0,0,0,0,0v15.4c0,1.2-1,2.2-2.2,2.2h0H13.1
					c-1.2,0-2.2-1-2.2-2.2c0,0,0,0,0,0V14.3C10.9,13.1,11.9,12.1,13.1,12.1C13.1,12.1,13.1,12.1,13.1,12.1z"/>
				<path id="Rectangle_3141" class="st13" d="M9.5,18.5h13.1c0.8,0,1.5,0.7,1.5,1.5v10.5c0,0.8-0.7,1.5-1.5,1.5H9.5
					C8.7,32,8,31.3,8,30.5V20C8,19.1,8.7,18.5,9.5,18.5z"/>
				<path id="Rectangle_3142" class="st7" d="M1.6,0h11.1c0.9,0,1.6,0.7,1.6,1.6v28.8c0,0.9-0.7,1.6-1.6,1.6H1.6
					C0.7,32,0,31.3,0,30.4V1.6C0,0.7,0.7,0,1.6,0z"/>
			</g>
			<g id="Group_1500" transform="translate(110.84 149.427)">
				<path id="Path_23450" class="st11" d="M35.9,11h-0.8V9.5h0.3c0.5-0.1,0.9-0.5,0.9-1.1c0-0.5-0.4-1-0.9-1.1h-1V1.1
					c0-0.5-0.4-1-0.9-1.1c-0.5,0.1-0.9,0.5-0.9,1.1v6.3h-1c-0.5,0.1-0.9,0.5-0.9,1.1c0,0.5,0.4,1,0.9,1.1h0.3V11h-0.8
					c-0.6,0.1-1,0.6-1,1.2V32c0,0.6,0.4,1.1,1,1.2h3.7c0.7-0.4,1.4-0.8,2.2-1.2V12.2C37,11.6,36.5,11,35.9,11L35.9,11z"/>
				<path id="Path_23451" class="st11" d="M43.7,13.3H43V12h0.2c0.5,0,0.8-0.5,0.8-1c0-0.5-0.3-0.9-0.8-1h-0.9V4.4
					c0-0.5-0.3-0.9-0.8-1c-0.5,0-0.8,0.5-0.8,1v5.6h-0.9c-0.5,0-0.8,0.5-0.8,1c0,0.5,0.3,0.9,0.8,1h0.2v1.3h-0.7
					c-0.5,0.1-0.9,0.5-0.9,1.1V31c2.2-1.4,4.2-2.9,6.1-4.6v-12C44.6,13.8,44.2,13.4,43.7,13.3z"/>
				<path id="Path_23452" class="st12" d="M55.5,12.2H45.1c-0.6,0-1,0.5-1,1v13.6C48.8,22.7,52.7,17.8,55.5,12.2z"/>
				<path id="Path_23453" class="st9" d="M52.8,16.9h-5.4c-0.4,0-0.7,0.3-0.7,0.7v4c0,0.4,0.3,0.7,0.7,0.7h1.3
					C50.2,20.5,51.6,18.8,52.8,16.9z"/>
				<path id="Path_23454" class="st9" d="M47.6,23.4h-0.3c-0.3,0-0.6,0.3-0.6,0.6v0.3C47.1,24,47.3,23.7,47.6,23.4z"/>
				<path id="Path_23455" class="st4" d="M42.3,20.3H35c-0.3,0-0.6,0.3-0.6,0.6v11.6c0,0.3,0.2,0.5,0.4,0.6c2.9-1.5,5.6-3.3,8.1-5.3
					v-6.9C43,20.6,42.7,20.3,42.3,20.3z"/>
				<path id="Rectangle_3143" class="st4" d="M3.2,1.7h22.5c1.8,0,3.2,1.4,3.2,3.2v25.1c0,1.8-1.4,3.2-3.2,3.2H3.2
					c-1.8,0-3.2-1.4-3.2-3.2V4.9C0,3.1,1.4,1.7,3.2,1.7z"/>
				<path id="Rectangle_3144" class="st12" d="M24.6,20.3h6.6c0.5,0,0.9,0.4,0.9,0.9v11c0,0.5-0.4,0.9-0.9,0.9l0,0h-6.6
					c-0.5,0-0.9-0.4-0.9-0.9c0,0,0,0,0,0v-11C23.7,20.7,24.1,20.3,24.6,20.3C24.6,20.3,24.6,20.3,24.6,20.3z"/>
			</g>
			<g id="Group_1501" transform="translate(14.032 162.763)">
				<path id="Rectangle_3145" class="st4" d="M1.5,12.2H8c0.8,0,1.5,0.7,1.5,1.5c0,0,0,0,0,0v4.6c0,0.8-0.7,1.5-1.5,1.5l0,0H1.5
					c-0.8,0-1.5-0.7-1.5-1.5c0,0,0,0,0,0v-4.6C0,12.9,0.7,12.2,1.5,12.2C1.5,12.2,1.5,12.2,1.5,12.2z"/>
				<path id="Rectangle_3146" class="st4" d="M13.8,0h19.2c1.2,0,2.2,1,2.2,2.2c0,0,0,0,0,0v15.4c0,1.2-1,2.2-2.2,2.2l0,0H13.8
					c-1.2,0-2.2-1-2.2-2.2c0,0,0,0,0,0V2.2C11.6,1,12.6,0,13.8,0C13.8,0,13.8,0,13.8,0z"/>
				<path id="Rectangle_3147" class="st13" d="M23.5,6.3h13.1c0.8,0,1.5,0.7,1.5,1.5v10.5c0,0.8-0.7,1.5-1.5,1.5H23.5
					c-0.8,0-1.5-0.7-1.5-1.5V7.8C22,7,22.7,6.3,23.5,6.3z"/>
				<path id="Rectangle_3148" class="st10" d="M19.4,10.3h4.3c0.3,0,0.6,0.3,0.6,0.6c0,0,0,0,0,0v8.3c0,0.3-0.3,0.6-0.6,0.6h0h-4.3
					c-0.3,0-0.6-0.3-0.6-0.6c0,0,0,0,0,0v-8.3C18.8,10.6,19.1,10.3,19.4,10.3z"/>
			</g>
		</g>
		<g id="Group_1503" transform="translate(283.415 151.405)">
			<path id="Path_23456" class="st14" d="M19.6,1.1h17.6c5.4,6.3,9.1,13.8,10.8,22c-0.6,0.4-1.3,0.5-2.1,0.5H19.6
				c-2.4,0-4.3-1.9-4.3-4.3v-14C15.3,3,17.2,1.1,19.6,1.1z"/>
			<path id="Rectangle_3149" class="st15" d="M6.5,1.1h21.8c3.6,0,6.5,2.9,6.5,6.5v9.5c0,3.6-2.9,6.5-6.5,6.5c0,0,0,0,0,0H6.5
				c-3.6,0-6.5-2.9-6.5-6.5c0,0,0,0,0,0V7.5C0,4,2.9,1.1,6.5,1.1z"/>
			<path id="Rectangle_3150" class="st14" d="M6.2,0h3.4c0.9,0,1.6,0.7,1.6,1.6v1.6c0,0.9-0.7,1.6-1.6,1.6H6.2
				c-0.9,0-1.6-0.7-1.6-1.6c0,0,0,0,0,0V1.6C4.6,0.7,5.3,0,6.2,0z"/>
			<path id="Rectangle_3151" class="st15" d="M6.2,0h2.4c0.9,0,1.6,0.7,1.6,1.6v1.6c0,0.9-0.7,1.6-1.6,1.6H6.2
				c-0.9,0-1.6-0.7-1.6-1.6c0,0,0,0,0,0V1.6C4.6,0.7,5.3,0,6.2,0z"/>
			<path id="Path_23457" class="st16" d="M6.3,2.1c0.2,0,0.4,0.2,0.4,0.4v1.8H8V2.4c0-0.2,0.2-0.4,0.4-0.4c0.2,0,0.4,0.2,0.4,0.4
				v4.7c0,0.4-0.3,0.6-0.6,0.6H6.5c-0.4,0-0.6-0.3-0.6-0.6V2.4C5.9,2.2,6,2.1,6.3,2.1z"/>
			<path id="Rectangle_3152" class="st14" d="M24.9,0h3.4c0.9,0,1.6,0.7,1.6,1.6v1.6c0,0.9-0.7,1.6-1.6,1.6h-3.4
				c-0.9,0-1.6-0.7-1.6-1.6c0,0,0,0,0,0V1.6C23.3,0.7,24,0,24.9,0z"/>
			<path id="Rectangle_3153" class="st15" d="M24.9,0h2.4c0.9,0,1.6,0.7,1.6,1.6v1.6c0,0.9-0.7,1.6-1.6,1.6h-2.4
				c-0.9,0-1.6-0.7-1.6-1.6V1.6C23.3,0.7,24,0,24.9,0z"/>
			<path id="Path_23458" class="st17" d="M24.9,2.1c0.2,0,0.4,0.2,0.4,0.4v1.8h1.4V2.4c0-0.2,0.2-0.4,0.4-0.4c0.2,0,0.4,0.2,0.4,0.4
				v4.7c0,0.4-0.3,0.6-0.6,0.6h-1.7c-0.4,0-0.6-0.3-0.6-0.6V2.4C24.5,2.2,24.7,2.1,24.9,2.1z"/>
			<path id="Path_23459" class="st14" d="M3.3,9.5h28.2c0.4,0,0.8,0.3,0.8,0.8c0,0.4-0.3,0.8-0.8,0.8H3.3c-0.4,0-0.8-0.3-0.8-0.8
				C2.6,9.8,2.9,9.5,3.3,9.5z"/>
			<path id="Path_23460" class="st14" d="M3.3,12.8h28.2c0.4,0,0.8,0.3,0.8,0.8c0,0.4-0.3,0.8-0.8,0.8H3.3c-0.4,0-0.8-0.3-0.8-0.8
				C2.6,13.1,2.9,12.8,3.3,12.8z"/>
			<path id="Rectangle_3154" class="st14" d="M3.3,16h28.2c0.4,0,0.8,0.3,0.8,0.8l0,0c0,0.4-0.3,0.8-0.8,0.8H3.3
				c-0.4,0-0.8-0.3-0.8-0.8l0,0C2.6,16.3,2.9,16,3.3,16z"/>
			<path id="Rectangle_3155" class="st14" d="M3.3,19.3h28.2c0.4,0,0.8,0.3,0.8,0.8l0,0c0,0.4-0.3,0.8-0.8,0.8H3.3
				c-0.4,0-0.8-0.3-0.8-0.8l0,0C2.6,19.6,2.9,19.3,3.3,19.3z"/>
		</g>
		<g id="Group_1504" transform="translate(275.608 173.308)">
			<path id="Rectangle_3156" class="st14" d="M8.4,1.4h28.3c4.6,0,8.4,3.8,8.4,8.4v12.3c0,4.6-3.8,8.4-8.4,8.4H8.4
				c-4.6,0-8.4-3.8-8.4-8.4c0,0,0,0,0,0V9.8C0,5.1,3.8,1.4,8.4,1.4z"/>
			<path id="Path_23461" class="st15" d="M55.8,1.4H25.4c-3,0-5.5,2.5-5.5,5.5V25c0,3,2.5,5.5,5.5,5.5h26.7c3-6.3,4.5-13.2,4.5-20.2
				C56.6,7.3,56.3,4.3,55.8,1.4z"/>
			<path id="Path_23462" class="st14" d="M55.5,0h-3.7c-0.7,0-1.4,0.6-1.4,1.4v3.5c0,0.7,0.6,1.4,1.4,1.4h4.6
				C56.3,4.1,55.9,2.1,55.5,0L55.5,0z"/>
			<path id="Path_23463" class="st15" d="M55.5,0H53c-0.8,0-1.4,0.6-1.4,1.4v3.5c0,0.8,0.6,1.4,1.4,1.4h3.4
				C56.3,4.1,55.9,2.1,55.5,0L55.5,0z"/>
			<path id="Path_23464" class="st16" d="M56.4,5.3v0.2h-1.8V3.2c0-0.3-0.2-0.5-0.5-0.5s-0.5,0.2-0.5,0.5v6.1c0,0.5,0.4,0.8,0.8,0.8
				h2.1c0,0,0.1,0,0.1,0C56.6,8.5,56.5,6.9,56.4,5.3z"/>
			<path id="Rectangle_3157" class="st14" d="M28.4,0h4.4c1.1,0,2.1,0.9,2.1,2.1c0,0,0,0,0,0v2.1c0,1.1-0.9,2.1-2.1,2.1h-4.4
				c-1.1,0-2.1-0.9-2.1-2.1c0,0,0,0,0,0V2.1C26.3,0.9,27.2,0,28.4,0z"/>
			<path id="Rectangle_3158" class="st15" d="M29.6,0h3.2c1.1,0,2.1,0.9,2.1,2.1l0,0v2.1c0,1.1-0.9,2.1-2.1,2.1h-3.2
				c-1.1,0-2.1-0.9-2.1-2.1c0,0,0,0,0,0V2.1C27.5,0.9,28.4,0,29.6,0z"/>
			<path id="Path_23465" class="st16" d="M32.7,2.7c-0.3,0-0.5,0.2-0.5,0.5v2.3h-1.8V3.2c0-0.3-0.2-0.5-0.5-0.5s-0.5,0.2-0.5,0.5
				v6.1c0,0.5,0.4,0.8,0.8,0.8h2.1c0.5,0,0.8-0.4,0.8-0.8V3.2C33.2,2.9,33,2.7,32.7,2.7L32.7,2.7z"/>
			<path id="Path_23466" class="st14" d="M56.6,12.3H24.1c-0.6,0-1,0.4-1,1s0.4,1,1,1h32.3C56.5,13.7,56.5,13,56.6,12.3z"/>
			<path id="Path_23467" class="st14" d="M56.2,16.5H24.1c-0.6,0-1,0.4-1,1s0.4,1,1,1h31.8C56,17.9,56.1,17.2,56.2,16.5z"/>
			<path id="Path_23468" class="st14" d="M55.4,20.7H24.1c-0.6,0-1,0.4-1,1s0.4,1,1,1h30.8C55.1,22.1,55.3,21.4,55.4,20.7z"/>
			<path id="Path_23469" class="st14" d="M54.3,25H24.1c-0.6,0-1,0.4-1,1s0.4,1,1,1h29.4C53.8,26.3,54.1,25.6,54.3,25z"/>
		</g>
		<path id="Path_23470" class="st18" d="M213.5,193.6c-1.5,5.2-2.5,10.5-3.2,15.8h47c0.2-6.1-0.3-10.9-2-13.1
			C248.4,187.4,218.4,188,213.5,193.6z"/>
		<path id="Path_23471" class="st19" d="M218.4,172.7c0.1,3,0,5.9-0.3,8.9c3.1-1.4,6.7,1,6.5,3.6c-0.2,3.4,0.2,5.6-4.1,12.2
			c-2,3.1-3.8,4-5.2,4.1c1.8,1.5,3.9,2.6,6.2,3.3c0,0,0.3,0.2,0.8-0.6s2.5-8.6,3.9-10.5c0.4-0.6,0.1-6-0.6-13c7,2.3,18.6,1.8,23.9,0
			c0.3-0.4,0.5-0.9,0.7-1.5c-0.2-0.4-3.9-5.9-8.4-12.2c-3.9,6.1-7.3,11.3-7.3,11.3L218.4,172.7z"/>
		<path id="Path_23472" class="st3" d="M250.4,176.6c-0.1-0.5-0.3-1.1-0.3-1.6c-0.1-0.7-0.1-1.3-0.1-2c-0.6-6.1,0.4-12.3,2.8-18
			c4.2-10.7,10.5-28.3,10.5-28.3c-0.3-0.3-0.5-0.5-0.8-0.8c-0.7-0.8-1.6-1.4-2.5-1.8c-1.9-1.1-4-1.8-6.2-2.1l0,0l-0.1,0
			c-4.7-0.8-10.5-0.7-18.1-1.6c-0.5,0-0.8,0.1-1.2,0.1c-5.4,0.1-20.3,18.7-18,28.3c0.9,4,1.4,8.1,1.7,12.2c0.5,7.2,0.8,19.8,0,21.5
			s-10,19.4-10.5,20.6c-2.1,5.3,35.6,7.3,47.9-3.5c-0.6-4.5-1.4-9-2.6-13.4C251.7,183,250.9,179.8,250.4,176.6L250.4,176.6z"/>
		<path id="Path_23473" class="st20" d="M250.4,176.6c-0.3-1.2-0.5-2.4-0.5-3.6c-0.6-6.1,0.4-12.3,2.8-18
			c4.2-10.7,10.5-28.3,10.5-28.3c-0.3-0.3-0.5-0.5-0.8-0.8c-0.7-0.8-1.6-1.4-2.5-1.8c-1.9-1.1-4-1.8-6.2-2.1l0,0l-0.1,0
			c-1.2-0.2-2.6-1-3.9-1.1c-1.9-0.2-3.7,0.4-5.9,0.3c0,0,12.6,9.6-0.3,33.8c-6.2,11.7-0.5,19.2,7.2,23.4
			C250.5,177.6,250.4,177.1,250.4,176.6L250.4,176.6z"/>
		<path id="Path_23474" class="st21" d="M249.2,105l-0.3,4.1l-0.3,9.7c0.1,0.7,0.5,1.4,1.2,1.7c0.8,0.6-2.9,2.4-1.5,2.7
			c0,0-6.2,0-10.3-0.1c-2.6,0-3.9,2.4-3.4-3c0,0,0.1,0,0.1,0c0.9-0.4,0.5,0,1.3-0.7c0.1-0.1,0.2-0.2,0.4-0.3
			c1.5-1.5,1.6-8.3,0.3-10.2C235.3,107,249.2,105,249.2,105z"/>
		<path id="Path_23475" class="st22" d="M201,135.9l-3.5-0.6c0,0-2.6,4.4,1.8,12.7c0,0,1.9-2.6,2.1-4.1S201,135.9,201,135.9z"/>
		
			<ellipse id="Ellipse_75" transform="matrix(0.2756 -0.9613 0.9613 0.2756 -22.8869 235.0477)" class="st23" cx="144.5" cy="132.7" rx="1" ry="1.2"/>
		
			<ellipse id="Ellipse_76" transform="matrix(0.2756 -0.9613 0.9613 0.2756 -25.5337 235.535)" class="st23" cx="143.5" cy="134.7" rx="1" ry="1.2"/>
		
			<ellipse id="Ellipse_77" transform="matrix(0.2756 -0.9613 0.9613 0.2756 -28.1807 236.0227)" class="st23" cx="142.5" cy="136.7" rx="1" ry="1.2"/>
		<path id="Path_23531" class="st23" d="M198.8,135l-12,3.4c0,0-20.2,2.7-32.8-1.5c-0.2-0.1-2.5-3.4-2.5-3.4s-2.5-2.8-2.5,0
			c0.2,0.8-4.2-2.5-4-1.1s2.6,2.6,2.6,2.6s-3.2-2.5-4.3,0s-0.9,2.6,0,4.2s6.4,1.8,6.4,1.8l5.3,2.4c0,0,25.1,7.2,35.8,4.3
			c0.2-0.2,5.5-1.4,9.4-3.2S198.8,135,198.8,135z"/>
		<path id="Path_23478" class="st3" d="M230.6,122.1l-1.2-0.6c-10.9,4-21.6,8.6-32,13.8c1.1,1.3,3.9,8.6,1.8,12.7l13.4-1.5
			L230.6,122.1z"/>
		<path id="Path_23479" class="st20" d="M230.6,122.1l-1.2-0.6h0l0,0h0l0,0l0,0l0,0l0,0l0,0l0,0l0,0h0l0,0l-0.1,0l-0.1,0l-0.1,0h0
			l-0.1,0l-0.1,0l0,0l-0.1,0l-0.1,0l0,0l-0.1,0l0,0l-0.1,0l-0.1,0l0,0l-0.1,0l-0.1,0h0l-0.1,0l-0.1,0h0l-0.1,0l-0.1,0l0,0l-0.1,0.1
			l-0.1,0l-0.1,0l-0.1,0.1l-0.1,0l-0.1,0l-0.2,0.1l-0.1,0l-0.1,0l-0.2,0.1l0,0l-0.1,0.1l-0.2,0.1l-0.2,0.1l-0.2,0.1l0,0l-0.2,0.1
			l-0.1,0.1l-0.1,0l-0.2,0.1l-0.1,0l-0.1,0l0,0l-0.4,0.2l-0.2,0.1l0,0l-0.2,0.1l-0.2,0.1h0l-0.2,0.1l-0.2,0.1l0,0l-0.2,0.1l-0.2,0.1
			l-0.1,0l-0.3,0.1l-0.1,0.1l-0.1,0l-0.3,0.1l-0.1,0l-0.2,0.1l-0.3,0.1l-0.2,0.1l-0.1,0l-0.3,0.1l0,0l-0.3,0.1l-0.3,0.1l0,0
			l-0.3,0.1l-0.2,0.1l-0.1,0l-0.3,0.1l-0.2,0.1l-0.1,0l-0.3,0.1c-1.2,3.7-3.1,7.2-5.6,10.2c-3.3,4.3-9.1,5.8-14.1,3.9
			c0.8,2.7,1.2,6.1,0,8.4l22.5-2.6L230.6,122.1z"/>
		<path id="Path_23480" class="st22" d="M274.3,157.9l1.2,0.6c0,0-0.1,1.4-3.9,3.9c-2.1,1.5-4.3,2.7-6.7,3.6l-0.1-3L274.3,157.9z"/>
		<path id="Path_23481" class="st24" d="M233.4,120.4c-13.1,13.1,4.8,20.1,13.1,9.6c5.2-6.6,7.6-8,7.6-8c0.2-0.1,0.4-0.2,0.5-0.1
			c0.4,0.1,3.3,1.1,3.6,1.2s0.4,0.3,0.4,0.3s-16.3,12.7-3.9,28.2c0,0-10,13-0.2,34.3c0,0,7.9,16.9,3.7,20.7
			c-4.1,3.9-52.6-2.5-52.6-2.5s7.7-14.6,9.5-18.1c1.8-3.6,3.2-7.3,2.6-16.7s-2.4-20-2-26c0.4-6,12.4-20.3,13-21.3
			S232.8,120.2,233.4,120.4z"/>
		<path id="Path_23482" class="st25" d="M250.1,140.6c0.4,4,2,7.9,4.6,11c0,0-10,13-0.2,34.3c0,0,6.9,14.2,5,20.1
			c-1.9,5.8-6.1-1-9.1-1c-0.4-17.8-3-52.9-33.3-43.6c-0.5-4.3-1-8.5-1.2-12.1C227.3,153.7,248.4,158.2,250.1,140.6z"/>
		<path id="Path_23483" class="st23" d="M263.7,127.4c1.6,2.7,15.5,41.4,14.1,49.2s-12.3,21.8-17.9,25.7c0,0-0.6,0.4-1-0.5
			c-0.4-0.9-1.6-0.7-2.9-1.5c5.9-10.2,8.9-13.8,12.6-25.1c2-6.2-11.1-22.7-13.4-26.7C249.6,139.1,260.3,121.5,263.7,127.4z"/>
		<path id="Path_23484" class="st23" d="M248.6,203.2c-0.1-2.4,1.8-4.3,4.2-4.4l4.1-0.1c2.4-0.1,4.3,1.8,4.4,4.2v0.3L248.6,203.2z"
			/>
		<g id="Group_1507" transform="translate(225.923 65.337)">
			<path id="Path_23485" class="st16" d="M46.1,8.9c5,1.4,8,6.6,6.6,11.6c-1.4,5-6.6,8-11.6,6.6s-8-6.6-6.6-11.6c0,0,0,0,0,0
				C35.8,10.4,41.1,7.5,46.1,8.9z"/>
			<path id="Path_23486" class="st16" d="M31,4.7c0,0,7.2-3.1,11,4.3c3.8,7,4.7,15.3,2.4,23c-0.4,1.3-5.6,16.4-19.2,14.8
				C11,44.9,4.5,33.1,4.5,33.1C-10.2,22.4,14.7-12.5,31,4.7z"/>
			<path id="Path_23487" class="st14" d="M44.6,15.5c1.5,5.4,1.4,11-0.2,16.4c-0.3,1.1-5.5,16.5-19.2,14.8
				c1.7-8.9,3.2-15.3,3.2-15.3l-14.2-8.2l0.5-12C33.9,36.3,44.6,15.5,44.6,15.5z"/>
			<path id="Path_23488" class="st14" d="M4.8,33.7C8.5,27.3,29.2,33,29.2,33l4.3-3.1c0,0,7.6,1.9,4.9,12c-3.4,3.6-8.2,5.4-13.1,4.7
				C13,45.2,6.4,36.2,4.8,33.7L4.8,33.7z"/>
			<path id="Path_23489" class="st21" d="M35.8,31c2.4,0.3,4,2.5,3.7,4.9c-0.3,2.4-2.5,4-4.9,3.7c-2.4-0.3-4-2.5-3.7-4.9
				C31.3,32.3,33.4,30.7,35.8,31C35.8,31,35.8,31,35.8,31z"/>
			<path id="Path_23490" class="st23" d="M23.2,7c8.1,1.2,13.8,8.7,12.7,16.8l-1.9,13.4c-1.2,8.1-8.7,13.8-16.8,12.7
				C9,48.7,3.3,41.2,4.5,33.1l1.9-13.4C7.5,11.6,15,5.9,23.2,7L23.2,7z"/>
			<path id="Path_23491" class="st26" d="M35.3,17.3c0.7,2.1,0.9,4.3,0.5,6.5l-1.9,13.4c-1.2,8.1-8.7,13.8-16.8,12.7
				c-0.5-0.1-1-0.2-1.4-0.3c16.1-0.4,19.4-18.8,12.8-20.6c-8.2-2.1-14.8-9.8-14.8-9.8c-1.6,2.2-5.3,3.3-7.9,3.9l0.5-3.5
				c1-7.2,7.1-12.6,14.4-12.8c2.4,0.6,4.5,1.4,5.5,1.5c2.8,0.4,6.3,5.5,8.5,8.3C34.9,16.9,35.1,17.1,35.3,17.3L35.3,17.3z"/>
			<path id="Path_23492" class="st3" d="M19.6,39.9c-0.3,1.9-2.2,3.2-4.1,2.9c-0.1,0-0.2,0-0.4-0.1c-2.1-0.4-3.6-1.7-3.3-3.9h0
				c0.1-0.4,0.4-0.6,0.8-0.6c0,0,2.5,4,6.3,1.2C19.2,39.5,19.4,39,19.6,39.9L19.6,39.9z"/>
			<g id="Group_1505" transform="translate(5.537 34.061)">
				<path id="Path_23493" class="st21" d="M2.5,0c1.2,0.2,2,1.3,1.8,2.4C4.1,3.6,3,4.5,1.9,4.3C0.7,4.1-0.1,3,0,1.9
					C0.2,0.7,1.3-0.1,2.5,0z"/>
				<path id="Path_23494" class="st21" d="M20.8,2.6c1.2,0.2,2,1.3,1.8,2.4c-0.2,1.2-1.3,2-2.4,1.8c-1.2-0.2-2-1.3-1.8-2.4v0
					C18.5,3.3,19.6,2.4,20.8,2.6C20.8,2.6,20.8,2.6,20.8,2.6z"/>
			</g>
			<path id="Path_23495" class="st14" d="M36.7,31.2l-3-1.8c0,0-2.2,3.6,0.5,5.3l0.3-1.8c0-1,0.9-1.8,1.9-1.8
				C36.5,31.2,36.6,31.2,36.7,31.2z"/>
			<path id="Path_23496" class="st16" d="M14.8,11.1c0,0,0,11.3,21.1,19.9l2-16L27.8,5.6L16.7,5.5c0,0-6.3,5.3-7,6.1
				s-5.6,8.3-5.6,8.3L6,21.9C6,21.9,11,20.5,14.8,11.1z"/>
			<path id="Path_23497" class="st14" d="M14.8,11.1c0,0,0,11.3,21.1,19.9l1-8.3C31.8,24.8,24.3,23.7,14.8,11.1z"/>
			<path id="Path_23498" class="st15" d="M43.5,12.3L43.5,12.3L43.5,12.3c0.2,0.5,0.3,0.9,0.5,1.4C31.5,25.6,19.5,15.8,13.8,1.9
				c1.9-1.1,4.1-1.7,6.3-1.9C22.6,13.9,35.5,20.5,43.5,12.3L43.5,12.3z"/>
			<g id="Group_1506" transform="translate(7.416 28.936)">
				<circle id="Ellipse_73" class="st27" cx="1.7" cy="2.3" r="2"/>
				<circle id="Ellipse_74" class="st27" cx="17.7" cy="4.3" r="2"/>
			</g>
			<path id="Path_23501" class="st14" d="M31.3,33.1l4.6,0.6c0.4,0,0.7-0.3,0.7-0.7c0-0.3-0.2-0.6-0.5-0.7l-4.6-0.6l0.1-0.5
				c0.2-0.9-0.3-1.9-1.3-2.1c-0.1,0-0.3,0-0.4-0.1l-8.5-1.2c-0.9-0.2-1.9,0.3-2.1,1.2c0,0.1-0.1,0.3-0.1,0.4l0,0.3l-0.1,0.4
				l-3.6-0.5l0.1-0.4l0-0.3c0.3-0.9-0.3-1.9-1.2-2.1c-0.1,0-0.3-0.1-0.4-0.1l-7.6-1.1c-0.9-0.2-1.9,0.3-2.1,1.2
				c0,0.1-0.1,0.3-0.1,0.4l-0.9,6.2c-0.2,1.3,0.7,2.6,2,2.8c0.1,0,0.1,0,0.2,0l0.1,0L10,37c3.7,0.5,4.8-3,5.3-6l3.6,0.5
				c-0.3,3-0.2,6.7,3.5,7.2l1.3,0.2l4,0.6l0.1,0c1.3,0.3,2.6-0.6,2.9-1.9c0-0.1,0-0.1,0-0.2L31.3,33.1L31.3,33.1z M27.9,38.1
				l-5.3-0.8c-3.1-0.4-2.4-4.8-2.1-7.4l0-0.3c0,0,0-0.1,0-0.1c0,0,0-0.4,0.6-0.4l8.5,1.2c0.5,0.1,0.5,0.4,0.5,0.5c0,0,0,0.1,0,0.1
				L30,32.2l-0.7,5c-0.1,0.6-0.7,1-1.3,0.9C28,38.1,28,38.1,27.9,38.1L27.9,38.1L27.9,38.1z M5.7,34.9c-0.6,0-1.1-0.6-1-1.2
				c0,0,0,0,0-0.1l0.9-6.2c0,0,0-0.1,0-0.1c0-0.1,0.1-0.4,0.6-0.3l7.6,1.1c0.6,0.1,0.5,0.5,0.5,0.5c0,0,0,0.1,0,0.1l0,0.3
				c-0.4,2.6-1,7-4,6.5L5.7,34.9L5.7,34.9z"/>
		</g>
		<g id="Group_1508" transform="translate(154.999 156.231)">
			<path id="Rectangle_3159" class="st14" d="M11.9,5.5h2.4v9.6h-2.4V5.5z"/>
			<path id="Rectangle_3160" class="st14" d="M6.3,0h13.5c1.2,0,2.2,1,2.2,2.2v3.1c0,1.2-1,2.2-2.2,2.2H6.3c-1.2,0-2.2-1-2.2-2.2
				V2.2C4.1,1,5.1,0,6.3,0z"/>
			<path id="Rectangle_3161" class="st3" d="M5.7,1.1h14.7c0.3,0,0.6,0.3,0.6,0.6v4.2c0,0.3-0.3,0.6-0.6,0.6H5.7
				c-0.3,0-0.6-0.3-0.6-0.6V1.7C5.2,1.3,5.4,1.1,5.7,1.1z"/>
			<path id="Rectangle_3162" class="st15" d="M13.1,13.5h15c2.7,0,4.9,2.2,4.9,4.9v21.9c0,2.7-2.2,4.9-4.9,4.9l0,0h-15
				c-2.7,0-4.8-2.2-4.8-4.8c0,0,0,0,0,0V18.4C8.3,15.7,10.5,13.5,13.1,13.5z"/>
			<path id="Path_23502" class="st16" d="M41.3,29.5v16.2c0,2.2-1.8,4.1-4.1,4.1H4.1c-2.2,0-4.1-1.8-4.1-4.1V29.5
				c0-1,0.8-1.8,1.8-1.8h37.7C40.5,27.7,41.3,28.5,41.3,29.5L41.3,29.5z"/>
			<path id="Path_23503" class="st16" d="M36.9,24.9v16.2c0,2.2-1.8,4.1-4.1,4.1H8.5c-2.2,0-4.1-1.8-4.1-4.1V24.9
				c0-1,0.8-1.8,1.8-1.8H35C36,23.1,36.9,23.9,36.9,24.9z"/>
			<path id="Path_23504" class="st15" d="M4.5,38.9v-14c0-1,0.8-1.8,1.8-1.8H33v11.8c0,2.2-1.8,4.1-4.1,4.1H4.7
				C4.6,38.9,4.5,38.9,4.5,38.9z"/>
			<path id="Path_23505" class="st16" d="M29,13.5V17c0,1.8-1.4,3.2-3.2,3.2H8.3v2.9H33v-6.4c0-1.8-1.4-3.2-3.2-3.2L29,13.5L29,13.5
				z"/>
			<path id="Path_23506" class="st14" d="M3.1,27.7V39c0,1-0.8,1.8-1.8,1.8H0v1.6h4.7c-0.1-0.4-0.2-0.9-0.2-1.3V27.7H3.1z"/>
			<path id="Path_23507" class="st14" d="M38.2,27.7V39c0,1,0.8,1.8,1.8,1.8h1.3v1.6h-4.7c0.1-0.4,0.2-0.9,0.2-1.3V27.7H38.2z"/>
			<path id="Path_23508" class="st16" d="M6.7,24.9h13.7c0.5,0,0.8,0.4,0.8,0.8c0,0.5-0.4,0.8-0.8,0.8H6.7c-0.5,0-0.8-0.4-0.8-0.8
				C5.9,25.2,6.3,24.9,6.7,24.9z"/>
			<path id="Path_23509" class="st3" d="M24,24.9h-0.7c-0.5,0-0.8,0.4-0.8,0.8c0,0.5,0.4,0.8,0.8,0.8H24c0.5,0,0.8-0.4,0.8-0.8
				C24.8,25.2,24.5,24.9,24,24.9z"/>
			<path id="Rectangle_3163" class="st3" d="M7.6,29h4.5c0.8,0,1.5,0.7,1.5,1.5v5c0,0.8-0.7,1.5-1.5,1.5c0,0,0,0,0,0H7.6
				c-0.8,0-1.5-0.7-1.5-1.5c0,0,0,0,0,0v-5C6.1,29.6,6.8,29,7.6,29z"/>
			<path id="Path_23510" class="st16" d="M15.5,29h14.6c0.2,0,0.4,0.2,0.4,0.4c0,0.2-0.2,0.4-0.4,0.4H15.5c-0.2,0-0.4-0.2-0.4-0.4
				C15.1,29.1,15.3,29,15.5,29z"/>
			<path id="Path_23511" class="st16" d="M15.5,31.3h14.6c0.2,0,0.4,0.2,0.4,0.4c0,0.2-0.2,0.4-0.4,0.4H15.5c-0.2,0-0.4-0.2-0.4-0.4
				C15.1,31.5,15.3,31.3,15.5,31.3z"/>
			<path id="Path_23512" class="st16" d="M15.5,33.7h14.6c0.2,0,0.4,0.2,0.4,0.4c0,0.2-0.2,0.4-0.4,0.4H15.5c-0.2,0-0.4-0.2-0.4-0.4
				C15.1,33.9,15.3,33.7,15.5,33.7z"/>
			<path id="Rectangle_3164" class="st16" d="M15.5,36.1h14.6c0.2,0,0.4,0.2,0.4,0.4c0,0.2-0.2,0.4-0.4,0.4H15.5
				c-0.2,0-0.4-0.2-0.4-0.4c0,0,0,0,0,0C15.1,36.3,15.3,36.1,15.5,36.1C15.5,36.1,15.5,36.1,15.5,36.1z"/>
		</g>
		<g id="Group_1509" transform="translate(126.125 204.572)">
			<path id="Path_23513" class="st21" d="M31.9,11.3h177.4C200.4,23.7,186,31,170.7,31H31.9c-1.6,0-2.8-1.3-2.9-2.9v-14
				C29.1,12.6,30.3,11.3,31.9,11.3z"/>
			<path id="Path_23514" class="st26" d="M71.3,31h6.1V16.4h-6.1C71.3,16.4,71.3,31,71.3,31z M170.7,31c2.4,0,4.7-0.2,7.1-0.5V16.4
				H170V31L170.7,31z M121.5,31h44.6V16.4h-44.6C121.5,16.4,121.5,31,121.5,31z M101.2,31h7.8V16.4h-7.8L101.2,31L101.2,31z
				 M88.4,31H93V16.4h-4.6L88.4,31z"/>
			<path id="Path_23515" class="st14" d="M31.9,11.3h177.4c-2.4,3.3-5.2,6.3-8.3,8.9H29.1v-6C29.1,12.6,30.3,11.3,31.9,11.3z"/>
			<path id="Path_23516" class="st28" d="M2.5,0h212.9c-2.4,6.3-6,12-10.7,16.8H2.5c-1.4,0-2.5-1.1-2.5-2.5V2.5C0,1.1,1.1,0,2.5,0
				L2.5,0z"/>
			<path id="Path_23517" class="st29" d="M150.2,0h6.5v16.8h-6.5V0z M16.5,0h11v16.8h-11C16.5,16.8,16.5,0,16.5,0z M33,0h87.5v16.8
				H33C33,16.8,33,0,33,0z M127.7,0h11v16.8h-11V0z"/>
			<path id="Path_23518" class="st14" d="M33.5,24.5c0.8,0,1.4,0.6,1.4,1.4c0,0.8-0.6,1.4-1.4,1.4c-0.8,0-1.4-0.6-1.4-1.4
				C32.2,25.1,32.8,24.5,33.5,24.5L33.5,24.5z"/>
			<path id="Path_23519" class="st3" d="M213.4,4.6h-46.3l-5.2,3c-0.1,0-0.1,0.1-0.2,0.1H0V6.8h161.5l5.2-3c0.1-0.1,0.2-0.1,0.3-0.1
				h46.9C213.7,4,213.5,4.3,213.4,4.6L213.4,4.6z"/>
		</g>
		<path id="Path_23520" class="st3" d="M260.2,125.5l1.6-0.1c1.1,0.7,1.9,1.6,2.5,2.7c0.5,1.4,7.6,18.7,11.1,30.5
			c0,0-8.6,1.1-10.6,7.6c0,0-11.2-15.1-11.8-17.6C251.3,140.1,254,131.4,260.2,125.5L260.2,125.5z"/>
		<path id="Path_23521" class="st20" d="M260.2,125.5l1.6-0.1c0.6,0.4,1.1,0.8,1.6,1.3c-11.3,4-4.6,23.7-0.5,29.7
			c1.4,2.2,3.5,3.8,6,4.6c-1.9,1.2-3.3,3-4,5.1c0,0-11.2-15.1-11.8-17.6C251.3,140.1,254,131.4,260.2,125.5z"/>
		<path id="Path_23522" class="st16" d="M200.5,133.8c1.7,2.3,4.8,7.7,2.6,13.8l-0.9,0.1c2.4-5.9-0.9-11.4-2.5-13.5L200.5,133.8
			L200.5,133.8z M199,134.6l-0.8,0.4c1.6,2.3,4.4,7.4,2.3,12.9l0.9-0.1C203.3,142.2,200.6,137,199,134.6L199,134.6z"/>
		<path id="Path_23523" class="st16" d="M274.4,155c-2.6,0.3-9.1,1.7-12,7.6l0.6,0.8c2.8-6,9.4-7.3,11.7-7.5
			C274.6,155.6,274.5,155.3,274.4,155L274.4,155z M274.9,156.7c0.1,0.3,0.2,0.5,0.2,0.8c-2.6,0.4-8.6,1.8-11.2,7.3l-0.6-0.8
			C266.2,158.6,272.1,157.1,274.9,156.7L274.9,156.7z"/>
		<path id="Path_23524" class="st16" d="M238.1,123.1c0.2,13.8,19.3-3.2,10.9-3.4C249,119.7,246.6,122.6,238.1,123.1z"/>
		<path id="Path_23525" class="st16" d="M236,119.3c0,0-1.4,2.9,2,3.8c0,0-1.3,3.8-3.7,3.2S232.7,118.5,236,119.3L236,119.3z"/>
		<path id="Path_23526" class="st3" d="M244.7,141.1l-5.6-0.5c-0.3,0-0.6,0.2-0.7,0.5c0,0,0,0.1,0,0.1v1.8c0,0.4,0.3,0.7,0.7,0.7
			l5.6,0.5c0.3,0,0.6-0.2,0.7-0.5c0,0,0-0.1,0-0.1v-1.8C245.3,141.5,245,141.1,244.7,141.1L244.7,141.1z"/>
		
			<linearGradient id="Path_23532_1_" gradientUnits="userSpaceOnUse" x1="-246.271" y1="436.1471" x2="-246.259" y2="437.4131" gradientTransform="matrix(-2.6738 51.3614 97.9431 5.0987 -43306.4805 10505.1016)">
			<stop  offset="0" style="stop-color:#FFFFFF;stop-opacity:0.129"/>
			<stop  offset="1" style="stop-color:#FFFFFF"/>
		</linearGradient>
		<path id="Path_23532" class="st30" d="M158.1,108.1l-77.9-53l-19,27.5l95.3,28L158.1,108.1z"/>
		<g id="Group_1492" transform="translate(-1384.364 -26.217)">
			<g id="Group_591" transform="translate(1480.607 25.652)">
				<g id="Group_572" transform="translate(-2 25.042)">
					<g id="Group_571" transform="translate(2.981 2.981)">
						<g id="Group_570">
							<path id="Line_8" class="st31" d="M56.3,0h-1.4"/>
							<path id="Line_9" class="st31" d="M51.1,0H12.4"/>
							<path id="Path_22018" class="st31" d="M10.5,0H9.1L8.2,1.1"/>
							<path id="Line_10" class="st31" d="M7.3,1.9L3,7.3"/>
							<path id="Line_11" class="st31" d="M0.9,10.2L0,11.3"/>
						</g>
					</g>
					<path id="Path_22019" class="st3" d="M62.8,3c0,1.6-1.3,3-3,3s-3-1.3-3-3s1.3-3,3-3c0,0,0,0,0,0C61.5,0,62.8,1.3,62.8,3L62.8,3
						z"/>
					<path id="Path_22020" class="st3" d="M6,14.3c0,1.6-1.3,3-3,3s-3-1.3-3-3c0-1.6,1.3-3,3-3C4.6,11.3,6,12.6,6,14.3
						C6,14.3,6,14.3,6,14.3z"/>
				</g>
				<g id="Group_590" transform="translate(69.507 -32)">
					<path id="Rectangle_2991" class="st32" d="M0,0h105.5v71.2H0V0z"/>
					<g id="Group_574" transform="translate(20.317 40.249)">
						<path id="Path_22021" class="st33" d="M11.4,11.4c0,0.2-8.4-7.7-8.4-7.7C5.1,1.4,8.2,0,11.4,0V11.4z"/>
						<path id="Path_22022" class="st34" d="M22.8,11.4H11.4V0C17.7,0,22.8,5.1,22.8,11.4z"/>
						<path id="Path_22023" class="st35" d="M0,11.4h11.4v11.4C5.1,22.8,0,17.7,0,11.4C0,11.4,0,11.4,0,11.4z"/>
						<path id="Path_22024" class="st36" d="M11.4,11.4H0c0-2.8,1.1-5.6,3-7.7L11.4,11.4z"/>
						<g id="Group_573" transform="translate(11.415 11.422)">
							<path id="Path_22025" class="st37" d="M0,0c0-0.2,8.4,7.7,8.4,7.7c-2.2,2.4-5.2,3.7-8.4,3.7L0,0z"/>
							<path id="Path_22026" class="st38" d="M0,0h11.4c0,2.8-1.1,5.6-3,7.7L0,0z"/>
						</g>
					</g>
					<g id="Group_575" transform="translate(9.188 12.197)">
						<path id="Rectangle_2992" class="st36" d="M0,6.1h45.3V8H0V6.1z"/>
						<path id="Rectangle_2993" class="st36" d="M0,0h45.3v1.9H0V0z"/>
						<path id="Rectangle_2994" class="st36" d="M0,12.2h45.3v1.9H0V12.2z"/>
						<path id="Rectangle_2995" class="st36" d="M0,18.3h45.3v1.9H0V18.3z"/>
					</g>
					<g id="Group_625" transform="translate(63.559 12.644)">
						<g id="Group_595" transform="translate(11.829 37.127)">
							<g id="Group_593">
								<path id="Path_22027" class="st39" d="M9.5,0L9.3,3.1L9.1,7c0,0-0.8,1.5-4.3,1.5s-4.2-1-4.2-1L0.5,5.8L0,0L9.5,0z"/>
							</g>
							<g id="Group_594">
								<path id="Path_22028" class="st40" d="M9.5,0L9.3,3.1C7.9,4.2,4.4,6.4,0.5,5.8L0,0L9.5,0z"/>
							</g>
						</g>
						<g id="Group_603" transform="translate(0 21.405)">
							<g id="Group_597">
								<g id="Group_596">
									<path id="Path_22029" class="st41" d="M5.8,1.5c0,0-2.7-2.6-4.8-0.9c-2.5,2,0.1,9.3,4.6,8.6L5.8,1.5z"/>
								</g>
							</g>
							<g id="Group_602" transform="translate(1.016 1.797)">
								<g id="Group_599">
									<g id="Group_598">
										<path id="Path_22030" class="st40" d="M3.2,5.5C3,5.5,2.8,5.3,2.8,5.1C2.5,1.5,0.4,0.9,0.3,0.9C0.1,0.8,0,0.6,0,0.3
											C0.1,0.1,0.3,0,0.6,0c0.1,0,2.8,0.8,3.1,5C3.7,5.3,3.5,5.5,3.2,5.5C3.3,5.5,3.3,5.5,3.2,5.5L3.2,5.5z"/>
									</g>
								</g>
								<g id="Group_601" transform="translate(.293 2.251)">
									<g id="Group_600">
										<path id="Path_22031" class="st40" d="M0.4,1.4C0.2,1.4,0,1.2,0,1c0-0.1,0-0.2,0.1-0.3c0.6-0.6,1.5-0.8,2.4-0.6
											c0.2,0.1,0.4,0.3,0.3,0.5S2.5,1,2.3,1c-0.5-0.2-1.1,0-1.5,0.4C0.7,1.4,0.6,1.4,0.4,1.4z"/>
									</g>
								</g>
							</g>
						</g>
						<g id="Group_611" transform="translate(26.394 21.405)">
							<g id="Group_605">
								<g id="Group_604">
									<path id="Path_22032" class="st41" d="M0,1.5c0,0,2.7-2.6,4.8-0.9c2.5,2-0.1,9.3-4.6,8.6L0,1.5z"/>
								</g>
							</g>
							<g id="Group_610" transform="translate(1.109 1.797)">
								<g id="Group_607">
									<g id="Group_606">
										<path id="Path_22033" class="st40" d="M0.5,5.5c0.2,0,0.4-0.2,0.4-0.4c0.3-3.6,2.4-4.2,2.5-4.2c0.2-0.1,0.4-0.3,0.3-0.5
											C3.6,0.1,3.4,0,3.1,0C3,0,0.3,0.8,0,5C0,5.3,0.2,5.5,0.5,5.5L0.5,5.5z"/>
									</g>
								</g>
								<g id="Group_609" transform="translate(.549 2.251)">
									<g id="Group_608">
										<path id="Path_22034" class="st40" d="M2.4,1.4c0.2,0,0.4-0.2,0.4-0.5c0-0.1,0-0.2-0.1-0.3C2.1,0.1,1.2-0.1,0.3,0.1
											C0.1,0.1,0,0.4,0,0.6S0.3,1,0.6,1c0.5-0.2,1.1,0,1.5,0.4C2.2,1.4,2.3,1.4,2.4,1.4z"/>
									</g>
								</g>
							</g>
						</g>
						<path id="Path_22035" class="st39" d="M16.2,40.2c-9.3,0-12.2-11-13-19.1c-0.7-7,4.3-13.3,11.3-14C14.9,7,15.3,7,15.7,7h0.7
							c7.1,0.1,12.7,5.9,12.6,13c0,0.3,0,0.6,0,0.9C28.2,29,25.5,40.2,16.2,40.2z"/>
						<path id="Path_22036" class="st42" d="M28.1,1c4.7,3.2,0.4,9.5,0.4,9.5s4.7,4.6-0.1,15.4l-0.9-0.2c0.4-2.8,0.4-5.6,0-8.3
							c-0.7-2-4.1-3-3.9-5.2c0,0-10.6,3.3-16.4,0.1c-0.3,1.6-1,3.2-2,4.5c-1.3,1.4-0.6,6.5-0.4,8.7l-0.9,0.1
							c-0.5-2.2-1.8-6.2-1.9-7.4c-0.1-0.7-0.4-3.7-0.5-5.8c-0.1-1.8,0.2-3.7,1-5.4c0.5-1,1.1-1.8,2-2.5C7.5,2.2,23.8-1.9,28.1,1
							L28.1,1z"/>
						<g id="Group_613" transform="translate(10.046 21.204)">
							<g id="Group_612">
								<path id="Path_22037" class="st42" d="M1.8,1.7c0,0.9-0.4,1.7-0.9,1.7S0,2.6,0,1.7S0.4,0,0.9,0S1.8,0.8,1.8,1.7z"/>
							</g>
						</g>
						<g id="Group_615" transform="translate(7.195 16.821)">
							<g id="Group_614">
								<path id="Path_22038" class="st42" d="M0,2.5c0.5-1.1,1.5-1.9,2.6-2.3C3.7-0.2,4.9,0,5.9,0.5c0.2,0.1,0.4,0.4,0.3,0.7
									C6,1.5,5.7,1.6,5.4,1.5c0,0,0,0,0,0C3.6,0.7,1.4,1.1,0,2.5z"/>
							</g>
						</g>
						<g id="Group_617" transform="translate(20.961 21.204)">
							<g id="Group_616">
								<path id="Path_22039" class="st42" d="M0,1.7c0,0.9,0.4,1.7,0.9,1.7s0.9-0.8,0.9-1.7S1.4,0,0.9,0S0,0.8,0,1.7z"/>
							</g>
						</g>
						<g id="Group_619" transform="translate(19.494 16.821)">
							<g id="Group_618">
								<path id="Path_22040" class="st42" d="M6.2,2.5C5.6,1.4,4.7,0.6,3.6,0.2C2.5-0.2,1.3,0,0.3,0.5C0,0.6-0.1,0.9,0,1.2
									c0.1,0.3,0.4,0.4,0.7,0.3c0,0,0,0,0,0C2.6,0.7,4.8,1.1,6.2,2.5z"/>
							</g>
						</g>
						<g id="Group_621" transform="translate(15.824 22.313)">
							<g id="Group_620">
								<path id="Path_22041" class="st40" d="M0.4,6.3C0.2,6.2,0,6,0,5.7c0-0.1,0.1-0.3,0.2-0.4l1.4-0.9L0.5,4.1
									C0.4,4,0.2,3.9,0.2,3.7L0,0.5C0,0.3,0.2,0,0.5,0S1,0.2,1,0.5l0,0l0.2,2.8l1.7,0.6C3.2,4,3.3,4.3,3.2,4.6
									c0,0.1-0.1,0.2-0.2,0.2L0.7,6.2C0.7,6.3,0.5,6.3,0.4,6.3z"/>
							</g>
						</g>
						<g id="Group_623" transform="translate(11.603 31.272)">
							<g id="Group_622">
								<path id="Path_22042" class="st40" d="M6.7,2.1C4.5,2.6,2.1,2.1,0.2,0.9C0,0.8-0.1,0.5,0.1,0.2C0.2,0,0.5-0.1,0.7,0.1
									c0,0,0,0,0,0c4.1,2.7,8.5,0.1,8.6,0C9.6,0,9.8,0.1,10,0.3c0.1,0.2,0.1,0.5-0.2,0.6C8.9,1.5,7.8,1.9,6.7,2.1z"/>
							</g>
						</g>
						<g id="Group_624" transform="translate(13.81 34.124)">
							<path id="Path_22043" class="st40" d="M2.9,1.3C1.9,1.4,1,1.1,0.2,0.6C0,0.5,0,0.3,0,0.2C0.1,0,0.4-0.1,0.5,0l0,0
								c1.4,0.8,3.2,0.8,4.6,0C5.3,0,5.5,0,5.6,0.2c0.1,0.2,0,0.4-0.1,0.5C4.7,1.1,3.8,1.3,2.9,1.3z"/>
						</g>
					</g>
				</g>
			</g>
		</g>
		<g id="tab" transform="rotate(28 -139.367 369.454)">
			<path class="st43" d="M1,0l3,0c0.6,0,1,0.4,1,1l0,45c0,0.6-0.4,1-1,1l-3,0c-0.6,0-1-0.4-1-1L0,1C0,0.4,0.4,0,1,0z"/>
			<path class="st44" d="M1,0.3l3,0c0.4,0,0.7,0.3,0.7,0.7l0,45c0,0.4-0.3,0.7-0.7,0.7l-3,0c-0.4,0-0.7-0.3-0.7-0.8l0-45
				C0.3,0.6,0.6,0.3,1,0.3z"/>
		</g>
	</g>
	<g id="Man_3">
		<g id="Group_1514" transform="translate(1185.636 1303.18)">
			<ellipse id="Ellipse_44" class="st45" cx="290.6" cy="325.4" rx="43.5" ry="6.6"/>
		</g>
		<g id="Group_560" transform="translate(1433.565 1370.43)">
			<g id="Group_559">
				<g id="Group_443" transform="translate(49.127 49.594)">
					<g id="Group_442" transform="translate(24.591 71.128)">
						<path id="Path_21899" class="st39" d="M-15.6,21.3c0,0,4.2-3.1,2.5-2.3c-1.7,0.8-3.8,1.8-4.9,2.3c-1.3,0.6-1.5-1,0.2-1.9
							c1.7-0.9,2.1-1.1,2.1-1.1s-7.4,1.7-9.4,1.4c-1.9-0.3,2.2-1.5,5.4-2.6c0,0-7.5,0.4-8.2-0.6c-1-1.3,8-1.9,8-1.9
							s-6.7-0.6-6.6-1.4c0.2-0.9,7.1-1.1,7.1-1.1s-4.6-0.8-4.3-1.3c0.5-0.8,5.8-5.8,10.5-4c0.4,0.2-0.5,7.4,0,7.8
							C-13.1,14.6-15,20.5-15.6,21.3z"/>
					</g>
					<path id="Path_21902" class="st46" d="M10.6,43.2C14.3,11.2,3,0,3,0c-6.1,24.9-1.3,38.5,0.7,45s3.6,34.7,3.6,34.7
						c1.5-1.8,1.5-1.2,3.3-1.7c0,0,0.1-20.8,0-19.8S10.6,43.2,10.6,43.2L10.6,43.2z"/>
				</g>
				<g id="Group_519" transform="translate(12.944 122.933)">
					<g id="Group_477" transform="translate(26.976 3.595)">
						<g id="Group_444">
							<path id="Path_21903" class="st47" d="M21,62.8l-4.8,57.7H7.8C5.8,98.1,2.7,78.4,6.2,62.8C2.7,45.3,0,5.6,0,5.6
								C6.4,2.7,16.7,0,16.7,0C20.2,19.4,21,62.8,21,62.8z"/>
						</g>
						<g id="Group_476" transform="translate(5.659 111.4)">
							<g id="Group_446">
								<g id="Group_445">
									<path id="Path_21904" class="st34" d="M30.1,22.8H2.6c-1.4,0-2.6-1.1-2.6-2.6c0-0.1,0-0.1,0-0.2L1.1,5.6
										C2,5.2,2.9,4.9,3.9,4.7c1-0.2,1.7-0.9,2-1.9c0-0.1,0-0.1,0.1-0.2c0.6-2.8,4.6-3.7,5.4-0.9c0.1,0.4,0.2,0.8,0.3,1.3
										c0.1,0.5,0.2,1.1,0.3,1.6c0.1,0.7,0.1,1.3,0.1,2c0.4,0.5,0.7,0.9,1.1,1.4c0.2,0.2,0.3,0.4,0.5,0.7C14,9,14.4,9.5,14.7,9.9
										c0.2,0.2,0.3,0.4,0.5,0.6c0.4,0.5,0.8,0.9,1.1,1.4c0.2,0.2,0.3,0.4,0.5,0.6c1.2,1.4,2.8,2.4,4.5,2.8
										c3,0.4,7.9,0.7,10.2,5.1c0,0.1,0.1,0.2,0.1,0.3c0.3,0.9-0.2,1.9-1.1,2.1C30.4,22.8,30.3,22.8,30.1,22.8L30.1,22.8z"/>
								</g>
							</g>
							<g id="Group_448" transform="translate(.023 20.57)">
								<g id="Group_447">
									<path id="Path_21905" class="st48" d="M30.1,2.2H2.5C1.2,2.2,0.2,1.3,0,0h31.7c0.3,0.9-0.2,1.9-1.1,2.1
										C30.4,2.2,30.2,2.2,30.1,2.2z"/>
								</g>
							</g>
							<g id="Group_456" transform="translate(9.656 7.869)">
								<g id="Group_451" transform="translate(.736)">
									<g id="Group_450">
										<g id="Group_449">
											<path id="Path_21906" class="st3" d="M3.2,0.7C2.7,1.4,1.9,1.9,1,2.2C0.7,2.3,0.5,2.4,0.2,2.5L0,1.8
												c0.3-0.1,0.5-0.2,0.7-0.3c1.5-0.6,1.9-1.2,2-1.5C2.9,0.2,3.1,0.4,3.2,0.7z"/>
										</g>
									</g>
								</g>
								<g id="Group_455" transform="translate(0 1.275)">
									<g id="Group_454">
										<g id="Group_453">
											<g id="Group_452">
												<circle id="Ellipse_45" class="st3" cx="0.9" cy="0.9" r="0.9"/>
											</g>
										</g>
									</g>
								</g>
							</g>
							<g id="Group_464" transform="translate(11.587 9.902)">
								<g id="Group_459" transform="translate(.596)">
									<g id="Group_458">
										<g id="Group_457">
											<path id="Path_21907" class="st3" d="M3,0.6C2.5,1.1,1.8,1.5,1.1,1.8C0.8,1.9,0.6,2,0.2,2.1L0,1.4
												c0.3-0.1,0.6-0.2,0.8-0.3C1.4,0.9,2,0.5,2.5,0C2.7,0.2,2.8,0.4,3,0.6L3,0.6z"/>
										</g>
									</g>
								</g>
								<g id="Group_463" transform="translate(0 .904)">
									<g id="Group_462">
										<g id="Group_461">
											<g id="Group_460">
												<path id="Path_21908" class="st3" d="M1.7,0.9c0,0.5-0.4,0.9-0.9,0.9S0,1.3,0,0.9S0.4,0,0.9,0S1.7,0.4,1.7,0.9L1.7,0.9z
													"/>
											</g>
										</g>
									</g>
								</g>
							</g>
							<g id="Group_472" transform="translate(13.295 11.861)">
								<g id="Group_467" transform="translate(.586)">
									<g id="Group_466">
										<g id="Group_465">
											<path id="Path_21909" class="st3" d="M2.9,0.6C2.4,1.1,1.8,1.4,1.1,1.7C0.9,1.8,0.6,1.9,0.2,2L0,1.3
												C0.3,1.2,0.6,1.1,0.8,1C1.4,0.8,2,0.4,2.4,0C2.6,0.2,2.8,0.4,2.9,0.6L2.9,0.6z"/>
										</g>
									</g>
								</g>
								<g id="Group_471" transform="translate(0 .812)">
									<g id="Group_470">
										<g id="Group_469">
											<g id="Group_468">
												<path id="Path_21910" class="st3" d="M1.7,0.9c0,0.5-0.4,0.9-0.9,0.9S0,1.3,0,0.9S0.4,0,0.9,0S1.7,0.4,1.7,0.9L1.7,0.9z
													"/>
											</g>
										</g>
									</g>
								</g>
							</g>
							<g id="Group_475" transform="translate(9.476 2.912)">
								<g id="Group_474">
									<g id="Group_473">
										<path id="Path_21911" class="st3" d="M2.5,1.6c-0.8,0-1.6,0-2.5,0.1l0-1.4C0.7,0.1,1.4,0,2.2,0C2.3,0.6,2.4,1.1,2.5,1.6
											L2.5,1.6z"/>
									</g>
								</g>
							</g>
						</g>
					</g>
					<g id="Group_518">
						<g id="Group_516" transform="translate(0 6.42)">
							<g id="Group_478" transform="translate(1.805)">
								<path id="Path_21912" class="st49" d="M20.6,2.8c0,0-0.2,22.9-3.5,57.2c-2.1,18.7-4.5,42.1-7.1,57.7H1.6L0.4,60
									c0,0-1.9-35.5,2.3-60L20.6,2.8z"/>
							</g>
							<g id="Group_515" transform="translate(0 110.226)">
								<g id="Group_481">
									<g id="Group_480">
										<g id="Group_479">
											<path id="Path_21913" class="st34" d="M19.3,19.2C19,24.1,3.8,22.4,1.4,20.9C0.5,20.2,0,19.1,0,18c0-2.3,0.4-4.7,1.2-6.9
												c1-3.4,0.8-3.4,1.5-5.7c0,0-0.2-3.8,4.8-5.3s6.8,8,7.6,9.8c0.8,1.7,3.8,3.9,4.1,8.1C19.3,18.4,19.3,18.8,19.3,19.2
												L19.3,19.2z"/>
										</g>
									</g>
								</g>
								<g id="Group_484" transform="translate(4.392 6.074)">
									<g id="Group_483">
										<g id="Group_482">
											<path id="Path_21914" class="st3" d="M0.4,2.4L0,1.8c0.2-0.1,4.6-2.9,8.4-1.3L8.1,1.2C4.6-0.3,0.4,2.4,0.4,2.4z"/>
										</g>
									</g>
								</g>
								<g id="Group_487" transform="translate(4.825 10.297)">
									<g id="Group_486">
										<g id="Group_485">
											<path id="Path_21915" class="st3" d="M0.4,2.4L0,1.8c0.2-0.1,4.6-2.9,8.4-1.3L8.1,1.2C4.6-0.3,0.4,2.4,0.4,2.4z"/>
										</g>
									</g>
								</g>
								<g id="Group_490" transform="translate(4.609 8.186)">
									<g id="Group_489">
										<g id="Group_488">
											<path id="Path_21916" class="st3" d="M0.4,2.4L0,1.8c0.2-0.1,4.6-2.9,8.4-1.3L8.1,1.2C4.6-0.3,0.4,2.4,0.4,2.4z"/>
										</g>
									</g>
								</g>
								<g id="Group_493" transform="translate(3.729 7.464)">
									<g id="Group_492">
										<g id="Group_491">
											<path id="Path_21917" class="st3" d="M1.6,0.8c0,0.5-0.4,0.8-0.8,0.8S0,1.3,0,0.8S0.4,0,0.8,0S1.6,0.4,1.6,0.8L1.6,0.8z"
												/>
										</g>
									</g>
								</g>
								<g id="Group_496" transform="translate(3.772 9.465)">
									<g id="Group_495">
										<g id="Group_494">
											<path id="Path_21918" class="st3" d="M1.6,0.8c0,0.5-0.4,0.8-0.8,0.8S0,1.3,0,0.8S0.4,0,0.8,0S1.6,0.4,1.6,0.8L1.6,0.8z"
												/>
										</g>
									</g>
								</g>
								<g id="Group_499" transform="translate(4.205 11.467)">
									<g id="Group_498">
										<g id="Group_497">
											<path id="Path_21919" class="st3" d="M1.6,0.8c0,0.5-0.4,0.8-0.8,0.8S0,1.3,0,0.8S0.4,0,0.8,0S1.6,0.4,1.6,0.8L1.6,0.8z"
												/>
										</g>
									</g>
								</g>
								<g id="Group_502" transform="translate(12.251 10.284)">
									<g id="Group_501">
										<g id="Group_500">
											<path id="Path_21920" class="st3" d="M1.6,0.8c0,0.5-0.4,0.8-0.8,0.8S0,1.3,0,0.8C0,0.4,0.4,0,0.8,0
												C1.3,0,1.6,0.4,1.6,0.8z"/>
										</g>
									</g>
								</g>
								<g id="Group_505" transform="translate(12.035 8.1)">
									<g id="Group_504">
										<g id="Group_503">
											<path id="Path_21921" class="st3" d="M1.6,0.8c0,0.5-0.4,0.8-0.8,0.8S0,1.3,0,0.8S0.4,0,0.8,0S1.6,0.4,1.6,0.8L1.6,0.8z"
												/>
										</g>
									</g>
								</g>
								<g id="Group_508" transform="translate(11.818 5.916)">
									<g id="Group_507">
										<g id="Group_506">
											<path id="Path_21922" class="st3" d="M1.6,0.8c0,0.5-0.4,0.8-0.8,0.8S0,1.3,0,0.8S0.4,0,0.8,0C1.3,0,1.6,0.4,1.6,0.8
												C1.6,0.8,1.6,0.8,1.6,0.8z"/>
										</g>
									</g>
								</g>
								<g id="Group_511" transform="translate(.014 17.968)">
									<g id="Group_510">
										<g id="Group_509">
											<path id="Path_21923" class="st48" d="M19.2,1.2C19,6.1,3.8,4.4,1.4,3C0.5,2.3-0.1,1.2,0,0c2.6,1.4,5.6,2.1,8.6,2.1
												c5.1,0.1,8.9-0.9,10.6-2.1C19.3,0.5,19.3,0.8,19.2,1.2L19.2,1.2z"/>
										</g>
									</g>
								</g>
								<g id="Group_514" transform="translate(5.366 1.627)">
									<g id="Group_513">
										<g id="Group_512">
											<path id="Path_21924" class="st3" d="M4.3,0C2.8-0.1,1.3,0.2,0,0.9l0.2,1.5c1.5-0.4,3-0.7,4.6-0.7C4.8,1.1,4.6,0.5,4.3,0
												z"/>
										</g>
									</g>
								</g>
							</g>
						</g>
						<g id="Group_517" transform="translate(2.874)">
							<path id="Path_21925" class="st49" d="M2.8,0.4c0,0-2.9,10.1-2.8,19.1c0,0,14,6.1,31.8-0.6C39,16.1,42.7,8,40.1,0.7L40,0.4
								C40,0.4,17.3-0.5,2.8,0.4L2.8,0.4z"/>
						</g>
					</g>
				</g>
				<g id="Group_538" transform="translate(9.326 46.251)">
					<g id="Group_523">
						<g id="Group_522">
							<g id="Group_521">
								<g id="Group_520">
									<path id="Path_21926" class="st35" d="M51.6,82.9c-3,1.4-6,2.6-9.1,3.6c-0.8,0.3-1.7,0.5-2.5,0.7c-4.5,1.2-9.1,1.9-13.8,2
										c-8.1,0.2-16-1.9-22.9-6.1l4.9-29.3L0,6.1l12.2-4.2l0.7-0.2l1.2-0.4l0.5-0.2l1-0.4L17.8,0l12.9,1.7l0.8,0.1L32.8,2l0.7,0.1
										l9.2,1.2L51.6,82.9z"/>
								</g>
							</g>
						</g>
					</g>
					<path id="Path_21927" class="st3" d="M39.9,87.2c-4.5,1.2-9.1,1.9-13.8,2c0.2-1.3,0.4-2.7,0.5-4.1c0.1-0.7,0.1-1.4,0.2-2.1
						c0.1-1.4,0.2-2.9,0.2-4.3c0-0.7,0-1.4,0-2.1c0-1.4,0-2.9-0.1-4.3c0-0.7,0-1.4-0.1-2.1c-0.1-1.4-0.1-2.9-0.2-4.3
						c0-0.7-0.1-1.4-0.2-2.1c-0.1-1.4-0.2-2.9-0.4-4.3C26,58.7,26,58,25.9,57.3c-0.2-1.4-0.3-2.9-0.5-4.3c-0.1-0.7-0.2-1.4-0.3-2.1
						c-0.2-1.4-0.4-2.9-0.6-4.3c-0.1-0.7-0.2-1.4-0.3-2.1c-0.2-1.4-0.5-2.9-0.7-4.3c-0.1-0.7-0.2-1.4-0.4-2.1
						c-0.3-1.4-0.5-2.9-0.8-4.3c-0.1-0.7-0.3-1.4-0.4-2.1c-0.3-1.4-0.6-2.9-0.9-4.3c-0.1-0.7-0.3-1.4-0.4-2.1
						c-0.3-1.5-0.6-2.9-0.9-4.3c-0.2-0.7-0.3-1.4-0.5-2.1c-0.3-1.5-0.7-2.9-1-4.3c-0.2-0.7-0.3-1.4-0.5-2.1c-0.4-1.5-0.7-3-1.1-4.3
						c-0.2-0.7-0.4-1.5-0.6-2.1c-0.4-1.6-0.9-3.3-1.3-4.9l1-0.4L17.8,0l12.9,1.7l0.8,0.1c0.2,1.2,0.5,2.4,0.7,3.7
						c0.1,0.7,0.2,1.4,0.4,2.1c0.2,1.4,0.5,2.8,0.7,4.2c0.1,0.7,0.2,1.4,0.3,2.1c0.2,1.4,0.4,2.8,0.7,4.2c0.1,0.7,0.2,1.4,0.3,2.1
						c0.2,1.4,0.4,2.8,0.6,4.2c0.1,0.7,0.2,1.4,0.3,2.1c0.2,1.4,0.4,2.8,0.5,4.2c0.1,0.7,0.2,1.4,0.3,2.1c0.2,1.4,0.3,2.8,0.5,4.2
						c0.1,0.7,0.2,1.4,0.2,2.1c0.2,1.4,0.3,2.8,0.5,4.2c0.1,0.7,0.1,1.4,0.2,2.1c0.1,1.4,0.3,2.8,0.4,4.2c0.1,0.7,0.1,1.4,0.2,2.1
						c0.1,1.4,0.2,2.8,0.4,4.2c0.1,0.7,0.1,1.4,0.2,2.1c0.1,1.4,0.2,2.8,0.3,4.2c0.1,0.7,0.1,1.4,0.1,2.1c0.1,1.5,0.2,2.9,0.3,4.2
						c0,0.7,0.1,1.4,0.1,2.1c0.1,2.1,0.2,4.3,0.3,6.4c0,1.5,0.1,3,0.1,4.3c0,0.8,0,1.5,0,2.2C40,84.9,40,86.2,39.9,87.2L39.9,87.2z"
						/>
					<g id="Group_537" transform="translate(15.907 5.496)">
						<g id="Group_524">
							<path id="Path_21928" class="st50" d="M16.6,2.1C12.9,2.5,9.1,2.8,5.4,2.7c-1.6,0-3.2,0-4.8-0.1C0.4,1.9,0.2,1.2,0,0.5
								C5.4,0.8,10.9,0.6,16.3,0C16.4,0.7,16.5,1.4,16.6,2.1L16.6,2.1z"/>
						</g>
						<g id="Group_525" transform="translate(1.641 6.264)">
							<path id="Path_21929" class="st50" d="M16,2.1C11.9,2.6,7.8,2.9,3.6,2.9c-1,0-2,0-3.1,0C0.3,2.1,0.2,1.4,0,0.7
								c5.2,0.2,10.5,0,15.7-0.7C15.8,0.7,15.9,1.4,16,2.1L16,2.1z"/>
						</g>
						<g id="Group_526" transform="translate(3.173 12.532)">
							<path id="Path_21930" class="st50" d="M15.5,2.1C11,2.7,6.5,3.1,1.9,3C1.4,3,1,3,0.5,3C0.3,2.3,0.2,1.6,0,0.9
								C5.1,1,10.1,0.7,15.2,0C15.3,0.7,15.4,1.4,15.5,2.1L15.5,2.1z"/>
						</g>
						<g id="Group_527" transform="translate(4.602 18.801)">
							<path id="Path_21931" class="st50" d="M14.9,2.1C10.1,2.8,5.3,3.2,0.4,3.2C0.3,2.4,0.2,1.7,0,1c4.9,0.1,9.8-0.3,14.7-1
								C14.8,0.7,14.8,1.4,14.9,2.1L14.9,2.1z"/>
						</g>
						<g id="Group_528" transform="translate(5.924 25.083)">
							<path id="Path_21932" class="st50" d="M14.4,2.1c-4.6,0.8-9.3,1.2-14,1.2C0.3,2.6,0.1,1.9,0,1.2c4.7,0,9.5-0.4,14.2-1.2
								L14.4,2.1L14.4,2.1z"/>
						</g>
						<g id="Group_529" transform="translate(7.131 31.372)">
							<path id="Path_21933" class="st50" d="M13.9,2.1c-4.5,0.8-9,1.2-13.6,1.3C0.2,2.7,0.1,2,0,1.3c4.6,0,9.2-0.5,13.7-1.3
								C13.8,0.7,13.9,1.4,13.9,2.1z"/>
						</g>
						<g id="Group_530" transform="translate(8.217 37.675)">
							<path id="Path_21934" class="st50" d="M13.5,2.1C9.2,2.9,4.8,3.4,0.3,3.5C0.2,2.8,0.1,2.1,0,1.4C4.5,1.3,8.9,0.8,13.3,0
								C13.4,0.7,13.5,1.4,13.5,2.1L13.5,2.1z"/>
						</g>
						<g id="Group_531" transform="translate(9.168 43.987)">
							<path id="Path_21935" class="st50" d="M13.2,2.1C8.9,2.9,4.6,3.4,0.3,3.6C0.2,2.9,0.1,2.2,0,1.5C4.4,1.3,8.7,0.8,13,0
								C13,0.7,13.1,1.4,13.2,2.1L13.2,2.1z"/>
						</g>
						<g id="Group_532" transform="translate(9.966 50.313)">
							<path id="Path_21936" class="st50" d="M12.9,2.1C8.7,2.9,4.5,3.4,0.2,3.6C0.2,2.9,0.1,2.2,0,1.5C4.3,1.4,8.5,0.8,12.7,0
								C12.8,0.7,12.8,1.4,12.9,2.1L12.9,2.1z"/>
						</g>
						<g id="Group_533" transform="translate(10.583 56.655)">
							<path id="Path_21937" class="st50" d="M12.7,2.1C8.6,3,4.4,3.5,0.2,3.7C0.1,3,0.1,2.3,0,1.6C4.2,1.4,8.4,0.9,12.6,0
								C12.6,0.7,12.7,1.4,12.7,2.1z"/>
						</g>
						<g id="Group_534" transform="translate(10.987 63.017)">
							<path id="Path_21938" class="st50" d="M12.7,2.1C8.5,3,4.3,3.5,0.1,3.7C0.1,3,0,2.3,0,1.6C4.2,1.4,8.4,0.9,12.6,0
								C12.6,0.7,12.7,1.4,12.7,2.1L12.7,2.1z"/>
						</g>
						<g id="Group_535" transform="translate(11.089 69.399)">
							<path id="Path_21939" class="st50" d="M12.9,2.1C8.6,3,4.3,3.6,0,3.8c0-0.7,0-1.4,0-2.1C4.3,1.4,8.6,0.9,12.8,0
								C12.8,0.7,12.8,1.5,12.9,2.1L12.9,2.1z"/>
						</g>
						<g id="Group_536" transform="translate(10.716 75.809)">
							<path id="Path_21940" class="st50" d="M13.4,2.2C9,3.1,4.5,3.6,0,3.8c0.1-0.7,0.1-1.4,0.2-2.1C4.6,1.5,9,0.9,13.3,0
								C13.4,0.8,13.4,1.5,13.4,2.2z"/>
						</g>
					</g>
				</g>
				<g id="Group_557" transform="rotate(8 29.619 171.511)">
					<g id="Group_539" transform="translate(30.855 11.498)">
						<path id="Path_21941" class="st42" d="M2.5,0c0,0,3.3,2.2,2.1,8s-3.4,6.5-3.4,6.5S-2.2,1.5,2.5,0z"/>
					</g>
					<g id="Group_540" transform="rotate(-9 243.276 -17.604)">
						<path id="Path_21942" class="st39" d="M12.6,2l-0.4,7.4L12,12.8C7.7,16,0.7,11.6,0.7,11.6L0,0.6c2-1.3,7.1-0.2,10.1,0.6
							C11.6,1.6,12.6,2,12.6,2L12.6,2z"/>
					</g>
					<g id="Group_541" transform="rotate(-9 249.713 -36.856)">
						<path id="Path_21943" class="st40" d="M9.6,0.7L9.2,8.2C4.2,7,0,0,0,0l7.2,0C8.6,0.4,9.6,0.7,9.6,0.7L9.6,0.7z"/>
					</g>
					<g id="Group_542">
						<path id="Path_21944" class="st42" d="M32.7,14.5c0,0,8-3.7,5.7-10.3S26.5,0.6,17.9,1C4,1.5-0.3,8.7,0,16.2s0.3,17.6,3.7,21.3
							s5.7-1.6,7.5-6.2S23.8,12.2,32.7,14.5z"/>
					</g>
					<g id="Group_543" transform="translate(2.568 7.787)">
						<path id="Path_21945" class="st39" d="M30.9,13.1c0,0.3,0,0.5,0,0.8c-0.3,5-0.8,10-1.7,14.9c-0.8,4.8-5.4,8-10.2,7.2
							c-0.1,0-0.2,0-0.3,0c-5.9-1.2-13.1-3-16.4-5.1c-0.8-0.4-1.5-1.2-1.8-2.1c-0.3-2.1-0.5-4.3-0.5-6.5c-0.2-7.6,0.3-17,0.3-17
							C7.4-3.5,27-0.1,30,6.3C30.8,8.5,31.1,10.8,30.9,13.1z"/>
					</g>
					<g id="Group_544" transform="rotate(5.13 -251.45 240.205)">
						<path id="Path_21946" class="st42" d="M2,1.8c0,1-0.4,1.8-1,1.8c-0.5,0-1-0.8-1-1.8C0,0.8,0.4,0,1,0S2,0.8,2,1.8z"/>
					</g>
					<g id="Group_545" transform="rotate(5.13 -256.197 354.975)">
						<path id="Path_21947" class="st42" d="M2,1.8c0,1-0.4,1.8-1,1.8c-0.5,0-1-0.8-1-1.8S0.4,0,1,0S2,0.8,2,1.8z"/>
					</g>
					<g id="Group_546" transform="translate(1.667 4.844)">
						<path id="Path_21948" class="st42" d="M0.9,18.3c0,0,3.1-2,5.8,1.6h2.1c0,0-0.1-4.2,0.9-6.5s4.9-2.2,5.5-4.9
							c0,0,9.3,3.7,15.9,1.2S17.8-3.9,8.2,1.5S-0.6,11.1,0.9,18.3z"/>
					</g>
					<g id="Group_547" transform="rotate(5.13 -212.12 204.385)">
						<path id="Path_21949" class="st42" d="M0,2.6c0.6-1.1,1.6-2,2.7-2.4C3.9-0.2,5.1,0,6.2,0.5C6.5,0.6,6.6,1,6.5,1.2
							C6.4,1.5,6,1.7,5.7,1.6c0,0,0,0,0,0C3.7,0.7,1.5,1.1,0,2.6z"/>
					</g>
					<g id="Group_548" transform="rotate(5.13 -217.716 339.435)">
						<path id="Path_21950" class="st42" d="M5.1,0.9c0,0.3,0,0.5,0,0.8C3.7,1,2.2,0.9,0.9,1.6c-0.1,0-0.2,0.1-0.3,0.1
							C0.3,1.6,0,1.4,0,1c0-0.2,0.1-0.4,0.3-0.5C1.4,0,2.6-0.2,3.8,0.2C4.2,0.3,4.7,0.5,5.1,0.9z"/>
					</g>
					<g id="Group_549" transform="translate(2.625 30.036)">
						<path id="Path_21951" class="st42" d="M2.3,8.5C1.5,8.1,0.8,7.4,0.5,6.5C0.2,4.3,0,2.2,0,0l5.2,3.6C5.2,3.6,5.2,7.2,2.3,8.5
							L2.3,8.5z"/>
					</g>
					<g id="Group_553" transform="translate(1.325 22.424)">
						<g id="Group_550">
							<path id="Path_21952" class="st39" d="M7,2.3c0,0-3.1-3.8-5.8-1.6c-2.9,2.4-0.7,10.7,5.2,10.5L7,2.3z"/>
						</g>
						<g id="Group_551" transform="translate(2.651 3.067)">
							<path id="Path_21953" class="st40" d="M4,6.3c-0.3,0-0.5-0.2-0.5-0.5C3,1.7,0.5,1,0.4,1C0.1,1,0,0.7,0,0.4
								C0.1,0.1,0.4,0,0.6,0c0.1,0,3.3,0.8,3.9,5.7C4.5,6,4.3,6.3,4,6.3C4,6.3,4,6.3,4,6.3C4,6.3,4,6.3,4,6.3z"/>
						</g>
						<g id="Group_552" transform="translate(2.796 5.005)">
							<path id="Path_21954" class="st40" d="M0.5,1.7C0.2,1.7,0,1.5,0,1.2C0,1.1,0,1,0.1,0.9c0.7-0.7,1.8-1,2.8-0.8
								c0.3,0.1,0.5,0.3,0.4,0.6C3.2,1,3,1.1,2.7,1.1C2,0.9,1.4,1.1,0.9,1.6C0.8,1.7,0.7,1.7,0.5,1.7z"/>
						</g>
					</g>
					<g id="Group_554" transform="rotate(-7 273.052 -139.483)">
						<path id="Path_21955" class="st40" d="M7.3,4C4.6,4.1,1.9,2.9,0.1,0.9C-0.1,0.6,0,0.3,0.2,0.1C0.4-0.1,0.7,0,0.9,0.2
							c3.4,3.9,8.7,2.5,8.8,2.5c0.3-0.1,0.6,0.1,0.6,0.4c0.1,0.3-0.1,0.6-0.4,0.6l0,0C9.1,3.9,8.2,4,7.3,4z"/>
					</g>
					<g id="Group_555" transform="rotate(-7 304.035 -149.396)">
						<path id="Path_21956" class="st40" d="M4.1,2.6c-1.6,0-3-0.6-4-1.8C-0.1,0.6,0,0.3,0.2,0.1C0.4-0.1,0.8,0,0.9,0.2
							c1,1.2,2.6,1.7,4.1,1.3c0.3,0,0.5,0.1,0.6,0.4S5.5,2.5,5.2,2.5C4.9,2.6,4.5,2.6,4.1,2.6L4.1,2.6z"/>
					</g>
					<g id="Group_556" transform="rotate(10.02 -123.35 160.782)">
						<path id="Path_21957" class="st40" d="M1,6.6c-0.3,0-0.5-0.2-0.5-0.5c0-0.2,0.1-0.3,0.2-0.4l1.4-1.1L0.9,4.3
							C0.7,4.3,0.6,4.1,0.5,3.9L0,0.6C0,0.3,0.2,0.1,0.4,0C0.7,0,1,0.2,1,0.4l0.5,3l1.9,0.5C3.7,4,3.8,4.2,3.8,4.5
							c0,0.1-0.1,0.2-0.2,0.3L1.4,6.5C1.3,6.6,1.2,6.6,1,6.6L1,6.6z"/>
					</g>
				</g>
				<g id="Group_558" transform="translate(12.567 132.048)">
					<path id="Path_21958" class="st39" d="M5.6,0c0,0,2.3,0.7,3,2.1c0,0,0,8.5-4.3,12.2c0,0-2.1-5.1-4.3-10L5.6,0z"/>
				</g>
				<path id="Path_21959" class="st35" d="M9.3,52.3c0,0-8.6,26.8-9.3,40.6c0,0,0,25.8,12.6,43.4l5.6-4.3c0,0-7-25.6-7-35.6
					c0,0,7.1-18.6,8.3-25.9C19.4,70.5,14.6,52.3,9.3,52.3L9.3,52.3z"/>
			</g>
		</g>
		<g id="Group_1512" transform="translate(597.636 1550.18)">
			<g id="Group_1515" transform="translate(623.909 -393.024)">
				<g id="Group_569" transform="translate(236.788 223.18)">
					<g id="Group_567">
						<g id="Group_565">
							<path id="Path_21996" class="st51" d="M0,28.3v8.9h8.4"/>
							<path id="Path_21997" class="st51" d="M37.1,9V0H26.5"/>
							<path id="Path_21998" class="st51" d="M8.9,0H0v8.4"/>
							<path id="Path_21999" class="st51" d="M28.2,37.1h9V26.5"/>
						</g>
						<g id="Group_566" transform="translate(3.126 3.127)">
							<path id="Path_22000" class="st51" d="M0,23.5v7.4h7"/>
							<path id="Path_22001" class="st51" d="M30.9,7.5V0h-8.8"/>
							<path id="Path_22002" class="st51" d="M7.4,0H0v7"/>
							<path id="Path_22003" class="st51" d="M23.4,30.9h7.5v-8.8"/>
						</g>
					</g>
					<g id="Group_568" transform="translate(5.5 7.81)">
						<path id="Path_22004" class="st3" d="M0.3,1c0,0.5,0.4,1,1,1c0.5,0,1-0.4,1-1c0-0.5-0.4-1-1-1C0.7,0,0.3,0.4,0.3,1
							C0.3,1,0.3,1,0.3,1z"/>
						<path id="Path_22005" class="st3" d="M23.1,1.6c0,0.5,0.4,1,1,1c0.5,0,1-0.4,1-1c0-0.5-0.4-1-1-1c0,0,0,0,0,0
							C23.6,0.6,23.1,1.1,23.1,1.6z"/>
						<path id="Path_22006" class="st3" d="M12,4.5c0,0.5,0.4,1,1,1c0.5,0,1-0.4,1-1c0-0.5-0.4-1-1-1C12.4,3.5,12,3.9,12,4.5z"/>
						<path id="Path_22007" class="st3" d="M24.9,10.2c0,0.5,0.4,1,1,1c0.5,0,1-0.4,1-1c0-0.5-0.4-1-1-1c0,0,0,0,0,0
							C25.3,9.2,24.9,9.6,24.9,10.2C24.9,10.2,24.9,10.2,24.9,10.2z"/>
						<path id="Path_22008" class="st3" d="M11.3,23.4c0,0.5,0.4,1,1,1c0.5,0,1-0.4,1-1c0-0.5-0.4-1-1-1
							C11.8,22.4,11.3,22.8,11.3,23.4C11.3,23.4,11.3,23.4,11.3,23.4z"/>
						<path id="Path_22009" class="st3" d="M11.7,13.6c0,0.5,0.4,1,1,1c0.5,0,1-0.4,1-1c0-0.5-0.4-1-1-1c0,0,0,0,0,0
							C12.2,12.6,11.7,13,11.7,13.6C11.7,13.6,11.7,13.6,11.7,13.6z"/>
						<path id="Path_22010" class="st3" d="M0,10.7c0,0.5,0.4,1,1,1c0.5,0,1-0.4,1-1c0-0.5-0.4-1-1-1c0,0,0,0,0,0
							C0.4,9.7,0,10.1,0,10.7z"/>
						<path id="Path_22011" class="st3" d="M20.8,18.5c0,0.5,0.4,1,1,1c0.5,0,1-0.4,1-1c0-0.5-0.4-1-1-1c0,0,0,0,0,0
							C21.2,17.5,20.8,17.9,20.8,18.5z"/>
						<path id="Path_22012" class="st3" d="M3.7,19c0,0.5,0.4,1,1,1c0.5,0,1-0.4,1-1c0-0.5-0.4-1-1-1c0,0,0,0,0,0
							C4.1,18.1,3.7,18.5,3.7,19z"/>
						<path id="Path_22013" class="st52" d="M21.8,18.5l-9.4,4.9L4.7,19L1,10.8L1.3,1H24l1.8,9.2L21.8,18.5z"/>
						<path id="Path_22014" class="st52" d="M21.8,18.5L12.9,14l-8.2,5"/>
						<path id="Path_22015" class="st52" d="M12.9,13L13,4.5L1.3,1"/>
						<path id="Path_22016" class="st52" d="M1.2,10.3L13,4.2L25.4,10l-12.7,3.6L1.3,10.8"/>
						<path id="Path_22017" class="st52" d="M21.4,18.1L13,4.5l11.5-2.7"/>
						<path id="Line_6" class="st52" d="M4.8,18.6L13,4.5"/>
						<path id="Line_7" class="st52" d="M12.3,23.4l0.4-9.8"/>
					</g>
				</g>
			</g>
		</g>
	</g>
</g>
</svg>
