<svg xmlns="http://www.w3.org/2000/svg" xmlns:xlink="http://www.w3.org/1999/xlink" width="379.073" height="394.282" viewBox="0 0 379.073 394.282">
    <defs>
        <style>
            .cls-1{fill:#fafffb}.cls-2{fill:#c6eaf7}.cls-3{fill:#a9dbed}.cls-4{fill:#83cadd}.cls-5{fill:#125a82}.cls-6{fill:#ffbf85}.cls-7{fill:#f79f57}.cls-8{fill:#0f3854}.cls-9{fill:#ff4f00}.cls-10{fill:#ff4b00}.cls-11{fill:#ffd0a9}.cls-12{fill:#205a7a}.cls-13{fill:#ff8b00}.cls-14{fill:#d3430b}.cls-15{opacity:.27}.cls-15,.cls-20,.cls-21{mix-blend-mode:overlay;isolation:isolate}.cls-16{fill:#fff}.cls-17{fill:#04273a}.cls-18{fill:#2b7ea3}.cls-19{fill:#1981af}.cls-20{fill:url(#linear-gradient)}.cls-21{fill:url(#linear-gradient-2)}
        </style>
        <linearGradient id="linear-gradient" x1="-.095" x2=".73" y1="1.192" y2=".372" gradientUnits="objectBoundingBox">
            <stop offset="0" stop-color="#fff"/>
            <stop offset="1" stop-color="#fff" stop-opacity="0"/>
        </linearGradient>
        <linearGradient id="linear-gradient-2" x1="-.148" x2=".629" y1="1.062" y2=".29" xlink:href="#linear-gradient"/>
    </defs>
    <g id="industry4" transform="translate(-7.604 -7)">
        <path id="_415468-PDXQUO-338" d="M0 0h379.044v394.206H0z" class="cls-1" data-name="415468-PDXQUO-338" transform="translate(7.604 7.075)"/>
        <g id="Group_1025" data-name="Group 1025" transform="translate(18.724 7)">
            <g id="Group_1005" data-name="Group 1005">
                <path id="Path_22939" d="M-38.614 14.773q-1.172-.947-2.355-1.872h-194.537c-39.373 88.847-190 138.539-169.078 211.788s101.382 20.377 81 110.7c-6.383 28.284-5.558 52.515.181 71.514h284.789z" class="cls-2" data-name="Path 22939" transform="translate(406.567 -12.901)"/>
                <g id="Group_1004" data-name="Group 1004" transform="translate(16.799 70.564)">
                    <path id="Path_22940" d="M-332.35 157.617s56.864-74.472 95.25-63.217 10.68 54.555 58.018 43.587 73.029 17.607 56.865 45.606 44.452 27.422 35.792 83.42-78.513 90.637-170.3 74.472-152.406-100.448-75.625-183.868z" class="cls-3" data-name="Path 22940" transform="translate(389.768 -73.215)"/>
                    <path id="Path_22941" d="M-334.741 269.95s48.807-134.539 106.952-88.278 106.1 18.674 115.865 66.209-261.863 148.969-222.817 22.069z" class="cls-4" data-name="Path 22941" transform="translate(389.768 -73.215)"/>
                    <path id="Path_22942" d="M-77.2 208.056c-7.574 6.782-21.408 3.685-28.189-3.889a18.408 18.408 0 0 1 1.435-25.993 18.408 18.408 0 0 1 25.994 1.436c6.781 7.574 8.335 21.665.76 28.446z" class="cls-3" data-name="Path 22942" transform="translate(389.768 -73.215)"/>
                    <path id="Path_22943" d="M-160.1 123.707c-11.061 9.9-31.264 5.38-41.167-5.68a26.882 26.882 0 0 1 2.1-37.958 26.88 26.88 0 0 1 37.957 2.1c9.895 11.057 12.165 31.631 1.11 41.538z" class="cls-4" data-name="Path 22943" transform="translate(389.768 -73.215)"/>
                    <path id="Path_22944" d="M-364.187 311.577c-5.892 5.276-16.655 2.867-21.93-3.026A14.321 14.321 0 0 1-385 288.33a14.321 14.321 0 0 1 20.221 1.117c5.279 5.893 6.479 16.853.592 22.13z" class="cls-3" data-name="Path 22944" transform="translate(389.768 -73.215)"/>
                </g>
            </g>
            <g id="Group_1024" data-name="Group 1024" transform="translate(24.04 94.651)">
                <ellipse id="Ellipse_58" cx="144.973" cy="5.434" class="cls-3" data-name="Ellipse 58" rx="144.973" ry="5.434" transform="translate(8.299 261.347)"/>
                <g id="Group_1023" data-name="Group 1023">
                    <g id="Group_1011" data-name="Group 1011">
                        <path id="Path_22945" d="M-211.67 117.059h-141.962a1.854 1.854 0 0 0-1.849 1.849 1.854 1.854 0 0 0 1.849 1.849h141.962a1.854 1.854 0 0 0 1.849-1.849 1.854 1.854 0 0 0-1.849-1.849z" class="cls-5" data-name="Path 22945" transform="translate(382.527 -97.302)"/>
                        <path id="Path_22946" d="M-231.475 125.35c6.778-9.191-.513-10.988-1.848-10.782s-2.464 2.516-2.464 2.516-1.849-1.079-2.567-.668.205 7.085.205 7.085l-8.317 41.279c-10.283 5.762-21.636 18.18-24.549 21.469a4.053 4.053 0 0 1-2.053 1.258 9.057 9.057 0 0 1-4.075-.342c-2.875-.719-3.132-6.751-3.132-6.751l-5.245-1.381v-.8l-1.524.4-1.523-.4v.8l-5.245 1.381s-.257 6.032-3.132 6.751a9.057 9.057 0 0 1-4.075.342 4.053 4.053 0 0 1-2.053-1.258c-2.913-3.289-14.267-15.707-24.549-21.469l-8.317-41.279s.924-6.674.2-7.085-2.567.668-2.567.668-1.129-2.311-2.464-2.516-8.626 1.591-1.849 10.782c0 0-7.547 27.159 0 44.718s4.313 22.847 24.953 34.553c0 0 6.494 18.381 11.808 23.926 1.3 1.358 1.861 9.986.6 18.534h36.423c-1.265-8.548-.7-17.176.6-18.534 5.313-5.545 11.808-23.926 11.808-23.926 20.64-11.706 17.4-16.994 24.952-34.553s-.001-44.718-.001-44.718z" class="cls-6" data-name="Path 22946" transform="translate(382.527 -97.302)"/>
                        <path id="Path_22947" d="M-231.475 125.35c6.778-9.191-.513-10.988-1.848-10.782s-2.464 2.516-2.464 2.516-1.849-1.079-2.567-.668.205 7.085.205 7.085l-8.317 41.279c-10.283 5.762-21.636 18.18-24.549 21.469a4.053 4.053 0 0 1-2.053 1.258 9.057 9.057 0 0 1-4.075-.342c-2.875-.719-3.132-6.751-3.132-6.751l-5.245-1.381v-.8l-1.524.4-1.523-.4v.8l-5.245 1.381s-.257 6.032-3.132 6.751a9.057 9.057 0 0 1-4.075.342 4.053 4.053 0 0 1-2.053-1.258c-2.913-3.289-14.267-15.707-24.549-21.469l-8.317-41.279s.924-6.674.2-7.085-2.567.668-2.567.668-1.129-2.311-2.464-2.516-8.626 1.591-1.849 10.782c0 0-7.547 27.159 0 44.718s4.313 22.847 24.953 34.553c0 0 6.494 18.381 11.808 23.926 1.3 1.358 1.861 9.986.6 18.534h36.423c-1.265-8.548-.7-17.176.6-18.534 5.313-5.545 11.808-23.926 11.808-23.926 20.64-11.706 17.4-16.994 24.952-34.553s-.001-44.718-.001-44.718z" class="cls-6" data-name="Path 22947" transform="translate(382.527 -97.302)"/>
                        <path id="Path_22948" d="M-322.021 168.448a54.061 54.061 0 0 0-5.6-3.668l-8.317-41.279s.924-6.674.2-7.085-2.567.668-2.567.668-1.129-2.311-2.464-2.516-8.626 1.591-1.849 10.782c0 0-7.547 27.159 0 44.718 6.964 16.2 4.764 21.96 20.592 31.948z" class="cls-6" data-name="Path 22948" transform="translate(382.527 -97.302)"/>
                        <path id="Path_22949" d="M-305.233 246.92c.067.06.133.113.187.16h-.207z" class="cls-7" data-name="Path 22949" transform="translate(382.527 -97.302)"/>
                        <path id="Path_22950" d="M-277.143 187.167a1.367 1.367 0 0 0 .154.033v.007c-1.957 4.027-5.544 7.313-9.684 7.5v-16.169l1.155-.307v.8l5.243 1.383s.254 6.031 3.132 6.753z" class="cls-7" data-name="Path 22950" transform="translate(382.527 -97.302)"/>
                        <g id="Group_1006" data-name="Group 1006" transform="translate(82.519 55.466)">
                            <path id="Path_22951" d="M-275.838 159.716s-2.211-6.161-10.585-6.9c-.2-.018-.41-.034-.622-.043a13.41 13.41 0 0 0-.62.043c-8.37.744-10.584 6.9-10.584 6.9-3.356 1.342-.878 11.9-.878 11.9l11.462.022h1.242l11.463-.022s2.477-10.558-.878-11.9z" class="cls-8" data-name="Path 22951" transform="translate(300.008 -152.768)"/>
                            <path id="Path_22952" d="M-280.569 162.811s-1.169.372-2.086.576a20.259 20.259 0 0 1-8.815 0c-.917-.2-2.389-.576-2.389-.576 0 1.868-2.589 6.12-2.589 6.12v5.137c0 5.072 4.186 9.978 9.351 9.978h.069c5.164 0 9.351-4.906 9.351-9.978v-5.137s-2.892-4.252-2.892-6.12z" class="cls-6" data-name="Path 22952" transform="translate(300.008 -152.768)"/>
                            <path id="Path_22953" d="M-279.928 182.926a9.147 9.147 0 0 1-7.1 3.666h-.067a9.114 9.114 0 0 1-7.073-3.633 16.554 16.554 0 0 0 .328-2.144 9.028 9.028 0 0 0 6.745 3.233h.067a9.045 9.045 0 0 0 6.778-3.279 16.21 16.21 0 0 0 .322 2.157z" class="cls-7" data-name="Path 22953" transform="translate(300.008 -152.768)"/>
                            <path id="Path_22954" d="M-294.014 171.62a2.556 2.556 0 0 0-2.556-2.557 2.556 2.556 0 0 0-2.556 2.557 2.556 2.556 0 0 0 2.556 2.556 2.556 2.556 0 0 0 2.556-2.556z" class="cls-6" data-name="Path 22954" transform="translate(300.008 -152.768)"/>
                            <path id="Path_22955" d="M-274.75 171.62a2.557 2.557 0 0 0-2.557-2.557 2.556 2.556 0 0 0-2.556 2.557 2.556 2.556 0 0 0 2.556 2.556 2.557 2.557 0 0 0 2.557-2.556z" class="cls-6" data-name="Path 22955" transform="translate(300.008 -152.768)"/>
                        </g>
                        <path id="Path_22956" d="M-227 295.445c-1.289-11.3-28.541-36.966-30.566-38.4-1.607-1.14-8.586-7.413-11.4-9.96h-36.149c-2.819 2.547-9.8 8.82-11.4 9.96-2.025 1.438-29.277 27.109-30.566 38.4s19.886 58.54 19.886 58.54h8.471s.736-35.744.552-48.477c0 0 20.263-13.295 31.136-25.728 10.874 12.433 31.137 25.728 31.137 25.728-.184 12.733.552 48.477.552 48.477h8.47s21.168-47.245 19.877-58.54z" class="cls-8" data-name="Path 22956" transform="translate(382.527 -97.302)"/>
                        <path id="Path_22957" d="M-265.067 179.921c-2.773 2.8-4.9 5.15-5.948 6.328a4.053 4.053 0 0 1-2.053 1.258 8.8 8.8 0 0 1-3.919-.305c-2.014 4.148-5.762 7.51-10.057 7.51s-8.043-3.362-10.057-7.51a8.792 8.792 0 0 1-3.918.305 4.053 4.053 0 0 1-2.053-1.258 159.596 159.596 0 0 0-5.948-6.328c-1.435 4.409-6.064 14.857-18.39 18.333a77.055 77.055 0 0 0 9.75 6.367s6.494 18.381 11.808 23.926c1.293 1.349 1.853 9.877.62 18.372l.188.162h36l.188-.162c-1.234-8.5-.673-17.023.62-18.372 5.313-5.545 11.808-23.926 11.808-23.926a77.054 77.054 0 0 0 9.75-6.367c-12.322-3.476-16.954-13.924-18.389-18.333z" class="cls-9" data-name="Path 22957" transform="translate(382.527 -97.302)"/>
                        <path id="Path_22958" d="M-276.6 187.294c-.134-.027-.261-.061-.394-.087v-.007c.138.033.265.067.394.094z" class="cls-7" data-name="Path 22958" transform="translate(382.527 -97.302)"/>
                        <path id="Path_22959" d="M-318.732 353.985v8.752h-25.037c-1.579 0 11.588-8.657 16.566-8.752z" class="cls-10" data-name="Path 22959" transform="translate(382.527 -97.302)"/>
                        <path id="Path_22960" d="M-255.3 353.985v8.752h25.036c1.579 0-11.588-8.657-16.566-8.752z" class="cls-10" data-name="Path 22960" transform="translate(382.527 -97.302)"/>
                        <path id="Path_22961" d="M-296.9 247.081c2.031-6.007 4.8-17.843-2.3-23.652-9.751-7.978-7.091-23.489-16.4-26.444s-19.8-20.83-23.932-30.432-2.807-40.625-3.087-41.2c0 0-7.547 27.159 0 44.718s4.313 22.847 24.953 34.553c0 0 6.494 18.381 11.808 23.926 1.3 1.358 1.861 9.986.6 18.534z" class="cls-11" data-name="Path 22961" transform="translate(382.527 -97.302)"/>
                        <path id="Path_22962" d="M-305.118 247.081c-2.819 2.547-9.8 8.82-11.4 9.96-2.025 1.438-29.277 27.109-30.566 38.4s19.886 58.54 19.886 58.54h2.705c-4.42-12.165-17.944-50.416-16.21-58.465 2.068-9.6 42.4-44.762 42.4-44.762s.655-1.436 1.413-3.677z" class="cls-12" data-name="Path 22962" transform="translate(382.527 -97.302)"/>
                        <path id="Path_22963" d="M-299.2 223.429c-9.751-7.978-7.091-23.489-16.4-26.444a15.154 15.154 0 0 1-4.227-2.252 25.805 25.805 0 0 1-7.589 3.521 77.055 77.055 0 0 0 9.75 6.367s6.494 18.381 11.808 23.926c1.293 1.349 1.853 9.877.62 18.372l.188.162h8.147c2.037-6.007 4.803-17.843-2.297-23.652z" class="cls-9" data-name="Path 22963" transform="translate(382.527 -97.302)"/>
                        <path id="Path_22964" d="M-299.2 223.429c-9.751-7.978-7.091-23.489-16.4-26.444a15.154 15.154 0 0 1-4.227-2.252 25.784 25.784 0 0 1-7.584 3.519c.067.052.13.1.2.157a47.591 47.591 0 0 0 1.15.871c.171.125.34.25.516.377.288.207.587.416.891.626.145.1.288.2.437.3q.585.4 1.209.8c.166.109.34.219.511.328.315.2.635.4.965.61q.28.174.569.35c.348.214.707.429 1.072.647.176.1.35.21.531.316.545.321 1.1.645 1.686.975l.011.006s1.623 4.6 3.911 9.884q.215.5.437 1c.3.67.6 1.347.914 2.024s.633 1.352.959 2.019a57.6 57.6 0 0 0 3.554 6.381c.172.258.343.508.514.747a16.817 16.817 0 0 0 1.519 1.873 1.1 1.1 0 0 1 .12.148c.007.009.013.022.02.033.032.048.064.1.1.156l.03.063c.027.053.054.106.08.166.011.025.021.055.032.081.025.06.049.119.073.186.014.036.026.078.039.117a5.091 5.091 0 0 1 .104.339c.014.053.035.121.052.186s.029.12.043.18l.046.193c.015.067.03.145.045.218l.039.188c.016.084.031.174.046.262l.031.175c.017.1.032.2.048.308l.024.158c.016.111.03.227.045.343.007.052.014.1.02.154.016.129.03.263.045.4 0 .041.009.08.014.122.015.149.029.3.043.458l.009.09c.014.162.027.328.039.5l.006.078c.013.179.025.362.035.547v.049c.012.193.021.39.03.589v.029c.009.205.016.414.023.626v.013a66.3 66.3 0 0 1-.661 11.215v.009l.188.162h8.147c2.034-6.01 4.8-17.846-2.3-23.655z" class="cls-13" data-name="Path 22964" transform="translate(382.527 -97.302)"/>
                        <path id="Path_22965" d="M-243.134 168.917c2.364-4.506 4.985-45.416 4.985-45.416l-8.317 41.279c-10.283 5.762-21.636 18.18-24.549 21.469a4.053 4.053 0 0 1-2.053 1.258 9.057 9.057 0 0 1-4.075-.342c-1.518-.379-2.3-2.239-2.708-3.911l-7.193 11.458a15.777 15.777 0 0 0 15.4-2.823c7.607-6.131 26.144-18.467 28.51-22.972z" class="cls-7" data-name="Path 22965" transform="translate(382.527 -97.302)"/>
                        <path id="Path_22966" d="M-271.645 191.889c2.241-1.807 5.434-4.153 8.879-6.677a31.093 31.093 0 0 1-2.3-5.291c-2.773 2.8-4.9 5.15-5.948 6.328a4.053 4.053 0 0 1-2.053 1.258 8.8 8.8 0 0 1-3.919-.305c-2.014 4.148-5.762 7.51-10.057 7.51a15.777 15.777 0 0 0 15.398-2.823z" class="cls-14" data-name="Path 22966" transform="translate(382.527 -97.302)"/>
                        <g id="Group_1007" data-name="Group 1007">
                            <path id="Rectangle_3027" d="M2.2 0h3.876a.684.684 0 0 1 .684.684v10.024a.684.684 0 0 1-.684.684H2.2A2.2 2.2 0 0 1 0 9.2v-7A2.2 2.2 0 0 1 2.2 0z" class="cls-8" data-name="Rectangle 3027" transform="translate(0 17.39)"/>
                            <rect id="Rectangle_3028" width="14.824" height="45.433" class="cls-5" data-name="Rectangle 3028" rx="2.023" transform="translate(17.049)"/>
                            <rect id="Rectangle_3029" width="12.94" height="39.659" class="cls-5" data-name="Rectangle 3029" rx="1.766" transform="translate(4.105 2.887)"/>
                            <path id="Path_22967" d="M-350.655 107.683v-8.358a2.028 2.028 0 0 0-2.022-2.023h-10.778a2.028 2.028 0 0 0-2.023 2.023v8.358z" class="cls-8" data-name="Path 22967" transform="translate(382.527 -97.302)"/>
                            <path id="Path_22968" d="M-365.483 107.683v-5.728a1.772 1.772 0 0 0-1.766-1.766h-9.408a1.772 1.772 0 0 0-1.766 1.766v5.728z" class="cls-8" data-name="Path 22968" transform="translate(382.527 -97.302)"/>
                            <path id="Path_22969" d="M-365.478 133.61v7.1a2.029 2.029 0 0 0 2.023 2.023h10.778a2.028 2.028 0 0 0 2.022-2.023v-7.1z" class="cls-8" data-name="Path 22969" transform="translate(382.527 -97.302)"/>
                            <path id="Path_22970" d="M-378.423 133.61v4.472a1.771 1.771 0 0 0 1.766 1.766h9.408a1.771 1.771 0 0 0 1.766-1.766v-4.472z" class="cls-8" data-name="Path 22970" transform="translate(382.527 -97.302)"/>
                            <path id="Path_22971" d="M-367.249 100.189h-1.084v39.659h1.084a1.771 1.771 0 0 0 1.766-1.766v-36.127a1.772 1.772 0 0 0-1.766-1.766z" class="cls-8" data-name="Path 22971" transform="translate(382.527 -97.302)"/>
                        </g>
                        <g id="Group_1008" data-name="Group 1008" transform="translate(167.967)">
                            <path id="Rectangle_3030" d="M2.2 0h3.88a.684.684 0 0 1 .68.684v10.024a.684.684 0 0 1-.684.684H2.2A2.2 2.2 0 0 1 0 9.2v-7A2.2 2.2 0 0 1 2.2 0z" class="cls-8" data-name="Rectangle 3030" transform="rotate(180 15.937 14.022)"/>
                            <rect id="Rectangle_3031" width="14.824" height="45.433" class="cls-5" data-name="Rectangle 3031" rx="2.023" transform="rotate(180 7.412 22.716)"/>
                            <rect id="Rectangle_3032" width="12.94" height="39.659" class="cls-5" data-name="Rectangle 3032" rx="1.766" transform="rotate(180 13.884 21.273)"/>
                            <path id="Path_22972" d="M-214.56 132.354v8.358a2.028 2.028 0 0 0 2.023 2.023h10.778a2.029 2.029 0 0 0 2.023-2.023v-8.358z" class="cls-8" data-name="Path 22972" transform="translate(214.56 -97.302)"/>
                            <path id="Path_22973" d="M-199.731 132.354v5.728a1.77 1.77 0 0 0 1.765 1.766h9.409a1.77 1.77 0 0 0 1.765-1.766v-5.728z" class="cls-8" data-name="Path 22973" transform="translate(214.56 -97.302)"/>
                            <path id="Path_22974" d="M-199.736 106.428v-7.1a2.029 2.029 0 0 0-2.023-2.023h-10.778a2.028 2.028 0 0 0-2.023 2.023v7.1z" class="cls-8" data-name="Path 22974" transform="translate(214.56 -97.302)"/>
                            <path id="Path_22975" d="M-186.792 106.428v-4.473a1.771 1.771 0 0 0-1.765-1.766h-9.409a1.771 1.771 0 0 0-1.765 1.766v4.473z" class="cls-8" data-name="Path 22975" transform="translate(214.56 -97.302)"/>
                            <path id="Path_22976" d="M-197.966 139.848h1.085v-39.659h-1.085a1.771 1.771 0 0 0-1.765 1.766v36.127a1.77 1.77 0 0 0 1.765 1.766z" class="cls-8" data-name="Path 22976" transform="translate(214.56 -97.302)"/>
                        </g>
                        <g id="Group_1009" class="cls-15" data-name="Group 1009" transform="translate(167.969 12.266)">
                            <path id="Path_22977" d="M-199.732 109.568h-14.826v10.859h27.77v-10.859z" class="cls-16" data-name="Path 22977" transform="translate(214.558 -109.568)"/>
                            <path id="Path_22978" d="M-199.738 124.081h-14.82v5.764h27.77v-5.764h-12.95z" class="cls-16" data-name="Path 22978" transform="translate(214.558 -109.568)"/>
                        </g>
                        <g id="Group_1010" class="cls-15" data-name="Group 1010" transform="translate(4.103 12.266)">
                            <path id="Path_22979" d="M-363.6 109.568h-14.826v10.859h27.77v-10.859z" class="cls-16" data-name="Path 22979" transform="translate(378.424 -109.568)"/>
                            <path id="Path_22980" d="M-363.6 124.081h-14.82v5.764h27.77v-5.764h-12.95z" class="cls-16" data-name="Path 22980" transform="translate(378.424 -109.568)"/>
                        </g>
                        <path id="Path_22981" d="M-249.439 301.709c-4.286-5.816-37.605-21.929-37.605-21.929 10.874 12.433 31.137 25.728 31.137 25.728-.181 12.473.522 47.02.551 48.427l.053.05s10.149-46.46 5.864-52.276z" class="cls-17" data-name="Path 22981" transform="translate(382.527 -97.302)"/>
                    </g>
                    <g id="Group_1022" data-name="Group 1022" transform="translate(169.532 53.669)">
                        <g id="Group_1013" data-name="Group 1013" transform="translate(43.077 93.873)">
                            <g id="Group_1012" data-name="Group 1012">
                                <path id="Path_22982" d="M-153.681 244.843s-21.737 35.958-14.91 50.749 53.717 56.4 53.717 56.4l8.83-2.146-33.251-50.558s21.737-30.839 15.906-51.6z" class="cls-8" data-name="Path 22982" transform="translate(169.918 -244.843)"/>
                                <path id="Path_22983" d="M-122.674 251.246c-.64 7.06-5.58 41.38-41.81 50.8a40 40 0 0 1-3.9-6.03 67.27 67.27 0 0 1-.12-3.12s45.81-10.34 45.18-42.61l.47-.21q.105.585.18 1.17z" class="cls-17" data-name="Path 22983" transform="translate(169.918 -244.843)"/>
                            </g>
                            <path id="Path_22984" d="M-106.049 349.811l2.022 8.515-24.36 5.783c-1.536.365 9.276-11.1 14.1-12.342z" class="cls-10" data-name="Path 22984" transform="translate(169.918 -244.843)"/>
                        </g>
                        <g id="Group_1015" data-name="Group 1015" transform="translate(15.412 95.237)">
                            <path id="Path_22985" d="M-162.486 354.311v8.752h-25.036c-1.579 0 11.588-8.656 16.566-8.752z" class="cls-10" data-name="Path 22985" transform="translate(197.584 -246.207)"/>
                            <g id="Group_1014" data-name="Group 1014">
                                <path id="Path_22986" d="M-123.606 246.492l-32.728-.285-2.289 1.743c-2.819 2.547-9.8 8.82-11.4 9.961-2.026 1.437-21.813 10.864-27.168 24.557-4.14 10.587 26.252 71.861 26.252 71.861h8.47s-5.847-48.7-6.031-61.428c-.005-.001 49.366-11.149 44.894-46.409z" class="cls-5" data-name="Path 22986" transform="translate(197.584 -246.207)"/>
                                <path id="Path_22987" d="M-193.478 285.907c.663-7.963 21.9-20.793 28.313-25.217 4.719-3.254 13.741-10.693 18.185-14.4l-9.354-.081-2.289 1.743c-2.819 2.547-9.8 8.82-11.4 9.961-2.026 1.437-21.813 10.864-27.168 24.557-4.14 10.587 26.252 71.861 26.252 71.861s-23.203-60.461-22.539-68.424z" class="cls-18" data-name="Path 22987" transform="translate(197.584 -246.207)"/>
                            </g>
                        </g>
                        <g id="Group_1021" data-name="Group 1021">
                            <g id="Group_1016" data-name="Group 1016" transform="translate(13.56 32.651)">
                                <circle id="Ellipse_59" cx="13.126" cy="13.126" r="13.126" class="cls-17" data-name="Ellipse 59" transform="rotate(-80.744 16.744 11.77)"/>
                                <circle id="Ellipse_60" cx="13.126" cy="13.126" r="13.126" class="cls-8" data-name="Ellipse 60" transform="rotate(-78.056 15.843 12.842)"/>
                                <path id="Path_22988" d="M-179.441 199.18a4.436 4.436 0 0 1-4.436 4.436 4.436 4.436 0 0 1-4.436-4.436 4.436 4.436 0 0 1 4.436-4.436 4.436 4.436 0 0 1 4.436 4.436z" class="cls-19" data-name="Path 22988" transform="translate(199.435 -183.621)"/>
                            </g>
                            <path id="Path_22989" d="M-143.432 184.127c-18.231-8.39-18.568 16.144-18.568 16.144-7.565 4.941-7.153 16.122-7.153 16.122s-14.237-12.932-15.106-14.019l-4.347 1.956s.556 1.137 1.506 2.949l-.42.42 1.952 2.437c4.473 8.171 12.989 22.253 19.349 23.862 9.02 2.283 13.693-9.02 13.693-9.02l2.986-8.823c10.466-3.593 16.623-27.189 6.108-32.028z" class="cls-6" data-name="Path 22989" transform="translate(212.995 -150.97)"/>
                            <path id="Path_22990" d="M-159.124 232.946a9.088 9.088 0 0 1-7.1 1.05c-6.36-1.61-14.88-15.69-19.35-23.86l-1.95-2.44.42-.42c-.95-1.81-1.51-2.95-1.51-2.95l.53-.23c.45.21 1.07 1.03 1.9 2.6 8.19 15.38 20.39 22.9 23.04 22.39 2.15-.42 1.9-16.3 1.9-16.3l.15.16c-.306 5.42.77 13.28 1.97 20z" class="cls-7" data-name="Path 22990" transform="translate(212.995 -150.97)"/>
                            <g id="Group_1017" data-name="Group 1017" transform="translate(0 35.902)">
                                <circle id="Ellipse_61" cx="13.126" cy="13.126" r="13.126" class="cls-17" data-name="Ellipse 61" transform="rotate(-75.1 18.762 11.26)"/>
                                <circle id="Ellipse_62" cx="13.126" cy="13.126" r="13.126" class="cls-8" data-name="Ellipse 62" transform="rotate(-22.691 25.236 5.064)"/>
                                <path id="Path_22991" d="M-185.394 196.086a12.936 12.936 0 0 1 2.65 6.89l-14.15 14.15a12.936 12.936 0 0 1-6.89-2.65z" class="cls-20" data-name="Path 22991" transform="translate(212.995 -186.872)"/>
                                <path id="Path_22992" d="M-186.454 194.856l-18.56 18.56a13.03 13.03 0 0 1-3.79-7.48l14.87-14.88a13.043 13.043 0 0 1 7.48 3.8z" class="cls-21" data-name="Path 22992" transform="translate(212.995 -186.872)"/>
                                <circle id="Ellipse_63" cx="4.436" cy="4.436" r="4.436" class="cls-19" data-name="Ellipse 63" transform="translate(12.738 12.738)"/>
                            </g>
                            <path id="Path_22993" d="M-154.376 184.809s-.089.38-.24 1.051c-.978 4.331-5.179 19.809-6.108 24.082-2.134 9.813 4.39 36.265 4.39 36.265l32.728.285s-6.771-21.984-1.28-33.848c7.964-17.208 2.347-40.034-20.631-35.468z" class="cls-9" data-name="Path 22993" transform="translate(212.995 -150.97)"/>
                            <path id="Path_22994" d="M-169.351 167.751s-6.005-2.222-6.6-6.425a4.372 4.372 0 0 1 3.182-5.1s12.009-7.806 19.275-4.384 9.938 17.654 5.524 23.238c-4.087 5.162-21.381-7.329-21.381-7.329z" class="cls-8" data-name="Path 22994" transform="translate(212.995 -150.97)"/>
                            <path id="Path_22995" d="M-169.351 167.751s3.723 18.1 13.9 11.859l1.771 4.714 7.6-6.545-3.1-6.559a1.7 1.7 0 0 1-.2-1.082c.187-1.237.706-3.686-.847-5.6-1.338-1.648-3.633-1.051-4.234 1.471 0 0-4.023-1.2-5.464-2.882.001 0-6.124 4.624-9.426 4.624z" class="cls-6" data-name="Path 22995" transform="translate(212.995 -150.97)"/>
                            <path id="Path_22996" d="M-150.639 181.705c-.3-.509-.6-1.022-.867-1.5-1.2-2.2.391-7.33-.235-5.972a17.248 17.248 0 0 1-3.709 5.38l1.771 4.714z" class="cls-7" data-name="Path 22996" transform="translate(212.995 -150.97)"/>
                            <g id="Group_1020" data-name="Group 1020" transform="translate(15.372 26.111)">
                                <g id="Group_1018" data-name="Group 1018" transform="translate(11.945 50.65)">
                                    <circle id="Ellipse_64" cx="13.126" cy="13.126" r="13.126" class="cls-17" data-name="Ellipse 64" transform="rotate(-45 22.408 9.281)"/>
                                    <circle id="Ellipse_65" cx="13.126" cy="13.126" r="13.126" class="cls-8" data-name="Ellipse 65" transform="rotate(-80.744 18.072 13.789)"/>
                                    <circle id="Ellipse_66" cx="4.436" cy="4.436" r="4.436" class="cls-19" data-name="Ellipse 66" transform="translate(12.187 14.127)"/>
                                </g>
                                <path id="Path_22997" d="M-144.705 228.51s-3.362-12.026-.518-21.128c0 0-13.51-24.6 6.969-30.007 11.813-3.118 22.92 19.391 16.805 29.346 0 0 3.215 19.715-3.043 27.821 0 0-17.931 12.063-40.1 16.3l-1.793-5.542a145 145 0 0 1 21.68-16.79z" class="cls-6" data-name="Path 22997" transform="translate(197.624 -177.081)"/>
                                <g id="Group_1019" data-name="Group 1019" transform="translate(0 55.517)">
                                    <circle id="Ellipse_67" cx="13.126" cy="13.126" r="13.126" class="cls-17" data-name="Ellipse 67" transform="rotate(-45 22.409 9.282)"/>
                                    <circle id="Ellipse_68" cx="13.126" cy="13.126" r="13.126" class="cls-8" data-name="Ellipse 68" transform="rotate(-76.793 18.305 13.639)"/>
                                    <path id="Path_22998" d="M-170.546 243.174a12.936 12.936 0 0 1 2.65 6.89l-14.15 14.15a12.936 12.936 0 0 1-6.89-2.65z" class="cls-20" data-name="Path 22998" transform="translate(197.624 -232.598)"/>
                                    <path id="Path_22999" d="M-171.606 241.943l-18.56 18.561a13.029 13.029 0 0 1-3.79-7.481l14.87-14.88a13.055 13.055 0 0 1 7.48 3.8z" class="cls-21" data-name="Path 22999" transform="translate(197.624 -232.598)"/>
                                    <path id="Path_23000" d="M-176.565 251.161A4.436 4.436 0 0 1-181 255.6a4.436 4.436 0 0 1-4.436-4.436 4.436 4.436 0 0 1 4.436-4.439 4.436 4.436 0 0 1 4.435 4.436z" class="cls-19" data-name="Path 23000" transform="translate(197.624 -232.598)"/>
                                </g>
                                <path id="Path_23001" d="M-164.593 250.843c22.17-4.238 40.1-16.3 40.1-16.3 6.258-8.106 3.043-27.821 3.043-27.821 6.115-9.955-4.992-32.464-16.805-29.346a20.753 20.753 0 0 0-3.092 1.08c6.485 1.2 18.365 14.381 12.955 26.034 0 0 4.479 23.557-.5 28.037-4.608 4.152-35.701 18.316-35.701 18.316z" class="cls-7" data-name="Path 23001" transform="translate(197.624 -177.081)"/>
                            </g>
                            <path id="Path_23002" d="M-158.122 238.125a151.449 151.449 0 0 1 13.418-9.619s-3.36-12.02-.52-21.12c0 0-6.31-11.49-3.76-20.49l-.26-.43s-4.42 12.82-.44 20.79c0 0-3.32 12.83 0 18.8l-8.953 9.466c.174.904.346 1.778.515 2.603z" class="cls-14" data-name="Path 23002" transform="translate(212.995 -150.97)"/>
                        </g>
                    </g>
                </g>
            </g>
        </g>
    </g>
</svg>
