<svg xmlns="http://www.w3.org/2000/svg" width="379" height="394" viewBox="0 0 379 394">
    <defs>
        <style>
            .cls-1{fill:#f2e0e1}.cls-2{fill:#e0e0e0}.cls-3{fill:#f0f0f0}.cls-4{fill:#e8505b}.cls-5{opacity:.5}.cls-6{fill:#fff}.cls-7{fill:#263238}.cls-8{fill:#e6e6e6}.cls-13,.cls-9{opacity:.2}.cls-10{opacity:.4}.cls-11{opacity:.1}.cls-12{fill:#455a64}.cls-14{fill:#fafafa}.cls-15{fill:#e6bbac}.cls-16{fill:#d88876}
        </style>
    </defs>
    <g id="industry6" transform="translate(-7.641 -7)">
        <path id="_415468-PDXQUO-338" d="M0 0h379v394H0z" class="cls-1" data-name="415468-PDXQUO-338" transform="translate(7.641 7)"/>
        <g id="Group_1298" data-name="Group 1298" transform="translate(39.322 72)">
            <g id="Background_Complete" data-name="Background Complete" transform="translate(0 6.869)">
                <g id="Group_1042" data-name="Group 1042" transform="translate(0 151.146)">
                    <g id="Group_1041" data-name="Group 1041">
                        <path id="Path_23119" d="M350.123 276.226c0 .1-69.473.188-155.152.188-85.709 0-155.167-.084-155.167-.188s69.458-.188 155.167-.188c85.678 0 155.152.084 155.152.188z" class="cls-2" data-name="Path 23119" transform="translate(-39.803 -276.038)"/>
                    </g>
                </g>
                <g id="Group_1050" data-name="Group 1050" transform="translate(75.76 30.081)">
                    <g id="Group_1043" data-name="Group 1043">
                        <path id="Path_23120" d="M163.2 203.4a25.319 25.319 0 0 1-17.187-32.437c1.7-5.064 4.974-9.521 6.377-14.674 1.593-5.849.644-12.054-.339-18.035s-1.986-12.168-.492-18.043 6.2-11.393 12.245-11.811c5.61-.387 10.791 3.769 13.132 8.882s2.355 10.976 1.809 16.572-1.612 11.185-1.277 16.8c.678 11.363 7.043 22.059 6.3 33.417-.39 5.915-2.679 9.7-6.6 14.148-3.378 3.836-8.993 6.357-13.966 5.182" class="cls-3" data-name="Path 23120" transform="translate(-144.723 -108.377)"/>
                    </g>
                    <g id="Group_1045" data-name="Group 1045" transform="translate(19.396 31.695)">
                        <g id="Group_1044" data-name="Group 1044">
                            <path id="Path_23121" d="M171.738 243.877c-.085 0-.154-20.508-.154-45.8s.069-45.805.154-45.805.154 20.5.154 45.805-.069 45.8-.154 45.8z" class="cls-2" data-name="Path 23121" transform="translate(-171.584 -152.271)"/>
                        </g>
                    </g>
                    <g id="Group_1047" data-name="Group 1047" transform="translate(19.614 68.012)">
                        <g id="Group_1046" data-name="Group 1046">
                            <path id="Path_23122" d="M182 202.568c.052.067-2.169 1.889-4.961 4.069s-5.1 3.893-5.151 3.826 2.168-1.888 4.961-4.069 5.097-3.894 5.151-3.826z" class="cls-2" data-name="Path 23122" transform="translate(-171.886 -202.566)"/>
                        </g>
                    </g>
                    <g id="Group_1049" data-name="Group 1049" transform="translate(13.473 62.484)">
                        <g id="Group_1048" data-name="Group 1048">
                            <path id="Path_23123" d="M169.467 199.12a44.587 44.587 0 0 1-6.084-4.205 22.333 22.333 0 0 1 3.13 1.976 22.264 22.264 0 0 1 2.954 2.229z" class="cls-2" data-name="Path 23123" transform="translate(-163.381 -194.911)"/>
                        </g>
                    </g>
                </g>
                <g id="Group_1056" data-name="Group 1056" transform="translate(10.438 64.249)">
                    <g id="Group_1051" data-name="Group 1051">
                        <path id="Path_23124" d="M76.5 155.7l-12.372 24.946 3.693.14-10.481 19.827h5.5l-8.587 17.615h48l-10.564-17.615 5.064-.22-10.128-19.817 3.743-.22z" class="cls-3" data-name="Path 23124" transform="translate(-54.258 -155.696)"/>
                    </g>
                    <g id="Group_1053" data-name="Group 1053" transform="translate(21.97 28.854)">
                        <g id="Group_1052" data-name="Group 1052">
                            <path id="Path_23125" d="M85.423 195.656c.1 0 .033 12.955-.157 28.929s-.43 28.929-.534 28.928-.033-12.952.157-28.932.43-28.926.534-28.925z" class="cls-2" data-name="Path 23125" transform="translate(-84.684 -195.656)"/>
                        </g>
                    </g>
                    <g id="Group_1055" data-name="Group 1055" transform="translate(22.572 36.312)">
                        <g id="Group_1054" data-name="Group 1054">
                            <path id="Path_23126" d="M92.79 205.988a29.834 29.834 0 0 1-3.515 3.159 29.9 29.9 0 0 1-3.756 2.87 29.726 29.726 0 0 1 3.515-3.16 29.784 29.784 0 0 1 3.756-2.869z" class="cls-2" data-name="Path 23126" transform="translate(-85.517 -205.984)"/>
                        </g>
                    </g>
                </g>
                <g id="Group_1058" data-name="Group 1058" transform="translate(19.732)">
                    <g id="Group_1057" data-name="Group 1057">
                        <path id="Path_23127" d="M67.13 82.833h35.2s0-8.058-4.156-8.058a6.4 6.4 0 0 0-6.453 5s0-15.039-7.567-12.833c-7.161 2.088-7.97 11.715-7.97 11.715s-1.289-4.842-5.17-2.113a8.344 8.344 0 0 0-3.884 6.289z" class="cls-3" data-name="Path 23127" transform="translate(-67.13 -66.718)"/>
                    </g>
                </g>
            </g>
            <g id="House" transform="translate(119.201)">
                <g id="Group_1104" data-name="Group 1104">
                    <g id="Group_1059" data-name="Group 1059" transform="translate(13.344 19.445)">
                        <path id="Path_23128" d="M223.365 125.049v132.58h149.1v-132.58h-16.13l-32.65-40.915-27.539 40.521z" class="cls-4" data-name="Path 23128" transform="translate(-223.365 -84.134)"/>
                    </g>
                    <g id="Group_1060" class="cls-5" data-name="Group 1060" transform="translate(13.344 19.445)">
                        <path id="Path_23129" d="M223.365 125.049v132.58h149.1v-132.58h-16.13l-32.65-40.915-27.539 40.521z" class="cls-6" data-name="Path 23129" transform="translate(-223.365 -84.134)"/>
                    </g>
                    <g id="Group_1061" data-name="Group 1061" transform="translate(0 10.408)">
                        <path id="Path_23130" d="M247.708 72.843c-.734.978-42.824 50.654-42.824 50.654h85.158l28.507-42.841 32.651 40.915 29.87-.032-36.461-49.92z" class="cls-7" data-name="Path 23130" transform="translate(-204.884 -71.619)"/>
                    </g>
                    <g id="Group_1062" data-name="Group 1062" transform="translate(35.782 187.438)">
                        <path id="Rectangle_3033" d="M0 0h35.332v5.501H0z" class="cls-8" data-name="Rectangle 3033"/>
                    </g>
                    <g id="Group_1063" data-name="Group 1063" transform="translate(27.644 195.674)">
                        <path id="Rectangle_3034" d="M0 0h47.144v4.271H0z" class="cls-8" data-name="Rectangle 3034"/>
                    </g>
                    <g id="Group_1064" data-name="Group 1064" transform="translate(38.128 134.139)">
                        <path id="Path_23131" d="M257.687 242.972l.291 53.008h30.348v-53.008z" class="cls-4" data-name="Path 23131" transform="translate(-257.687 -242.972)"/>
                    </g>
                    <g id="Group_1065" class="cls-9" data-name="Group 1065" transform="translate(38.128 134.139)">
                        <path id="Path_23132" d="M257.687 242.972l.291 53.008h30.348v-53.008z" data-name="Path 23132" transform="translate(-257.687 -242.972)"/>
                    </g>
                    <g id="Group_1066" class="cls-10" data-name="Group 1066" transform="translate(60.624 159.303)">
                        <circle id="Ellipse_72" cx="1.339" cy="1.339" r="1.339" data-name="Ellipse 72"/>
                    </g>
                    <g id="Group_1067" data-name="Group 1067" transform="translate(25.567 115.93)">
                        <path id="Path_23133" d="M268.274 217.756l-27.983 23.073v6.382l28.231-22.929 25.86 21.189V238.8z" class="cls-7" data-name="Path 23133" transform="translate(-240.291 -217.756)"/>
                    </g>
                    <g id="Group_1070" data-name="Group 1070" transform="translate(62.185)">
                        <g id="Group_1068" data-name="Group 1068" transform="translate(0 4.773)">
                            <path id="Rectangle_3035" d="M0 0h6.541v9.062H0z" class="cls-4" data-name="Rectangle 3035"/>
                        </g>
                        <g id="Group_1069" data-name="Group 1069" transform="translate(10.961)">
                            <path id="Rectangle_3036" d="M0 0h6.895v13.835H0z" class="cls-4" data-name="Rectangle 3036"/>
                        </g>
                    </g>
                    <g id="Group_1073" class="cls-10" data-name="Group 1073" transform="translate(62.185)">
                        <g id="Group_1071" data-name="Group 1071" transform="translate(0 4.773)">
                            <path id="Rectangle_3037" d="M0 0h6.541v9.062H0z" data-name="Rectangle 3037"/>
                        </g>
                        <g id="Group_1072" data-name="Group 1072" transform="translate(10.961)">
                            <path id="Rectangle_3038" d="M0 0h6.895v13.835H0z" data-name="Rectangle 3038"/>
                        </g>
                    </g>
                    <g id="Group_1074" data-name="Group 1074" transform="translate(110.851 40.752)">
                        <path id="Rectangle_3039" d="M0 0h7.713v7.713H0z" class="cls-6" data-name="Rectangle 3039"/>
                    </g>
                    <g id="Group_1075" class="cls-11" data-name="Group 1075" transform="translate(85.157 19.445)">
                        <path id="Path_23134" d="M322.818 126.975h4.108L353.9 87.362l-2.576-3.228z" data-name="Path 23134" transform="translate(-322.818 -84.134)"/>
                    </g>
                    <g id="Group_1076" class="cls-11" data-name="Group 1076" transform="translate(13.344 62.286)">
                        <path id="Path_23135" d="M223.365 143.464v4.277l71.813-4.277z" data-name="Path 23135" transform="translate(-223.365 -143.464)"/>
                    </g>
                    <g id="Group_1077" class="cls-11" data-name="Group 1077" transform="translate(146.318 60.36)">
                        <path id="Path_23136" d="M407.518 140.8l16.13 5.356V140.8z" data-name="Path 23136" transform="translate(-407.518 -140.797)"/>
                    </g>
                    <g id="Group_1078" data-name="Group 1078" transform="translate(32.079 190.828)">
                        <path id="Rectangle_3040" d="M0 0h41.066v5.339H0z" class="cls-8" data-name="Rectangle 3040"/>
                    </g>
                    <g id="Group_1080" data-name="Group 1080" transform="translate(32.401 190.71)">
                        <g id="Group_1079" data-name="Group 1079">
                            <path id="Path_23137" d="M289.423 321.5c0 .1-8.881.188-19.833.188s-19.835-.085-19.835-.188 8.879-.188 19.835-.188 19.833.088 19.833.188z" class="cls-2" data-name="Path 23137" transform="translate(-249.756 -321.317)"/>
                        </g>
                    </g>
                    <g id="Group_1082" data-name="Group 1082" transform="translate(32.401 195.482)">
                        <g id="Group_1081" data-name="Group 1081">
                            <path id="Path_23138" d="M289.423 328.114c0 .1-8.881.188-19.833.188s-19.835-.084-19.835-.188 8.879-.188 19.835-.188 19.833.084 19.833.188z" class="cls-2" data-name="Path 23138" transform="translate(-249.756 -327.926)"/>
                        </g>
                    </g>
                    <g id="Group_1089" data-name="Group 1089" transform="translate(33.504 69.336)">
                        <g id="Group_1083" data-name="Group 1083" transform="translate(2.278 .289)">
                            <path id="Rectangle_3041" d="M0 0h34.218v32.506H0z" class="cls-6" data-name="Rectangle 3041"/>
                        </g>
                        <g id="Group_1084" data-name="Group 1084" transform="translate(2.278 .289)">
                            <path id="Path_23139" d="M269.919 153.628s-9.7 16.546-15.02 16.69c0 0 4.926 2.512 5.3 15.816h-5.761v-32.506z" class="cls-4" data-name="Path 23139" transform="translate(-254.438 -153.628)"/>
                        </g>
                        <g id="Group_1085" data-name="Group 1085" transform="translate(21.015 .289)">
                            <path id="Path_23140" d="M280.386 153.628s9.7 16.546 15.02 16.69c0 0-4.926 2.512-5.3 15.816h5.761v-32.506z" class="cls-4" data-name="Path 23140" transform="translate(-280.386 -153.628)"/>
                        </g>
                        <g id="Group_1086" data-name="Group 1086" transform="translate(18.566)">
                            <path id="Rectangle_3042" d="M0 0h1.085v34.676H0z" class="cls-7" data-name="Rectangle 3042"/>
                        </g>
                        <g id="Group_1087" data-name="Group 1087" transform="translate(1.771 16.795)">
                            <path id="Rectangle_3043" d="M0 0h1.085v34.676H0z" class="cls-7" data-name="Rectangle 3043" transform="rotate(-90 .543 .542)"/>
                        </g>
                        <g id="Group_1088" data-name="Group 1088" transform="translate(0 32.795)">
                            <path id="Rectangle_3044" d="M0 0h38.218v.807H0z" class="cls-7" data-name="Rectangle 3044"/>
                        </g>
                    </g>
                    <g id="Group_1096" data-name="Group 1096" transform="translate(104.95 69.336)">
                        <g id="Group_1090" data-name="Group 1090" transform="translate(2.278 .289)">
                            <path id="Rectangle_3045" d="M0 0h34.218v32.506H0z" class="cls-6" data-name="Rectangle 3045"/>
                        </g>
                        <g id="Group_1091" data-name="Group 1091" transform="translate(2.278 .289)">
                            <path id="Path_23141" d="M368.865 153.628s-9.7 16.546-15.02 16.69c0 0 4.926 2.512 5.3 15.816h-5.762v-32.506z" class="cls-4" data-name="Path 23141" transform="translate(-353.384 -153.628)"/>
                        </g>
                        <g id="Group_1092" data-name="Group 1092" transform="translate(21.015 .289)">
                            <path id="Path_23142" d="M379.332 153.628s9.7 16.546 15.02 16.69c0 0-4.926 2.512-5.3 15.816h5.762v-32.506z" class="cls-4" data-name="Path 23142" transform="translate(-379.332 -153.628)"/>
                        </g>
                        <g id="Group_1093" data-name="Group 1093" transform="translate(18.566)">
                            <path id="Rectangle_3046" d="M0 0h1.085v34.676H0z" class="cls-7" data-name="Rectangle 3046"/>
                        </g>
                        <g id="Group_1094" data-name="Group 1094" transform="translate(1.771 16.795)">
                            <path id="Rectangle_3047" d="M0 0h1.085v34.676H0z" class="cls-7" data-name="Rectangle 3047" transform="rotate(-90 .543 .542)"/>
                        </g>
                        <g id="Group_1095" data-name="Group 1095" transform="translate(0 32.795)">
                            <path id="Rectangle_3048" d="M0 0h38.218v.807H0z" class="cls-7" data-name="Rectangle 3048"/>
                        </g>
                    </g>
                    <g id="Group_1103" data-name="Group 1103" transform="translate(104.95 137.989)">
                        <g id="Group_1097" data-name="Group 1097" transform="translate(2.278 .289)">
                            <path id="Rectangle_3049" d="M0 0h34.218v32.506H0z" class="cls-6" data-name="Rectangle 3049"/>
                        </g>
                        <g id="Group_1098" data-name="Group 1098" transform="translate(2.278 .289)">
                            <path id="Path_23143" d="M368.865 248.705s-9.7 16.546-15.02 16.689c0 0 4.926 2.512 5.3 15.816h-5.762v-32.505z" class="cls-4" data-name="Path 23143" transform="translate(-353.384 -248.705)"/>
                        </g>
                        <g id="Group_1099" data-name="Group 1099" transform="translate(21.015 .289)">
                            <path id="Path_23144" d="M379.332 248.705s9.7 16.546 15.02 16.689c0 0-4.926 2.512-5.3 15.816h5.762v-32.505z" class="cls-4" data-name="Path 23144" transform="translate(-379.332 -248.705)"/>
                        </g>
                        <g id="Group_1100" data-name="Group 1100" transform="translate(18.566)">
                            <path id="Rectangle_3050" d="M0 0h1.085v34.676H0z" class="cls-7" data-name="Rectangle 3050"/>
                        </g>
                        <g id="Group_1101" data-name="Group 1101" transform="translate(1.771 16.795)">
                            <path id="Rectangle_3051" d="M0 0h1.085v34.676H0z" class="cls-7" data-name="Rectangle 3051" transform="rotate(-90 .543 .542)"/>
                        </g>
                        <g id="Group_1102" data-name="Group 1102" transform="translate(0 32.795)">
                            <path id="Rectangle_3052" d="M0 0h38.218v.807H0z" class="cls-7" data-name="Rectangle 3052"/>
                        </g>
                    </g>
                </g>
            </g>
            <g id="For_sale" data-name="For sale" transform="translate(136.014 167)">
                <g id="Group_1144" data-name="Group 1144">
                    <path id="Path_23145" d="M228.167 288.482V397.02h9.315V295.772h70.874v-7.29z" class="cls-12" data-name="Path 23145" transform="translate(-228.167 -288.482)"/>
                    <path id="Rectangle_3053" d="M0 0h3.01v101.248H0z" class="cls-7" data-name="Rectangle 3053" transform="translate(6.304 7.29)"/>
                    <path id="Rectangle_3054" d="M0 0h5.669v7.29H0z" class="cls-7" data-name="Rectangle 3054" transform="translate(74.52)"/>
                    <g id="Group_1105" data-name="Group 1105" transform="translate(13.477 12.605)">
                        <path id="Rectangle_3055" d="M0 0h68.382v43.12H0z" class="cls-4" data-name="Rectangle 3055"/>
                    </g>
                    <g id="Group_1106" data-name="Group 1106" transform="translate(13.477 12.605)">
                        <path id="Rectangle_3056" d="M0 0h68.382v43.12H0z" class="cls-4" data-name="Rectangle 3056"/>
                    </g>
                    <g id="Group_1109" data-name="Group 1109" transform="translate(78.085 12.605)">
                        <g id="Group_1107" data-name="Group 1107">
                            <path id="Rectangle_3057" d="M0 0h3.775v43.12H0z" class="cls-4" data-name="Rectangle 3057"/>
                        </g>
                        <g id="Group_1108" class="cls-9" data-name="Group 1108">
                            <path id="Rectangle_3058" d="M0 0h3.775v43.12H0z" data-name="Rectangle 3058"/>
                        </g>
                    </g>
                    <g id="Group_1111" data-name="Group 1111" transform="translate(17.32 16.09)">
                        <g id="Group_1110" data-name="Group 1110">
                            <path id="Path_23146" d="M309.353 346.681s-.011-.227-.016-.654-.009-1.066-.017-1.884l-.038-7.176-.078-26.014.148.148-57.007.04.188-.188-.014 35.728-.173-.173 41.008.085 11.768.047 3.14.021.813.01c.184 0 .283.01.283.01s-.085.007-.262.011l-.794.01-3.1.021-11.728.047-41.123.085h-.174v-.174c0-10.985-.009-23.06-.014-35.728v-.188h.193l57.007.04h.148v.147l-.079 26.106-.037 7.143-.017 1.856c-.015.418-.025.624-.025.624z" class="cls-7" data-name="Path 23146" transform="translate(-252.153 -310.765)"/>
                        </g>
                    </g>
                    <path id="Rectangle_3059" d="M0 0h2.033v5.315H0z" class="cls-4" data-name="Rectangle 3059" transform="translate(24.656 7.29)"/>
                    <path id="Rectangle_3060" d="M0 0h2.033v5.315H0z" class="cls-4" data-name="Rectangle 3060" transform="translate(58.049 7.29)"/>
                    <g id="Group_1112" data-name="Group 1112" transform="translate(33.157 22.928)">
                        <path id="Path_23147" d="M277 322.485v2.265h4.546V327H277v3.53h-2.913v-10.3h8.076v2.251z" class="cls-4" data-name="Path 23147" transform="translate(-274.086 -320.234)"/>
                        <path id="Path_23148" d="M277 322.485v2.265h4.546V327H277v3.53h-2.913v-10.3h8.076v2.251z" class="cls-13" data-name="Path 23148" transform="translate(-274.086 -320.234)"/>
                    </g>
                    <g id="Group_1113" data-name="Group 1113" transform="translate(41.984 22.722)">
                        <path id="Path_23149" d="M286.31 325.3a5.735 5.735 0 1 1 5.722 5.354 5.385 5.385 0 0 1-5.722-5.354zm8.5 0a2.785 2.785 0 1 0-2.78 2.942 2.757 2.757 0 0 0 2.783-2.942z" class="cls-4" data-name="Path 23149" transform="translate(-286.31 -319.949)"/>
                        <path id="Path_23150" d="M286.31 325.3a5.735 5.735 0 1 1 5.722 5.354 5.385 5.385 0 0 1-5.722-5.354zm8.5 0a2.785 2.785 0 1 0-2.78 2.942 2.757 2.757 0 0 0 2.783-2.942z" class="cls-13" data-name="Path 23150" transform="translate(-286.31 -319.949)"/>
                    </g>
                    <g id="Group_1114" data-name="Group 1114" transform="translate(54.958 22.928)">
                        <path id="Path_23151" d="M308.779 327.795h-1.589v2.736h-2.912v-10.3h4.706c2.81 0 4.574 1.457 4.574 3.81a3.417 3.417 0 0 1-2.015 3.251l2.221 3.236h-3.119zm.03-5.266h-1.619v3.016h1.618c1.206 0 1.81-.56 1.81-1.5 0-.957-.604-1.516-1.81-1.516z" class="cls-4" data-name="Path 23151" transform="translate(-304.278 -320.234)"/>
                        <path id="Path_23152" d="M308.779 327.795h-1.589v2.736h-2.912v-10.3h4.706c2.81 0 4.574 1.457 4.574 3.81a3.417 3.417 0 0 1-2.015 3.251l2.221 3.236h-3.119zm.03-5.266h-1.619v3.016h1.618c1.206 0 1.81-.56 1.81-1.5 0-.957-.604-1.516-1.81-1.516z" class="cls-13" data-name="Path 23152" transform="translate(-304.278 -320.234)"/>
                    </g>
                    <g id="Group_1115" data-name="Group 1115" transform="translate(27.88 36.891)">
                        <path id="Path_23153" d="M266.777 349.614l1-2.252a6.808 6.808 0 0 0 3.563 1.064c1.265 0 1.759-.355 1.759-.879 0-1.712-6.139-.464-6.139-4.473 0-1.928 1.573-3.5 4.782-3.5a8.083 8.083 0 0 1 3.918.942l-.941 2.267a6.382 6.382 0 0 0-2.993-.833c-1.28 0-1.743.433-1.743.972 0 1.651 6.125.417 6.125 4.4 0 1.881-1.574 3.485-4.782 3.485a8.5 8.5 0 0 1-4.549-1.193z" class="cls-4" data-name="Path 23153" transform="translate(-266.777 -339.572)"/>
                        <path id="Path_23154" d="M266.777 349.614l1-2.252a6.808 6.808 0 0 0 3.563 1.064c1.265 0 1.759-.355 1.759-.879 0-1.712-6.139-.464-6.139-4.473 0-1.928 1.573-3.5 4.782-3.5a8.083 8.083 0 0 1 3.918.942l-.941 2.267a6.382 6.382 0 0 0-2.993-.833c-1.28 0-1.743.433-1.743.972 0 1.651 6.125.417 6.125 4.4 0 1.881-1.574 3.485-4.782 3.485a8.5 8.5 0 0 1-4.549-1.193z" class="cls-13" data-name="Path 23154" transform="translate(-266.777 -339.572)"/>
                    </g>
                    <g id="Group_1116" data-name="Group 1116" transform="translate(37.321 37.107)">
                        <path id="Path_23155" d="M288.384 348.571h-4.566l-.848 2.1h-3.116l4.766-10.8h3.008l4.782 10.8h-3.178zm-.9-2.252l-1.389-3.455-1.388 3.455z" class="cls-4" data-name="Path 23155" transform="translate(-279.853 -339.871)"/>
                        <path id="Path_23156" d="M288.384 348.571h-4.566l-.848 2.1h-3.116l4.766-10.8h3.008l4.782 10.8h-3.178zm-.9-2.252l-1.389-3.455-1.388 3.455z" class="cls-13" data-name="Path 23156" transform="translate(-279.853 -339.871)"/>
                    </g>
                    <g id="Group_1117" data-name="Group 1117" transform="translate(50.743 37.107)">
                        <path id="Path_23157" d="M298.44 339.871h3.054v8.377h5.152v2.421h-8.206z" class="cls-4" data-name="Path 23157" transform="translate(-298.44 -339.871)"/>
                        <path id="Path_23158" d="M298.44 339.871h3.054v8.377h5.152v2.421h-8.206z" class="cls-13" data-name="Path 23158" transform="translate(-298.44 -339.871)"/>
                    </g>
                    <g id="Group_1118" data-name="Group 1118" transform="translate(60.154 37.107)">
                        <path id="Path_23159" d="M320.142 348.309v2.36h-8.669v-10.8h8.469v2.36H314.5v1.82h4.8v2.282h-4.8v1.974z" class="cls-4" data-name="Path 23159" transform="translate(-311.473 -339.871)"/>
                        <path id="Path_23160" d="M320.142 348.309v2.36h-8.669v-10.8h8.469v2.36H314.5v1.82h4.8v2.282h-4.8v1.974z" class="cls-13" data-name="Path 23160" transform="translate(-311.473 -339.871)"/>
                    </g>
                    <g id="Group_1120" data-name="Group 1120" transform="translate(69.977 17.566)">
                        <g id="Group_1119" data-name="Group 1119">
                            <path id="Path_23161" d="M328.275 314.475c-.03 0-.043-.134-.118-.349a1.511 1.511 0 0 0-.557-.74 1.381 1.381 0 0 0-1.283-.16 1.337 1.337 0 0 0 0 2.5 1.379 1.379 0 0 0 1.283-.16 1.513 1.513 0 0 0 .557-.741c.075-.216.087-.349.118-.349s.061.135.025.386a1.505 1.505 0 0 1-.538.916 1.625 1.625 0 0 1-1.562.274 1.668 1.668 0 0 1 0-3.151 1.627 1.627 0 0 1 1.562.274 1.5 1.5 0 0 1 .537.916c.036.249.001.385-.024.384z" class="cls-7" data-name="Path 23161" transform="translate(-325.078 -312.809)"/>
                        </g>
                    </g>
                    <g id="Group_1122" data-name="Group 1122" transform="translate(71.002 18.32)">
                        <g id="Group_1121" data-name="Group 1121">
                            <path id="Path_23162" d="M327.984 313.864c.076.072-.193.48-.6.913s-.8.728-.874.656.193-.48.6-.913.798-.727.874-.656z" class="cls-7" data-name="Path 23162" transform="translate(-326.496 -313.853)"/>
                        </g>
                    </g>
                    <g id="Group_1124" data-name="Group 1124" transform="translate(70.936 18.397)">
                        <g id="Group_1123" data-name="Group 1123">
                            <path id="Path_23163" d="M328.121 315.36c-.038.094-.555-.038-1.053-.448s-.73-.89-.646-.945.429.285.884.654.858.642.815.739z" class="cls-7" data-name="Path 23163" transform="translate(-326.405 -313.96)"/>
                        </g>
                    </g>
                    <g id="Group_1126" data-name="Group 1126" transform="translate(69.426 48.009)">
                        <g id="Group_1125" data-name="Group 1125">
                            <path id="Path_23164" d="M327.512 356.635c-.03 0-.043-.134-.118-.349a1.5 1.5 0 0 0-.557-.741 1.38 1.38 0 0 0-1.282-.16 1.337 1.337 0 0 0 0 2.5 1.381 1.381 0 0 0 1.283-.16 1.506 1.506 0 0 0 .556-.741c.075-.215.088-.349.118-.349s.06.135.024.386a1.5 1.5 0 0 1-.537.916 1.628 1.628 0 0 1-1.563.274 1.668 1.668 0 0 1 0-3.152 1.629 1.629 0 0 1 1.563.274 1.5 1.5 0 0 1 .537.916c.036.251-.003.387-.024.386z" class="cls-7" data-name="Path 23164" transform="translate(-324.315 -354.969)"/>
                        </g>
                    </g>
                    <g id="Group_1128" data-name="Group 1128" transform="translate(70.45 48.763)">
                        <g id="Group_1127" data-name="Group 1127">
                            <path id="Path_23165" d="M327.22 356.024c.076.071-.193.48-.6.913s-.8.728-.874.656.194-.48.6-.913.799-.727.874-.656z" class="cls-7" data-name="Path 23165" transform="translate(-325.733 -356.013)"/>
                        </g>
                    </g>
                    <g id="Group_1130" data-name="Group 1130" transform="translate(70.384 48.84)">
                        <g id="Group_1129" data-name="Group 1129">
                            <path id="Path_23166" d="M327.357 357.521c-.038.093-.556-.038-1.054-.448s-.73-.89-.646-.945.43.285.885.654.858.641.815.739z" class="cls-7" data-name="Path 23166" transform="translate(-325.641 -356.12)"/>
                        </g>
                    </g>
                    <g id="Group_1132" data-name="Group 1132" transform="translate(18.855 47.277)">
                        <g id="Group_1131" data-name="Group 1131">
                            <path id="Path_23167" d="M257.476 355.623c-.03 0-.043-.134-.118-.35a1.5 1.5 0 0 0-.557-.741 1.378 1.378 0 0 0-1.282-.16 1.337 1.337 0 0 0 0 2.5 1.38 1.38 0 0 0 1.282-.16 1.5 1.5 0 0 0 .557-.74c.075-.216.088-.35.118-.349s.06.135.024.385a1.5 1.5 0 0 1-.537.916 1.627 1.627 0 0 1-1.563.274 1.668 1.668 0 0 1 0-3.152 1.629 1.629 0 0 1 1.563.274 1.5 1.5 0 0 1 .537.916c.035.251 0 .387-.024.387z" class="cls-7" data-name="Path 23167" transform="translate(-254.279 -353.956)"/>
                        </g>
                    </g>
                    <g id="Group_1134" data-name="Group 1134" transform="translate(19.878 48.032)">
                        <g id="Group_1133" data-name="Group 1133">
                            <path id="Path_23168" d="M257.184 355.011c.076.071-.193.48-.6.914s-.8.727-.874.656.194-.479.6-.913.798-.728.874-.657z" class="cls-7" data-name="Path 23168" transform="translate(-255.696 -355)"/>
                        </g>
                    </g>
                    <g id="Group_1136" data-name="Group 1136" transform="translate(19.813 48.109)">
                        <g id="Group_1135" data-name="Group 1135">
                            <path id="Path_23169" d="M257.321 356.508c-.038.093-.556-.038-1.053-.448s-.73-.89-.646-.945.43.285.884.655.858.64.815.738z" class="cls-7" data-name="Path 23169" transform="translate(-255.605 -355.107)"/>
                        </g>
                    </g>
                    <g id="Group_1138" data-name="Group 1138" transform="translate(19.122 18.163)">
                        <g id="Group_1137" data-name="Group 1137">
                            <path id="Path_23170" d="M257.845 315.3c-.03 0-.043-.134-.118-.349a1.511 1.511 0 0 0-.557-.74 1.381 1.381 0 0 0-1.283-.16 1.337 1.337 0 0 0 0 2.5 1.379 1.379 0 0 0 1.283-.16 1.513 1.513 0 0 0 .557-.741c.075-.216.087-.35.118-.35s.061.135.025.386a1.5 1.5 0 0 1-.538.916 1.625 1.625 0 0 1-1.562.274 1.668 1.668 0 0 1 0-3.151 1.626 1.626 0 0 1 1.562.274 1.5 1.5 0 0 1 .538.916c.035.252-.004.385-.025.385z" class="cls-7" data-name="Path 23170" transform="translate(-254.649 -313.635)"/>
                        </g>
                    </g>
                    <g id="Group_1140" data-name="Group 1140" transform="translate(20.146 18.917)">
                        <g id="Group_1139" data-name="Group 1139">
                            <path id="Path_23171" d="M257.554 314.691c.076.071-.193.48-.6.913s-.8.727-.874.656.193-.48.6-.913.798-.727.874-.656z" class="cls-7" data-name="Path 23171" transform="translate(-256.066 -314.68)"/>
                        </g>
                    </g>
                    <g id="Group_1142" data-name="Group 1142" transform="translate(20.08 18.994)">
                        <g id="Group_1141" data-name="Group 1141">
                            <path id="Path_23172" d="M257.691 316.187c-.038.094-.555-.038-1.053-.448s-.73-.89-.646-.945.429.285.884.654.858.642.815.739z" class="cls-7" data-name="Path 23172" transform="translate(-255.975 -314.787)"/>
                        </g>
                    </g>
                    <g id="Group_1143" data-name="Group 1143" transform="translate(24.98 22.722)">
                        <path id="Path_23173" d="M272.984 322.485v2.265h4.545V327h-4.545v3.53h-2.912v-10.3h8.075v2.251z" class="cls-14" data-name="Path 23173" transform="translate(-264.794 -320.028)"/>
                        <path id="Path_23174" d="M282.3 325.3a5.735 5.735 0 1 1 5.722 5.354 5.385 5.385 0 0 1-5.722-5.354zm8.5 0a2.784 2.784 0 1 0-2.78 2.942 2.757 2.757 0 0 0 2.78-2.942z" class="cls-14" data-name="Path 23174" transform="translate(-268.191 -319.949)"/>
                        <path id="Path_23175" d="M304.764 327.795h-1.589v2.736h-2.912v-10.3h4.707c2.809 0 4.574 1.457 4.574 3.81a3.418 3.418 0 0 1-2.015 3.251l2.22 3.236h-3.118zm.03-5.266h-1.619v3.016h1.619c1.206 0 1.809-.56 1.809-1.5-.003-.957-.603-1.516-1.809-1.516z" class="cls-14" data-name="Path 23175" transform="translate(-273.184 -320.028)"/>
                        <path id="Path_23176" d="M262.762 349.614l1-2.252a6.808 6.808 0 0 0 3.563 1.064c1.265 0 1.759-.355 1.759-.879 0-1.712-6.139-.464-6.139-4.473 0-1.928 1.573-3.5 4.782-3.5a8.083 8.083 0 0 1 3.918.942l-.941 2.267a6.379 6.379 0 0 0-2.992-.833c-1.28 0-1.743.433-1.743.972 0 1.651 6.124.417 6.124 4.4 0 1.881-1.573 3.485-4.782 3.485a8.5 8.5 0 0 1-4.549-1.193z" class="cls-14" data-name="Path 23176" transform="translate(-262.762 -325.403)"/>
                        <path id="Path_23177" d="M284.369 348.571H279.8l-.849 2.1h-3.116l4.766-10.8h3.008l4.782 10.8h-3.177zm-.895-2.252l-1.389-3.455-1.389 3.455z" class="cls-14" data-name="Path 23177" transform="translate(-266.396 -325.486)"/>
                        <path id="Path_23178" d="M294.425 339.871h3.054v8.377h5.153v2.421h-8.207z" class="cls-14" data-name="Path 23178" transform="translate(-271.562 -325.486)"/>
                        <path id="Path_23179" d="M316.128 348.309v2.36h-8.669v-10.8h8.469v2.36h-5.445v1.82h4.8v2.282h-4.8v1.974z" class="cls-14" data-name="Path 23179" transform="translate(-275.184 -325.486)"/>
                    </g>
                </g>
            </g>
            <g id="Plants" transform="translate(219.108 200.235)">
                <g id="Group_1149" data-name="Group 1149" transform="translate(17.265)">
                    <g id="Group_1148" data-name="Group 1148">
                        <g id="Group_1145" data-name="Group 1145">
                            <path id="Path_23180" d="M374.606 393.83c-4.332-2.336-6.079-5.628-7.1-10.442a17.258 17.258 0 0 1 3.2-13.943c2.514-3.242 6.215-5.608 7.936-9.333 1.834-3.969 1.173-9.014 3.968-12.377 1.921-2.31 5.013-3.226 7.47-4.954 2.005-1.41 3.566-3.35 5.357-5.025s3.975-3.145 6.425-3.243c3.695-.148 6.961 3.12 7.559 6.77s-1.045 7.4-3.571 10.1c-1.833 1.958-4.181 3.568-5.245 6.029-2 4.624 1.308 10.347-.888 14.881-1.6 3.311-5.876 5.3-6.077 8.974a25.2 25.2 0 0 0 .6 4c.453 4.207-3.085 8.047-7.136 9.27s-8.422.414-12.5-.707" class="cls-4" data-name="Path 23180" transform="translate(-367.153 -334.508)"/>
                        </g>
                        <g id="Group_1147" data-name="Group 1147" transform="translate(8.724 15.691)">
                            <g id="Group_1146" data-name="Group 1146">
                                <path id="Path_23181" d="M398.989 356.24a3.308 3.308 0 0 1-.384.543l-1.175 1.49c-.522.637-1.149 1.425-1.819 2.384s-1.5 2-2.279 3.249l-1.265 1.931c-.436.674-.835 1.409-1.279 2.15-.908 1.472-1.732 3.127-2.632 4.849a81.625 81.625 0 0 0-7.62 24.007c-.258 1.926-.539 3.753-.646 5.48-.065.861-.163 1.692-.195 2.494s-.055 1.57-.08 2.306c-.084 1.47-.018 2.8-.013 3.969s.053 2.175.112 3l.1 1.895a3.294 3.294 0 0 1 0 .665 3.279 3.279 0 0 1-.1-.655c-.05-.484-.115-1.111-.2-1.89-.09-.822-.176-1.828-.2-3s-.124-2.508-.063-3.985q.024-1.11.048-2.319c.022-.807.11-1.641.167-2.509.09-1.737.357-3.576.6-5.516a78.918 78.918 0 0 1 7.664-24.146c.917-1.727 1.759-3.382 2.688-4.854.454-.74.864-1.474 1.311-2.145l1.3-1.922c.8-1.242 1.646-2.28 2.349-3.22s1.346-1.719 1.893-2.338l1.251-1.431a3.256 3.256 0 0 1 .467-.482z" class="cls-7" data-name="Path 23181" transform="translate(-379.235 -356.239)"/>
                            </g>
                        </g>
                    </g>
                </g>
                <g id="Group_1163" data-name="Group 1163" transform="translate(0 43.53)">
                    <g id="Group_1162" data-name="Group 1162">
                        <g id="Group_1150" data-name="Group 1150" transform="translate(3.801)">
                            <path id="Path_23182" d="M350.437 394.792a6.463 6.463 0 0 1 4.484 2.345 11.409 11.409 0 0 1 2.253 4.639c.84 3.249.274 7.071-.679 10.29-3.5-1.285-5.631-5.047-6.593-7.023-1.52-3.123-2.371-9.691.534-10.251" class="cls-4" data-name="Path 23182" transform="translate(-348.508 -394.792)"/>
                        </g>
                        <g id="Group_1151" data-name="Group 1151" transform="translate(15.954 11.996)">
                            <path id="Path_23183" d="M366.189 420.656a5.512 5.512 0 0 1-.211-5.532 7.321 7.321 0 0 1 4.44-3.506 3.085 3.085 0 0 1 2.594.147 2.358 2.358 0 0 1 .888 2.218 4.779 4.779 0 0 1-1.029 2.26c-1.726 2.3-3.818 4.2-6.683 4.413" class="cls-4" data-name="Path 23183" transform="translate(-365.337 -411.406)"/>
                        </g>
                        <g id="Group_1152" class="cls-9" data-name="Group 1152" transform="translate(3.801)">
                            <path id="Path_23184" d="M350.437 394.792a6.463 6.463 0 0 1 4.484 2.345 11.409 11.409 0 0 1 2.253 4.639c.84 3.249.274 7.071-.679 10.29-3.5-1.285-5.631-5.047-6.593-7.023-1.52-3.123-2.371-9.691.534-10.251" data-name="Path 23184" transform="translate(-348.508 -394.792)"/>
                        </g>
                        <g id="Group_1153" class="cls-9" data-name="Group 1153" transform="translate(15.954 11.996)">
                            <path id="Path_23185" d="M366.189 420.656a5.512 5.512 0 0 1-.211-5.532 7.321 7.321 0 0 1 4.44-3.506 3.085 3.085 0 0 1 2.594.147 2.358 2.358 0 0 1 .888 2.218 4.779 4.779 0 0 1-1.029 2.26c-1.726 2.3-3.818 4.2-6.683 4.413" data-name="Path 23185" transform="translate(-365.337 -411.406)"/>
                        </g>
                        <g id="Group_1154" class="cls-9" data-name="Group 1154" transform="translate(0 18.814)">
                            <path id="Path_23186" d="M356.405 426.47a12.9 12.9 0 0 0-10.357-5.622c-1.04-.014-2.275.233-2.683 1.191s.275 2.025 1.026 2.748a11.019 11.019 0 0 0 12.068 1.96" data-name="Path 23186" transform="translate(-343.243 -420.847)"/>
                        </g>
                        <g id="Group_1155" data-name="Group 1155" transform="translate(0 18.814)">
                            <path id="Path_23187" d="M356.405 426.47a12.9 12.9 0 0 0-10.357-5.622c-1.04-.014-2.275.233-2.683 1.191s.275 2.025 1.026 2.748a11.019 11.019 0 0 0 12.068 1.96" class="cls-4" data-name="Path 23187" transform="translate(-343.243 -420.847)"/>
                        </g>
                        <g id="Group_1157" data-name="Group 1157" transform="translate(16.036 15.898)">
                            <g id="Group_1156" data-name="Group 1156">
                                <path id="Path_23188" d="M366.25 433.3a2.527 2.527 0 0 1-.173-.685c-.086-.444-.2-1.089-.313-1.89a23.668 23.668 0 0 1-.165-6.335 11.862 11.862 0 0 1 2.376-5.862 7.786 7.786 0 0 1 1.381-1.351 2.207 2.207 0 0 1 .6-.371 16.5 16.5 0 0 0-1.774 1.885 12.446 12.446 0 0 0-2.213 5.748 27.468 27.468 0 0 0 .056 6.253 21.59 21.59 0 0 1 .225 2.608z" class="cls-7" data-name="Path 23188" transform="translate(-365.451 -416.809)"/>
                            </g>
                        </g>
                        <g id="Group_1159" data-name="Group 1159" transform="translate(6.817 4.945)">
                            <g id="Group_1158" data-name="Group 1158">
                                <path id="Path_23189" d="M352.687 401.64a6.8 6.8 0 0 1 .518 1.041c.312.68.746 1.671 1.269 2.9 1.048 2.46 2.438 5.883 3.882 9.7s2.663 7.306 3.5 9.844c.421 1.269.751 2.3.967 3.015a6.914 6.914 0 0 1 .3 1.123 6.845 6.845 0 0 1-.439-1.077l-1.079-2.975c-.906-2.514-2.164-5.984-3.605-9.8s-2.792-7.248-3.776-9.731c-.47-1.2-.861-2.189-1.158-2.946a6.848 6.848 0 0 1-.379-1.094z" class="cls-7" data-name="Path 23189" transform="translate(-352.684 -401.64)"/>
                            </g>
                        </g>
                        <g id="Group_1161" data-name="Group 1161" transform="translate(4.594 21.35)">
                            <g id="Group_1160" data-name="Group 1160">
                                <path id="Path_23190" d="M349.606 424.376a2.311 2.311 0 0 1 .676.009 5.452 5.452 0 0 1 .786.1 9.154 9.154 0 0 1 1.029.213 13.563 13.563 0 0 1 2.573.938 14.488 14.488 0 0 1 5.174 4.2 13.558 13.558 0 0 1 1.443 2.327 9.161 9.161 0 0 1 .42.964 5.408 5.408 0 0 1 .256.75 2.353 2.353 0 0 1 .148.659c-.07.022-.336-.9-1.059-2.251a15.146 15.146 0 0 0-1.48-2.234 15.34 15.34 0 0 0-5.055-4.109 15.219 15.219 0 0 0-2.49-.991c-1.469-.431-2.427-.502-2.421-.575z" class="cls-7" data-name="Path 23190" transform="translate(-349.606 -424.359)"/>
                            </g>
                        </g>
                    </g>
                </g>
            </g>
            <g id="Character" transform="translate(39.85 68.96)">
                <g id="Group_1297" data-name="Group 1297">
                    <path id="Path_23191" d="M121.565 436.441l-.179 1.593s-4.214 9.879-3.43 10.625a3.584 3.584 0 0 0 4.036.63c1.863-.773 8.876-9.747 8.876-9.747l.282-1.309z" class="cls-4" data-name="Path 23191" transform="translate(-101.347 -231.563)"/>
                    <path id="Path_23192" d="M118.231 447.486s2.24-1.444 4.114 1.445a17.938 17.938 0 0 0 3.485-3.42c2.5-2.87 4.917-5.668 4.917-5.668s.261-.284.209-.033-.105.687-.105.687l-4.8 5.788s-2.885 3.383-3.685 3.744a3.713 3.713 0 0 1-2.739.466 2.993 2.993 0 0 1-1.8-1.124c-.019-.145.404-1.885.404-1.885z" class="cls-3" data-name="Path 23192" transform="translate(-101.338 -232.471)"/>
                    <g id="Group_1164" data-name="Group 1164" transform="translate(16.956 214.588)">
                        <path id="Path_23193" d="M123.008 452.728a4.6 4.6 0 0 0-4.535-2.722 1.833 1.833 0 0 1 .841-.117 3.985 3.985 0 0 1 3.4 2.041 1.832 1.832 0 0 1 .294.798z" class="cls-7" data-name="Path 23193" transform="translate(-118.473 -449.889)"/>
                    </g>
                    <g id="Group_1165" data-name="Group 1165" transform="translate(16.523 206.904)">
                        <path id="Path_23194" d="M131.162 439.248a4.3 4.3 0 0 1-.434.565l-1.247 1.486-4.179 4.849a20.691 20.691 0 0 1-2.449 2.551 4.555 4.555 0 0 1-2.672 1.09 2.828 2.828 0 0 1-1.847-.605 1.607 1.607 0 0 1-.46-.549 4.7 4.7 0 0 0 .513.479 2.828 2.828 0 0 0 1.788.515 4.47 4.47 0 0 0 2.548-1.093 21.825 21.825 0 0 0 2.41-2.539l4.227-4.8 1.3-1.44a4.359 4.359 0 0 1 .502-.509z" class="cls-7" data-name="Path 23194" transform="translate(-117.874 -439.247)"/>
                    </g>
                    <g id="Group_1166" data-name="Group 1166" transform="translate(19.376 211.072)">
                        <path id="Path_23195" d="M124.06 446.039a15.355 15.355 0 0 1-2.235-1 4.33 4.33 0 0 1 2.235 1z" class="cls-7" data-name="Path 23195" transform="translate(-121.824 -445.02)"/>
                    </g>
                    <g id="Group_1167" data-name="Group 1167" transform="translate(19.926 209.873)">
                        <path id="Path_23196" d="M125.259 444.089a18.573 18.573 0 0 1-2.673-.706 5.577 5.577 0 0 1 2.673.706z" class="cls-7" data-name="Path 23196" transform="translate(-122.586 -443.358)"/>
                    </g>
                    <g id="Group_1168" data-name="Group 1168" transform="translate(20.682 208.377)">
                        <path id="Path_23197" d="M126.48 442.225c-.037.056-.612-.3-1.394-.535s-1.453-.283-1.452-.35a3.608 3.608 0 0 1 2.846.885z" class="cls-7" data-name="Path 23197" transform="translate(-123.634 -441.287)"/>
                    </g>
                    <g id="Group_1169" data-name="Group 1169" transform="translate(21.456 207.151)">
                        <path id="Path_23198" d="M127.214 440.324a12.424 12.424 0 0 1-1.243-.382 12.29 12.29 0 0 1-1.266-.3 3.271 3.271 0 0 1 2.508.679z" class="cls-12" data-name="Path 23198" transform="translate(-124.706 -439.589)"/>
                    </g>
                    <g id="Group_1170" data-name="Group 1170" transform="translate(21.358 204.576)">
                        <path id="Path_23199" d="M126.7 438.123a2.006 2.006 0 0 1-.767-.338 5.015 5.015 0 0 1-.735-.544 5.305 5.305 0 0 1-.386-.381 1.2 1.2 0 0 1-.188-.246.379.379 0 0 1 0-.388.6.6 0 0 1 .64-.18 1.355 1.355 0 0 1 .516.248 1.74 1.74 0 0 1 .552.758 1.6 1.6 0 0 1 .142.831c-.038.008-.079-.316-.287-.767a1.7 1.7 0 0 0-.531-.655c-.23-.178-.67-.318-.843-.113-.066.084.032.23.159.363s.241.261.362.375a6.451 6.451 0 0 0 .682.564 6.59 6.59 0 0 1 .684.473z" class="cls-12" data-name="Path 23199" transform="translate(-124.57 -436.024)"/>
                    </g>
                    <g id="Group_1171" data-name="Group 1171" transform="translate(23.194 204.678)">
                        <path id="Path_23200" d="M127.258 438.023a1.415 1.415 0 0 1 .261-.82 2.431 2.431 0 0 1 .638-.7 2.355 2.355 0 0 1 .5-.281.744.744 0 0 1 .331-.054.379.379 0 0 1 .322.232.763.763 0 0 1-.148.646 2.225 2.225 0 0 1-1.186.916 1.311 1.311 0 0 1-.859.055 6.1 6.1 0 0 0 .8-.2 2.247 2.247 0 0 0 .732-.481 2.065 2.065 0 0 0 .321-.4.593.593 0 0 0 .127-.446c-.035-.111-.207-.115-.367-.054a2.277 2.277 0 0 0-.452.243 2.53 2.53 0 0 0-.625.62c-.29.41-.353.734-.395.724z" class="cls-12" data-name="Path 23200" transform="translate(-127.113 -436.164)"/>
                    </g>
                    <g id="Group_1172" data-name="Group 1172" transform="translate(25.762 206.342)">
                        <path id="Path_23201" d="M133.024 438.556a1.5 1.5 0 0 0-.77.178 2.942 2.942 0 0 0-1.185 1.489 3.163 3.163 0 0 0-.082 1.914c.131.486.3.758.272.778a1.591 1.591 0 0 1-.425-.731 3.02 3.02 0 0 1 .024-2.04 2.837 2.837 0 0 1 1.324-1.552c.509-.242.868-.056.842-.036z" class="cls-7" data-name="Path 23201" transform="translate(-130.668 -438.469)"/>
                    </g>
                    <g id="Group_1173" data-name="Group 1173" transform="translate(23.666 210.587)">
                        <path id="Path_23202" d="M129.5 444.351a7.867 7.867 0 0 1-1.729 2.012 7.826 7.826 0 0 1 1.729-2.012z" class="cls-7" data-name="Path 23202" transform="translate(-127.766 -444.348)"/>
                    </g>
                    <g id="Group_1175" data-name="Group 1175" transform="translate(26.324 209.693)">
                        <g id="Group_1174" data-name="Group 1174">
                            <path id="Path_23203" d="M131.5 443.111c.062-.011.139.132.2.31s.092.338.037.369-.181-.1-.25-.294-.046-.375.013-.385z" class="cls-7" data-name="Path 23203" transform="translate(-131.447 -443.11)"/>
                        </g>
                    </g>
                    <g id="Group_1177" data-name="Group 1177" transform="translate(26.254 208.265)">
                        <g id="Group_1176" data-name="Group 1176">
                            <path id="Path_23204" d="M131.574 441.134c.058.022.051.184.014.371s-.1.339-.159.336-.1-.175-.062-.381.149-.348.207-.326z" class="cls-7" data-name="Path 23204" transform="translate(-131.35 -441.132)"/>
                        </g>
                    </g>
                    <g id="Group_1179" data-name="Group 1179" transform="translate(26.792 207.092)">
                        <g id="Group_1178" data-name="Group 1178">
                            <path id="Path_23205" d="M132.616 439.525c.038.051-.056.184-.188.321s-.262.234-.314.2.005-.2.152-.355.313-.216.35-.166z" class="cls-12" data-name="Path 23205" transform="translate(-132.096 -439.508)"/>
                        </g>
                    </g>
                    <g id="Group_1181" data-name="Group 1181" transform="translate(27.931 206.489)">
                        <g id="Group_1180" data-name="Group 1180">
                            <path id="Path_23206" d="M134.372 438.739c.007.062-.142.129-.325.179s-.345.066-.371.009.11-.172.312-.227.378-.023.384.039z" class="cls-12" data-name="Path 23206" transform="translate(-133.673 -438.672)"/>
                        </g>
                    </g>
                    <g id="Group_1188" data-name="Group 1188" transform="translate(30.269 199.098)">
                        <g id="Group_1184" data-name="Group 1184">
                            <g id="Group_1183" data-name="Group 1183">
                                <g id="Group_1182" data-name="Group 1182">
                                    <path id="Path_23207" d="M150.023 437.781l1.422-6.6-12.351-2.742-2.182 9.638.755.219c3.366.946 17.183 4.572 19.615 4.387 2.71-.208-7.259-4.902-7.259-4.902z" class="cls-4" data-name="Path 23207" transform="translate(-136.911 -428.437)"/>
                                </g>
                            </g>
                        </g>
                        <g id="Group_1187" data-name="Group 1187" transform="translate(.051 6.013)">
                            <g id="Group_1186" data-name="Group 1186">
                                <g id="Group_1185" data-name="Group 1185">
                                    <path id="Path_23208" d="M141.431 441.286a4.394 4.394 0 0 0-.991-2.984 4.265 4.265 0 0 0-2.688-1.539l-.769 3.451z" class="cls-4" data-name="Path 23208" transform="translate(-136.982 -436.764)"/>
                                </g>
                            </g>
                        </g>
                    </g>
                    <g id="Group_1191" data-name="Group 1191" transform="translate(30.269 208.464)">
                        <g id="Group_1190" data-name="Group 1190">
                            <g id="Group_1189" data-name="Group 1189">
                                <path id="Path_23209" d="M154.853 443.862s3.443 1.878 2.849 2.381-14.694-2.635-20.792-4.564l.081-.272 16.416 3.8s.721-1.474 1.446-1.345z" class="cls-3" data-name="Path 23209" transform="translate(-136.911 -441.408)"/>
                            </g>
                        </g>
                    </g>
                    <g id="Group_1195" data-name="Group 1195" transform="translate(30.158 208.413)">
                        <g id="Group_1194" data-name="Group 1194">
                            <g id="Group_1193" data-name="Group 1193">
                                <g id="Group_1192" data-name="Group 1192">
                                    <path id="Path_23210" d="M136.757 441.338a1.206 1.206 0 0 0 .207.07l.6.173 2.223.6c1.88.49 4.488 1.133 7.382 1.78s5.528 1.175 7.439 1.531l2.265.406.617.1a1.133 1.133 0 0 0 .217.025 1.187 1.187 0 0 0-.212-.055l-.612-.128-2.256-.454c-1.9-.384-4.533-.929-7.426-1.575s-5.5-1.272-7.389-1.735l-2.234-.549-.609-.144a1.137 1.137 0 0 0-.212-.045z" class="cls-7" data-name="Path 23210" transform="translate(-136.757 -441.337)"/>
                                </g>
                            </g>
                        </g>
                    </g>
                    <g id="Group_1199" data-name="Group 1199" transform="translate(46.712 210.784)">
                        <g id="Group_1198" data-name="Group 1198">
                            <g id="Group_1197" data-name="Group 1197">
                                <g id="Group_1196" data-name="Group 1196">
                                    <path id="Path_23211" d="M159.69 446.294a5.237 5.237 0 0 1 .658-.978 5.128 5.128 0 0 1 .957-.689 2.042 2.042 0 0 0-1.615 1.667z" class="cls-7" data-name="Path 23211" transform="translate(-159.682 -444.62)"/>
                                </g>
                            </g>
                        </g>
                    </g>
                    <g id="Group_1203" data-name="Group 1203" transform="translate(43.484 208.912)">
                        <g id="Group_1202" data-name="Group 1202">
                            <g id="Group_1201" data-name="Group 1201">
                                <g id="Group_1200" data-name="Group 1200">
                                    <path id="Path_23212" d="M155.216 442.913c.03.03.251-.143.495-.387s.417-.465.386-.5-.251.144-.495.387-.417.471-.386.5z" class="cls-7" data-name="Path 23212" transform="translate(-155.212 -442.027)"/>
                                </g>
                            </g>
                        </g>
                    </g>
                    <g id="Group_1207" data-name="Group 1207" transform="translate(42.604 208.517)">
                        <g id="Group_1206" data-name="Group 1206">
                            <g id="Group_1205" data-name="Group 1205">
                                <g id="Group_1204" data-name="Group 1204">
                                    <path id="Path_23213" d="M153.994 442.01c.021.037.245-.05.5-.193s.446-.29.425-.327-.245.05-.5.193-.446.291-.425.327z" class="cls-7" data-name="Path 23213" transform="translate(-153.993 -441.481)"/>
                                </g>
                            </g>
                        </g>
                    </g>
                    <g id="Group_1211" data-name="Group 1211" transform="translate(42.233 207.723)">
                        <g id="Group_1210" data-name="Group 1210">
                            <g id="Group_1209" data-name="Group 1209">
                                <g id="Group_1208" data-name="Group 1208">
                                    <path id="Path_23214" d="M153.479 440.4a2.873 2.873 0 1 0 .661.076 1.487 1.487 0 0 0-.661-.076z" class="cls-7" data-name="Path 23214" transform="translate(-153.479 -440.381)"/>
                                </g>
                            </g>
                        </g>
                    </g>
                    <g id="Group_1215" data-name="Group 1215" transform="translate(42.198 206.863)">
                        <g id="Group_1214" data-name="Group 1214">
                            <g id="Group_1213" data-name="Group 1213">
                                <g id="Group_1212" data-name="Group 1212">
                                    <path id="Path_23215" d="M153.432 439.2a1.279 1.279 0 0 0 .672.37 1.293 1.293 0 0 0 .765.066 53.548 53.548 0 0 1-1.437-.436z" class="cls-7" data-name="Path 23215" transform="translate(-153.43 -439.19)"/>
                                </g>
                            </g>
                        </g>
                    </g>
                    <g id="Group_1219" data-name="Group 1219" transform="translate(44.146 208.019)">
                        <g id="Group_1218" data-name="Group 1218">
                            <g id="Group_1217" data-name="Group 1217">
                                <g id="Group_1216" data-name="Group 1216">
                                    <path id="Path_23216" d="M156.129 441.586a2.373 2.373 0 0 0 .8.171 4.733 4.733 0 0 0 .886 0 2.384 2.384 0 0 0 .528-.092.438.438 0 0 0 .251-.2.319.319 0 0 0-.049-.344 1.491 1.491 0 0 0-1.895.025 1.445 1.445 0 0 0-.377.472c-.062.129-.077.207-.068.209a2.27 2.27 0 0 1 .512-.6 1.466 1.466 0 0 1 .776-.29 1.265 1.265 0 0 1 .932.275c.1.121.023.259-.136.311a2.454 2.454 0 0 1-.489.091 5.63 5.63 0 0 1-.864.031c-.499-.017-.802-.084-.807-.059z" class="cls-7" data-name="Path 23216" transform="translate(-156.129 -440.791)"/>
                                </g>
                            </g>
                        </g>
                    </g>
                    <g id="Group_1223" data-name="Group 1223" transform="translate(43.569 207.187)">
                        <g id="Group_1222" data-name="Group 1222">
                            <g id="Group_1221" data-name="Group 1221">
                                <g id="Group_1220" data-name="Group 1220">
                                    <path id="Path_23217" d="M156.1 441.35a.8.8 0 0 0 .214-.53 1.322 1.322 0 0 0-.087-.628.817.817 0 0 0-.57-.552.324.324 0 0 0-.326.312.894.894 0 0 0 .056.385 2.5 2.5 0 0 0 .268.563 1.175 1.175 0 0 0 .383.422c.019-.017-.126-.178-.289-.477a2.862 2.862 0 0 1-.227-.55c-.071-.192-.079-.51.129-.5.2.025.362.268.448.453a1.344 1.344 0 0 1 .109.566 2.957 2.957 0 0 1-.108.536z" class="cls-7" data-name="Path 23217" transform="translate(-155.329 -439.639)"/>
                                </g>
                            </g>
                        </g>
                    </g>
                    <g id="Group_1227" data-name="Group 1227" transform="translate(31.163 205.082)">
                        <g id="Group_1226" data-name="Group 1226">
                            <g id="Group_1225" data-name="Group 1225">
                                <g id="Group_1224" data-name="Group 1224">
                                    <path id="Path_23218" d="M138.148 436.732c0 .029.361.046.9.235a3.962 3.962 0 0 1 2.66 3.3c.071.571.01.931.039.934a.756.756 0 0 0 .056-.249 3.353 3.353 0 0 0 .014-.7 3.844 3.844 0 0 0-2.735-3.39 3.3 3.3 0 0 0-.683-.134.725.725 0 0 0-.251.004z" class="cls-7" data-name="Path 23218" transform="translate(-138.148 -436.723)"/>
                                </g>
                            </g>
                        </g>
                    </g>
                    <g id="Group_1231" data-name="Group 1231" transform="translate(32.388 200.237)">
                        <g id="Group_1230" data-name="Group 1230">
                            <g id="Group_1229" data-name="Group 1229">
                                <g id="Group_1228" data-name="Group 1228">
                                    <path id="Path_23219" d="M141.044 430.014a44.185 44.185 0 0 0-1.194 5.06 44.3 44.3 0 0 0 1.194-5.06z" class="cls-12" data-name="Path 23219" transform="translate(-139.844 -430.014)"/>
                                </g>
                            </g>
                        </g>
                    </g>
                    <g id="Group_1235" data-name="Group 1235" transform="translate(36.591 208.771)">
                        <g id="Group_1234" data-name="Group 1234">
                            <g id="Group_1233" data-name="Group 1233">
                                <g id="Group_1232" data-name="Group 1232">
                                    <path id="Path_23220" d="M145.666 441.837a10.414 10.414 0 0 0 3.6.838c.006-.045-.812-.175-1.8-.406s-1.786-.475-1.8-.432z" class="cls-7" data-name="Path 23220" transform="translate(-145.666 -441.832)"/>
                                </g>
                            </g>
                        </g>
                    </g>
                    <g id="Group_1239" data-name="Group 1239" transform="translate(34.161 208.23)">
                        <g id="Group_1238" data-name="Group 1238">
                            <g id="Group_1237" data-name="Group 1237">
                                <g id="Group_1236" data-name="Group 1236">
                                    <path id="Path_23221" d="M142.311 441.086c-.037.024.028.186.069.389s.05.378.092.384.108-.181.058-.415-.186-.382-.219-.358z" class="cls-7" data-name="Path 23221" transform="translate(-142.3 -441.084)"/>
                                </g>
                            </g>
                        </g>
                    </g>
                    <g id="Group_1243" data-name="Group 1243" transform="translate(33.501 206.892)">
                        <g id="Group_1242" data-name="Group 1242">
                            <g id="Group_1241" data-name="Group 1241">
                                <g id="Group_1240" data-name="Group 1240">
                                    <path id="Path_23222" d="M141.4 439.233c-.036.022.015.169.114.327s.208.267.244.245-.015-.168-.114-.326-.21-.269-.244-.246z" class="cls-12" data-name="Path 23222" transform="translate(-141.386 -439.23)"/>
                                </g>
                            </g>
                        </g>
                    </g>
                    <g id="Group_1247" data-name="Group 1247" transform="translate(32.322 206.048)">
                        <g id="Group_1246" data-name="Group 1246">
                            <g id="Group_1245" data-name="Group 1245">
                                <g id="Group_1244" data-name="Group 1244">
                                    <path id="Path_23223" d="M139.754 438.1c0 .044.164.079.331.183s.277.23.316.209-.027-.215-.235-.34-.416-.094-.412-.052z" class="cls-12" data-name="Path 23223" transform="translate(-139.754 -438.062)"/>
                                </g>
                            </g>
                        </g>
                    </g>
                    <g id="Group_1251" data-name="Group 1251" transform="translate(31.442 205.617)">
                        <g id="Group_1250" data-name="Group 1250">
                            <g id="Group_1249" data-name="Group 1249">
                                <g id="Group_1248" data-name="Group 1248">
                                    <path id="Path_23224" d="M138.541 437.482c-.024.035.033.114.127.177s.188.084.212.05-.033-.115-.126-.178-.19-.085-.213-.049z" class="cls-12" data-name="Path 23224" transform="translate(-138.535 -437.465)"/>
                                </g>
                            </g>
                        </g>
                    </g>
                    <g id="Group_1252" data-name="Group 1252" transform="translate(14.5 91.509)">
                        <path id="Path_23225" d="M149.839 284.61l-14.626-5.172-20.141 3.652.576 112.876 19.124-.25s-.017-1.316-.044-3.626l11.21 3.067s10.928-36.91 14.654-52.06c3.108-12.635-10.753-58.487-10.753-58.487zm-15.319 89.082c-.292-27.308-.686-70.972-.287-76.652 0 0 10.711 38.11 10.812 41.336.063 1.962-5.868 20.831-10.525 35.316z" class="cls-7" data-name="Path 23225" transform="translate(-115.072 -279.438)"/>
                    </g>
                    <g id="Group_1253" data-name="Group 1253" transform="translate(33.947 184.73)">
                        <path id="Path_23226" d="M142.189 408.538c.1 0 .189 5.062.191 11.3s-.081 11.3-.185 11.3-.189-5.06-.191-11.3.081-11.3.185-11.3z" class="cls-12" data-name="Path 23226" transform="translate(-142.004 -408.538)"/>
                    </g>
                    <g id="Group_1254" data-name="Group 1254" transform="translate(38.279 105.637)">
                        <path id="Path_23227" d="M148 398.477a1.385 1.385 0 0 1 .048-.261l.177-.757.716-2.9 2.7-10.647 9.044-35.089 2.095-8.067v.083c-2.344-11.957-4.691-22.424-6.546-29.879l-2.191-8.771-.589-2.362-.144-.614a1.011 1.011 0 0 1-.038-.212 1.054 1.054 0 0 1 .071.2c.045.154.1.353.178.605l.651 2.346a559.682 559.682 0 0 1 2.3 8.745c1.919 7.441 4.314 17.909 6.672 29.865l.008.042-.01.041c-.672 2.594-1.374 5.3-2.09 8.068-3.571 13.683-6.8 26.071-9.151 35.062l-2.815 10.617c-.336 1.234-.6 2.2-.783 2.882l-.214.747a1.406 1.406 0 0 1-.089.256z" class="cls-12" data-name="Path 23227" transform="translate(-148.003 -299.003)"/>
                    </g>
                    <g id="Group_1255" data-name="Group 1255" transform="translate(22.963 105.637)">
                        <path id="Path_23228" d="M126.98 400.466c-.1 0-.188-22.715-.188-50.729s.084-50.737.188-50.737.188 22.71.188 50.734-.084 50.732-.188 50.732z" class="cls-12" data-name="Path 23228" transform="translate(-126.792 -299.003)"/>
                    </g>
                    <g id="Group_1256" data-name="Group 1256" transform="translate(27.595 6.539)">
                        <path id="Path_23229" d="M134.065 190.489l11.573.573c.121-1.341.219-6.54.219-6.54s4.814-.566 5.051-5.348-.183-15.8-.183-15.8a16.644 16.644 0 0 0-16.789 1.478l-.729.52z" class="cls-15" data-name="Path 23229" transform="translate(-133.207 -161.764)"/>
                    </g>
                    <g id="Group_1260" data-name="Group 1260" transform="translate(42.486 14.554)">
                        <g id="Group_1257" data-name="Group 1257" transform="translate(0 .583)">
                            <path id="Path_23230" d="M154.038 174.863a.7.7 0 1 1 .983-.012.7.7 0 0 1-.983.012z" class="cls-7" data-name="Path 23230" transform="translate(-153.829 -173.67)"/>
                        </g>
                        <g id="Group_1259" data-name="Group 1259">
                            <g id="Group_1258" data-name="Group 1258">
                                <path id="Path_23231" d="M156.249 173.589c-.078.08-.534-.3-1.193-.326s-1.15.295-1.22.207c-.035-.039.046-.185.261-.336a1.626 1.626 0 0 1 1.926.1c.199.166.265.32.226.355z" class="cls-7" data-name="Path 23231" transform="translate(-153.829 -172.863)"/>
                            </g>
                        </g>
                    </g>
                    <g id="Group_1264" data-name="Group 1264" transform="translate(35.306 14.868)">
                        <g id="Group_1261" data-name="Group 1261" transform="translate(.21 .587)">
                            <path id="Path_23232" d="M145.257 174.229a.7.7 0 1 1-.964.192.695.695 0 0 1 .964-.192z" class="cls-7" data-name="Path 23232" transform="translate(-144.176 -174.111)"/>
                        </g>
                        <g id="Group_1263" data-name="Group 1263">
                            <g id="Group_1262" data-name="Group 1262">
                                <path id="Path_23233" d="M146.306 174.024c-.078.08-.534-.3-1.194-.326s-1.15.295-1.22.207c-.034-.039.046-.186.261-.336a1.626 1.626 0 0 1 1.926.1c.2.166.265.32.227.355z" class="cls-7" data-name="Path 23233" transform="translate(-143.886 -173.298)"/>
                            </g>
                        </g>
                    </g>
                    <g id="Group_1266" data-name="Group 1266" transform="translate(39.979 15.385)">
                        <g id="Group_1265" data-name="Group 1265">
                            <path id="Path_23234" d="M150.545 179.759a3.2 3.2 0 0 1 1.074-.186c.173-.012.31-.047.326-.139a.938.938 0 0 0-.105-.5c-.153-.443-.308-.89-.472-1.359a18.361 18.361 0 0 1-1-3.563 18.375 18.375 0 0 1 1.353 3.443l.443 1.368a1.108 1.108 0 0 1 .068.721.456.456 0 0 1-.308.264 1.136 1.136 0 0 1-.3.027 3.2 3.2 0 0 1-1.079-.076z" class="cls-7" data-name="Path 23234" transform="translate(-150.358 -174.014)"/>
                        </g>
                    </g>
                    <g id="Group_1267" data-name="Group 1267" transform="translate(37.887 21.699)">
                        <path id="Path_23235" d="M147.572 182.838c-.672-.435 1.853 1.074 3.2 1.059a1.823 1.823 0 0 1-2.176.645c-1.416-.578-1.024-1.704-1.024-1.704z" class="cls-6" data-name="Path 23235" transform="translate(-147.46 -182.759)"/>
                    </g>
                    <g id="Group_1268" data-name="Group 1268" transform="translate(34.083 27.223)">
                        <path id="Path_23236" d="M148.365 192.414a11.133 11.133 0 0 1-6.172-2.005s1.346 3.5 6.137 3.245z" class="cls-16" data-name="Path 23236" transform="translate(-142.193 -190.409)"/>
                    </g>
                    <g id="Group_1269" data-name="Group 1269" transform="translate(25.328 15.379)">
                        <path id="Path_23237" d="M133.235 174.03c-.1-.037-3.556-.4-3.132 3.655s4.38 2.286 4.375 2.169-1.243-5.824-1.243-5.824z" class="cls-15" data-name="Path 23237" transform="translate(-130.067 -174.006)"/>
                    </g>
                    <g id="Group_1271" data-name="Group 1271" transform="translate(26.365 16.802)">
                        <g id="Group_1270" data-name="Group 1270">
                            <path id="Path_23238" d="M133.486 179.108c-.019-.012-.066.057-.179.124a.713.713 0 0 1-.527.066 1.757 1.757 0 0 1-.973-1.484 2.342 2.342 0 0 1 .092-1.032.821.821 0 0 1 .474-.6.362.362 0 0 1 .438.149c.066.108.049.192.071.2s.08-.077.03-.241a.455.455 0 0 0-.186-.238.539.539 0 0 0-.4-.062 1 1 0 0 0-.672.706 2.406 2.406 0 0 0-.127 1.156 1.845 1.845 0 0 0 1.214 1.643.763.763 0 0 0 .635-.175c.113-.113.124-.206.11-.212z" class="cls-16" data-name="Path 23238" transform="translate(-131.503 -175.976)"/>
                        </g>
                    </g>
                    <path id="Path_23239" d="M148.855 161.15a2.757 2.757 0 0 0 1.9-2.782 3.372 3.372 0 0 0-2.056-2.788 4.368 4.368 0 0 0-3.536.144 3.822 3.822 0 0 0-7.536.394c-.138-.919-1.194-1.409-2.123-1.443a3.062 3.062 0 0 0-2.5.985 1.884 1.884 0 0 0 .084 2.516 4.253 4.253 0 0 0-2.948.783 3.128 3.128 0 0 0-1.253 2.713 2.488 2.488 0 0 0 1.92 2.185c.352.064.775.073.971.372a1.022 1.022 0 0 1 .11.576l-.017 3.44a1.333 1.333 0 0 1 1.685.7 3.871 3.871 0 0 1 .238 2c.3.435 1.044.286 1.355-.145a2.533 2.533 0 0 0 .31-1.534l-.064-5.53a1.833 1.833 0 0 0 2.683-1.576 3.651 3.651 0 0 0 5.6-.822 8.728 8.728 0 0 0 1.843 1.161 2.938 2.938 0 0 0 2.129.131 1.794 1.794 0 0 0 1.205-1.652l-.248-.2" class="cls-7" data-name="Path 23239" transform="translate(-104.409 -152.708)"/>
                    <g id="Group_1274" data-name="Group 1274" transform="translate(78.71 48.96)">
                        <g id="Group_1272" data-name="Group 1272">
                            <path id="Path_23240" d="M207.944 220.512a3.949 3.949 0 1 0 3.948 3.949 3.949 3.949 0 0 0-3.948-3.949zm0 3.232a1.133 1.133 0 1 1 1.133-1.133 1.133 1.133 0 0 1-1.133 1.133z" class="cls-4" data-name="Path 23240" transform="translate(-203.996 -220.512)"/>
                        </g>
                        <g id="Group_1273" data-name="Group 1273" transform="translate(2.639 7.607)">
                            <path id="Path_23241" d="M207.651 231.047v7.1s1.571.724 1.486.818 1.132-.818 1.132-.818v-.85l-.713-.724.713-.661-.745-.9.745-.8-.808-.913.808-.818v-1.436z" class="cls-4" data-name="Path 23241" transform="translate(-207.651 -231.047)"/>
                        </g>
                    </g>
                    <g id="Group_1275" data-name="Group 1275" transform="translate(78.019 38.603)">
                        <path id="Path_23242" d="M212.076 210.2l-4.518-4.034-4.519 4.093 1.341.211.116 4.141 6.143.1-.176-4.348zm-4.552 3.747a.746.746 0 1 1 .779-.712.747.747 0 0 1-.779.714z" class="cls-7" data-name="Path 23242" transform="translate(-203.039 -206.168)"/>
                    </g>
                    <g id="Group_1277" data-name="Group 1277" transform="translate(80.056 45.949)">
                        <g id="Group_1276" data-name="Group 1276">
                            <path id="Path_23243" d="M208.912 216.509c-.007.025-.135.035-.352.03a2.079 2.079 0 0 0-.887.139 2.223 2.223 0 0 0-1.028.784 2.153 2.153 0 0 0 .311 2.875 2.243 2.243 0 0 0 1.171.546 4.412 4.412 0 0 0 1.245-.1 1.581 1.581 0 0 1-1.271.365 2.38 2.38 0 0 1-1.372-.548 2.421 2.421 0 0 1-.362-3.345 2.364 2.364 0 0 1 1.222-.83 1.85 1.85 0 0 1 .983-.03c.228.049.347.09.34.114z" class="cls-12" data-name="Path 23243" transform="translate(-205.859 -216.341)"/>
                        </g>
                    </g>
                    <g id="Group_1279" data-name="Group 1279" transform="translate(84.427 47.047)">
                        <g id="Group_1278" data-name="Group 1278">
                            <path id="Path_23244" d="M212.036 220.257c-.093-.053.129-.56.092-1.2-.02-.653-.272-1.121-.2-1.184.078-.091.554.4.578 1.166s-.394 1.285-.47 1.218z" class="cls-12" data-name="Path 23244" transform="translate(-211.913 -217.863)"/>
                        </g>
                    </g>
                    <path id="Path_23245" d="M193.664 210.758a21.74 21.74 0 0 1 1.71-3.825 5.736 5.736 0 0 1 2.592-2.153 8.806 8.806 0 0 1 4.4-.1l3.558.528c.482.071 1.1.291 1.077.778a.7.7 0 0 1-.549.587 2.289 2.289 0 0 1-.856-.006 12.741 12.741 0 0 0-2.37-.067c-.565.038-1.264.233-1.355.792-.081.5.443.924.947.939a2.693 2.693 0 0 0 1.4-.51l1.389-.829a1.227 1.227 0 0 1 .866-.253c.513.118.635.854.364 1.3a3.682 3.682 0 0 1-1.207 1c-1.789 1.214-2.62 3.18-3.444 5.777" class="cls-15" data-name="Path 23245" transform="translate(-122.414 -167.088)"/>
                    <g id="Group_1280" data-name="Group 1280" transform="translate(0 32.423)">
                        <path id="Path_23246" d="M166.273 208.311l-7.973 20.476-8.261-19.111c-2.585-9.253-14-9.86-14-9.86l-11.3-1.452c-4.063-1.654-10.651-.274-13.226 1.142-3.285 1.806-6.206 7.365-6.853 11.457 0 0-11.381 29.425-9.439 32.5s14.125 15.069 14.125 15.069l-1.7 6.2 19.338 1.22 1.979-7.619.23 8.165 18.182 1.283c-.8-7.189-2.08-14.405-2.428-16.464l-1.454-21.081.182-4.366.178-.453a553.538 553.538 0 0 1 6.486 11.185c5.31 9.382 10.674 6.984 13.825 3.217a17.688 17.688 0 0 0 2.981-5.8l7.818-21.982zm-55.394 35.139c-.009.111-1.95-3.478-1.95-3.478l2.838-9.353s-.878 12.719-.888 12.831z" class="cls-4" data-name="Path 23246" transform="translate(-94.991 -197.609)"/>
                    </g>
                    <path id="Path_23247" d="M134.169 197.868l6.1 23.429 6.33-22-.7-.054.17-2.894-11.9-1.424z" class="cls-6" data-name="Path 23247" transform="translate(-105.879 -164.44)"/>
                    <g id="Group_1281" data-name="Group 1281" transform="translate(25.573 33.652)">
                        <path id="Path_23248" d="M132.8 199.312a1.2 1.2 0 0 1-.033.316l-.155.9-.635 3.359c-.285 1.446-.624 3.163-1 5.094a4.125 4.125 0 0 0 .077 2.935 4.769 4.769 0 0 0 2.742 1.695l.21.07-.11.193a6.645 6.645 0 0 0-.16 5.4 27.607 27.607 0 0 0 1.49 3.34l1.546 3.122 2.714 5.515-.284.069-.027-6.419.015-1.769a3.253 3.253 0 0 1 .035-.621 3.308 3.308 0 0 1 .053.62l.066 1.768.157 6.417.017.665-.3-.6-2.765-5.49-1.56-3.115a27.353 27.353 0 0 1-1.513-3.385 6.972 6.972 0 0 1 .2-5.705l.1.263a9.718 9.718 0 0 1-1.636-.683 3.264 3.264 0 0 1-1.286-1.183 2.825 2.825 0 0 1-.34-1.643 10.791 10.791 0 0 1 .253-1.528l1.085-5.078.74-3.338.214-.89a1.246 1.246 0 0 1 .09-.294z" class="cls-7" data-name="Path 23248" transform="translate(-130.407 -199.312)"/>
                    </g>
                    <g id="Group_1282" data-name="Group 1282" transform="translate(34.512 34.998)">
                        <path id="Path_23249" d="M150.094 201.176a6.669 6.669 0 0 1 .245 1.092c.133.711.313 1.744.51 3.037s.425 2.843.559 4.6a12.62 12.62 0 0 1 .044 1.367 2.47 2.47 0 0 1-.446 1.418 6.264 6.264 0 0 1-2.4 1.906l.034-.318a3.864 3.864 0 0 1 .83.965c.056.091.109.183.16.279a.664.664 0 0 1 .043.247l-.02.178a5.715 5.715 0 0 1-.156.633c-.727 2.263-1.62 4.315-2.4 6.2s-1.537 3.558-2.168 4.965-1.155 2.54-1.526 3.319l-.436.893a1.224 1.224 0 0 1-.175.3 1.2 1.2 0 0 1 .107-.331l.371-.921 1.415-3.366 2.093-4.992c.763-1.885 1.649-3.956 2.362-6.174a5.409 5.409 0 0 0 .145-.586l.016-.131v-.058c-.047-.087-.1-.173-.147-.256a3.553 3.553 0 0 0-.732-.864l-.23-.188.264-.131a5.972 5.972 0 0 0 2.258-1.768 3.907 3.907 0 0 0 .368-2.563c-.112-1.741-.318-3.293-.475-4.589-.163-1.251-.3-2.277-.4-3.05a7.406 7.406 0 0 1-.113-1.113z" class="cls-7" data-name="Path 23249" transform="translate(-142.787 -201.176)"/>
                    </g>
                    <g id="Group_1283" data-name="Group 1283" transform="translate(33.929 64.469)">
                        <path id="Path_23250" d="M142.02 271.556c-.1 0 0-6.624.225-14.787s.5-14.782.6-14.779 0 6.623-.225 14.789-.496 14.78-.6 14.777z" class="cls-7" data-name="Path 23250" transform="translate(-141.979 -241.99)"/>
                    </g>
                    <g id="Group_1284" data-name="Group 1284" transform="translate(36.475 70.235)">
                        <path id="Path_23251" d="M145.946 250.127c-.046-.026.191-.263.584-.086a.716.716 0 0 1 .417.58.742.742 0 0 1-1.377.365.722.722 0 0 1 .069-.71c.249-.35.572-.27.547-.225.005.056-.208.093-.315.356a.481.481 0 0 0 .007.417.417.417 0 0 0 .724-.191.479.479 0 0 0-.2-.362c-.23-.171-.432-.094-.456-.144z" class="cls-7" data-name="Path 23251" transform="translate(-145.505 -249.976)"/>
                    </g>
                    <g id="Group_1285" data-name="Group 1285" transform="translate(36.55 77.743)">
                        <path id="Path_23252" d="M146.048 260.525c-.045-.027.192-.263.585-.086a.718.718 0 0 1 .417.579.742.742 0 0 1-1.377.365.722.722 0 0 1 .069-.71c.249-.35.571-.27.547-.224.005.055-.208.092-.316.355a.483.483 0 0 0 .007.417.416.416 0 0 0 .724-.191.476.476 0 0 0-.2-.363c-.229-.167-.432-.093-.456-.142z" class="cls-7" data-name="Path 23252" transform="translate(-145.608 -260.374)"/>
                    </g>
                    <g id="Group_1286" data-name="Group 1286" transform="translate(36.226 86.233)">
                        <path id="Path_23253" d="M145.6 272.282c-.045-.026.192-.263.585-.086a.718.718 0 0 1 .417.58.742.742 0 0 1-1.377.365.722.722 0 0 1 .069-.71c.249-.35.571-.271.547-.225.005.056-.208.093-.316.356a.483.483 0 0 0 .007.417.416.416 0 0 0 .724-.191.476.476 0 0 0-.2-.362c-.229-.172-.432-.094-.456-.144z" class="cls-7" data-name="Path 23253" transform="translate(-145.16 -272.131)"/>
                    </g>
                    <path id="Path_23254" d="M151.273 232.28h5.315v-.831h-5.6z" class="cls-7" data-name="Path 23254" transform="translate(-110.554 -174.592)"/>
                    <g id="Group_1287" data-name="Group 1287" transform="translate(70.061 46.946)">
                        <path id="Path_23255" d="M200.408 221.744a28.855 28.855 0 0 1-4.275-1.837 28.882 28.882 0 0 1-4.114-2.176 28.94 28.94 0 0 1 4.276 1.838 28.987 28.987 0 0 1 4.113 2.175z" class="cls-12" data-name="Path 23255" transform="translate(-192.018 -217.723)"/>
                    </g>
                    <g id="Group_1288" data-name="Group 1288" transform="translate(71.241 44.97)">
                        <path id="Path_23256" d="M193.661 215.386c-.038-.023.042-.235.358-.353a.772.772 0 0 1 .594.026.691.691 0 0 1 .378.665.622.622 0 0 1-.494.611.555.555 0 0 1-.557-.313.431.431 0 0 1-.014-.413c.057-.087.117-.1.131-.08.036.038-.048.186.106.349.151.192.43.165.452-.171s-.293-.448-.533-.416-.382.134-.421.095z" class="cls-12" data-name="Path 23256" transform="translate(-193.652 -214.986)"/>
                    </g>
                    <g id="Group_1289" data-name="Group 1289" transform="translate(62.87 63.275)">
                        <path id="Path_23257" d="M182.116 244.958a14.5 14.5 0 0 1 .555-4.621 14.491 14.491 0 0 1-.555 4.621z" class="cls-7" data-name="Path 23257" transform="translate(-182.059 -240.337)"/>
                    </g>
                    <g id="Group_1290" data-name="Group 1290" transform="translate(63.346 63.482)">
                        <path id="Path_23258" d="M184.143 244.814a13.086 13.086 0 0 1-1.4-4.19 13.039 13.039 0 0 1 1.4 4.19z" class="cls-7" data-name="Path 23258" transform="translate(-182.718 -240.624)"/>
                    </g>
                    <path id="Path_23259" d="M144.143 198.243a8.074 8.074 0 0 1-1.353 2.816l1.061 2.88h.905l.76-2.769s-.531-.428-.924-3.021z" class="cls-12" data-name="Path 23259" transform="translate(-108.275 -165.337)"/>
                    <g id="Group_1291" data-name="Group 1291" transform="translate(28.278 31.451)">
                        <path id="Path_23260" d="M145.859 199.546a1.745 1.745 0 0 1-.318.5 2.4 2.4 0 0 1-1.346.958 1.369 1.369 0 0 1-1.181-.258 2.452 2.452 0 0 1-.615-1.233 12.962 12.962 0 0 1-.48-3.057l.361.045c-.168.593-.325 1.217-.537 1.85a9.61 9.61 0 0 1-.8 1.812 2.1 2.1 0 0 1-.7.708 1.7 1.7 0 0 1-.947.214 4.848 4.848 0 0 1-1.623-.466 9.841 9.841 0 0 1-1.269-.691 19.4 19.4 0 0 1-1.674-1.223 3.019 3.019 0 0 1-.568-.506c.04-.059.907.6 2.381 1.5a10.489 10.489 0 0 0 1.253.632 4.732 4.732 0 0 0 1.513.406 1.434 1.434 0 0 0 1.329-.774 9.719 9.719 0 0 0 .757-1.735c.206-.613.364-1.234.539-1.831a.185.185 0 0 1 .227-.127.187.187 0 0 1 .134.172 13.541 13.541 0 0 0 .422 2.985 2.241 2.241 0 0 0 .494 1.1 1.127 1.127 0 0 0 .948.235 2.419 2.419 0 0 0 1.293-.808c.248-.267.387-.423.407-.408z" class="cls-2" data-name="Path 23260" transform="translate(-134.153 -196.264)"/>
                    </g>
                    <path id="Path_23261" d="M143.108 206.094c-.155.375-2.992 11.321-2.992 11.321l1.8 6.933 3.325-11.56s-1.129-7.071-1.18-6.884-.953.19-.953.19z" class="cls-12" data-name="Path 23261" transform="translate(-107.532 -167.491)"/>
                    <g id="Group_1292" data-name="Group 1292" transform="translate(16.369 89.061)">
                        <path id="Path_23262" d="M126.468 276.859a18.318 18.318 0 0 1-8.807-.8c.028-.109 1.96.349 4.389.563s4.41.125 4.418.237z" class="cls-7" data-name="Path 23262" transform="translate(-117.661 -276.047)"/>
                    </g>
                    <g id="Group_1293" data-name="Group 1293" transform="translate(44.13 90.944)">
                        <path id="Path_23263" d="M162.231 279.078a25.108 25.108 0 0 1-6.124-.338 25.1 25.1 0 0 1 6.124.338z" class="cls-7" data-name="Path 23263" transform="translate(-156.107 -278.656)"/>
                    </g>
                    <g id="Group_1294" data-name="Group 1294" transform="translate(14.763 55.052)">
                        <path id="Path_23264" d="M117.575 228.948a1.6 1.6 0 0 1 .04.4l.042 1.145c.031 1 .05 2.436.052 4.215.007 3.56-.087 8.479-.381 13.9s-.737 10.327-1.128 13.865c-.195 1.769-.37 3.2-.508 4.184l-.166 1.134a1.619 1.619 0 0 1-.084.392 1.661 1.661 0 0 1 .009-.4c.025-.3.057-.681.1-1.142.1-1.043.228-2.464.389-4.195.323-3.542.721-8.44 1.017-13.859s.428-10.329.49-13.886l.068-4.213.028-1.145a1.586 1.586 0 0 1 .032-.395z" class="cls-7" data-name="Path 23264" transform="translate(-115.436 -228.948)"/>
                    </g>
                    <g id="Group_1295" data-name="Group 1295" transform="translate(13.928 63.251)">
                        <path id="Path_23265" d="M114.29 252.2a50.922 50.922 0 0 1 1.511-6 50.99 50.99 0 0 1 1.872-5.894 50.943 50.943 0 0 1-1.51 6 51.122 51.122 0 0 1-1.873 5.894z" class="cls-7" data-name="Path 23265" transform="translate(-114.28 -240.304)"/>
                    </g>
                    <g id="Group_1296" data-name="Group 1296" transform="translate(11.684 70.883)">
                        <path id="Path_23266" d="M115.662 258.941a56.753 56.753 0 0 1-4.485-8.068 28.634 28.634 0 0 1 2.407 3.943 28.454 28.454 0 0 1 2.078 4.125z" class="cls-7" data-name="Path 23266" transform="translate(-111.171 -250.873)"/>
                    </g>
                </g>
            </g>
        </g>
    </g>
</svg>
