<svg xmlns="http://www.w3.org/2000/svg" width="379" height="394" viewBox="0 0 379 394">
    <defs>
        <style>
            .cls-1{fill:#fffcf3}.cls-2{fill:#e9b833}.cls-11,.cls-2{opacity:.2}.cls-3{fill:#84ae9f}.cls-10,.cls-4{fill:#3e2d4a}.cls-5{fill:#dc9680}.cls-11,.cls-6{fill:#c53a1e}.cls-7{fill:#cc5a5d;opacity:.5}.cls-8{fill:#e6b11b}.cls-9{fill:#b23234}.cls-10{opacity:.1}
        </style>
    </defs>
    <g id="industry5" transform="translate(-7 -7)">
        <path id="_517904-PISH00-920" d="M0 0h379v394H0z" class="cls-1" data-name="517904-PISH00-920" transform="translate(7 7)"/>
        <g id="Group_1040" data-name="Group 1040" transform="translate(-14.553 -62.495)">
            <path id="Path_23003" d="M122.972 169.745s37.16-33.038 62.2-25.738c14.265 4.158 1.336 29.792 37.163 9.642 27.091-15.237 64.26-16.1 81.36 12.09 18.095 29.826-17.033 57.233-4.978 58.558s55.905-22.856 54.907 13.749-32.447 60.971-28.754 61.476 24.17-2.351 18.378 18.839-60.663 71.562-70.741 48.28c-7.174-16.578-9.228-20.151-20.033-7.943-7.9 8.928-39.843 39.583-67.3 30.98s-3.861-57.661-19.248-49.275-61.46 24.647-78.482-8 33.522-95.937 27.4-98.095-36.035 6.633-26.161-25.053c5.133-16.48 34.289-39.51 34.289-39.51z" class="cls-2" data-name="Path 23003" transform="translate(-10.784)"/>
            <g id="Group_1029" data-name="Group 1029" transform="translate(123.516 198.117)">
                <g id="Group_1026" data-name="Group 1026" transform="translate(26.384)">
                    <path id="Path_23004" d="M210.992 210.885l-32.541 2.759 2.52 30.017 32.474-3.178z" class="cls-3" data-name="Path 23004" transform="translate(-178.451 -210.885)"/>
                    <path id="Path_23005" d="M179.183 223.762h.03l32.546-2.592a.383.383 0 0 0 .352-.413.391.391 0 0 0-.413-.352L179.153 223a.384.384 0 0 0 .03.767z" class="cls-4" data-name="Path 23005" transform="translate(-178.516 -212.674)"/>
                    <path id="Path_23006" d="M193.707 227.268a.911.911 0 0 1-.431-.661c-.162-1.024 1.1-2.945 2.171-4.349-1.519.818-3.593 1.827-4.583 1.827a.854.854 0 0 1-.694-.272.771.771 0 0 1-.14-.662c.241-1.3 2.2-1.95 3.784-2.27-1.508-.432-3.333-1.133-3.734-2.066a1.061 1.061 0 0 1 .1-1.024 1.258 1.258 0 0 1 1.141-.555c1.141 0 2.915.983 4.323 1.9-1.108-1.536-2.283-3.476-2.024-4.514a1 1 0 0 1 .623-.711 1.256 1.256 0 0 1 .468-.092c1.583 0 2.671 3.186 3.13 4.848 1.072-1.495 3.109-4.118 4.224-4.118a.793.793 0 0 1 .775.642c.463 1.552-1.844 3.781-3.31 5.005a23.449 23.449 0 0 1 2.2-.115c1.924 0 3.065.329 3.487 1a1.367 1.367 0 0 1-.022 1.392 1.623 1.623 0 0 1-1.617.765 12.471 12.471 0 0 1-3.835-.922c1.158 1.087 2.3 2.4 2.087 3.216-.067.261-.282.594-.921.7a2.068 2.068 0 0 1-.32.025c-1.58 0-2.478-1.865-2.946-3.365-.433 1.941-1.334 4.664-2.984 4.664a1.827 1.827 0 0 1-.952-.288zm.327-.782c.014.091.049.111.069.124a1.081 1.081 0 0 0 .547.177c1.238 0 2.148-3.16 2.491-5.417-1.341 1.584-3.249 4.215-3.106 5.116zm6.749-1.013c.166-.026.283-.076.3-.128.126-.49-1.293-2.016-2.911-3.383.382 1.56 1.183 3.738 2.612 3.511zm-10.048-2.173a.326.326 0 0 0 .128.016c.842 0 2.962-1.05 4.535-1.909-1.859.207-4.424.838-4.663 1.893zm7.943-2.236a15.609 15.609 0 0 0 4.892 1.41c.507 0 .819-.113.927-.334.2-.418.1-.592.06-.65-.121-.193-.639-.643-2.836-.643a25.152 25.152 0 0 0-3.042.218zM191.316 218c-.327 0-.439.115-.494.2a.3.3 0 0 0-.037.309c.349.816 3.221 1.713 5.148 2.09a.384.384 0 0 1 .308.335l.358-.207c-1.484-1.077-4.019-2.727-5.283-2.727zm6.672 1.785a.38.38 0 0 1-.387.161.384.384 0 0 1-.3-.291c-.489-2.106-1.616-5.072-2.592-5.072a.492.492 0 0 0-.184.037.234.234 0 0 0-.161.183c-.251 1.009 1.968 4.11 3.462 5.874h.009a.384.384 0 0 1 .154-.253c1.782-1.3 4.475-3.817 4.115-5.022a.319.319 0 0 0-.041-.094c-.631.009-2.606 2.33-4.075 4.48z" class="cls-4" data-name="Path 23006" transform="translate(-180.62 -211.437)"/>
                    <path id="Path_23007" d="M200.757 242.956h.029a.385.385 0 0 0 .354-.412l-2.264-30.085a.37.37 0 0 0-.412-.354.384.384 0 0 0-.353.412l2.263 30.085a.384.384 0 0 0 .383.354z" class="cls-4" data-name="Path 23007" transform="translate(-182.146 -211.114)"/>
                </g>
                <path id="Path_23008" d="M181.714 287.775s-9.791 1.116-18.116-9.626 8.863-22.224 11.265-28.4c1.753-4.5-2.593-7.957-2.237-5.8.38 2.306 1.926 2.821-2.894 5.8s-49.712 24.114-2.024 56.264c.001.005 15.31-8.713 14.006-18.238z" class="cls-5" data-name="Path 23008" transform="translate(-145.96 -216.978)"/>
                <path id="Path_23009" d="M153.281 301.4s12.343-15.162 14.312-13.626c8.324 6.5 20.121 6.5 20.121 6.5s-12.522 22.635-15.447 22.112-20.155-10.886-18.986-14.986z" class="cls-6" data-name="Path 23009" transform="translate(-147.325 -225.317)"/>
                <path id="Path_23010" d="M228.748 335.768s23.586-29.88 36.946-28.857c22.783 1.744 36.909 32.867 39.43 34.034 2.942 1.362 6.565-1.32 7.283.3s-3.2 6.051-9.345 4.832c-6.218-1.234-24.787-26.746-35.616-22.142-5.493 2.335-15.334 53.453-41.623 43.535-15.423-5.815-6.443-22.557 2.925-31.702z" class="cls-5" data-name="Path 23010" transform="translate(-159.404 -228.93)"/>
                <path id="Path_23011" d="M244.731 327.681s8.975-23.982 22.919-27.509 40.768 18.365 43.123 16.721c1.946-1.359 4.859-1.52 6.491-2.944 1.341-1.171-.7 7.766-3.968 8.655-8.1 2.2-36.86-11.358-41.235-6.6s-7.23 30.483-22.274 40.191-11.311-16.043-5.056-28.514z" class="cls-5" data-name="Path 23011" transform="translate(-163.498 -227.596)"/>
                <path id="Path_23012" d="M236.325 329.356s18.384-25.527 35.176-21.836c13.347 2.933 30.969 24.251 32.53 26.546s-4.722 9.443-8.645 9.464-19.031-21.846-21.469-18.654c-16.473 21.573-23.2 46.578-41.619 43.772-9.393-1.431 1.836-36.388 4.027-39.292z" class="cls-3" data-name="Path 23012" transform="translate(-161.494 -228.981)"/>
                <path id="Path_23013" d="M215.282 283.8s14.833-11.065 17.283-16.764c6.357-14.8-6.643-16.679-11.366-19.851-5.566-3.738-2.032-10.45-1.672-7.97s.6 4.153 1.761 4.645 24.132-1.729 26.733 18.026c2.473 18.783-19.613 32.736-19.613 32.736s-13.649-8.864-13.126-10.822z" class="cls-5" data-name="Path 23013" transform="translate(-158.987 -216.109)"/>
                <path id="Path_23014" d="M212.843 289.821s9.485-3.815 12.582-8.275 17.914 6.949 17.34 11.232-3.459 6.68-13.616 11.71-16.306-14.667-16.306-14.667z" class="cls-6" data-name="Path 23014" transform="translate(-158.531 -223.976)"/>
                <path id="Path_23015" d="M247.2 283.671s-4.483-2.713-3.707-3.629c6.335-7.471 8.776-19.492 5.9-20.954-2.606-1.321 10.071 5.712-2.193 24.583z" class="cls-7" data-name="Path 23015" transform="translate(-164.275 -219.917)"/>
                <path id="Path_23016" d="M174.834 301.308s37.043-16.433 45.394-7.01-8.767 30.621 5.488 32.093c0 0 8.673 39.452-5.488 39.452-34.028.002-55.957-55.094-45.394-64.535z" class="cls-6" data-name="Path 23016" transform="translate(-150.885 -226.016)"/>
                <path id="Path_23017" d="M209.958 288.262s-6.009 1.483-5.022-10.979c.332-4.193-4.659-3.751-5.649-2.566s3.551 13.979-5.463 16.9c-1.017.328 13.82 11.555 16.134-3.355z" class="cls-5" data-name="Path 23017" transform="translate(-154.947 -222.73)"/>
                <path id="Path_23018" d="M197.333 274.258s-1.634 8.988 2.383 7.714c10.865-3.448 5.216-11.809 3.3-12.085a5.427 5.427 0 0 0-5.683 4.371z" class="cls-5" data-name="Path 23018" transform="translate(-155.554 -221.969)"/>
                <path id="Path_23019" d="M204.529 284.928a8.85 8.85 0 0 1-4.192 2.48 15.391 15.391 0 0 1-1.723 4.348c-.3.436 8.224-1.401 5.915-6.828z" class="cls-7" data-name="Path 23019" transform="translate(-155.855 -224.803)"/>
                <g id="Group_1027" data-name="Group 1027" transform="translate(139.216 107.244)">
                    <path id="Path_23020" d="M317.4 350.607s5.125-5.428 5.739-4.849c3.759 3.541 14.564-4.6 13.52-2.433s-11.392 13.6-12.685 13.714-6.574-6.432-6.574-6.432z" class="cls-8" data-name="Path 23020" transform="translate(-317.4 -342.953)"/>
                    <path id="Path_23021" d="M325.858 350.071a.552.552 0 0 0 .266-.267l1.178-2.555a.551.551 0 0 0-1-.463l-1.178 2.556a.551.551 0 0 0 .734.729z" class="cls-4" data-name="Path 23021" transform="translate(-318.842 -343.614)"/>
                    <path id="Path_23022" d="M329.024 350.92a.551.551 0 0 0 .315-.456l.262-3.4a.55.55 0 1 0-1.1-.084l-.263 3.4a.55.55 0 0 0 .508.59.539.539 0 0 0 .278-.05z" class="cls-4" data-name="Path 23022" transform="translate(-319.438 -343.615)"/>
                    <path id="Path_23023" d="M332.333 349.841a.551.551 0 0 0 .3-.631l-.8-3.227a.551.551 0 0 0-1.07.265l.8 3.227a.553.553 0 0 0 .667.4.587.587 0 0 0 .103-.034z" class="cls-4" data-name="Path 23023" transform="translate(-319.909 -343.444)"/>
                </g>
                <g id="Group_1028" data-name="Group 1028" transform="translate(143.618 78.538)">
                    <path id="Path_23024" d="M322.821 325.1s.96-7.4 1.8-7.3c5.121.659 9.087-12.273 9.513-9.91s-1.232 17.7-2.212 18.549-9.101-1.339-9.101-1.339z" class="cls-8" data-name="Path 23024" transform="translate(-322.821 -307.603)"/>
                    <path id="Path_23025" d="M328.582 322.052a.551.551 0 0 0 .058-.372l-.547-2.761a.551.551 0 0 0-1.081.213l.547 2.761a.551.551 0 0 0 1.022.159z" class="cls-4" data-name="Path 23025" transform="translate(-323.607 -309.647)"/>
                    <path id="Path_23026" d="M331.472 321a.55.55 0 0 0-.013-.554l-1.782-2.9a.55.55 0 0 0-.938.577l1.782 2.9a.55.55 0 0 0 .758.18.532.532 0 0 0 .193-.203z" class="cls-4" data-name="Path 23026" transform="translate(-323.918 -309.423)"/>
                    <path id="Path_23027" d="M333.467 318.224a.552.552 0 0 0-.127-.687l-2.541-2.144a.551.551 0 0 0-.711.843l2.54 2.144a.553.553 0 0 0 .777-.067.577.577 0 0 0 .062-.089z" class="cls-4" data-name="Path 23027" transform="translate(-324.15 -309.043)"/>
                </g>
                <path id="Path_23028" d="M305.3 313.948s1.564 6.781-4.034 9.514-24.418-7.328-26.522-6.3-25.17 19.294-25.17 19.294l-11.459-8.516s18.752-25.191 29.322-27.8c13.879-3.423 34.463 11.453 37.863 13.808z" class="cls-3" data-name="Path 23028" transform="translate(-163.281 -227.567)"/>
                <path id="Path_23029" d="M199.246 266.217s-3.286 2.383-1.284 5.6c.853 1.369 5.284-.1 5.8.534s1.014 2.383 0 4.647-3.863.512-4.52 0-2.308-.044-2.275.59-.447 4.176.96 5.618 5.862-1.814 6.339-3.311.163-3.262.637-4.065.84-1 1.017-.567c.505 1.237-1.331 2.291-1.017 2.919s2.629-1.2 2.629-3.32-.55-6.6-2.629-5.7c-2.873 1.238-2.443-3.579-5.657-2.945z" class="cls-4" data-name="Path 23029" transform="translate(-155.538 -221.275)"/>
                <path id="Path_23030" d="M159.581 288.487s-4.966 5.515-6.575 7.011c-1.47 1.365-5.254-8.642-5.109-14.9s4.63-11.585 5.36-11.585-6.821 10.273 6.324 19.474z" class="cls-7" data-name="Path 23030" transform="translate(-146.323 -221.812)"/>
                <path id="Path_23031" d="M155.089 304.146s7.013-5.044 7.743-5.2 8.47 6.283 9.639 7.005-2.065 9.451-3.223 9.322-13.427-8.103-14.159-11.127z" class="cls-9" data-name="Path 23031" transform="translate(-147.676 -227.437)"/>
                <path id="Path_23032" d="M179.153 318.542s6.863 13.124 13.792 16.191 24.817-9.185 25.731-7.659 3.217 4.384 5.642 4.447 1.627 34.689-3.411 35.489c-10.373 1.648-32.134-15.911-38.122-28.621s-7.01-14.76-7.01-18.408 3.212-11.1 3.5-9.93-1.562 4.276-.122 8.491z" class="cls-9" data-name="Path 23032" transform="translate(-151.564 -229.502)"/>
                <path id="Path_23033" d="M231.284 299a9.278 9.278 0 0 1 4.729-4.734c3.338-1.3 4.029-7.519 4.468-6.5s4.179 4 3.651 6.5c-.876 4.15-11.245 10.718-11.941 9-.069-.166-1.926-3.679-.907-4.266z" class="cls-9" data-name="Path 23033" transform="translate(-161.94 -225.316)"/>
                <path id="Path_23034" d="M243.014 332.665s8.543-5.947 17.306-11.368 10.515-10.337 15.773-7.55 24.316 21.562 24.536 23.566-1.752 5.689-3.724 4.284-17.525-19.149-22.126-18.492-20.531 37.112-33.43 43.376c0 0 3.031-13.268 2.76-19.5s-1.095-14.316-1.095-14.316z" class="cls-10" data-name="Path 23034" transform="translate(-163.889 -230.068)"/>
                <path id="Path_23035" d="M313.8 315.416s-18.906-10.016-20.877-9.831 16.211 17.948 17.087 17.063 5.18-2.757 3.79-7.232z" class="cls-10" data-name="Path 23035" transform="translate(-173.555 -228.685)"/>
            </g>
            <g id="Group_1030" data-name="Group 1030" transform="translate(193.418 314.012)">
                <path id="Path_23036" d="M264.584 353.608l-32.541 2.759 2.52 30.017 32.474-3.178z" class="cls-8" data-name="Path 23036" transform="translate(-232.043 -353.608)"/>
                <path id="Path_23037" d="M232.776 366.484h.03l32.546-2.591a.384.384 0 0 0 .352-.413.391.391 0 0 0-.413-.352l-32.546 2.592a.384.384 0 0 0 .03.767z" class="cls-4" data-name="Path 23037" transform="translate(-232.109 -355.397)"/>
                <path id="Path_23038" d="M247.3 369.99a.909.909 0 0 1-.432-.661c-.162-1.023 1.1-2.944 2.171-4.348-1.518.817-3.592 1.826-4.583 1.826a.854.854 0 0 1-.694-.272.765.765 0 0 1-.14-.661c.24-1.3 2.2-1.951 3.783-2.271-1.508-.431-3.333-1.132-3.734-2.066a1.061 1.061 0 0 1 .1-1.023 1.261 1.261 0 0 1 1.142-.555c1.14 0 2.915.983 4.323 1.9-1.108-1.536-2.283-3.476-2.025-4.515a1 1 0 0 1 .623-.711 1.259 1.259 0 0 1 .468-.092c1.584 0 2.672 3.187 3.131 4.848 1.071-1.495 3.108-4.118 4.224-4.118a.794.794 0 0 1 .775.642c.463 1.553-1.845 3.781-3.31 5.005a23.449 23.449 0 0 1 2.2-.115c1.924 0 3.064.329 3.487 1a1.373 1.373 0 0 1-.022 1.393 1.626 1.626 0 0 1-1.618.764 12.478 12.478 0 0 1-3.835-.922c1.158 1.088 2.3 2.4 2.088 3.216-.067.262-.282.6-.922.7a2.068 2.068 0 0 1-.32.025c-1.579 0-2.478-1.865-2.946-3.365-.433 1.942-1.334 4.664-2.983 4.664a1.828 1.828 0 0 1-.951-.288zm.326-.781c.014.091.05.111.069.123a1.078 1.078 0 0 0 .548.178c1.238 0 2.147-3.161 2.491-5.417-1.34 1.583-3.25 4.214-3.107 5.116zm6.749-1.014c.167-.026.283-.076.3-.128.127-.49-1.293-2.015-2.91-3.383.381 1.56 1.182 3.734 2.611 3.511zm-10.047-2.171a.317.317 0 0 0 .127.016c.843 0 2.962-1.05 4.535-1.909-1.859.205-4.423.836-4.662 1.892zm7.943-2.236a15.623 15.623 0 0 0 4.892 1.41c.507 0 .819-.112.927-.334.2-.418.1-.592.06-.649-.121-.193-.638-.644-2.835-.644a25.153 25.153 0 0 0-3.044.216zm-7.362-3.061c-.328 0-.439.115-.494.2a.294.294 0 0 0-.038.309c.35.816 3.221 1.714 5.149 2.091a.384.384 0 0 1 .308.334l.357-.206c-1.483-1.082-4.018-2.73-5.282-2.73zm6.672 1.785a.384.384 0 0 1-.691-.129c-.488-2.106-1.616-5.073-2.592-5.073a.484.484 0 0 0-.184.037.236.236 0 0 0-.162.183c-.25 1.01 1.969 4.11 3.462 5.875h.01a.377.377 0 0 1 .153-.253c1.782-1.3 4.475-3.817 4.115-5.022a.318.318 0 0 0-.04-.094c-.628.003-2.602 2.324-4.071 4.474z" class="cls-4" data-name="Path 23038" transform="translate(-234.212 -354.159)"/>
                <path id="Path_23039" d="M254.35 385.678h.028a.384.384 0 0 0 .354-.412l-2.263-30.085a.371.371 0 0 0-.412-.354.385.385 0 0 0-.354.413l2.263 30.084a.385.385 0 0 0 .384.354z" class="cls-4" data-name="Path 23039" transform="translate(-235.739 -353.837)"/>
            </g>
            <g id="Group_1033" data-name="Group 1033" transform="translate(235.068 199.749)">
                <path id="Path_23040" d="M352.618 234.482c-1.483-15.287 9.2-12.126 12.524-10.267s4.288-5.291 6.266-7.222 7.864-6.972 14.807-1.9 5.9 16.81-5.683 21.918-10.041 3.77-12.69 3.62c-5.221-.3-14.677-.506-15.224-6.149z" class="cls-4" data-name="Path 23040" transform="translate(-296.33 -212.896)"/>
                <path id="Path_23041" d="M299.61 252.015l27.008 14.085-14.961 31.11-28.324-15.85z" class="cls-6" data-name="Path 23041" transform="translate(-283.333 -220.249)"/>
                <path id="Path_23042" d="M304.085 256.742a.8.8 0 0 1-.219-.03.811.811 0 0 1-.562-1c.145-.523 3.7-12.812 13.646-14.739a.812.812 0 0 1 .309 1.595c-8.96 1.734-12.359 13.464-12.393 13.583a.813.813 0 0 1-.781.591z" class="cls-4" data-name="Path 23042" transform="translate(-287.081 -218.17)"/>
                <path id="Path_23043" d="M452.785 286.32a.812.812 0 0 1-.778-.578c-6.1-20.341-11.588-21.534-11.641-21.54a.812.812 0 1 1 .189-1.613c.658.077 6.613 1.368 13.008 22.686a.812.812 0 0 1-.545 1.011.8.8 0 0 1-.233.034z" class="cls-4" data-name="Path 23043" transform="translate(-312.715 -222.235)"/>
                <path id="Path_23044" d="M356.307 236.62s-20.851.876-28.324-.662c-8.295-1.707-23.141-25.815-30.831-21.447-3.388 1.924 2.489.433 4.895 3.7s-1.039 26.839 27.934 35.171c19.034 5.474 22.722 4.244 22.722 4.244z" class="cls-5" data-name="Path 23044" transform="translate(-285.738 -213.1)"/>
                <path id="Path_23045" d="M403.966 243.271s16.649 12.509 23.076 12.25 2.724-32.943 9.532-34.7c3.665-.947-1.439 3.217.591 7.333s14.156 36.107-1.069 43.65-41.048-3.031-39.879-12.448 3.633-17.364 7.749-16.085z" class="cls-5" data-name="Path 23045" transform="translate(-304.544 -214.36)"/>
                <path id="Path_23046" d="M387.494 241.958s8.56.223 13.379 6.124 6.851 19.814 4.24 25.4-21.272 7.454-27.434 1.646-15.394-32.487 9.815-33.17z" class="cls-8" data-name="Path 23046" transform="translate(-299.778 -218.359)"/>
                <path id="Path_23047" d="M362.547 243.864s7.724-7.744 23.093.535 25.624 31.554 6.833 56.021c0 0-21.414-9.579-24.165-11.072-5.158-2.8 4.434-1.981 1.819-13.2s-12.305-28.62-7.58-32.284z" class="cls-8" data-name="Path 23047" transform="translate(-297.982 -218.099)"/>
                <path id="Path_23048" d="M425.279 292.624l29.673-6.888 9.441 36.626-31.837 6.313z" class="cls-3" data-name="Path 23048" transform="translate(-310.014 -226.587)"/>
                <path id="Path_23049" d="M389.659 238.558s-3.577-8.38-1.622-12.1-2.669-5.221-3.839-4.213-.946 12.2-7.29 15.126c-.97.444 15.7 13.285 12.751 1.187z" class="cls-5" data-name="Path 23049" transform="translate(-300.914 -214.595)"/>
                <path id="Path_23050" d="M381.371 221.45s-3.1 8.357 1.1 8c10.509-.9 7.068-10.8 5.224-11.386a5.428 5.428 0 0 0-6.324 3.386z" class="cls-5" data-name="Path 23050" transform="translate(-301.553 -213.836)"/>
                <path id="Path_23051" d="M383.4 217.686s-.423 4.38 2.959 6.818c1.485 1.071 1.824-1.668 2.382-.343.922 2.188-.141 1.774-.4 2.859-.831 3.488 1.948 4.551 4.192-.2.46-.973.609-2.531-.48-6.358s-6.515-5.722-8.759-4.49-4.665 7.51-4.082 6.114c1.858-4.451 2.998-3.348 4.188-4.4z" class="cls-4" data-name="Path 23051" transform="translate(-301.338 -213.404)"/>
                <path id="Path_23052" d="M386.807 230.422a5.153 5.153 0 0 1-3.6 1.484 17.424 17.424 0 0 1-1.678 4.588c-.309.427 5.839-.694 5.278-6.072z" class="cls-7" data-name="Path 23052" transform="translate(-301.789 -216.19)"/>
                <path id="Path_23053" d="M399.9 307.416s17.257 33.2 15.054 47.127-31.493 40.617-28.434 44.177 5.324 5.852 3.058 3.561-11.545-.392-9.952-5.6c2.237-7.315 14.772-41.245 12.393-43.9s-20.905-31.059-18-36.8 23.04-8.07 25.881-8.565z" class="cls-5" data-name="Path 23053" transform="translate(-300.322 -230.662)"/>
                <g id="Group_1031" data-name="Group 1031" transform="translate(78.214 159.951)">
                    <path id="Path_23054" d="M382.893 409.871s7.052 2.448 6.776 3.246c-1.688 4.881 10.164 11.4 7.764 11.333s-17.077-4.811-17.71-5.945 3.17-8.634 3.17-8.634z" class="cls-3" data-name="Path 23054" transform="translate(-379.652 -409.871)"/>
                    <path id="Path_23055" d="M388.485 416.922a.555.555 0 0 0 .353.133l2.814.026a.551.551 0 1 0 .012-1.1l-2.815-.027a.551.551 0 0 0-.365.969z" class="cls-4" data-name="Path 23055" transform="translate(-381.276 -411.014)"/>
                    <path id="Path_23056" d="M388.832 419.971a.551.551 0 0 0 .546.1l3.205-1.153a.55.55 0 0 0-.374-1.035L389 419.035a.55.55 0 0 0-.331.7.539.539 0 0 0 .163.236z" class="cls-4" data-name="Path 23056" transform="translate(-381.341 -411.371)"/>
                    <path id="Path_23057" d="M391.284 422.49a.552.552 0 0 0 .7.015l2.616-2.05a.551.551 0 1 0-.681-.867l-2.616 2.05a.552.552 0 0 0-.094.774.571.571 0 0 0 .075.078z" class="cls-4" data-name="Path 23057" transform="translate(-381.802 -411.675)"/>
                </g>
                <path id="Path_23058" d="M369.716 326.412s-3.5 27.816-20.864 34.5c-13.169 5.065-31.331 11.168-43.533 16.083-.721.291-6.128-2.5-6.128-2.5l4.3-3.812s31.915-12.427 33.151-20.628 6.83-35.057 10.82-41.506c6.005-9.708 32.298-9.69 22.254 17.863z" class="cls-5" data-name="Path 23058" transform="translate(-286.314 -229.77)"/>
                <g id="Group_1032" data-name="Group 1032" transform="translate(11.019 139.752)">
                    <path id="Path_23059" d="M306.068 385s1.363 7.339.533 7.494c-5.076.949-4.873 14.473-6.005 12.355s-4.27-17.22-3.6-18.33 9.072-1.519 9.072-1.519z" class="cls-3" data-name="Path 23059" transform="translate(-296.903 -384.997)"/>
                    <path id="Path_23060" d="M304.284 392.741a.551.551 0 0 0 .058.372l1.37 2.459a.551.551 0 0 0 .963-.535l-1.37-2.458a.55.55 0 0 0-1.022.162z" class="cls-4" data-name="Path 23060" transform="translate(-298.289 -386.369)"/>
                    <path id="Path_23061" d="M301.573 394.683a.552.552 0 0 0 .184.524l2.589 2.214a.55.55 0 0 0 .715-.837l-2.589-2.214a.548.548 0 0 0-.775.062.538.538 0 0 0-.124.251z" class="cls-4" data-name="Path 23061" transform="translate(-297.779 -386.734)"/>
                    <path id="Path_23062" d="M300.418 398.164a.551.551 0 0 0 .332.615l3.076 1.259a.551.551 0 1 0 .417-1.021l-3.076-1.259a.553.553 0 0 0-.719.3.559.559 0 0 0-.03.106z" class="cls-4" data-name="Path 23062" transform="translate(-297.562 -387.388)"/>
                </g>
                <path id="Path_23063" d="M378.118 315.222s-10.645 35.981-18.3 44.084-41.333 16.173-42.889 15.427-3.556-8.532-2.733-11.4 17.086-11.142 23.19-15.678 6.815-36.935 13.788-42.229 25.026-4.716 26.944 9.796z" class="cls-4" data-name="Path 23063" transform="translate(-289.097 -229.714)"/>
                <path id="Path_23064" d="M405.928 320.745s13.016 22.307 9.293 34.944-19.928 33.6-22.5 33.724-7.937-2.113-9.271-4.612 11.226-27.587 8.84-30.872-19.19-27.851-16.92-33.173 22.391-13.21 30.558-.011z" class="cls-4" data-name="Path 23064" transform="translate(-300.593 -231.808)"/>
                <path id="Path_23065" d="M369.051 294.847s25.176 6.2 30.351 4.7c0 0 .7 10.89-1.432 11.73s-33.96-6.977-35.13-8.177 6.211-8.253 6.211-8.253z" class="cls-5" data-name="Path 23065" transform="translate(-298.254 -228.3)"/>
                <path id="Path_23066" d="M362.864 305.006s26.8 8.118 36.184 4.335c0 0 2.671 5.285 4.565 9.805 0 0-22.255 5.994-31.941 0s-8.808-14.14-8.808-14.14z" class="cls-4" data-name="Path 23066" transform="translate(-298.278 -230.209)"/>
                <path id="Path_23067" d="M405.354 247.441s10.172 6.184 12.028 8.85-3.951 13.871-6.853 15.5-10.953-15.929-5.175-24.35z" class="cls-8" data-name="Path 23067" transform="translate(-305.886 -219.389)"/>
                <path id="Path_23068" d="M355.33 241.689s-1.461 19.86 0 21.041 12.852 2.959 13.582 1.5 3.826-23.365 3.826-23.365-3.538-1.165-17.408.824z" class="cls-8" data-name="Path 23068" transform="translate(-296.744 -218.089)"/>
                <path id="Path_23069" d="M370.734 269.071s7.517 3.918 13.473 6.888 18.005 1.874 18.225 3.189-1.532 11.052-3.285 12.752-21.375-1.364-23.5-3.117-1.676-8.569-2.56-12.828-3.754-6.431-2.353-6.884z" class="cls-11" data-name="Path 23069" transform="translate(-299.69 -223.455)"/>
                <path id="Path_23070" d="M409.88 253.74s3.729 11.865 3.608 12.449 2.719-3.979 2.613-6.225-6.221-6.224-6.221-6.224z" class="cls-11" data-name="Path 23070" transform="translate(-307.119 -220.573)"/>
                <path id="Path_23071" d="M364.676 264.067a83.913 83.913 0 0 1 0-8.717c.292-2.09-6.027 3.536-7.886 3.2s0 4.2 0 4.2.876 2.778 7.886 1.317z" class="cls-11" data-name="Path 23071" transform="translate(-296.985 -220.788)"/>
                <path id="Path_23072" d="M398.121 304.41s-11.246-.788-18.4-2.8-13.29-1.139-12.852-1.432 2.776-2.932 3.208-3.15 22.627 4.243 25.564 3.7 2.48 3.682 2.48 3.682z" class="cls-7" data-name="Path 23072" transform="translate(-299.03 -228.708)"/>
                <path id="Path_23073" d="M312.166 241.958a127.5 127.5 0 0 0 12.65 7.08c7.449 3.654 20.155 4.64 20.264 5.407s.329 5.936-.439 5.87-14.9-2.475-20.812-6.309-14.073-12.065-11.663-12.048z" class="cls-7" data-name="Path 23073" transform="translate(-288.671 -218.359)"/>
                <path id="Path_23074" d="M330.933 266.292a.812.812 0 0 1-.657-1.287c11.714-16.234 2.21-24.714 1.8-25.067a.812.812 0 0 1 1.054-1.236c.113.1 11.088 9.758-1.536 27.253a.811.811 0 0 1-.661.337z" class="cls-4" data-name="Path 23074" transform="translate(-292.128 -217.71)"/>
                <path id="Path_23075" d="M418.349 271.549a23.1 23.1 0 0 0 16.5 2.658c9.785-1.928 9.785-14.326 10.37-12.8s2.05 12.843-8.179 16.714-20.155.585-21.031 0-.73-3.977 0-4.617 2.34-1.955 2.34-1.955z" class="cls-7" data-name="Path 23075" transform="translate(-308.159 -221.99)"/>
                <path id="Path_23076" d="M430.706 291.292a.812.812 0 0 1-.733-.461c-.254-.53-6.18-13.093-2.965-22.16a12.092 12.092 0 0 1 6.443-7.1.812.812 0 1 1 .7 1.467 10.525 10.525 0 0 0-5.609 6.172c-2.992 8.437 2.84 20.791 2.9 20.916a.811.811 0 0 1-.732 1.162z" class="cls-4" data-name="Path 23076" transform="translate(-310.16 -222.031)"/>
                <path id="Path_23077" d="M431.327 307.416s9.484 10.048 14.646 11.8 16.553 5.277 16.553 5.277l-26.726 5.239z" class="cls-10" data-name="Path 23077" transform="translate(-311.151 -230.662)"/>
                <path id="Path_23078" d="M288.726 281.756l9.858-17.19s3.83 14.863 5.53 19.667 6.861 11.273 6.861 11.273z" class="cls-9" data-name="Path 23078" transform="translate(-284.347 -222.608)"/>
            </g>
            <g id="Group_1034" data-name="Group 1034" transform="translate(142.773 311.743)">
                <path id="Path_23079" d="M170.215 351.685l26.95-.872 1.891 33.426h-28.73z" class="cls-4" data-name="Path 23079" transform="translate(-169.776 -350.813)"/>
                <path id="Path_23080" d="M179.2 366.636a.9.9 0 0 1-.405-.677c-.121-1.029 1.22-2.9 2.341-4.259-1.549.757-3.662 1.683-4.651 1.644a.854.854 0 0 1-.684-.3.772.772 0 0 1-.114-.666c.292-1.285 2.274-1.862 3.871-2.119-1.489-.491-3.286-1.264-3.648-2.212a1.06 1.06 0 0 1 .136-1.019 1.258 1.258 0 0 1 1.162-.51c1.14.045 2.874 1.1 4.245 2.071-1.046-1.578-2.143-3.563-1.843-4.591a1 1 0 0 1 .65-.685 1.262 1.262 0 0 1 .471-.074c1.583.063 2.543 3.291 2.936 4.969 1.13-1.452 3.27-3.991 4.384-3.947a.793.793 0 0 1 .75.672c.4 1.569-1.994 3.7-3.506 4.87a23.386 23.386 0 0 1 2.2-.028c1.923.076 3.049.45 3.445 1.143a1.371 1.371 0 0 1-.077 1.39 1.625 1.625 0 0 1-1.646.7 12.471 12.471 0 0 1-3.8-1.073c1.114 1.133 2.2 2.492 1.959 3.3a.984.984 0 0 1-.948.658 2.043 2.043 0 0 1-.321.012c-1.579-.063-2.4-1.962-2.81-3.479-.51 1.922-1.519 4.607-3.167 4.542a1.82 1.82 0 0 1-.93-.332zm.357-.767c.011.091.045.113.064.127a1.083 1.083 0 0 0 .54.2c1.238.049 2.271-3.074 2.7-5.314-1.399 1.527-3.412 4.081-3.305 4.987zm6.784-.745c.168-.019.286-.065.3-.116.145-.485-1.212-2.066-2.774-3.5.322 1.578 1.033 3.782 2.473 3.616zm-9.953-2.568a.345.345 0 0 0 .127.02c.842.034 3-.931 4.607-1.727-1.868.132-4.455.661-4.735 1.707zm8.025-1.92a15.626 15.626 0 0 0 4.832 1.6c.507.02.823-.08.94-.3.22-.41.119-.588.085-.646-.113-.2-.612-.668-2.807-.755a24.988 24.988 0 0 0-3.051.101zm-7.235-3.351c-.327-.013-.443.1-.5.18a.294.294 0 0 0-.05.307c.317.829 3.15 1.841 5.061 2.293a.386.386 0 0 1 .295.347c.132-.068.254-.133.365-.192-1.442-1.139-3.909-2.885-5.172-2.935zm6.6 2.048a.383.383 0 0 1-.685-.157c-.405-2.124-1.414-5.132-2.389-5.171a.5.5 0 0 0-.185.029.236.236 0 0 0-.168.177c-.291 1 1.8 4.184 3.225 6.007h.009a.381.381 0 0 1 .164-.247c1.832-1.23 4.623-3.636 4.311-4.855a.329.329 0 0 0-.036-.1c-.633-.016-2.699 2.227-4.252 4.317z" class="cls-8" data-name="Path 23080" transform="translate(-170.8 -351.268)"/>
                <path id="Path_23081" d="M182.635 384.726h-.041a.439.439 0 0 1-.4-.477l3.1-32.78a.45.45 0 0 1 .477-.4.438.438 0 0 1 .395.478l-3.1 32.779a.437.437 0 0 1-.431.4z" class="cls-8" data-name="Path 23081" transform="translate(-172.029 -350.861)"/>
                <path id="Path_23082" d="M170.113 361.806a.438.438 0 0 1-.007-.876l27.42-.407h.006a.438.438 0 0 1 .007.876l-27.421.407z" class="cls-8" data-name="Path 23082" transform="translate(-169.675 -352.638)"/>
            </g>
            <g id="Group_1035" data-name="Group 1035" transform="translate(162.007 329.833)">
                <path id="Path_23083" d="M193.9 373.091l48.481 4.066-1.014 13.935-47.467-.65z" class="cls-3" data-name="Path 23083" transform="translate(-193.462 -373.091)"/>
                <path id="Path_23084" d="M215.769 387.585a.908.908 0 0 1-.431-.661c-.162-1.023 1.1-2.944 2.171-4.348-1.519.818-3.593 1.827-4.583 1.827a.855.855 0 0 1-.7-.273.771.771 0 0 1-.14-.661c.241-1.3 2.2-1.95 3.783-2.27-1.508-.432-3.333-1.133-3.733-2.066a1.061 1.061 0 0 1 .1-1.024 1.258 1.258 0 0 1 1.141-.555c1.14 0 2.915.983 4.323 1.9-1.108-1.536-2.283-3.475-2.024-4.515a1 1 0 0 1 .622-.711 1.262 1.262 0 0 1 .468-.092c1.584 0 2.672 3.186 3.131 4.848 1.071-1.495 3.109-4.118 4.224-4.118a.793.793 0 0 1 .775.641c.463 1.552-1.845 3.78-3.31 5.005a23.093 23.093 0 0 1 2.2-.116c1.924 0 3.064.329 3.487 1.005a1.367 1.367 0 0 1-.022 1.392 1.623 1.623 0 0 1-1.617.765 12.461 12.461 0 0 1-3.836-.922c1.159 1.088 2.3 2.4 2.088 3.216-.067.261-.282.594-.921.7a2.073 2.073 0 0 1-.32.024c-1.58 0-2.478-1.865-2.946-3.364-.433 1.941-1.334 4.664-2.984 4.664a1.821 1.821 0 0 1-.946-.291zm.327-.781c.014.091.049.111.069.124a1.081 1.081 0 0 0 .547.177c1.238 0 2.148-3.161 2.491-5.417-1.34 1.584-3.249 4.212-3.103 5.112zm6.748-1.013c.167-.026.283-.077.3-.129.126-.49-1.294-2.015-2.911-3.382.383 1.56 1.184 3.734 2.612 3.511zm-10.044-2.172a.342.342 0 0 0 .128.016c.842 0 2.961-1.05 4.535-1.91-1.863.207-4.427.839-4.663 1.894zm7.943-2.236a15.587 15.587 0 0 0 4.892 1.409c.507 0 .819-.112.927-.334.2-.418.1-.591.06-.649-.121-.193-.639-.643-2.836-.643a25.125 25.125 0 0 0-3.045.217zm-7.363-3.062c-.327 0-.438.114-.494.2a.3.3 0 0 0-.038.309c.35.816 3.221 1.714 5.149 2.091a.385.385 0 0 1 .308.335l.358-.207c-1.486-1.081-4.021-2.728-5.285-2.728zm6.672 1.785a.383.383 0 0 1-.69-.129c-.489-2.106-1.616-5.072-2.593-5.072a.5.5 0 0 0-.184.037.236.236 0 0 0-.161.183c-.251 1.01 1.968 4.111 3.462 5.875h.009a.381.381 0 0 1 .154-.253c1.782-1.3 4.474-3.817 4.115-5.022a.308.308 0 0 0-.04-.093c-.63.002-2.605 2.324-4.074 4.473z" class="cls-4" data-name="Path 23084" transform="translate(-196.874 -373.287)"/>
                <path id="Path_23085" d="M241.867 384.8h-.024l-48.068-2.641a.437.437 0 0 1-.413-.461.427.427 0 0 1 .461-.413l48.068 2.641a.438.438 0 0 1-.024.875z" class="cls-4" data-name="Path 23085" transform="translate(-193.361 -374.63)"/>
                <path id="Path_23086" d="M221.43 391.521a.439.439 0 0 1-.439-.439v-15.775a.438.438 0 1 1 .877 0v15.776a.439.439 0 0 1-.438.438z" class="cls-4" data-name="Path 23086" transform="translate(-198.555 -373.425)"/>
            </g>
            <g id="Group_1036" data-name="Group 1036" transform="translate(113.192 274.921)">
                <path id="Path_23087" d="M250.73 394.146H163a.811.811 0 0 1-.8-.7l-12.625-86.359h-15.516a.812.812 0 0 1 0-1.624h16.211a.811.811 0 0 1 .8.694l12.625 86.36h87.035a.812.812 0 0 1 0 1.624z" class="cls-4" data-name="Path 23087" transform="translate(-133.247 -305.468)"/>
                <path id="Path_23088" d="M256.206 384.464h-90.255a.812.812 0 0 1 0-1.624h89.523l5.723-54.965-104.9-4.944a.813.813 0 0 1-.774-.849.827.827 0 0 1 .849-.773l105.757 4.983a.813.813 0 0 1 .769.9l-5.887 56.549a.814.814 0 0 1-.805.723z" class="cls-4" data-name="Path 23088" transform="translate(-137.434 -308.445)"/>
                <ellipse id="Ellipse_69" cx="7.171" cy="7.097" class="cls-4" data-name="Ellipse 69" rx="7.171" ry="7.097" transform="rotate(-45 133.55 13.082)"/>
                <ellipse id="Ellipse_70" cx="7.171" cy="7.097" class="cls-4" data-name="Ellipse 70" rx="7.171" ry="7.097" transform="rotate(-45 168.88 -72.209)"/>
            </g>
            <g id="Group_1039" data-name="Group 1039" transform="translate(26.553 193.935)">
                <path id="Path_23089" d="M93.726 323.419s4.531 25.86-5.38 37.979c-10.8 13.2-51.969 2.641-57.536 4.064s-3.13 10.4-2.549 6.832.034-14 .47-14.027c3.38-.184 41.209-3.994 41.114-10.685s-6.169-40.385 4.448-45.169c8.507-3.833 21.602 8.431 19.433 21.006z" class="cls-5" data-name="Path 23089" transform="translate(-26.68 -223.773)"/>
                <path id="Path_23090" d="M98.337 303.352s-5.712 9.635 3.787 21.231 13.9 16.807 19.232 28.852c6.482 14.648-1.736 53.652 4.73 52.008a6.438 6.438 0 0 1 8.142 4.412 25.807 25.807 0 0 0-3.177-7.783c-2.555-4.3 13.266-42.38 11.082-57.994s-29.002-66.085-43.796-40.726z" class="cls-5" data-name="Path 23090" transform="translate(-39.726 -222.767)"/>
                <path id="Path_23091" d="M103.918 242.422s7.5.2 12.852 12.927c4.95 11.768-4.966 23.673-2.629 42.946 1.661 13.706-34.685 14.253-34.43 6.711s12.22-25.493 7.7-37.139-11.997-28.967 16.507-25.445z" class="cls-5" data-name="Path 23091" transform="translate(-36.545 -212.544)"/>
                <path id="Path_23092" d="M87.733 242.354s4.553 5.172 8 3.759 2.828-4.268 3.908-4.247 4.184-1.35 7.324 1.178 9.647 8.856 10.87 15.185 2.128 10.538 1.252 14.276 3.194 23.149 2.318 24.9c0 0-28.668 11.24-40.778-1.523-2.05-2.16 8.8-19.339 6.692-26.625s-7.188-19.014-6.879-22.883 7.293-4.02 7.293-4.02z" class="cls-4" data-name="Path 23092" transform="translate(-36.668 -212.46)"/>
                <path id="Path_23093" d="M110.33 215.868s-1.144 4.21 4.694 5.238 20.013 1.044 21.617 3.454-15.7 7.354-17.893 10.1 6.572 18.526 6.572 18.526 31.945-14.168 26.1-30.456c-4.684-13.055-33.036-3.537-35.445-3.726s-5.948-5.541-5.645-3.136z" class="cls-5" data-name="Path 23093" transform="translate(-42.283 -207.523)"/>
                <g id="Group_1037" data-name="Group 1037" transform="translate(0 133.906)">
                    <path id="Path_23094" d="M36.111 371s.215 7.461-.629 7.486c-5.162.155-7.047 13.548-7.839 11.282s-1.564-17.673-.729-18.666 9.197-.102 9.197-.102z" class="cls-6" data-name="Path 23094" transform="translate(-26.553 -370.637)"/>
                    <path id="Path_23095" d="M33.249 378.156a.554.554 0 0 0 0 .378l.974 2.64a.551.551 0 1 0 1.034-.38l-.974-2.64a.551.551 0 0 0-1.035 0z" class="cls-4" data-name="Path 23095" transform="translate(-27.806 -371.982)"/>
                    <path id="Path_23096" d="M30.271 379.658a.55.55 0 0 0 .1.545l2.216 2.587a.55.55 0 1 0 .835-.717l-2.216-2.587a.55.55 0 0 0-.776-.058.543.543 0 0 0-.159.23z" class="cls-4" data-name="Path 23096" transform="translate(-27.246 -372.264)"/>
                    <path id="Path_23097" d="M28.593 382.918a.551.551 0 0 0 .233.659l2.845 1.718a.551.551 0 1 0 .569-.944l-2.84-1.718a.553.553 0 0 0-.757.187.56.56 0 0 0-.05.098z" class="cls-4" data-name="Path 23097" transform="translate(-26.931 -372.877)"/>
                </g>
                <path id="Path_23098" d="M93.206 350.365s-2.1 11.567-6.8 15.365-26.132 1.389-27.3 1.1 15.937-3.026 17.316-5.363 4.137-11.1 4.137-11.1z" class="cls-7" data-name="Path 23098" transform="translate(-32.661 -232.92)"/>
                <path id="Path_23099" d="M121.52 347.694s8.913-5.283 10.076-4.407 4.519 14.5 4.972 22.028-4 22.056-5.166 22.443-.033-18.212-2.342-24.606-7.54-15.458-7.54-15.458z" class="cls-7" data-name="Path 23099" transform="translate(-44.404 -231.572)"/>
                <path id="Path_23100" d="M77.9 314.247s37.983.756 42.718-3.9c0 0 5.971 6.167 11.054 17.9.577 1.33-23.046 13.278-23.046 13.278l-4.629-7.567v6.089s-24 .716-26.317-.974-1.723-19.399.22-24.826z" class="cls-3" data-name="Path 23100" transform="translate(-35.88 -225.398)"/>
                <path id="Path_23101" d="M62.943 304.36l29.043 9.188-10.533 36.327-30.613-10.786z" class="cls-8" data-name="Path 23101" transform="translate(-31.118 -224.273)"/>
                <path id="Path_23102" d="M66.843 309.013a.813.813 0 0 1-.742-1.141 43.436 43.436 0 0 1 5.285-8.627.813.813 0 0 1 1.265 1.02 42.555 42.555 0 0 0-5.065 8.265.812.812 0 0 1-.743.483z" class="cls-4" data-name="Path 23102" transform="translate(-33.974 -223.255)"/>
                <path id="Path_23103" d="M53.315 339.922l9-20.3 8.541 22.7 4.731 4.958z" class="cls-11" data-name="Path 23103" transform="translate(-31.584 -227.141)"/>
                <g id="Group_1038" data-name="Group 1038" transform="translate(83.163 177.155)">
                    <path id="Path_23104" d="M129.847 423.9s7.457.338 7.42 1.182c-.227 5.159 12.99 8.029 10.671 8.651s-17.74.253-18.669-.653.578-9.18.578-9.18z" class="cls-6" data-name="Path 23104" transform="translate(-128.966 -423.897)"/>
                    <path id="Path_23105" d="M136.732 429.056a.551.551 0 0 0 .376.027l2.7-.776a.551.551 0 1 0-.3-1.059l-2.7.776a.55.55 0 0 0-.073 1.032z" class="cls-4" data-name="Path 23105" transform="translate(-130.365 -424.523)"/>
                    <path id="Path_23106" d="M138.009 431.848a.551.551 0 0 0 .551-.059l2.744-2.02a.55.55 0 0 0-.654-.886l-2.744 2.02a.548.548 0 0 0-.116.769.539.539 0 0 0 .219.176z" class="cls-4" data-name="Path 23106" transform="translate(-130.605 -424.814)"/>
                    <path id="Path_23107" d="M141.137 433.6a.552.552 0 0 0 .675-.184l1.923-2.711a.551.551 0 0 0-.9-.637l-1.924 2.711a.553.553 0 0 0 .131.769.541.541 0 0 0 .095.052z" class="cls-4" data-name="Path 23107" transform="translate(-131.193 -425.014)"/>
                </g>
                <path id="Path_23108" d="M80.245 241.956S54.8 252.5 62.763 279.981c6.369 21.987 52.436 12.123 58.13 12.522 4.068.285 5.327 4.97 5.755 3.3.447-1.745 0-5.336-5.52-7.377-4.538-1.677-34.166-3.639-36.932-16.173-3.175-14.38 6.17-30.723-3.951-30.297z" class="cls-5" data-name="Path 23108" transform="translate(-33.069 -212.542)"/>
                <path id="Path_23109" d="M61.237 271.059s21.624 0 25.556-5.169c1.706-2.242 1.33-22.987-3.948-24.4s-23.409 9.521-21.608 29.569z" class="cls-4" data-name="Path 23109" transform="translate(-33.049 -212.432)"/>
                <path id="Path_23110" d="M123.85 235.178s13.429 12.122 11.586 17.122c-2.777 7.532-14.6 11-17.11 10.276s-13.513-21.873-10.54-22.312c6.134-.909 15.006-6.857 16.064-5.086z" class="cls-4" data-name="Path 23110" transform="translate(-41.727 -211.208)"/>
                <path id="Path_23111" d="M113.863 339.69s17.745-9.042 17.525-10.507-6.351-13.709-8.762-13.831-17.62 3.693-20.86 3.538-7.031 20.8-7.031 20.8 10.011-.581 10.188-.8 2.008-9.015 2.008-9.015z" class="cls-10" data-name="Path 23111" transform="translate(-39.369 -226.339)"/>
                <path id="Path_23112" d="M64.489 280.919s4.819-.735 8.179-1.609S74.713 292 84.5 295.443s16.764 3.725 14.72 4.425-15.71.869-24.2-3.073-11.244-13.064-10.531-15.876z" class="cls-7" data-name="Path 23112" transform="translate(-33.664 -219.557)"/>
                <path id="Path_23113" d="M96.446 312.138a.8.8 0 0 1-.276-.048.813.813 0 0 1-.488-1.039 42.794 42.794 0 0 0 .673-27.189.812.812 0 0 1 1.52-.574 43.736 43.736 0 0 1-.666 28.314.811.811 0 0 1-.763.536z" class="cls-4" data-name="Path 23113" transform="translate(-39.538 -220.214)"/>
                <path id="Path_23114" d="M141.472 246.618s-4.054-4.162-2.74-5.7 8.048-3.85 11.472-5.978 4.95-6.11 4.954-4.557-1.088 9.663-13.686 16.235z" class="cls-7" data-name="Path 23114" transform="translate(-47.59 -210.303)"/>
                <path id="Path_23115" d="M85.537 237.8s5.484 0 5.263-11.3c-.082-4.2 3.483-4.717 4.474-3.532s-2.65 15.839 5.338 15.307c1.065-.069-1.505 15.417-15.075-.475z" class="cls-5" data-name="Path 23115" transform="translate(-37.64 -208.871)"/>
                <path id="Path_23116" d="M98.688 222.45s1.7 8.75-2.383 7.714c-10.222-2.6-5.216-11.809-3.3-12.085a5.427 5.427 0 0 1 5.683 4.371z" class="cls-5" data-name="Path 23116" transform="translate(-38.494 -208.049)"/>
                <path id="Path_23117" d="M94.849 218.23s1.02 4.575-2.715 6.431c-1.639.814-1.528-1.942-2.294-.726-1.265 2.008.678 1.445 1.026 2.815.881 3.475-3.759 4.244-5.2-.809-.3-1.035-.189-2.6 1.508-6.2s7.359-4.586 9.372-3.006 4.518 6.992 3.034 6.7-4.633-2.412-4.731-5.205z" class="cls-4" data-name="Path 23117" transform="translate(-37.64 -207.667)"/>
                <path id="Path_23118" d="M92.979 230.468a5.152 5.152 0 0 0 3.307 2.05s-.3 2.875.411 4.269c.24.472-5.145-1.102-3.718-6.319z" class="cls-7" data-name="Path 23118" transform="translate(-38.994 -210.384)"/>
                <circle id="Ellipse_71" cx="5.702" cy="5.702" r="5.702" class="cls-4" data-name="Ellipse 71" transform="translate(43.889)"/>
            </g>
        </g>
    </g>
</svg>
