<svg xmlns="http://www.w3.org/2000/svg" width="379" height="394" viewBox="0 0 379 394">
    <defs>
        <style>
            .cls-1{fill:#fafbff}.cls-2{fill:#e8edfe}.cls-3{fill:#f4f6fe}.cls-4{fill:#000042}.cls-5{fill:#0b42f5}.cls-6{fill:#1a1e2a}.cls-7{fill:#f1d7a4}.cls-8{fill:#ff5e00}.cls-9{fill:#ff8000}.cls-10{fill:#2b2c3e}.cls-11{fill:#1d71d3}.cls-12{fill:#f70f47}.cls-13{fill:#cf0e3d}.cls-14{fill:#fcfff8}
        </style>
    </defs>
    <g id="industry2" transform="translate(-8.072 -7)">
        <path id="Rectangle_2973" d="M0 0h379v394H0z" class="cls-1" data-name="Rectangle 2973" transform="translate(8.072 7)"/>
        <ellipse id="Ellipse_42" cx="105.518" cy="105.518" class="cls-2" data-name="Ellipse 42" rx="105.518" ry="105.518" transform="translate(77.359 92.54)"/>
        <ellipse id="Ellipse_43" cx="59.821" cy="59.821" class="cls-3" data-name="Ellipse 43" rx="59.821" ry="59.821" transform="translate(221.659 73.976)"/>
        <g id="Group_440" data-name="Group 440" transform="translate(53.776 96.222)">
            <g id="Group_410" data-name="Group 410">
                <g id="Group_380" data-name="Group 380" transform="translate(113.895 101.906)">
                    <path id="Rectangle_2979" d="M0 0h115.757v7.386H0z" class="cls-4" data-name="Rectangle 2979" transform="rotate(90 3.693 3.693)"/>
                </g>
                <g id="Group_381" data-name="Group 381" transform="translate(103.133 215.403)">
                    <path id="Rectangle_2980" d="M0 0h28.91v2.261H0z" class="cls-4" data-name="Rectangle 2980" transform="rotate(180 14.455 1.13)"/>
                </g>
                <g id="Group_382" data-name="Group 382" transform="translate(35.681 58.795)">
                    <path id="Path_21854" d="M1411.975-163.1a.375.375 0 0 1-.33-.2l-7.553-14.01a.378.378 0 0 1 .152-.509.382.382 0 0 1 .509.152l7.553 14.01a.378.378 0 0 1-.152.509.39.39 0 0 1-.179.048z" class="cls-4" data-name="Path 21854" transform="translate(-1404.048 177.858)"/>
                </g>
                <g id="Group_388" data-name="Group 388" transform="translate(0 137.959)">
                    <g id="Group_383" data-name="Group 383" transform="translate(4.272)">
                        <path id="Rectangle_2981" d="M0 0h34.22v7.215H0z" class="cls-4" data-name="Rectangle 2981" transform="rotate(180 17.11 3.608)"/>
                    </g>
                    <g id="Group_386" data-name="Group 386" transform="translate(0 4.69)">
                        <g id="Group_384" data-name="Group 384">
                            <path id="Path_21855" d="M1272.243 148.308l-6.984 75.015h2.469l9.17-74.654z" class="cls-4" data-name="Path 21855" transform="translate(-1265.259 -148.308)"/>
                        </g>
                        <g id="Group_385" data-name="Group 385" transform="translate(31.126)">
                            <path id="Path_21856" d="M1390.984 148.308l6.984 75.015h-2.468l-9.17-74.654z" class="cls-4" data-name="Path 21856" transform="translate(-1386.328 -148.308)"/>
                        </g>
                    </g>
                    <g id="Group_387" data-name="Group 387" transform="translate(3.864 56.328)">
                        <path id="Rectangle_2982" d="M0 0h35.036v3.165H0z" class="cls-4" data-name="Rectangle 2982"/>
                    </g>
                </g>
                <g id="Group_389" data-name="Group 389" transform="translate(107.739 51.635)">
                    <path id="Path_21857" d="M1684.329-158.956l.881-1.94h21.847l18.065-44.812 2.783 1-17.886 45.746z" class="cls-5" data-name="Path 21857" transform="translate(-1684.329 205.708)"/>
                </g>
                <g id="Group_403" data-name="Group 403" transform="translate(7.153)">
                    <g id="Group_390" data-name="Group 390" transform="translate(5.825 108.726)">
                        <path id="Path_21858" d="M1351.389 18.66s53.235 19.706 55.318 22.381-9.05 47.335-10.857 50.953-1.958 13.723-2.629 16.522a9.432 9.432 0 0 1-3.086 4.664l-13.2-3 9.643-53.076s-60.945-9.287-65.885-11.6c-7.508-3.521-4.253-19.7-4.253-19.7l29.92-9.447z" class="cls-6" data-name="Path 21858" transform="translate(-1315.741 -16.357)"/>
                    </g>
                    <g id="Group_393" data-name="Group 393" transform="translate(20.638 7.172)">
                        <g id="Group_391" data-name="Group 391">
                            <path id="Path_21859" d="M1399.705-375.43c1.125 8.428-.827 24.607-3.046 26.9-2.282 2.355-8.4-.709-8.4-.709l-2.786 14.1-12.114-4.233 6.279-39.281z" class="cls-7" data-name="Path 21859" transform="translate(-1373.359 378.656)"/>
                        </g>
                        <g id="Group_392" data-name="Group 392" transform="translate(8.158 26.387)">
                            <path id="Path_21860" d="M1411.491-271.257l.343-1.735c-3.375-1.311-6.741-3.026-6.741-3.026a44.193 44.193 0 0 0 6.398 4.761z" class="cls-4" data-name="Path 21860" transform="translate(-1405.093 276.019)"/>
                        </g>
                    </g>
                    <g id="Group_394" data-name="Group 394" transform="translate(0 38.706)">
                        <path id="Path_21861" d="M1325.443-254.568c13.827 8.085 13.827 73 13.827 73s-10.99-2.791-22.475 6.13c-10.682 8.3-23.713 6.73-23.713 6.73s7.587-100.345 32.361-85.86z" class="cls-8" data-name="Path 21861" transform="translate(-1293.082 255.998)"/>
                    </g>
                    <g id="Group_395" data-name="Group 395" transform="translate(84.402 133.41)">
                        <path id="Path_21862" d="M1633.77 112.37c3.088 1.667 2.713 44.213 5.181 46.982s1.042 5.164.366 8.611 3.892 11.951.738 14.455l-13.1.571-5.579-41.934z" class="cls-6" data-name="Path 21862" transform="translate(-1621.38 -112.37)"/>
                    </g>
                    <g id="Group_396" data-name="Group 396" transform="translate(89.981 203.457)">
                        <path id="Path_21863" d="M1643.082 385.4l2.043 13.636h23.288c-2.608-3.559-10.744-5.828-10.744-5.828l-1.492-8.378z" class="cls-4" data-name="Path 21863" transform="translate(-1643.082 -384.833)"/>
                    </g>
                    <g id="Group_397" data-name="Group 397" transform="translate(63.784 202.553)">
                        <path id="Path_21864" d="M1544.419 381.317l-3.239 15.11h24.033s-.375-4.576-9.47-5.283l1.873-6.831z" class="cls-4" data-name="Path 21864" transform="translate(-1541.181 -381.317)"/>
                    </g>
                    <g id="Group_398" data-name="Group 398" transform="translate(88.13 137.141)">
                        <path id="Path_21865" d="M1636.255 167.545a.375.375 0 0 1-.365-.453c2.3-10.693 8.278-38.69 8.278-39.833a.377.377 0 0 1 .374-.377.374.374 0 0 1 .374.371c.009 1.391-7.445 36.05-8.3 40a.374.374 0 0 1-.361.292z" class="cls-4" data-name="Path 21865" transform="translate(-1635.881 -126.882)"/>
                    </g>
                    <g id="Group_399" data-name="Group 399" transform="translate(77.972 206.647)">
                        <path id="Path_21866" d="M1596.744 403.35a.37.37 0 0 1-.269-.114.375.375 0 0 1-.047-.462c.579-.909 3.546-5.448 5.127-5.525a.753.753 0 0 1 .734.333 1 1 0 0 1 .181.815c-.324 1.748-5 4.581-5.533 4.9a.383.383 0 0 1-.193.053zm4.861-5.355h-.012c-.687.035-2.239 1.877-3.531 3.695 1.7-1.152 3.522-2.616 3.674-3.429a.235.235 0 0 0-.038-.216.1.1 0 0 0-.093-.045z" class="cls-4" data-name="Path 21866" transform="translate(-1596.37 -397.243)"/>
                    </g>
                    <g id="Group_400" data-name="Group 400" transform="translate(104.17 202.935)">
                        <path id="Path_21867" d="M1698.671 392.076a.426.426 0 0 1-.082-.009.377.377 0 0 1-.292-.351c-.029-.737-.243-7.252 1.356-8.623a1.175 1.175 0 0 1 .991-.272 1.091 1.091 0 0 1 .8.623c.9 1.853-2.093 7.76-2.438 8.43a.378.378 0 0 1-.335.202zm1.742-8.527a.4.4 0 0 0-.272.111c-.821.7-1.1 3.888-1.119 6.469 1.093-2.379 2.2-5.416 1.748-6.36a.347.347 0 0 0-.272-.211.416.416 0 0 0-.085-.009z" class="cls-4" data-name="Path 21867" transform="translate(-1698.272 -382.802)"/>
                    </g>
                    <g id="Group_401" data-name="Group 401" transform="translate(104.195 206.887)">
                        <path id="Path_21868" d="M1698.744 403.5a.376.376 0 0 1-.295-.605c.757-.959 4.645-5.7 6.583-4.534a.8.8 0 0 1 .444.76c-.094 1.444-5.063 3.695-6.583 4.349a.385.385 0 0 1-.149.03zm5.566-4.581c-.97 0-2.745 1.555-4.209 3.181 2.654-1.266 4.691-2.578 4.627-3.034a.248.248 0 0 0-.076-.061.662.662 0 0 0-.343-.09z" class="cls-4" data-name="Path 21868" transform="translate(-1698.37 -398.174)"/>
                    </g>
                    <g id="Group_402" data-name="Group 402" transform="translate(18.379)">
                        <path id="Path_21869" d="M1401.455-399.044a4.047 4.047 0 0 0-2.99-1.73 8.9 8.9 0 0 0-4.432 1.449l-12.476-5.308c-3.247-1.381-7.071-3.014-10.46-.921-1.688 1.043-2.733 3.289-1.924 5.1a7.286 7.286 0 0 0-4.228 4.239 11.821 11.821 0 0 0-.157 5.27c.765 5.078 2.5 10.518 4.37 16.361 0 0 3.273-2.956 4.428-4.158s5.325-1.824 5.325-1.824a11 11 0 0 1-3.029-3.26 3.754 3.754 0 0 1 .287-4.2 3.67 3.67 0 0 1 3.994-.624 9.227 9.227 0 0 1 3.313 2.673c1.406 1.606.622 2.861.868 4.981a11.047 11.047 0 0 0 1.986-6.667c4.111.246 8.15-1.561 11.632-3.761a9.988 9.988 0 0 0 3.438-3.166 4.187 4.187 0 0 0 .055-4.454z" class="cls-4" data-name="Path 21869" transform="translate(-1364.569 406.553)"/>
                    </g>
                </g>
                <g id="Group_404" data-name="Group 404" transform="translate(33.758 40.002)">
                    <path id="Path_21870" d="M1402.322-250.737c5.3 1.266 15.867 19.247 21.526 29.308l-18.014 7.236s-18.267-40.068-3.512-36.544z" class="cls-9" data-name="Path 21870" transform="translate(-1396.566 250.957)"/>
                </g>
                <g id="Group_405" data-name="Group 405" transform="translate(45.362 70.625)">
                    <path id="Path_21871" d="M1503.99-108.536c-1.548-.109-11.19 2.52-11.19 2.52l-25.735-7.04-12.412-18.788-12.951 5.2 17.145 22.56h50.794s-4.103-4.343-5.651-4.452z" class="cls-7" data-name="Path 21871" transform="translate(-1441.702 131.844)"/>
                </g>
                <g id="Group_406" data-name="Group 406" transform="translate(59.767 97.84)">
                    <path id="Rectangle_2983" d="M0 0h115.641v7.759H0z" class="cls-4" data-name="Rectangle 2983" transform="rotate(180 57.82 3.88)"/>
                </g>
                <g id="Group_407" data-name="Group 407" transform="translate(28.793 42.627)">
                    <path id="Path_21872" d="M1389.944-207.76a.376.376 0 0 1-.333-.2c-.456-.888-11.184-21.762-12.189-25.4-1.061-3.841 3.224-7.17 3.405-7.311a.38.38 0 0 1 .526.07.377.377 0 0 1-.07.526c-.041.029-4.066 3.163-3.142 6.515.988 3.563 12.026 25.039 12.137 25.255a.38.38 0 0 1-.161.506.4.4 0 0 1-.173.039z" class="cls-4" data-name="Path 21872" transform="translate(-1377.253 240.749)"/>
                </g>
                <g id="Group_408" data-name="Group 408" transform="translate(42.653 71.089)">
                    <path id="Path_21873" d="M1431.539-123.991a.373.373 0 0 1-.348-.234.378.378 0 0 1 .207-.488l13.2-5.3a.378.378 0 0 1 .488.207.379.379 0 0 1-.208.488l-13.2 5.3a.4.4 0 0 1-.139.027z" class="cls-4" data-name="Path 21873" transform="translate(-1431.165 130.04)"/>
                </g>
                <g id="Group_409" data-name="Group 409" transform="translate(44.988 75.451)">
                    <path id="Path_21874" d="M1457.766-89.761a.366.366 0 0 1-.3-.149l-17.144-22.56a.371.371 0 0 1 .073-.523.37.37 0 0 1 .523.073l17.144 22.56a.371.371 0 0 1-.073.523.361.361 0 0 1-.223.076z" class="cls-4" data-name="Path 21874" transform="translate(-1440.248 113.07)"/>
                </g>
            </g>
            <g id="Group_439" data-name="Group 439" transform="translate(119.731 14.789)">
                <g id="Group_437" data-name="Group 437">
                    <g id="Group_411" data-name="Group 411" transform="translate(107.682 6.212)">
                        <path id="Path_21875" d="M2153.449-303.78c-.761 5.71-3.576 11.089-3.623 16.893a7.554 7.554 0 0 0 1 4.227c2.445 3.73 8.233 3.968 12.158 4.473a35.868 35.868 0 0 0 13.436-.428 18.685 18.685 0 0 0 11.013-7.32c3.231-4.841 3.34-11.276 1.479-16.791s-3.415-5.9-7.262-10.265a44.851 44.851 0 0 0-9.307-8.468 19.691 19.691 0 0 0-11.943-3.358c-3.052.244-10.444 2.838-10.276 6.88.042 1.013 1.2 2.28 1.634 3.193a21.32 21.32 0 0 1 1.306 3.53 18.505 18.505 0 0 1 .385 7.434z" class="cls-4" data-name="Path 21875" transform="translate(-2149.826 324.865)"/>
                    </g>
                    <g id="Group_412" data-name="Group 412" transform="translate(82.38 38.129)">
                        <path id="Path_21876" d="M2051.784-178.661a.212.212 0 0 1-.044 0 .375.375 0 0 1-.327-.415l2.537-21.306a.361.361 0 0 1 .167-.269.357.357 0 0 1 .316-.044l7.375 2.292a.373.373 0 0 1 .245.468.374.374 0 0 1-.468.245l-6.945-2.157-2.485 20.859a.375.375 0 0 1-.371.327z" class="cls-4" data-name="Path 21876" transform="translate(-2051.41 200.717)"/>
                    </g>
                    <g id="Group_413" data-name="Group 413" transform="translate(74.363 46.012)">
                        <path id="Path_21877" d="M2020.226-170.057h14.783s-6.053 34.822-5.623 35.253a35.009 35.009 0 0 0 4.193 1.993h-11.925a34.991 34.991 0 0 0 4.193-1.993c.431-.431-5.621-35.253-5.621-35.253z" class="cls-5" data-name="Path 21877" transform="translate(-2020.226 170.057)"/>
                    </g>
                    <g id="Group_419" data-name="Group 419" transform="translate(136.551 126.911)">
                        <g id="Group_414" data-name="Group 414" transform="translate(4.273)">
                            <path id="Rectangle_2984" d="M0 0h34.22v7.215H0z" class="cls-4" data-name="Rectangle 2984" transform="rotate(180 17.11 3.608)"/>
                        </g>
                        <g id="Group_417" data-name="Group 417" transform="translate(0 4.69)">
                            <g id="Group_415" data-name="Group 415">
                                <path id="Path_21878" d="M2269.1 162.86l-6.984 75.015h2.469l9.17-74.654z" class="cls-4" data-name="Path 21878" transform="translate(-2262.117 -162.86)"/>
                            </g>
                            <g id="Group_416" data-name="Group 416" transform="translate(31.126)">
                                <path id="Path_21879" d="M2387.843 162.86l6.984 75.015h-2.469l-9.17-74.654z" class="cls-4" data-name="Path 21879" transform="translate(-2383.188 -162.86)"/>
                            </g>
                        </g>
                        <g id="Group_418" data-name="Group 418" transform="translate(3.864 56.328)">
                            <path id="Rectangle_2985" d="M0 0h35.036v3.165H0z" class="cls-4" data-name="Rectangle 2985"/>
                        </g>
                    </g>
                    <g id="Group_420" data-name="Group 420" transform="translate(37.375 115.858)">
                        <path id="Path_21880" d="M1881.738 179.414c1.141-.027 101.594-63.805 101.594-63.805l-18.545-13.986s-55.817 39.1-63.33 43.282-9.611-.43-12.428 5.474-1.236 10.038-6.423 9.146-6.252 7.387-6.252 7.387z" class="cls-10" data-name="Path 21880" transform="translate(-1876.354 -101.623)"/>
                    </g>
                    <g id="Group_421" data-name="Group 421" transform="translate(7.507 181.147)">
                        <path id="Path_21881" d="M1790.044 355.578l-12.135 9.127s-16.474-7.147-17.685-6.466 20.687 22.343 20.687 22.343l14.517-12.5z" class="cls-4" data-name="Path 21881" transform="translate(-1760.176 -355.578)"/>
                    </g>
                    <g id="Group_422" data-name="Group 422" transform="translate(20.257 173.877)">
                        <path id="Path_21882" d="M1814.689 345.615l-.307-.713c-.643-1.482-6.206-14.548-4.168-17.1a1.39 1.39 0 0 1 1.438-.465c1.684.313 2.578 6.177 3.031 11.108.35-3.651 1.067-7.694 2.531-8.725a1.433 1.433 0 0 1 1.348-.193 1.66 1.66 0 0 1 1.023 1.023c1.315 3.35-4.291 13.934-4.531 14.382zm3.373-15.431a.709.709 0 0 0-.418.143c-1.73 1.222-2.353 8.582-2.505 12.8 1.795-3.633 4.6-10.125 3.751-12.3a.943.943 0 0 0-.573-.59.727.727 0 0 0-.254-.052zm-6.776-2.137a.566.566 0 0 0-.488.216c-1.187 1.488 1.187 8.8 3.449 14.379-.421-7.308-1.485-14.341-2.73-14.572a1.172 1.172 0 0 0-.23-.022z" class="cls-4" data-name="Path 21882" transform="translate(-1809.768 -327.301)"/>
                    </g>
                    <g id="Group_423" data-name="Group 423" transform="translate(87.78 186.29)">
                        <path id="Path_21883" d="M2087.54 390.344l-.7-.33c-1.458-.69-14.265-6.825-14.422-10.09a1.393 1.393 0 0 1 .775-1.3c1.47-.885 6.01 2.929 9.611 6.337-2.148-2.973-4.28-6.48-3.861-8.222a1.432 1.432 0 0 1 .885-1.032 1.652 1.652 0 0 1 1.444.091c3.2 1.648 5.978 13.294 6.094 13.791zm-13.7-11.137a.51.51 0 0 0-.26.061c-.386.231-.421.465-.415.62.094 1.9 6.708 5.826 12.087 8.518-4.815-4.876-9.893-9.199-11.416-9.199zm6.6-2.873a.84.84 0 0 0-.333.067.69.69 0 0 0-.438.514c-.494 2.058 3.9 7.995 6.565 11.263-1.046-3.914-3.224-10.643-5.305-11.713a1.057 1.057 0 0 0-.49-.131z" class="cls-4" data-name="Path 21883" transform="translate(-2072.414 -375.582)"/>
                    </g>
                    <g id="Group_424" data-name="Group 424" transform="translate(81.033 97.691)">
                        <path id="Path_21884" d="M2104.8 34.742s-56.366 21.941-58.383 25.046 9.1 31.643 13.055 36.541c2.143 2.653-2.26 6.433-.181 9.837 5.067 8.295 1.127 8.222 5.188 12.544l12.938-4.007-5.177-45.333s45.224-6.572 58.022-8.974 6.463-29.437 6.463-29.437z" class="cls-10" data-name="Path 21884" transform="translate(-2046.171 -30.959)"/>
                    </g>
                    <g id="Group_425" data-name="Group 425" transform="translate(88.229 181.435)">
                        <path id="Path_21885" d="M2101.6 381.843l-3.395-25.145-12.938 4.007 1.874 13.442c-3.836 1.31-12.981 7.7-12.981 7.7z" class="cls-4" data-name="Path 21885" transform="translate(-2074.161 -356.698)"/>
                    </g>
                    <g id="Group_426" data-name="Group 426" transform="translate(104.942 6.422)">
                        <path id="Path_21886" d="M2139.2-318.65c.867 7.142 8.934 21.695 11.238 23.1 2.369 1.445 6.73-2.363 6.73-2.363l3.22 6.594 9.024-6.037-11.424-26.478s-19.642-1.819-18.788 5.184z" class="cls-7" data-name="Path 21886" transform="translate(-2139.169 324.047)"/>
                    </g>
                    <g id="Group_427" data-name="Group 427" transform="translate(102.265)">
                        <path id="Path_21887" d="M2166.71-311.54c3.67 2.15.658 8.824 4.234 10.942 3.851 2.28 8.807-2.225 11.306-4.758 3.538-3.585 5.734-8.317 4.063-13.382-1.436-4.351-5.391-6.422-9.438-7.967-6.856-2.617-12.777-5.981-17.155-12.066-1.653-2.3-2.484-4.825-4.714-6.531a18.671 18.671 0 0 0-9.164-3.651c-6.609-.716-16.957 3.7-17.085 11.491-.039 2.375 1 4.94 3.135 5.972 3.379 1.63 6.385.764 8.954-1.97.224 1.889.727 8.959 11.83 10.77 8.997 1.04 5.983 6.434 14.034 11.15z" class="cls-4" data-name="Path 21887" transform="translate(-2128.756 349.028)"/>
                    </g>
                    <g id="Group_428" data-name="Group 428" transform="translate(122.937 28.646)">
                        <path id="Path_21888" d="M2209.814-232.345l-.649-1.349c2.486-1.79 4.879-3.909 4.879-3.909a37.359 37.359 0 0 1-4.23 5.258z" class="cls-11" data-name="Path 21888" transform="translate(-2209.165 237.603)"/>
                    </g>
                    <g id="Group_429" data-name="Group 429" transform="translate(118.66 32.035)">
                        <path id="Path_21889" d="M2213.527-154.983S2207.5-175.7 2205.081-180s-11.878-4.118-12.5-11.974c-.418-5.252 1.98-15.655 3.616-21.973a13.944 13.944 0 0 1 5.867-8.169 13.94 13.94 0 0 1 17.976 2.222c4.818 5.326 10.539 12.808 14.005 21.311 6.868 16.849 11.414 39.815 11.414 39.815z" class="cls-12" data-name="Path 21889" transform="translate(-2192.529 224.422)"/>
                    </g>
                    <g id="Group_430" data-name="Group 430" transform="translate(44.846 204.242)">
                        <path id="Rectangle_2986" d="M0 0h29.897v1.91H0z" class="cls-4" data-name="Rectangle 2986"/>
                    </g>
                    <g id="Group_431" data-name="Group 431" transform="translate(105.454 107.638)">
                        <path id="Path_21890" d="M2144.371 112.179a.375.375 0 0 1-.371-.321l-2.835-20a.377.377 0 0 1 .178-.374l36.541-21.784a.375.375 0 1 1 .386.643L2141.942 92l2.8 19.757a.376.376 0 0 1-.319.424.326.326 0 0 1-.052-.002z" class="cls-4" data-name="Path 21890" transform="translate(-2141.161 -69.651)"/>
                    </g>
                    <g id="Group_432" data-name="Group 432" transform="translate(86.097 146.135)">
                        <path id="Path_21891" d="M2074.1 236.691a.376.376 0 0 1-.339-.213l-7.857-16.55a.375.375 0 1 1 .678-.322l7.857 16.551a.378.378 0 0 1-.178.5.4.4 0 0 1-.161.034z" class="cls-4" data-name="Path 21891" transform="translate(-2065.869 -219.391)"/>
                    </g>
                    <g id="Group_433" data-name="Group 433" transform="translate(134.809 107.639)">
                        <path id="Path_21892" d="M2255.716 74.687a.353.353 0 0 1-.178-.047.371.371 0 0 1-.149-.506l2.336-4.285a.373.373 0 0 1 .655.357l-2.336 4.285a.37.37 0 0 1-.328.196z" class="cls-4" data-name="Path 21892" transform="translate(-2255.343 -69.654)"/>
                    </g>
                    <g id="Group_434" data-name="Group 434" transform="translate(55.975 86.87)">
                        <path id="Rectangle_2987" d="M0 0h119.281v7.638H0z" class="cls-4" data-name="Rectangle 2987" transform="rotate(90 3.819 3.819)"/>
                    </g>
                    <g id="Group_435" data-name="Group 435" transform="translate(0 83.051)">
                        <path id="Rectangle_2988" d="M0 0h119.589v7.638H0z" class="cls-4" data-name="Rectangle 2988"/>
                    </g>
                    <g id="Group_436" data-name="Group 436" transform="translate(97.072 36.462)">
                        <path id="Path_21893" d="M2132.208-203.059l-22.253 31.227a7.512 7.512 0 0 0 3.894 11.535h5.736l27.926-30.35a9.871 9.871 0 0 0-.211-13.59 9.871 9.871 0 0 0-15.092 1.178z" class="cls-13" data-name="Path 21893" transform="translate(-2108.556 207.202)"/>
                    </g>
                </g>
                <g id="Group_438" data-name="Group 438" transform="translate(121.888 49.192)">
                    <path id="Path_21894" d="M2205.458-138.529a.37.37 0 0 1-.257-.1.374.374 0 0 1-.015-.529c.117-.123 11.815-12.607 17.062-18.4a.377.377 0 0 1 .529-.026.377.377 0 0 1 .026.529c-5.253 5.8-16.954 18.29-17.073 18.416a.381.381 0 0 1-.272.11z" class="cls-14" data-name="Path 21894" transform="translate(-2205.084 157.686)"/>
                </g>
            </g>
        </g>
    </g>
</svg>
